<svg width="671" height="310" viewBox="0 0 671 310" fill="none" xmlns="http://www.w3.org/2000/svg">
<path d="M492.244 260.853H310.039C304.381 260.853 299.696 256.256 299.696 250.51V246.179C299.696 240.522 304.293 235.837 310.039 235.837H492.244C497.901 235.837 502.587 240.433 502.587 246.179V250.51C502.587 256.256 497.901 260.853 492.244 260.853Z" fill="#175DFD"/>
<path d="M152.677 13.6128H42.1696C39.0754 13.6128 36.5116 11.0493 36.5116 7.95552V5.65726C36.5116 2.56344 39.0754 0 42.1696 0H152.677C155.771 0 158.335 2.56344 158.335 5.65726V8.04391C158.246 11.1377 155.771 13.6128 152.677 13.6128Z" fill="#175DFD"/>
<path d="M231.888 13.6128H170.8C167.706 13.6128 165.142 11.0493 165.142 7.95552V5.65726C165.142 2.56344 167.706 0 170.8 0H231.888C234.983 0 237.546 2.56344 237.546 5.65726V8.04391C237.546 11.1377 234.983 13.6128 231.888 13.6128Z" fill="#175DFD"/>
<path d="M25.8145 41.1035H5.65797C2.56377 41.1035 0 38.5401 0 35.4463V33.0596C0 29.9658 2.56377 27.4023 5.65797 27.4023H25.8145C28.9087 27.4023 31.4725 29.9658 31.4725 33.0596V35.4463C31.4725 38.6285 28.9087 41.1035 25.8145 41.1035Z" fill="#175DFD"/>
<path d="M145.87 41.1035H44.6449C41.5507 41.1035 38.9869 38.5401 38.9869 35.4463V33.0596C38.9869 29.9658 41.5507 27.4023 44.6449 27.4023H145.87C148.964 27.4023 151.528 29.9658 151.528 33.0596V35.4463C151.528 38.6285 148.964 41.1035 145.87 41.1035Z" fill="#94C9ED"/>
<path d="M588.694 260.853H525.749C520.091 260.853 515.406 256.256 515.406 250.51V246.179C515.406 240.522 520.003 235.837 525.749 235.837H588.694C594.352 235.837 599.038 240.433 599.038 246.179V250.51C599.038 256.256 594.441 260.853 588.694 260.853Z" fill="#175DFD"/>
<path d="M660.657 310H340.539C334.881 310 330.196 305.403 330.196 299.658V295.326C330.196 289.669 334.793 284.984 340.539 284.984H660.657C666.315 284.984 671 289.581 671 295.326V299.658C671 305.403 666.403 310 660.657 310Z" fill="#94C9ED"/>
<path d="M142.422 30.9381H465.633C473.59 30.9381 480.043 39.6892 480.043 50.3849V272.432C480.043 283.216 473.59 291.879 465.633 291.879H142.422C134.465 291.879 128.012 283.128 128.012 272.432V50.3849C128.012 39.6008 134.465 30.9381 142.422 30.9381Z" fill="white" stroke="#9CA0AA" stroke-miterlimit="10" stroke-linecap="round" stroke-linejoin="round" stroke-dasharray="15 15"/>
<path d="M193.52 231.152H248.774C251.691 231.152 253.99 233.539 253.99 236.367C253.99 239.284 251.603 241.583 248.774 241.583H193.52C190.603 241.583 188.304 239.196 188.304 236.367C188.304 233.45 190.691 231.152 193.52 231.152Z" fill="white" stroke="#9CA0AA" stroke-miterlimit="10" stroke-linecap="round" stroke-linejoin="round" stroke-dasharray="10 5"/>
<path d="M204.041 91.9304H277.329C280.246 91.9304 282.545 94.3171 282.545 97.1457C282.545 100.063 280.158 102.361 277.329 102.361H204.041C201.123 102.361 198.825 99.9743 198.825 97.1457C198.825 94.3171 201.123 91.9304 204.041 91.9304Z" fill="white" stroke="#9CA0AA" stroke-miterlimit="10" stroke-linecap="round" stroke-linejoin="round" stroke-dasharray="10 5"/>
<path d="M405.959 113.852H413.562C416.48 113.852 418.778 116.239 418.778 119.068C418.778 121.985 416.391 124.283 413.562 124.283H405.959C403.042 124.283 400.743 121.896 400.743 119.068C400.743 116.151 403.042 113.852 405.959 113.852Z" fill="white" stroke="#9CA0AA" stroke-miterlimit="10" stroke-linecap="round" stroke-linejoin="round" stroke-dasharray="10 5"/>
<path d="M193.52 209.23H242.055C244.972 209.23 247.271 211.617 247.271 214.445C247.271 217.362 244.884 219.661 242.055 219.661H193.52C190.603 219.661 188.304 217.274 188.304 214.445C188.304 211.617 190.691 209.23 193.52 209.23Z" fill="white" stroke="#9CA0AA" stroke-miterlimit="10" stroke-linecap="round" stroke-linejoin="round" stroke-dasharray="10 5"/>
<path d="M193.52 135.686H230.651C233.568 135.686 235.867 138.072 235.867 140.901C235.867 143.73 233.48 146.116 230.651 146.116H193.52C190.603 146.116 188.304 143.73 188.304 140.901C188.304 138.072 190.691 135.686 193.52 135.686ZM192.636 253.074H227.822C230.739 253.074 233.038 255.46 233.038 258.289C233.038 261.118 230.651 263.504 227.822 263.504H192.636C189.719 263.504 187.42 261.118 187.42 258.289C187.42 255.46 189.719 253.074 192.636 253.074Z" fill="white" stroke="#9CA0AA" stroke-miterlimit="10" stroke-linecap="round" stroke-linejoin="round" stroke-dasharray="10 5"/>
<path d="M174.513 253.074H176.458C179.375 253.074 181.674 255.461 181.674 258.289C181.674 261.206 179.287 263.504 176.458 263.504H174.513C171.596 263.504 169.297 261.118 169.297 258.289C169.297 255.372 171.596 253.074 174.513 253.074Z" fill="white" stroke="#9CA0AA" stroke-miterlimit="10" stroke-linecap="round" stroke-linejoin="round" stroke-dasharray="10 5"/>
<path d="M264.952 231.152H388.809C391.726 231.152 394.025 233.539 394.025 236.367C394.025 239.284 391.638 241.583 388.809 241.583H264.952C262.035 241.583 259.736 239.196 259.736 236.367C259.736 233.45 262.035 231.152 264.952 231.152Z" fill="white" stroke="#9CA0AA" stroke-miterlimit="10" stroke-linecap="round" stroke-linejoin="round" stroke-dasharray="10 5"/>
<path d="M174.513 91.9304H187.862C190.78 91.9304 193.078 94.3171 193.078 97.1457C193.078 100.063 190.691 102.361 187.862 102.361H174.513C171.596 102.361 169.297 99.9743 169.297 97.1457C169.297 94.3171 171.596 91.9304 174.513 91.9304ZM174.513 157.608H179.287C182.204 157.608 184.503 159.994 184.503 162.823C184.503 165.74 182.116 168.038 179.287 168.038H174.513C171.596 168.038 169.297 165.652 169.297 162.823C169.297 159.994 171.596 157.608 174.513 157.608Z" fill="white" stroke="#9CA0AA" stroke-miterlimit="10" stroke-linecap="round" stroke-linejoin="round" stroke-dasharray="10 5"/>
<path d="M193.52 113.852H389.693C392.61 113.852 394.909 116.239 394.909 119.068C394.909 121.985 392.522 124.283 389.693 124.283H193.52C190.603 124.283 188.304 121.896 188.304 119.068C188.304 116.151 190.691 113.852 193.52 113.852Z" fill="white" stroke="#9CA0AA" stroke-miterlimit="10" stroke-linecap="round" stroke-linejoin="round" stroke-dasharray="10 5"/>
<path d="M174.513 187.397H205.897C208.814 187.397 211.113 189.783 211.113 192.612C211.113 195.529 208.726 197.827 205.897 197.827H174.513C171.596 197.827 169.297 195.441 169.297 192.612C169.297 189.695 171.596 187.397 174.513 187.397Z" fill="white" stroke="#9CA0AA" stroke-miterlimit="10" stroke-linecap="round" stroke-linejoin="round" stroke-dasharray="10 5"/>
<path d="M222.075 187.397H235.425C238.342 187.397 240.641 189.783 240.641 192.612C240.641 195.529 238.254 197.827 235.425 197.827H222.075C219.158 197.827 216.859 195.441 216.859 192.612C216.859 189.695 219.246 187.397 222.075 187.397Z" fill="white" stroke="#9CA0AA" stroke-miterlimit="10" stroke-linecap="round" stroke-linejoin="round" stroke-dasharray="10 5"/>
<path d="M258.322 209.23H427.884C430.801 209.23 433.1 211.617 433.1 214.445C433.1 217.362 430.713 219.661 427.884 219.661H258.322C255.404 219.661 253.106 217.274 253.106 214.445C253.017 211.617 255.404 209.23 258.322 209.23Z" fill="white" stroke="#9CA0AA" stroke-miterlimit="10" stroke-linecap="round" stroke-linejoin="round" stroke-dasharray="10 5"/>
<path d="M246.829 135.686H269.638C272.555 135.686 274.854 138.072 274.854 140.901C274.854 143.818 272.467 146.116 269.638 146.116H246.829C243.912 146.116 241.613 143.73 241.613 140.901C241.613 138.072 244 135.686 246.829 135.686Z" fill="white" stroke="#9CA0AA" stroke-miterlimit="10" stroke-linecap="round" stroke-linejoin="round" stroke-dasharray="10 5"/>
<path d="M429.741 113.852H430.713C433.63 113.852 435.929 116.239 435.929 119.068C435.929 121.985 433.542 124.283 430.713 124.283H429.741C426.823 124.283 424.525 121.896 424.525 119.068C424.525 116.151 426.823 113.852 429.741 113.852Z" fill="white" stroke="#9CA0AA" stroke-miterlimit="10" stroke-linecap="round" stroke-linejoin="round" stroke-dasharray="10 5"/>
<path d="M156.478 65.854C159.359 65.854 161.694 63.519 161.694 60.6387C161.694 57.7584 159.359 55.4234 156.478 55.4234C153.598 55.4234 151.262 57.7584 151.262 60.6387C151.262 63.519 153.598 65.854 156.478 65.854Z" fill="white" stroke="#9CA0AA" stroke-miterlimit="10" stroke-linecap="round" stroke-linejoin="round" stroke-dasharray="10 5"/>
<path d="M172.126 65.854C175.007 65.854 177.342 63.519 177.342 60.6387C177.342 57.7584 175.007 55.4234 172.126 55.4234C169.245 55.4234 166.91 57.7584 166.91 60.6387C166.91 63.519 169.245 65.854 172.126 65.854Z" fill="white" stroke="#9CA0AA" stroke-miterlimit="10" stroke-linecap="round" stroke-linejoin="round" stroke-dasharray="10 5"/>
<path d="M187.862 65.854C190.743 65.854 193.078 63.519 193.078 60.6387C193.078 57.7584 190.743 55.4234 187.862 55.4234C184.982 55.4234 182.646 57.7584 182.646 60.6387C182.646 63.519 184.982 65.854 187.862 65.854Z" fill="white" stroke="#9CA0AA" stroke-miterlimit="10" stroke-linecap="round" stroke-linejoin="round" stroke-dasharray="10 5"/>
</svg>
