<svg width="80" height="81" viewBox="0 0 80 81" fill="none" xmlns="http://www.w3.org/2000/svg">
<g clip-path="url(#clip0_5011_37190)">
<path d="M37.5494 1.80725C37.8604 2.57542 38.4307 3.34359 38.4448 4.12119C38.5202 9.09781 38.4448 14.0791 38.4967 19.0558C38.5394 19.5724 38.4226 20.0897 38.1623 20.538C37.9019 20.9863 37.5104 21.344 37.0404 21.5629C32.6293 24.0889 28.2748 26.7092 23.8448 29.2258C23.3976 29.4245 23.0243 29.7592 22.7781 30.1822C22.5319 30.6052 22.4253 31.0951 22.4734 31.5821C22.53 37.3363 22.5159 43.0906 22.4734 48.8448C22.4734 49.8957 22.7279 50.5555 23.6988 51.1069C28.644 53.9156 33.5593 56.7763 38.4448 59.6887C38.905 60.0211 39.4582 60.2 40.0259 60.2C40.5936 60.2 41.1468 60.0211 41.607 59.6887C45.7825 57.2004 50.0428 54.8582 54.2277 52.384C54.7478 52.0271 55.3654 51.8393 55.9962 51.846C56.627 51.8527 57.2403 52.0538 57.7528 52.4217C61.8717 54.8959 66.0471 57.2805 70.199 59.6934C72.1124 60.8056 72.1454 61.6256 70.2509 62.719C60.4453 68.3742 50.635 74.0295 40.82 79.6847C40.6017 79.8402 40.3968 80.0136 40.2074 80.2031H39.8728C39.6843 80.0187 39.4809 79.85 39.2648 79.6989C28.4916 73.5189 17.712 67.3484 6.92623 61.1874C6.40971 60.9523 5.97899 60.5626 5.69363 60.072C5.40827 59.5815 5.28237 59.0145 5.33333 58.4493C5.38674 46.2308 5.38674 34.0123 5.33333 21.7938C5.33333 20.6911 5.6161 19.97 6.63404 19.3809C14.3912 14.9321 22.1263 10.4441 29.8394 5.91673C32.1062 4.59717 34.3165 3.17865 36.5503 1.80725H37.5494ZM35.8717 5.57742C34.9998 6.04869 34.4814 6.3503 33.9866 6.64249C25.7865 11.3693 17.6194 16.1245 9.40511 20.7995C8.91453 21.0227 8.50642 21.3943 8.23837 21.8619C7.97033 22.3295 7.85588 22.8695 7.91118 23.4056C7.95203 34.647 7.94103 45.8852 7.8782 57.1203C7.8782 58.3692 8.34947 59.0054 9.36741 59.5756C19.1793 65.2309 28.9754 70.9238 38.7558 76.6545C39.7738 77.2483 40.5325 77.1257 41.4751 76.5696C49.8354 71.7061 58.2099 66.8567 66.5985 62.0215C67.0298 61.734 67.4422 61.4192 67.8332 61.079C67.1782 60.6077 66.7493 60.2966 66.2781 60.0233C63.3939 58.3597 60.472 56.7904 57.6444 55.0608C56.4426 54.3209 55.5284 54.3681 54.3455 55.0608C50.104 57.6245 45.7495 60.0704 41.4704 62.6012C40.5278 63.162 39.7078 63.2751 38.704 62.6907C32.8791 59.2976 27.0306 55.9405 21.1586 52.6197C20.7475 52.4113 20.4104 52.0817 20.1929 51.6754C19.9755 51.2691 19.8881 50.8057 19.9427 50.3481C19.9616 43.6467 19.9506 36.9468 19.9097 30.2484C19.8564 29.7095 19.9726 29.1674 20.2421 28.6977C20.5116 28.228 20.921 27.8541 21.4131 27.6282C25.8525 25.1399 30.2353 22.5573 34.6087 19.9512C35.1459 19.626 35.8245 18.9521 35.8387 18.429C35.9188 14.2959 35.8717 10.1487 35.8717 5.57742Z" fill="url(#paint0_linear_5011_37190)"/>
<path d="M74.6102 38.5899C74.6102 44.0661 74.6102 49.5438 74.6102 55.0231C74.6102 57.2758 73.8279 57.7329 71.8863 56.6254C67.6449 54.2172 63.4694 51.7619 59.2185 49.4056C58.7474 49.1856 58.3552 48.8263 58.0947 48.3762C57.8343 47.9262 57.7183 47.4071 57.7623 46.889C57.7623 41.7474 57.6586 36.6012 57.6728 31.4549C57.7162 30.9952 57.6145 30.5335 57.3821 30.1345C57.1496 29.7356 56.7981 29.4194 56.3768 29.2305C51.9892 26.7846 47.6347 24.2633 43.2283 21.8362C42.0831 21.2047 41.5553 20.4837 41.5789 19.1123C41.659 14.1357 41.6213 9.15435 41.6213 4.1636C41.6213 2.20311 42.5167 1.64701 44.2086 2.62254C53.9796 8.24009 63.7317 13.8953 73.4651 19.5883C73.794 19.83 74.0666 20.1401 74.2643 20.4973C74.462 20.8544 74.58 21.2501 74.6102 21.6572C74.7045 27.3124 74.6621 32.9441 74.6621 38.5899H74.6102ZM44.1709 5.78005C44.1709 10.0215 44.218 13.8906 44.1426 17.755C44.1426 18.9851 44.5809 19.6401 45.6224 20.2151C49.9157 22.6138 54.143 25.1351 58.4409 27.5245C59.638 28.1937 60.1517 28.9383 60.1234 30.3804C60.0244 35.3004 60.1234 40.2299 60.0338 45.1547C59.9697 45.7478 60.097 46.3459 60.3972 46.8615C60.6973 47.3771 61.1546 47.7831 61.7021 48.02C64.756 49.6836 67.7344 51.4839 70.7552 53.204C71.2134 53.4186 71.6858 53.6013 72.1691 53.7507C72.2068 52.9731 72.2633 52.3887 72.2633 51.8091C72.2633 42.3412 72.2162 32.8781 72.2633 23.415C72.3174 22.8772 72.202 22.3359 71.9333 21.867C71.6646 21.398 71.256 21.0247 70.7647 20.7994C62.442 16.0867 54.1524 11.3269 45.8533 6.58593C45.3915 6.35972 44.9673 6.17121 44.1709 5.78005Z" fill="url(#paint1_linear_5011_37190)"/>
<path d="M33.0771 29.5698H35.4618V39.5325C36.2252 38.8538 36.6682 38.5051 37.0547 38.1187C39.2791 35.8047 41.4799 33.4719 43.6996 31.158C45.4621 29.32 45.4716 29.3295 48.4736 29.6688L38.9209 39.9802L49.0674 50.711C47.1069 51.0739 45.7072 50.9891 44.3876 49.5375C42.0313 46.9597 39.4911 44.5751 37.017 42.1197C36.6494 41.7569 36.2394 41.4317 35.4995 40.7813V50.8194H33.0771V29.5698Z" fill="url(#paint2_linear_5011_37190)"/>
</g>
<defs>
<linearGradient id="paint0_linear_5011_37190" x1="45.7212" y1="73.7609" x2="14.721" y2="15.6061" gradientUnits="userSpaceOnUse">
<stop stop-color="#FC9501"/>
<stop offset="1" stop-color="#CF5A18"/>
</linearGradient>
<linearGradient id="paint1_linear_5011_37190" x1="77.4284" y1="56.8611" x2="46.4283" y2="-1.29371" gradientUnits="userSpaceOnUse">
<stop stop-color="#FC9501"/>
<stop offset="1" stop-color="#CF5A18"/>
</linearGradient>
<linearGradient id="paint2_linear_5011_37190" x1="55.7877" y1="68.3931" x2="24.7875" y2="10.2383" gradientUnits="userSpaceOnUse">
<stop stop-color="#FC9501"/>
<stop offset="1" stop-color="#CF5A18"/>
</linearGradient>
<clipPath id="clip0_5011_37190">
<rect width="69.3333" height="78.3959" fill="white" transform="translate(5.33325 1.80725)"/>
</clipPath>
</defs>
</svg>
