<svg width="81" height="81" viewBox="0 0 81 81" fill="none" xmlns="http://www.w3.org/2000/svg">
<g clip-path="url(#clip0_5011_37181)">
<path d="M70.9053 59.7785C66.7092 57.3634 62.5131 54.9857 58.3543 52.5426C58.0071 52.2933 57.5905 52.1592 57.1631 52.1592C56.7357 52.1592 56.319 52.2933 55.9719 52.5426C51.3701 55.2374 46.7125 57.8483 42.1061 60.5525C41.0245 61.1912 40.1666 61.2984 39.015 60.6131C33.7746 57.5049 28.4906 54.4666 23.1631 51.4982C22.0209 50.8642 21.4707 50.1508 21.6106 48.892C21.6106 42.831 21.6852 36.798 21.6385 30.7509C21.5816 30.1998 21.6995 29.6447 21.9757 29.1644C22.2518 28.6841 22.6722 28.3029 23.1771 28.0748C27.8394 25.4685 32.4458 22.7551 37.0848 20.1115C37.8494 19.6733 38.3623 19.235 38.353 18.2466C38.3017 13.2719 38.353 8.30188 38.311 3.32718C38.311 1.76997 37.7888 1.46226 36.4461 2.25485C26.6459 7.88693 16.855 13.5206 7.07346 19.1558C6.68333 19.3364 6.35846 19.6331 6.14318 20.0052C5.9279 20.3774 5.8327 20.8069 5.87058 21.2351C5.91255 26.2565 5.87525 31.2778 5.88457 36.3084C5.88457 43.277 5.90322 50.2456 5.94052 57.2142C5.54888 59.0046 6.24823 60.0396 7.89403 60.9441C15.4563 65.1728 22.944 69.5321 30.4317 73.8867C33.6953 75.7889 37.0801 77.5 40.1899 79.6633H40.8007C41.0695 79.4402 41.3513 79.2332 41.6445 79.0432L70.882 62.1936C72.5044 61.2658 72.5044 60.711 70.9053 59.7785Z" fill="url(#paint0_linear_5011_37181)"/>
<path d="M75.1386 38.0428C75.1386 43.6376 75.1386 49.2324 75.1386 54.8272C75.1386 56.762 74.7563 56.9952 73.0872 56.0394C68.8911 53.6429 64.723 51.2046 60.4989 48.8268C60.1097 48.6458 59.786 48.3487 59.5723 47.9764C59.3586 47.6041 59.2653 47.1748 59.3054 46.7474C59.352 41.3624 59.3054 35.9774 59.352 30.5924C59.4059 30.0923 59.2995 29.5879 59.0481 29.1521C58.7967 28.7163 58.4133 28.3717 57.9533 28.168C53.263 25.5198 48.6193 22.7877 43.9244 20.1255C43.5136 19.9355 43.1718 19.6227 42.9464 19.2302C42.7209 18.8377 42.6228 18.3849 42.6656 17.9342C42.7168 13.1647 42.6656 8.39515 42.6889 3.6256C42.6656 1.63479 43.1318 1.38302 44.8289 2.36677L66.4807 14.8245C68.9144 16.2232 71.3155 17.6685 73.7865 18.9926C74.8355 19.5567 75.1852 20.2468 75.1852 21.4263C75.1013 26.9838 75.1386 32.504 75.1386 38.0428Z" fill="url(#paint1_linear_5011_37181)"/>
</g>
<defs>
<linearGradient id="paint0_linear_5011_37181" x1="42.2507" y1="74.8145" x2="27.0655" y2="4.76318" gradientUnits="userSpaceOnUse">
<stop stop-color="#FBA822"/>
<stop offset="1" stop-color="#FFCE3E"/>
</linearGradient>
<linearGradient id="paint1_linear_5011_37181" x1="78.267" y1="54.9577" x2="48.9364" y2="1.40633" gradientUnits="userSpaceOnUse">
<stop stop-color="#FBA822"/>
<stop offset="1" stop-color="#F78D27"/>
</linearGradient>
<clipPath id="clip0_5011_37181">
<rect width="69.3333" height="77.8654" fill="white" transform="translate(5.83325 1.80725)"/>
</clipPath>
</defs>
</svg>
