<svg width="508" height="295" viewBox="0 0 508 295" fill="none" xmlns="http://www.w3.org/2000/svg">
<g opacity="0.5">
<path d="M286.866 140.817L335.926 168.922L372.552 147.742L433.589 183.115L470.276 161.899L506.834 183.115" stroke="url(#paint0_linear)" stroke-width="1.76542" stroke-miterlimit="10" stroke-linecap="round" stroke-linejoin="round"/>
<path d="M242.4 179L316.353 221.844L292.003 235.924L340.834 264.16" stroke="url(#paint1_linear)" stroke-width="1.76542" stroke-miterlimit="10" stroke-linecap="round" stroke-linejoin="round"/>
<path d="M408.937 169.073L372.553 190.099L506.822 267.837" stroke="url(#paint2_linear)" stroke-width="1.76542" stroke-miterlimit="10" stroke-linecap="round" stroke-linejoin="round"/>
<path d="M433.589 225.438L409.175 239.515L445.798 260.695" stroke="url(#paint3_linear)" stroke-width="1.76542" stroke-miterlimit="10" stroke-linecap="round" stroke-linejoin="round"/>
<path d="M280.791 110.602L315.784 90.1553L289.336 74.9402L325.87 53.8114L299.299 39.2764L333.373 19" stroke="url(#paint4_linear)" stroke-width="1.76542" stroke-miterlimit="10" stroke-linecap="round" stroke-linejoin="round"/>
<path d="M315.781 59.6436L342.231 74.9403L368.546 59.6436" stroke="url(#paint5_linear)" stroke-width="1.76542" stroke-miterlimit="10" stroke-linecap="round" stroke-linejoin="round"/>
<path d="M309.404 123.822L356.988 93.8914L383.643 108.989L436.263 78.5019L409.932 63.2758L462.662 32.7816" stroke="url(#paint6_linear)" stroke-width="1.76542" stroke-miterlimit="10" stroke-linecap="round" stroke-linejoin="round"/>
<path d="M409.754 93.8911L427.522 103.959L480.252 73.4645" stroke="url(#paint7_linear)" stroke-width="1.76542" stroke-miterlimit="10" stroke-linecap="round" stroke-linejoin="round"/>
<path d="M237.021 192.379L165.811 232.134L202.526 253.259L136 294" stroke="url(#paint8_linear)" stroke-width="1.76542" stroke-miterlimit="10" stroke-linecap="round" stroke-linejoin="round"/>
<path d="M165.807 274.494L129.089 253.259L92.5615 274.494" stroke="url(#paint9_linear)" stroke-width="1.76542" stroke-miterlimit="10" stroke-linecap="round" stroke-linejoin="round"/>
<path d="M196.123 172.959L141.647 203.754L104.642 182.795L68.1185 203.956" stroke="url(#paint10_linear)" stroke-width="1.76542" stroke-miterlimit="10" stroke-linecap="round" stroke-linejoin="round"/>
<path d="M229.725 150.73L167.706 116.511L129.622 138.534L77.1633 106.748L39.0127 128.81L0.998815 106.748" stroke="url(#paint11_linear)" stroke-width="1.76542" stroke-miterlimit="10" stroke-linecap="round" stroke-linejoin="round"/>
<path d="M255.604 136.615L178.707 92.0659L204.026 77.4254L153.251 48.0648" stroke="url(#paint12_linear)" stroke-width="1.76542" stroke-miterlimit="10" stroke-linecap="round" stroke-linejoin="round"/>
<path d="M102.802 121.351L140.635 99.4873L1.01946 18.6538" stroke="url(#paint13_linear)" stroke-width="1.76542" stroke-miterlimit="10" stroke-linecap="round" stroke-linejoin="round"/>
<path d="M257.92 103.955L220.342 81.5689L258.181 59.7628L194.714 22.9814L169.261 37.7016L105.791 1" stroke="url(#paint14_linear)" stroke-width="1.76542" stroke-miterlimit="10" stroke-linecap="round" stroke-linejoin="round"/>
<path d="M77.1667 62.7411L102.553 48.1038L64.4721 26.0809" stroke="url(#paint15_linear)" stroke-width="1.76542" stroke-miterlimit="10" stroke-linecap="round" stroke-linejoin="round"/>
<path d="M409.232 170.901C407.107 170.901 405.384 169.962 405.384 168.803C405.384 167.643 407.107 166.704 409.232 166.704C411.357 166.704 413.08 167.643 413.08 168.803C413.08 169.962 411.357 170.901 409.232 170.901Z" fill="#358FCC"/>
<path d="M410.631 96.0406C408.505 96.0406 406.783 95.1009 406.783 93.9417C406.783 92.7825 408.505 91.8428 410.631 91.8428C412.756 91.8428 414.479 92.7825 414.479 93.9417C414.479 95.1009 412.756 96.0406 410.631 96.0406Z" fill="#358FCC"/>
<path d="M315.469 61.6783C313.344 61.6783 311.621 60.7386 311.621 59.5794C311.621 58.4202 313.344 57.4805 315.469 57.4805C317.595 57.4805 319.317 58.4202 319.317 59.5794C319.317 60.7386 317.595 61.6783 315.469 61.6783Z" fill="#358FCC"/>
<path d="M77.6061 64.5569C75.4809 64.5569 73.7581 63.6171 73.7581 62.4579C73.7581 61.2988 75.4809 60.359 77.6061 60.359C79.7313 60.359 81.4541 61.2988 81.4541 62.4579C81.4541 63.6171 79.7313 64.5569 77.6061 64.5569Z" fill="#358FCC"/>
<path d="M102.092 123.326C99.9672 123.326 98.2444 122.387 98.2444 121.227C98.2444 120.068 99.9672 119.129 102.092 119.129C104.218 119.129 105.94 120.068 105.94 121.227C105.94 122.387 104.218 123.326 102.092 123.326Z" fill="#358FCC"/>
<path d="M356.759 96.7403C354.634 96.7403 352.911 95.8006 352.911 94.6414C352.911 93.4822 354.634 92.5425 356.759 92.5425C358.885 92.5425 360.607 93.4822 360.607 94.6414C360.607 95.8006 358.885 96.7403 356.759 96.7403Z" fill="#358FCC"/>
<path d="M200.744 106.535C198.619 106.535 196.896 105.596 196.896 104.436C196.896 103.277 198.619 102.337 200.744 102.337C202.869 102.337 204.592 103.277 204.592 104.436C204.592 105.596 202.869 106.535 200.744 106.535Z" fill="#358FCC"/>
<path d="M208.852 33.1832C206.727 33.1832 205.004 32.2435 205.004 31.0843C205.004 29.9251 206.727 28.9854 208.852 28.9854C210.977 28.9854 212.7 29.9251 212.7 31.0843C212.7 32.2435 210.977 33.1832 208.852 33.1832Z" fill="#358FCC"/>
<path d="M433.72 226.872C431.595 226.872 429.872 225.933 429.872 224.774C429.872 223.614 431.595 222.675 433.72 222.675C435.846 222.675 437.568 223.614 437.568 224.774C437.568 225.933 435.846 226.872 433.72 226.872Z" fill="#358FCC"/>
<path d="M167.162 276.547C165.037 276.547 163.314 275.607 163.314 274.448C163.314 273.289 165.037 272.349 167.162 272.349C169.287 272.349 171.01 273.289 171.01 274.448C171.01 275.607 169.287 276.547 167.162 276.547Z" fill="#358FCC"/>
</g>
<g filter="url(#filter0_d)">
<path d="M169.791 162.695C169.779 163.884 170.083 165.054 170.673 166.086C171.263 167.118 172.117 167.974 173.148 168.566L261.55 220.047C262.584 220.65 263.759 220.967 264.955 220.967C266.152 220.967 267.327 220.65 268.361 220.047L356.433 168.554C357.541 167.913 358.442 166.97 359.033 165.835C359.623 164.7 359.877 163.42 359.765 162.146V154.823H169.791V162.695Z" fill="#E6F0F6"/>
<path d="M173.136 160.217L261.538 211.699C262.572 212.301 263.747 212.619 264.943 212.619C266.14 212.619 267.315 212.301 268.348 211.699L356.421 160.205C357.445 159.61 358.294 158.757 358.885 157.731C359.475 156.705 359.786 155.542 359.786 154.359C359.786 153.175 359.475 152.012 358.885 150.986C358.294 149.96 357.445 149.107 356.421 148.512L268.751 97.8972C267.728 97.3093 266.569 97 265.389 97C264.209 97 263.049 97.3093 262.026 97.8972L173.209 148.524C172.182 149.113 171.327 149.96 170.73 150.983C170.133 152.005 169.815 153.166 169.808 154.35C169.8 155.533 170.104 156.698 170.688 157.728C171.272 158.758 172.116 159.616 173.136 160.217Z" fill="white"/>
<path d="M250.186 142.3C249.578 142.615 249.026 143.028 248.55 143.52C248.251 143.94 248.005 144.395 247.818 144.875C247.792 144.957 247.749 145.033 247.692 145.098C247.636 145.163 247.566 145.216 247.489 145.254C247.139 145.407 246.749 145.442 246.378 145.351L243.937 144.973C243.621 144.947 243.312 144.869 243.022 144.741C242.908 144.676 242.809 144.588 242.731 144.483C242.654 144.378 242.599 144.258 242.57 144.131C242.544 143.761 242.581 143.389 242.68 143.032C242.808 142.612 242.971 142.204 243.168 141.812C239.567 141.91 236.006 141.042 232.855 139.297C230.755 138.077 229.596 136.856 229.401 135.538C229.205 134.22 229.95 133.097 231.658 132.108C233.703 131.017 236.037 130.59 238.335 130.888C241.09 131.156 243.753 132.027 246.134 133.439C246.974 133.934 247.789 134.472 248.575 135.05C249.393 135.648 250.174 136.27 251.016 136.978L252.59 136.075C254.214 135.135 254.946 134.257 254.836 133.427C254.726 132.597 253.616 131.62 251.736 130.522C250.779 129.981 249.779 129.52 248.746 129.143C247.635 128.715 246.488 128.337 245.316 128.008C244.927 127.919 244.543 127.805 244.169 127.666C244.01 127.615 243.855 127.554 243.705 127.483C243.351 127.275 243.388 127.056 243.839 126.799L244.889 126.189C245.165 126.011 245.478 125.898 245.804 125.859C246.196 125.854 246.586 125.904 246.964 126.006C248.36 126.321 249.734 126.729 251.077 127.226C252.57 127.764 254.012 128.433 255.385 129.228C258.38 130.921 260.007 132.503 260.267 133.976C260.487 135.44 259.438 136.844 257.082 138.211L250.137 142.3H250.186ZM236.76 138.345C237.698 138.857 238.689 139.266 239.714 139.566C240.933 139.934 242.199 140.128 243.473 140.14C244.224 140.143 244.972 140.041 245.694 139.834C246.429 139.6 247.136 139.289 247.806 138.907L248.709 138.382C248.136 137.882 247.489 137.369 246.769 136.856C246.048 136.344 245.316 135.88 244.535 135.428C243.142 134.567 241.582 134.01 239.958 133.793C238.693 133.631 237.41 133.879 236.296 134.501C235.283 135.087 234.832 135.721 234.942 136.344C235.052 136.966 235.601 137.723 236.76 138.382V138.345ZM254.58 151.234C254.128 150.978 253.896 150.77 253.835 150.563C253.774 150.355 253.896 150.099 254.153 149.782L264.82 136.844C264.998 136.602 265.212 136.388 265.455 136.209C265.626 136.107 265.822 136.053 266.022 136.053C266.222 136.053 266.418 136.107 266.59 136.209L269.031 137.625C269.507 137.894 269.775 138.113 269.8 138.309C269.824 138.504 269.727 138.76 269.47 139.078L259.499 149.684L277.635 143.74C278.044 143.56 278.492 143.488 278.937 143.531C279.381 143.574 279.807 143.73 280.174 143.984L282.2 145.144C282.676 145.412 282.945 145.644 282.994 145.839C283.042 146.035 282.994 146.303 282.64 146.596L272.314 157.263L291.098 151.454C291.532 151.317 291.985 151.251 292.44 151.258C292.87 151.331 293.283 151.48 293.661 151.698L296.017 153.053C296.419 153.285 296.48 153.516 296.114 153.724C295.984 153.79 295.849 153.847 295.711 153.895C295.48 153.978 295.243 154.047 295.004 154.102L272.277 160.205C271.836 160.346 271.373 160.408 270.91 160.388C270.481 160.323 270.067 160.178 269.69 159.961L267.517 158.74C267.041 158.46 266.785 158.24 266.724 158.032C266.663 157.825 266.785 157.569 267.102 157.263L277.05 147.023L259.34 152.772C258.912 152.937 258.455 153.012 257.997 152.992C257.562 152.933 257.145 152.779 256.777 152.54L254.58 151.234ZM286.472 170.225C285.224 169.522 284.043 168.704 282.945 167.784C282.148 167.165 281.445 166.433 280.858 165.612C280.65 165.27 280.589 164.989 280.675 164.818C280.787 164.637 280.942 164.486 281.126 164.379L282.225 163.744C282.41 163.637 282.621 163.581 282.835 163.581C283.049 163.581 283.26 163.637 283.445 163.744C283.594 163.826 283.729 163.929 283.848 164.05L284.263 164.538C284.867 165.284 285.551 165.964 286.301 166.564C287.169 167.266 288.091 167.899 289.06 168.456C290.419 169.283 291.915 169.861 293.478 170.164C294.615 170.422 295.806 170.275 296.846 169.749C297.09 169.651 297.297 169.483 297.443 169.265C297.589 169.047 297.666 168.791 297.664 168.529C297.403 167.695 296.902 166.956 296.224 166.405L293.502 163.732C292.147 162.39 291.513 161.181 291.647 160.144C291.725 159.604 291.934 159.092 292.255 158.652C292.576 158.212 293 157.856 293.49 157.617C294.436 157.079 295.483 156.742 296.566 156.629C297.757 156.483 298.962 156.483 300.154 156.629C301.439 156.78 302.703 157.071 303.926 157.495C305.162 157.917 306.356 158.457 307.489 159.106C308.051 159.436 308.612 159.778 309.113 160.132C309.613 160.486 310.077 160.864 310.529 161.218C310.98 161.572 311.31 161.914 311.639 162.243C311.896 162.499 312.125 162.781 312.323 163.085C312.483 163.299 312.561 163.563 312.542 163.83C312.542 164.013 312.359 164.196 312.066 164.367L311.053 164.953C310.866 165.081 310.648 165.154 310.421 165.165C310.195 165.176 309.97 165.123 309.772 165.014C309.491 164.833 309.25 164.596 309.064 164.318C307.939 162.971 306.563 161.856 305.012 161.035C303.784 160.287 302.439 159.751 301.033 159.448C299.978 159.21 298.872 159.362 297.921 159.875C297.662 159.975 297.444 160.16 297.305 160.399C297.165 160.639 297.111 160.919 297.152 161.193C297.482 162.081 298.037 162.867 298.763 163.476L301.411 166.112C302.742 167.443 303.376 168.553 303.291 169.566C303.206 170.094 302.992 170.593 302.668 171.019C302.345 171.444 301.921 171.784 301.436 172.007C300.459 172.559 299.386 172.92 298.274 173.069C297.026 173.222 295.764 173.222 294.515 173.069C293.143 172.905 291.793 172.594 290.488 172.142C289.093 171.643 287.749 171.013 286.472 170.262V170.225Z" fill="#252F3E"/>
<path fill-rule="evenodd" clip-rule="evenodd" d="M280.785 179.074C267.161 177.115 254.013 172.668 241.997 165.954C227.546 157.605 219.137 147.487 216.952 137.491C216.769 136.698 218.282 136.637 218.734 137.491C224.043 146.608 233.941 155.994 247.526 163.83C258.135 169.78 269.453 174.365 281.212 177.475C283.141 177.915 283.019 179.367 280.785 179.074Z" fill="#FF9900"/>
<path fill-rule="evenodd" clip-rule="evenodd" d="M287.631 179.135C287.729 177.841 281.126 174.741 278.135 173.35C277.244 172.922 277.721 172.507 278.904 172.666C286.52 173.765 293.551 178.769 293.551 179.831C293.551 180.892 285.654 184.102 277.989 183.37C276.768 183.26 276.402 182.735 277.354 182.54C280.479 181.881 287.558 180.404 287.631 179.135Z" fill="#FF9900"/>
</g>
<defs>
<filter id="filter0_d" x="149.791" y="83" width="230" height="163.967" filterUnits="userSpaceOnUse" color-interpolation-filters="sRGB">
<feFlood flood-opacity="0" result="BackgroundImageFix"/>
<feColorMatrix in="SourceAlpha" type="matrix" values="0 0 0 0 0 0 0 0 0 0 0 0 0 0 0 0 0 0 127 0" result="hardAlpha"/>
<feOffset dy="6"/>
<feGaussianBlur stdDeviation="10"/>
<feColorMatrix type="matrix" values="0 0 0 0 0 0 0 0 0 0 0 0 0 0 0 0 0 0 0.1 0"/>
<feBlend mode="normal" in2="BackgroundImageFix" result="effect1_dropShadow"/>
<feBlend mode="normal" in="SourceGraphic" in2="effect1_dropShadow" result="shape"/>
</filter>
<linearGradient id="paint0_linear" x1="505.65" y1="182.845" x2="285.451" y2="148.748" gradientUnits="userSpaceOnUse">
<stop stop-color="#36C5F0" stop-opacity="0"/>
<stop offset="1" stop-color="#9013FE"/>
</linearGradient>
<linearGradient id="paint1_linear" x1="410.319" y1="312.832" x2="299.505" y2="135.423" gradientUnits="userSpaceOnUse">
<stop stop-color="#36C5F0" stop-opacity="0"/>
<stop offset="1" stop-color="#9013FE"/>
</linearGradient>
<linearGradient id="paint2_linear" x1="505.164" y1="268.313" x2="313.259" y2="97.4944" gradientUnits="userSpaceOnUse">
<stop stop-color="#36C5F0" stop-opacity="0"/>
<stop offset="1" stop-color="#9013FE"/>
</linearGradient>
<linearGradient id="paint3_linear" x1="489.625" y1="277.54" x2="335.948" y2="89.6709" gradientUnits="userSpaceOnUse">
<stop stop-color="#36C5F0" stop-opacity="0"/>
<stop offset="1" stop-color="#9013FE"/>
</linearGradient>
<linearGradient id="paint4_linear" x1="333.316" y1="19" x2="253.551" y2="64.1439" gradientUnits="userSpaceOnUse">
<stop stop-color="#36C5F0" stop-opacity="0"/>
<stop offset="1" stop-color="#9013FE"/>
</linearGradient>
<linearGradient id="paint5_linear" x1="376.693" y1="59.5787" x2="284.05" y2="121.793" gradientUnits="userSpaceOnUse">
<stop stop-color="#36C5F0" stop-opacity="0"/>
<stop offset="1" stop-color="#9013FE"/>
</linearGradient>
<linearGradient id="paint6_linear" x1="455.764" y1="43.5676" x2="315.981" y2="86.1398" gradientUnits="userSpaceOnUse">
<stop stop-color="#36C5F0" stop-opacity="0"/>
<stop offset="1" stop-color="#9013FE"/>
</linearGradient>
<linearGradient id="paint7_linear" x1="477.463" y1="81.0881" x2="336.579" y2="87.8537" gradientUnits="userSpaceOnUse">
<stop stop-color="#36C5F0" stop-opacity="0"/>
<stop offset="1" stop-color="#9013FE"/>
</linearGradient>
<linearGradient id="paint8_linear" x1="141.314" y1="331.121" x2="281.547" y2="269.239" gradientUnits="userSpaceOnUse">
<stop stop-color="#36C5F0" stop-opacity="0"/>
<stop offset="1" stop-color="#9013FE"/>
</linearGradient>
<linearGradient id="paint9_linear" x1="128.919" y1="323.138" x2="227.085" y2="175.045" gradientUnits="userSpaceOnUse">
<stop stop-color="#36C5F0" stop-opacity="0"/>
<stop offset="1" stop-color="#9013FE"/>
</linearGradient>
<linearGradient id="paint10_linear" x1="-5.10788" y1="288.66" x2="190.952" y2="231.459" gradientUnits="userSpaceOnUse">
<stop stop-color="#36C5F0" stop-opacity="0"/>
<stop offset="1" stop-color="#9013FE"/>
</linearGradient>
<linearGradient id="paint11_linear" x1="-20.8164" y1="96.6637" x2="235.559" y2="136.214" gradientUnits="userSpaceOnUse">
<stop stop-color="#36C5F0" stop-opacity="0"/>
<stop offset="1" stop-color="#9013FE"/>
</linearGradient>
<linearGradient id="paint12_linear" x1="140.262" y1="41.1193" x2="210.375" y2="165.89" gradientUnits="userSpaceOnUse">
<stop stop-color="#36C5F0" stop-opacity="0"/>
<stop offset="1" stop-color="#9013FE"/>
</linearGradient>
<linearGradient id="paint13_linear" x1="0.898251" y1="14.8623" x2="193.97" y2="200.652" gradientUnits="userSpaceOnUse">
<stop stop-color="#36C5F0" stop-opacity="0"/>
<stop offset="1" stop-color="#9013FE"/>
</linearGradient>
<linearGradient id="paint14_linear" x1="100.081" y1="-8.04863" x2="204.086" y2="183.965" gradientUnits="userSpaceOnUse">
<stop stop-color="#36C5F0" stop-opacity="0"/>
<stop offset="1" stop-color="#9013FE"/>
</linearGradient>
<linearGradient id="paint15_linear" x1="64.52" y1="18.9017" x2="174.745" y2="183.46" gradientUnits="userSpaceOnUse">
<stop stop-color="#36C5F0" stop-opacity="0"/>
<stop offset="1" stop-color="#9013FE"/>
</linearGradient>
</defs>
</svg>
