<svg width="60" height="60" viewBox="0 0 60 60" fill="none" xmlns="http://www.w3.org/2000/svg">
<path d="M4 30.0205C4 26.3564 4 22.7285 4 19.0644C4 16.017 5.30602 13.6952 7.95434 12.099C14.1216 8.43488 20.289 4.77077 26.4926 1.10666C28.9232 -0.344474 31.4627 -0.380752 33.8933 1.07038C40.2058 4.77077 46.4819 8.50743 52.7943 12.2804C55.225 13.7315 56.4222 15.9808 56.4584 18.7742C56.4947 26.2475 56.4947 33.7571 56.4584 41.2305C56.4584 44.0965 55.1887 46.3457 52.6855 47.7968C46.4456 51.5335 40.2058 55.2339 34.0022 58.898C31.499 60.3854 28.9595 60.3491 26.4563 58.898C20.2164 55.1976 14.0128 51.5335 7.77294 47.7968C5.26974 46.3457 4.03628 44.0602 4 41.1942C4 37.4575 4 33.7571 4 30.0205ZM31.1725 58.6078C31.0636 58.5352 31.0273 58.4989 30.9548 58.4627C30.4106 58.2087 30.0115 57.7371 29.8664 57.1566C29.7213 56.6488 29.6125 56.1046 29.6125 55.5604C29.6125 48.2685 29.6125 40.9402 29.6125 33.6483C29.6125 31.9795 30.1929 30.6009 31.4627 29.5126C31.9706 29.0772 32.5148 28.6782 33.0952 28.3154C38.2467 25.1229 43.3982 21.9304 48.5498 18.7379C49.4567 18.1937 50.3274 17.577 51.2706 17.0691C51.7423 16.8152 52.3227 16.5612 52.8669 16.4887C53.8101 16.3073 54.5357 16.7789 55.0436 17.6133C55.0436 17.5407 55.0436 17.4682 55.0436 17.4319C54.6445 15.6543 53.665 14.2757 52.0688 13.2962C45.9014 9.63206 39.7341 6.00423 33.6031 2.30384C31.3538 0.961545 29.1771 0.961545 26.9279 2.30384C23.3726 4.48054 19.8536 6.5484 16.3346 8.65255C13.6138 10.2851 10.8566 11.8813 8.17201 13.5138C6.46693 14.5296 5.55997 16.1259 5.3423 18.0849C5.30602 18.4477 5.26974 18.8105 5.26974 19.137C5.26974 26.4652 5.26974 33.7934 5.26974 41.1216C5.26974 43.516 6.28553 45.4388 8.3534 46.6722C14.5933 50.4089 20.8694 54.1093 27.1093 57.8097C28.379 58.5352 29.685 58.8617 31.1725 58.6078ZM36.6505 48.3773C36.6505 48.8126 36.6505 49.248 36.6505 49.7196C36.6505 50.0824 36.7956 50.1549 37.0858 49.9735C37.3398 49.8284 37.5937 49.6833 37.8114 49.5382C38.0653 49.3931 38.1742 49.1754 38.1742 48.8852C38.1742 48.5224 38.1742 48.1596 38.1379 47.7968C38.1016 47.5066 38.2104 47.3252 38.4281 47.1076C39.7704 45.8378 40.496 44.2778 40.4597 42.4277C40.4234 41.1216 39.8792 40.3961 38.7546 40.1784C38.283 40.0696 37.7751 40.0696 37.3035 40.0333C36.3965 39.9607 36.07 39.5254 36.324 38.6184C36.6142 37.4938 37.8839 36.6957 39.0811 36.8408C39.4439 36.8771 39.6253 36.7682 39.6979 36.4417C39.8067 36.0427 39.8792 35.6436 39.9881 35.2808C40.1332 34.7004 40.0606 34.5915 39.4439 34.6278C39.0086 34.6278 38.5732 34.7366 38.1016 34.8092C38.1016 34.3376 38.1016 33.8297 38.1016 33.3581C38.1016 33.0316 37.9565 32.959 37.6663 33.1404C37.4123 33.2855 37.1221 33.4306 36.9407 33.612C36.7956 33.7571 36.6505 33.9748 36.6142 34.1925C36.5779 34.5915 36.5779 34.9906 36.6142 35.3534C36.6142 35.6073 36.5416 35.7887 36.324 36.0064C35.018 37.2399 34.2924 38.7273 34.4012 40.5775C34.4375 41.6658 35.018 42.3188 36.1063 42.5002C36.6142 42.5728 37.1221 42.5728 37.63 42.6453C38.3193 42.7179 38.6821 43.1532 38.6095 43.8788C38.4644 45.4025 36.8681 46.5997 35.3445 46.2732C34.9091 46.2006 34.8003 46.2732 34.6915 46.7085C34.5826 47.0713 34.5101 47.4703 34.4012 47.8331C34.2561 48.4136 34.3649 48.5587 34.9454 48.5587C35.4896 48.5587 36.0337 48.4499 36.6505 48.3773ZM42.9992 47.9057C43.6522 47.5066 44.2689 47.1801 44.8494 46.8173C45.6475 46.3457 46.4093 45.8015 47.2075 45.3299C47.9693 44.8946 48.187 44.3504 47.933 43.516C47.28 43.8788 46.627 44.2778 45.974 44.6406C45.067 45.1848 44.1238 45.729 43.2169 46.2732C43.108 46.3457 42.9992 46.4183 42.9992 46.5271C42.9992 46.9624 42.9992 47.3978 42.9992 47.9057Z" fill="#2A3238"/>
</svg>
