<?xml version="1.0" encoding="UTF-8"?>
<svg width="1009" height="507" viewBox="0 0 1009 507" fill="none" xmlns="http://www.w3.org/2000/svg">
  <g opacity="0.40346">
    <rect width="119.997" height="35.1912" rx="17.5956" transform="matrix(0.972021 -0.22671 0.189899 0.980323 125.994 290.984)" fill="#449FFF"/>
    <rect width="487.569" height="33.285" rx="16.6425" transform="matrix(0.973593 -0.21588 0.199211 0.977687 141.54 360.597)" fill="#DADEF0"/>
    <rect width="170.261" height="34.6698" rx="17.3349" transform="matrix(0.97243 -0.223969 0.192179 0.979686 644.847 252.226)" fill="#DADEF0"/>
    <rect width="144.128" height="34.9184" rx="17.4592" transform="matrix(0.972232 -0.225307 0.19106 0.979999 42.9729 450.026)" fill="#449FFF"/>
    <rect width="598.983" height="33.0781" rx="16.5391" transform="matrix(0.973769 -0.21461 0.200358 0.977356 271.857 262.111)" fill="#DADEF0"/>
    <rect width="204.423" height="34.4007" rx="17.2003" transform="matrix(0.972651 -0.222471 0.193447 0.97933 0 248.999)" fill="#449FFF"/>
    <rect width="354.054" height="33.6541" rx="16.8271" transform="matrix(0.973279 -0.218114 0.197222 0.978258 227.552 201.003)" fill="#DADEF0"/>
  </g>
</svg>
