<svg width="44" height="44" viewBox="0 0 44 44" fill="none" xmlns="http://www.w3.org/2000/svg">
<path d="M38 32.8226H34.144V42L22.672 32.8226H6C3.792 32.8226 2 31.0161 2 28.7903V6.03226C2 3.80645 3.792 2 6 2H38C40.208 2 42 3.80645 42 6.03226V28.7903C42 31.0161 40.224 32.8226 38 32.8226Z" stroke="#175DFD" stroke-width="3" stroke-miterlimit="10" stroke-linecap="round" stroke-linejoin="round"/>
<path d="M16.8154 11.9832H7.87139C7.10339 11.9832 6.49536 11.3541 6.49536 10.5961C6.49536 9.82189 7.11939 9.20898 7.87139 9.20898H16.8154C17.5834 9.20898 18.1914 9.83802 18.1914 10.5961C18.1914 11.3541 17.5834 11.9832 16.8154 11.9832Z" fill="#9AB8FE"/>
<path d="M35.3924 11.9832H21.0245C20.2565 11.9832 19.6484 11.3541 19.6484 10.5961C19.6484 9.82189 20.2725 9.20898 21.0245 9.20898H35.3924C36.1604 9.20898 36.7685 9.83802 36.7685 10.5961C36.7685 11.3541 36.1604 11.9832 35.3924 11.9832Z" fill="#9AB8FE"/>
<path d="M27.072 18.032H12.24C11.472 18.032 10.864 17.403 10.864 16.6449C10.864 15.8707 11.488 15.2578 12.24 15.2578H27.072C27.84 15.2578 28.448 15.8868 28.448 16.6449C28.448 17.4191 27.824 18.032 27.072 18.032Z" fill="#9AB8FE"/>
<path d="M23.3931 24.7742H12.4971C11.7291 24.7742 11.1211 24.1452 11.1211 23.3871C11.1211 22.6129 11.7451 22 12.4971 22H23.3931C24.1611 22 24.7691 22.629 24.7691 23.3871C24.7691 24.1613 24.1611 24.7742 23.3931 24.7742Z" fill="#9AB8FE"/>
<path d="M30.3348 24.7742H26.8948C26.1268 24.7742 25.5188 24.1452 25.5188 23.3871C25.5188 22.6129 26.1428 22 26.8948 22H30.3348C31.1028 22 31.7108 22.629 31.7108 23.3871C31.7268 24.1613 31.1028 24.7742 30.3348 24.7742Z" fill="#9AB8FE"/>
</svg>
