<svg width="27" height="27" viewBox="0 0 29 27" fill="none" xmlns="http://www.w3.org/2000/svg">
    <path opacity="0.1" d="M0 13.9167C0 6.74862 6.49429 0.916748 14.4766 0.916748C22.4589 0.916748 28.9532 6.74862 28.9532 13.9167C28.9532 21.0849 22.4589 26.9167 14.4766 26.9167C6.49429 26.9167 0 21.0849 0 13.9167Z" fill="#53C2A1"/>
    <path d="M13.6474 18.7158L21.242 11.8958C21.7262 11.4611 21.7262 10.7534 21.2423 10.3184C21.0078 10.1078 20.6959 9.99194 20.3643 9.99194C20.0323 9.99194 19.7204 10.1081 19.486 10.3186L12.7851 16.3358L9.83134 13.5866C9.59505 13.3668 9.27752 13.2458 8.93736 13.2458C8.61417 13.2458 8.30794 13.3567 8.07526 13.5585C7.58237 13.9856 7.56823 14.6928 8.04389 15.1354L11.8754 18.7017C12.1053 18.9158 12.4269 19.04 12.7581 19.0425L12.7691 19.5043V19.0425C13.0959 19.0425 13.4163 18.9234 13.6474 18.7158Z" fill="#3FCF8E"/>
</svg>