<svg width="546" height="431" viewBox="0 0 546 431" fill="none" xmlns="http://www.w3.org/2000/svg">
<g id="CLI Automated Simple UI">
<g id="Rectangle-Copy-10">
<path id="path-2" fill-rule="evenodd" clip-rule="evenodd" d="M50.1 35.0003L490 24.6003C498.5 24.4003 505.3 30.8003 505.2 38.8003L501.4 375.4C501.3 383.7 494.2 390.4 485.6 390.3L38 385.1C30.2 385 24 378.5 24.3 370.5L35.6 49.3003C35.9 41.6003 42.4 35.2003 50.1 35.0003Z" fill="#021457"/>
<g id="Path" filter="url(#filter0_d)">
<path fill-rule="evenodd" clip-rule="evenodd" d="M50.1 35.0003L490 24.6003C498.5 24.4003 505.3 30.8003 505.2 38.8003L501.4 375.4C501.3 383.7 494.2 390.4 485.6 390.3L38 385.1C30.2 385 24 378.5 24.3 370.5L35.6 49.3003C35.9 41.6003 42.4 35.2003 50.1 35.0003Z" fill="url(#paint0_radial)"/>
</g>
</g>
<path id="Rectangle-5-Copy-2" opacity="0.2" d="M125.8 78.9004L281.2 75.9004C283.7 75.9004 285.8 77.8004 285.7 80.3004C285.6 82.8004 283.5 84.8004 281 84.9004L125.5 87.7004C123 87.7004 121.1 85.8004 121.2 83.4004C121.3 81.0004 123.4 79.0004 125.8 78.9004Z" fill="#3C2CC6"/>
<path id="Rectangle-5-Copy-7" opacity="0.2" d="M339.3 95.5002L357.1 95.2002C359.7 95.2002 361.8 97.1002 361.7 99.6002C361.7 102.1 359.5 104.2 356.9 104.2L339.1 104.5C336.5 104.5 334.5 102.6 334.5 100.1C334.6 97.6002 336.8 95.6002 339.3 95.5002Z" fill="#A8E70E"/>
<path id="Rectangle-5-Copy-18" opacity="0.2" d="M107.2 245.2L172.4 245C174.9 245 176.9 247 176.8 249.5C176.7 252 174.6 254 172.1 254L107 254.1C104.5 254.1 102.6 252.1 102.6 249.6C102.7 247.2 104.8 245.2 107.2 245.2Z" fill="#57DFC0"/>
<path id="Rectangle-5-Copy-25" opacity="0.2" d="M104.7 325.2L146.4 325.4C148.9 325.4 150.9 327.5 150.8 330C150.7 332.5 148.6 334.5 146.1 334.5L104.4 334.2C101.9 334.2 99.9 332.1 100 329.7C100.2 327.2 102.2 325.2 104.7 325.2Z" fill="#57DFC0"/>
<path id="Rectangle-5-Copy-12" opacity="0.2" d="M108.5 204.1L184.5 203.6C187 203.6 189 205.6 188.9 208.1C188.8 210.6 186.7 212.6 184.2 212.6L108.2 213C105.7 213 103.8 211 103.9 208.6C104 206.1 106 204.1 108.5 204.1Z" fill="#3C2CC6"/>
<path id="Rectangle-5-Copy-20" opacity="0.2" d="M191 266.7H268.5C271.1 266.7 273.1 268.7 273 271.3C272.9 273.8 270.8 275.9 268.2 275.9H190.6C188.1 275.9 186.1 273.9 186.1 271.4C186.4 268.7 188.5 266.7 191 266.7Z" fill="#3C2CC6"/>
<path id="Rectangle-5-Copy-15" opacity="0.2" d="M107.9 223.7L207.8 223.2C210.3 223.2 212.3 225.2 212.3 227.7C212.2 230.2 210.1 232.2 207.6 232.2L107.7 232.6C105.2 232.6 103.3 230.6 103.3 228.1C103.4 225.7 105.4 223.7 107.9 223.7Z" fill="#3C2CC6"/>
<path id="Rectangle-5-Copy-10" opacity="0.2" d="M111.2 119.7L169.7 118.8C172.2 118.8 174.2 120.7 174.1 123.2C174 125.7 171.9 127.7 169.4 127.7L110.9 128.5C108.4 128.5 106.5 126.6 106.6 124.1C106.6 121.8 108.7 119.8 111.2 119.7Z" fill="#3C2CC6"/>
<path id="Rectangle-5-Copy-22" opacity="0.2" d="M132.4 307.2L191.7 307.4C194.2 307.4 196.2 309.5 196.2 312C196.1 314.5 194 316.5 191.5 316.5L132.2 316.2C129.7 316.2 127.7 314.2 127.8 311.7C127.9 309.3 129.9 307.2 132.4 307.2Z" fill="#3C2CC6"/>
<path id="Rectangle-5-Copy-3" opacity="0.2" d="M85.7 79.7002L110.6 79.2002C113.1 79.2002 115 81.1002 114.9 83.5002C114.9 86.0002 112.8 88.0002 110.4 88.0002L85.5 88.5002C83 88.5002 81.1 86.6002 81.2 84.2002C81.2 81.7002 83.3 79.7002 85.7 79.7002Z" fill="#50E7F1"/>
<path id="Rectangle-5-Copy-4" opacity="0.2" d="M83.8 139.6L108.8 139.3C111.3 139.3 113.2 141.2 113.1 143.7C113 146.1 111 148.2 108.5 148.2L83.5 148.5C81 148.5 79.1 146.6 79.2 144.1C79.3 141.6 81.3 139.6 83.8 139.6Z" fill="#50E7F1"/>
<path id="Rectangle-5-Copy-8" opacity="0.2" d="M111.8 99.4003L323.5 95.8003C326.1 95.8003 328.1 97.7003 328.1 100.2C328 102.7 325.9 104.7 323.3 104.8L111.5 108.3C109 108.3 107.1 106.4 107.2 104C107.3 101.5 109.3 99.5003 111.8 99.4003Z" fill="#3C2CC6"/>
<path id="Rectangle-5-Copy-23" opacity="0.2" d="M133.1 286.5L347.9 286.9C350.5 286.9 352.6 289 352.5 291.5C352.5 294 350.3 296.1 347.7 296.1L132.8 295.6C130.3 295.6 128.3 293.6 128.4 291.1C128.5 288.5 130.6 286.5 133.1 286.5Z" fill="#3C2CC6"/>
<path id="Rectangle-5-Copy-14" opacity="0.2" d="M82.3 183.8L133.4 183.4C135.9 183.4 137.8 185.4 137.8 187.8C137.7 190.3 135.6 192.3 133.2 192.3L82 192.7C79.5 192.7 77.6 190.7 77.7 188.3C77.8 185.9 79.9 183.9 82.3 183.8Z" fill="#3C2CC6"/>
<path id="Rectangle-5-Copy-16" opacity="0.2" d="M149.7 183.2L175.1 183C177.6 183 179.6 185 179.5 187.4C179.4 189.9 177.3 191.9 174.8 191.9L149.4 192.1C146.9 192.1 144.9 190.1 145 187.7C145.1 185.3 147.2 183.3 149.7 183.2Z" fill="#FE13B3"/>
<path id="Rectangle-5-Copy-21" opacity="0.2" d="M77 346.7L102.2 346.9C104.7 346.9 106.7 349 106.6 351.5C106.5 354 104.4 356 101.9 356L76.6 355.8C74.1 355.8 72.2 353.7 72.3 351.3C72.5 348.6 74.5 346.6 77 346.7Z" fill="#FE13B3"/>
<path id="Rectangle-5-Copy-13" opacity="0.2" d="M201 203.5L327.9 202.7C330.5 202.7 332.6 204.7 332.5 207.2C332.4 209.7 330.3 211.8 327.7 211.8L200.8 212.5C198.3 212.5 196.3 210.5 196.3 208C196.3 205.5 198.4 203.5 201 203.5Z" fill="#3C2CC6"/>
<path id="Rectangle-5-Copy-17" opacity="0.2" d="M227.1 223.2L393.6 222.4C396.2 222.4 398.3 224.4 398.3 227C398.3 229.5 396.1 231.6 393.5 231.6L226.9 232.2C224.4 232.2 222.3 230.2 222.4 227.7C222.4 225.2 224.5 223.2 227.1 223.2Z" fill="#3C2CC6"/>
<path id="Rectangle-5-Copy-11" opacity="0.2" d="M185 118.6L250.8 117.6C253.3 117.6 255.4 119.5 255.3 122C255.2 124.5 253.1 126.5 250.6 126.6L184.8 127.5C182.3 127.5 180.3 125.6 180.4 123.1C180.4 120.7 182.5 118.7 185 118.6Z" fill="#175DFD"/>
<path id="Rectangle-5-Copy-24" opacity="0.2" d="M207.4 307.5L274.1 307.7C276.7 307.7 278.7 309.8 278.7 312.3C278.6 314.8 276.5 316.9 273.9 316.9L207.1 316.6C204.6 316.6 202.5 314.5 202.6 312C202.7 309.5 204.9 307.5 207.4 307.5Z" fill="#175DFD"/>
<path id="Rectangle-5-Copy-9" opacity="0.2" d="M374 95.0004L381.5 94.9004C384.1 94.9004 386.2 96.8004 386.1 99.4004C386.1 101.9 383.9 104 381.3 104L373.8 104.1C371.2 104.1 369.1 102.1 369.2 99.6004C369.3 97.1004 371.5 95.0004 374 95.0004Z" fill="#3C2CC6"/>
<path id="Rectangle-5-Copy-19" opacity="0.2" d="M133.7 266.7H171C173.5 266.7 175.5 268.7 175.4 271.2C175.3 273.7 173.2 275.7 170.7 275.7H133.4C130.9 275.7 128.9 273.7 129 271.2C129.1 268.7 131.2 266.7 133.7 266.7Z" fill="#3C2CC6"/>
</g>
<defs>
<filter id="filter0_d" x="0.289551" y="0.595703" width="544.912" height="429.706" filterUnits="userSpaceOnUse" color-interpolation-filters="sRGB">
<feFlood flood-opacity="0" result="BackgroundImageFix"/>
<feColorMatrix in="SourceAlpha" type="matrix" values="0 0 0 0 0 0 0 0 0 0 0 0 0 0 0 0 0 0 127 0"/>
<feOffset dx="8" dy="8"/>
<feGaussianBlur stdDeviation="16"/>
<feColorMatrix type="matrix" values="0 0 0 0 0 0 0 0 0 0 0 0 0 0 0 0 0 0 0.25 0"/>
<feBlend mode="normal" in2="BackgroundImageFix" result="effect1_dropShadow"/>
<feBlend mode="normal" in="SourceGraphic" in2="effect1_dropShadow" result="shape"/>
</filter>
<radialGradient id="paint0_radial" cx="0" cy="0" r="1" gradientUnits="userSpaceOnUse" gradientTransform="translate(556.08 -76.6702) rotate(136.316) scale(906.876 929.546)">
<stop stop-color="white" stop-opacity="0.249945"/>
<stop offset="1" stop-opacity="0.01"/>
</radialGradient>
</defs>
</svg>
