<svg width="50" height="54" viewBox="0 0 50 54" fill="none" xmlns="http://www.w3.org/2000/svg">
<path d="M34.96 9.02002H37.28C38.98 9.02002 40.3601 10.4 40.3601 12.1V48.9C40.3601 50.6 38.98 51.98 37.28 51.98H11.08C9.38002 51.98 8 50.6 8 48.9V12.1C8 10.4 9.38002 9.02002 11.08 9.02002H12.94" stroke="#175DFD" stroke-width="3.5" stroke-miterlimit="10" stroke-linecap="round"/>
<path d="M29.2592 5.08H29.0591C28.1191 5.08 27.3592 4.5 26.9192 3.66C26.3992 2.66 25.3791 2 24.1791 2C22.9791 2 21.9591 2.68 21.4391 3.66C21.0191 4.48 20.2392 5.08 19.2992 5.08H19.1592C18.0392 5.08 17.1191 5.98 17.1191 7.12V11.28C17.1191 12.4 18.0192 13.32 19.1592 13.32H29.2592C30.3792 13.32 31.2992 12.42 31.2992 11.28V7.12C31.2792 6 30.3792 5.08 29.2592 5.08Z" stroke="#5D8DFD" stroke-width="3.5" stroke-miterlimit="10" stroke-linecap="round"/>
<path d="M34.1412 32.3801H15.0612C14.0812 32.3801 13.2812 31.5801 13.2812 30.6001C13.2812 29.6201 14.0812 28.8201 15.0612 28.8201H34.1412C35.1212 28.8201 35.9213 29.6201 35.9213 30.6001C35.9213 31.5801 35.1212 32.3801 34.1412 32.3801Z" fill="#9AB8FE"/>
<path d="M27.5812 26.1201H15.0612C14.0812 26.1201 13.2812 25.3201 13.2812 24.3401C13.2812 23.3601 14.0812 22.5601 15.0612 22.5601H27.5812C28.5612 22.5601 29.3613 23.3601 29.3613 24.3401C29.3613 25.3401 28.5612 26.1201 27.5812 26.1201Z" fill="#9AB8FE"/>
<path d="M27.5812 38.6201H15.0612C14.0812 38.6201 13.2812 37.8201 13.2812 36.8401C13.2812 35.8601 14.0812 35.0601 15.0612 35.0601H27.5812C28.5612 35.0601 29.3613 35.8601 29.3613 36.8401C29.3613 37.8201 28.5612 38.6201 27.5812 38.6201Z" fill="#9AB8FE"/>
</svg>
