<svg width="44" height="27" viewBox="0 0 44 27" fill="none" xmlns="http://www.w3.org/2000/svg">
<path d="M37.8737 24.496C40.2408 23.968 42 21.872 42 19.344C42 16.432 39.633 14.064 36.7221 14.064C36.1783 14.064 35.6506 14.144 35.1548 14.304C35.1548 14.256 35.1548 14.208 35.1548 14.176C35.1548 10.496 32.164 7.504 28.4855 7.504C27.2539 7.504 26.0864 7.84 25.0948 8.432C24.4391 4.768 21.2404 2 17.4019 2C13.0836 2 9.58097 5.504 9.58097 9.824C9.58097 10.352 9.62891 10.88 9.74086 11.376C9.38901 11.312 9.03717 11.296 8.66932 11.296C4.99078 11.296 2 14.288 2 17.968C2 21.6 4.89486 24.544 8.50942 24.64L37.8737 24.496Z" stroke="#175DFD" stroke-width="3" stroke-miterlimit="10" stroke-linecap="round" stroke-linejoin="round"/>
</svg>
