<svg width="36" height="36" viewBox="0 0 36 36" fill="none" xmlns="http://www.w3.org/2000/svg">
<path d="M7.73213 13.7761C10.8979 13.7761 13.4643 11.1399 13.4643 7.88803C13.4643 4.63616 10.8979 2 7.73213 2C4.56636 2 2 4.63616 2 7.88803C2 11.1399 4.56636 13.7761 7.73213 13.7761Z" stroke="#175DFD" stroke-width="3" stroke-miterlimit="10" stroke-linecap="round"/>
<path d="M28.2693 13.7761C31.435 13.7761 34.0014 11.1399 34.0014 7.88803C34.0014 4.63616 31.435 2 28.2693 2C25.1035 2 22.5371 4.63616 22.5371 7.88803C22.5371 11.1399 25.1035 13.7761 28.2693 13.7761Z" stroke="#175DFD" stroke-width="3" stroke-miterlimit="10" stroke-linecap="round"/>
<path d="M7.73213 33.9999C10.8979 33.9999 13.4643 31.3638 13.4643 28.1119C13.4643 24.86 10.8979 22.2239 7.73213 22.2239C4.56636 22.2239 2 24.86 2 28.1119C2 31.3638 4.56636 33.9999 7.73213 33.9999Z" stroke="#175DFD" stroke-width="3" stroke-miterlimit="10" stroke-linecap="round"/>
<path d="M28.2693 33.9999C31.435 33.9999 34.0014 31.3638 34.0014 28.1119C34.0014 24.86 31.435 22.2239 28.2693 22.2239C25.1035 22.2239 22.5371 24.86 22.5371 28.1119C22.5371 31.3638 25.1035 33.9999 28.2693 33.9999Z" stroke="#175DFD" stroke-width="3" stroke-miterlimit="10" stroke-linecap="round"/>
</svg>
