<svg width="111" height="30" viewBox="0 0 111 30" fill="none" xmlns="http://www.w3.org/2000/svg">
<path d="M22.1236 14.9564C22.1054 14.9688 22.0904 14.9853 22.0801 15.0046C22.0698 15.0239 22.0645 15.0454 22.0645 15.0673C22.0645 15.0891 22.0698 15.1106 22.0801 15.1299C22.0904 15.1492 22.1054 15.1657 22.1236 15.1781L25.4636 17.0829C25.7873 17.2689 26.0433 17.5509 26.1953 17.8889C26.2047 17.9006 26.2129 17.9132 26.2198 17.9265C26.2531 17.9833 26.2735 18.0465 26.2796 18.1119C26.3291 18.2739 26.3543 18.4423 26.3544 18.6116V21.4755L28.5603 22.7342V15.6872C28.5608 15.379 28.643 15.0763 28.7988 14.8092C28.9546 14.5422 29.1786 14.3202 29.4483 14.1652L35.6579 10.5988L29.4674 7.06855C29.3403 6.99642 29.1964 6.95847 29.0499 6.95847C28.9033 6.95847 28.7594 6.99642 28.6323 7.06855L26.3544 8.36753V11.5283C26.3542 11.8369 26.2719 12.14 26.1158 12.4074C25.9597 12.6747 25.7353 12.8969 25.465 13.0516L22.1236 14.9564Z" fill="white"/>
<path d="M35.9567 11.5081L29.924 14.9725C29.7976 15.0455 29.6927 15.1498 29.6197 15.2752C29.5467 15.4005 29.5082 15.5425 29.5078 15.6871V22.7475L35.7255 19.2012C35.8523 19.1286 35.9576 19.0244 36.0309 18.899C36.1041 18.7736 36.1428 18.6314 36.143 18.4866V11.4006L35.9567 11.5081Z" fill="white"/>
<path d="M11.1714 13.0516C10.9019 12.8963 10.6783 12.6739 10.5229 12.4066C10.3676 12.1393 10.2859 11.8365 10.2861 11.5283V8.36747L8.00405 7.0685C7.8767 6.99594 7.7322 6.95794 7.58518 6.95835C7.43902 6.9579 7.29538 6.99592 7.16904 7.0685L0.978516 10.5987L7.18808 14.1652C7.45739 14.3205 7.6809 14.5426 7.83644 14.8096C7.99198 15.0766 8.07414 15.3791 8.07477 15.6871V22.7287L10.2861 21.4701V18.6061C10.2863 18.2975 10.3686 17.9944 10.5247 17.7271C10.6808 17.4598 10.9052 17.2376 11.1755 17.0828L14.5114 15.1794C14.5297 15.167 14.5446 15.1505 14.5549 15.1312C14.5652 15.1119 14.5706 15.0904 14.5706 15.0685C14.5706 15.0467 14.5652 15.0252 14.5549 15.0059C14.5446 14.9866 14.5297 14.9701 14.5114 14.9577L11.1714 13.0516Z" fill="white"/>
<path d="M6.71322 14.9725L0.679095 11.5068L0.494141 11.4006V18.4866C0.494353 18.6314 0.533022 18.7736 0.606286 18.899C0.679549 19.0244 0.784842 19.1286 0.911647 19.2012L7.12936 22.7475V15.6871C7.12875 15.5426 7.09005 15.4007 7.01709 15.2754C6.94413 15.1501 6.8394 15.0457 6.71322 14.9725Z" fill="white"/>
<path d="M17.428 22.4332L11.2266 18.8949V25.7458C11.2264 25.8911 11.2651 26.034 11.3386 26.1599C11.4122 26.2858 11.518 26.3904 11.6454 26.4631L17.8468 30V22.6118C17.7001 22.5701 17.5593 22.5101 17.428 22.4332Z" fill="white"/>
<path d="M19.2072 22.4332C19.0764 22.5074 18.9366 22.5648 18.791 22.6038V29.992L24.9924 26.4631C25.1192 26.3905 25.2245 26.2862 25.2978 26.1608C25.371 26.0354 25.4097 25.8932 25.4099 25.7485V18.9191L19.2072 22.4332Z" fill="white"/>
<path d="M24.9918 17.8915L20.9854 15.6078L19.2093 16.6207C18.9383 16.7748 18.6312 16.8558 18.3185 16.8558C18.0059 16.8558 17.6987 16.7748 17.4278 16.6207L15.6517 15.6078L11.6466 17.8915C11.6019 17.9167 11.56 17.9464 11.5215 17.9801L11.8261 18.1534L17.9024 21.6191C18.0294 21.6914 18.1734 21.7294 18.3199 21.7294C18.4665 21.7294 18.6104 21.6914 18.7374 21.6191L24.8572 18.1521L25.1292 17.9949C25.0872 17.9557 25.0412 17.921 24.9918 17.8915Z" fill="white"/>
<path d="M18.791 8.38766V15.7758L24.9924 12.2403C25.1192 12.1676 25.2245 12.0634 25.2978 11.938C25.371 11.8126 25.4097 11.6704 25.4099 11.5256V4.70163L19.2072 8.21706C19.0764 8.2913 18.9366 8.34864 18.791 8.38766Z" fill="white"/>
<path d="M17.8455 8.38632C17.6995 8.3466 17.5592 8.28883 17.428 8.21438L11.2266 4.67746V11.5283C11.2269 11.6732 11.2658 11.8155 11.3393 11.9409C11.4128 12.0663 11.5184 12.1705 11.6454 12.2429L17.8468 15.7799L17.8455 8.38632Z" fill="white"/>
<path d="M24.9918 3.67799L18.736 0.110174C18.6093 0.0380332 18.4655 6.10352e-05 18.3192 6.10352e-05C18.1729 6.10352e-05 18.0292 0.0380332 17.9024 0.110174L11.6466 3.67799C11.6022 3.70321 11.5604 3.73244 11.5215 3.7653L11.8261 3.93993L17.9024 7.40566C18.0295 7.47766 18.1734 7.51554 18.3199 7.51554C18.4664 7.51554 18.6103 7.47766 18.7374 7.40566L24.8572 3.93859L25.1292 3.78142C25.0872 3.74224 25.0412 3.70757 24.9918 3.67799Z" fill="white"/>
<path fill-rule="evenodd" clip-rule="evenodd" d="M52.2601 23.7092C56.1618 23.7092 59.4815 21.2671 60.4267 17.7732C60.5232 17.3903 60.3056 17.1512 59.8936 17.1512H57.0377C56.699 17.1512 56.5045 17.3178 56.3577 17.6295C55.6777 19.0896 54.1042 19.9749 52.2628 19.9749C49.2587 19.9749 47.3194 17.9881 47.3194 14.9966C47.3194 12.005 49.2587 10.0183 52.2628 10.0183C54.1042 10.0183 55.6804 10.9035 56.3577 12.3637C56.5032 12.674 56.6977 12.8419 57.0377 12.8419H59.8936C60.3015 12.8419 60.5232 12.5733 60.4267 12.1703C59.4325 8.67767 56.1374 6.28256 52.2601 6.28256C47.1467 6.28256 43.4395 10.064 43.4395 14.9952C43.4395 19.9265 47.1467 23.7092 52.2601 23.7092ZM72.0828 6.61839H61.6629C61.2753 6.61839 61.0563 6.83466 61.0563 7.2175V9.70664C61.0563 10.0895 61.2753 10.3044 61.6629 10.3044H64.9268V22.7757C64.9268 23.1585 65.1457 23.3734 65.5333 23.3734H68.1988C68.5864 23.3734 68.804 23.1585 68.804 22.7757V10.3044H72.076C72.4636 10.3044 72.6812 10.0895 72.6812 9.70664V7.2175C72.688 6.83466 72.4704 6.61839 72.0828 6.61839ZM82.4783 23.7092C87.3483 23.7092 91.299 19.9278 91.299 14.9966C91.299 10.0653 87.3483 6.28391 82.4783 6.28391C77.6083 6.28391 73.659 10.0653 73.659 14.9966C73.659 19.9278 77.6029 23.7092 82.4783 23.7092ZM82.4783 19.9749C79.7163 19.9749 77.5349 17.9881 77.5349 14.9966C77.5349 12.005 79.7108 10.0183 82.4783 10.0183C85.2459 10.0183 87.4218 12.005 87.4218 14.9966C87.4218 17.9881 85.2404 19.9749 82.4783 19.9749Z" fill="white"/>
<path fill-rule="evenodd" clip-rule="evenodd" d="M93.9932 22.9006C94.6949 22.9006 95.1314 22.5661 95.1314 21.7749C95.1314 20.9837 94.6949 20.6264 93.9932 20.6264C93.2914 20.6264 92.8535 20.9851 92.8535 21.7749C92.8535 22.5648 93.2901 22.9006 93.9932 22.9006ZM101.553 12.9427C103.321 12.9427 104.409 13.9489 104.409 15.5756V16.2231H100.996C98.379 16.2231 96.7552 17.4911 96.7552 19.5974C96.7552 21.7991 98.379 23.0202 100.948 23.0202C102.402 23.0202 103.804 22.4224 104.413 21.2967V22.1645C104.404 22.2668 104.417 22.3698 104.451 22.467C104.484 22.5642 104.538 22.6535 104.608 22.7291C104.678 22.8047 104.764 22.8651 104.859 22.9064C104.954 22.9477 105.057 22.9691 105.161 22.9691C105.265 22.9691 105.368 22.9477 105.463 22.9064C105.558 22.8651 105.644 22.8047 105.714 22.7291C105.784 22.6535 105.838 22.5642 105.872 22.467C105.905 22.3698 105.918 22.2668 105.909 22.1645V15.5823C105.909 13.1415 104.359 11.5134 101.548 11.5134C99.5078 11.5134 98.2036 12.3517 97.525 13.4048C97.4463 13.5249 97.4043 13.6648 97.4039 13.8078C97.4043 13.9919 97.4785 14.1683 97.6103 14.2985C97.742 14.4287 97.9207 14.5019 98.107 14.5023C98.3246 14.5023 98.4946 14.4298 98.7367 14.1665C99.4996 13.3269 100.269 12.9427 101.553 12.9427ZM101.092 21.6272C99.2032 21.6272 98.3301 20.8373 98.3301 19.5921C98.3301 18.2044 99.418 17.557 100.996 17.557H104.413V18.5631C104.413 20.6022 102.789 21.6272 101.092 21.6272ZM110.349 12.4108C110.349 12.2077 110.268 12.0129 110.122 11.8693C109.977 11.7258 109.78 11.6451 109.574 11.6451C109.369 11.6451 109.171 11.7258 109.026 11.8693C108.881 12.0129 108.799 12.2077 108.799 12.4108V22.1296C108.799 22.3326 108.881 22.5274 109.026 22.671C109.171 22.8146 109.369 22.8953 109.574 22.8953C109.78 22.8953 109.977 22.8146 110.122 22.671C110.268 22.5274 110.349 22.3326 110.349 22.1296V12.4108ZM109.574 9.40311C110.156 9.40311 110.495 9.06863 110.495 8.49369C110.495 7.79921 110.156 7.53592 109.574 7.53592C108.992 7.53592 108.653 7.80458 108.653 8.49369C108.653 9.06594 108.992 9.40311 109.574 9.40311Z" fill="white"/>
</svg>
