<svg width="33" height="36" viewBox="0 0 33 36" fill="none" xmlns="http://www.w3.org/2000/svg">
<path d="M2.94505 26.8419L14.7898 33.6799C15.5069 34.0896 16.3904 34.0896 17.1203 33.6799L28.9651 26.8419C29.6821 26.4322 30.1303 25.6639 30.1303 24.8315V11.1557C30.1303 10.3233 29.6821 9.55502 28.9651 9.14526L17.1203 2.30732C16.4032 1.89756 15.5197 1.89756 14.7898 2.30732L2.94505 9.14526C2.22796 9.55502 1.77979 10.3233 1.77979 11.1557V24.8315C1.77979 25.6639 2.22796 26.4322 2.94505 26.8419Z" stroke="white" stroke-width="2.5" stroke-miterlimit="10" stroke-linecap="round" stroke-linejoin="round"/>
<path d="M2.30469 10.1183L14.7897 17.3276C15.5068 17.7373 16.3903 17.7373 17.1202 17.3276L29.8229 9.99023" stroke="white" stroke-width="2.5" stroke-miterlimit="10" stroke-linecap="round" stroke-linejoin="round"/>
<path d="M15.9551 17.9932V33.9996" stroke="white" stroke-width="2.5" stroke-miterlimit="10" stroke-linecap="round" stroke-linejoin="round"/>
</svg>