<svg width="52" height="52" viewBox="0 0 52 52" fill="none" xmlns="http://www.w3.org/2000/svg">
<path d="M32.5615 28.7246L36.9007 31.2602L36.8623 43.5674L26.4367 49.6918L15.915 43.5089V31.2212L19.8703 28.9197" stroke="#175DFD" stroke-width="3" stroke-linecap="round" stroke-linejoin="round"/>
<path d="M15.915 31.2207L26.4559 37.4036L36.9007 31.2597" stroke="#175DFD" stroke-width="3" stroke-linecap="round" stroke-linejoin="round"/>
<path d="M26.4561 37.4043V49.497" stroke="#175DFD" stroke-width="3" stroke-linecap="round" stroke-linejoin="round"/>
<path d="M15.915 20.0645V7.79627L26.3791 1.69141L36.9007 7.81577L36.8623 20.123L26.4367 26.2474L15.915 20.0645Z" stroke="#175DFD" stroke-width="3" stroke-linecap="round" stroke-linejoin="round"/>
<path d="M15.915 7.7959L26.4559 13.9593L36.9007 7.8154" stroke="#175DFD" stroke-width="3" stroke-linecap="round" stroke-linejoin="round"/>
<path d="M26.4561 13.96V26.0722" stroke="#175DFD" stroke-width="3" stroke-linecap="round" stroke-linejoin="round"/>
<path d="M9.19503 37.4038L1.5918 32.9373V20.6691L9.94383 15.793" stroke="#175DFD" stroke-width="3" stroke-linecap="round" stroke-linejoin="round"/>
<path d="M1.5918 20.6689L9.94383 25.5645" stroke="#175DFD" stroke-width="3" stroke-linecap="round" stroke-linejoin="round"/>
<path d="M41.5661 37.6574L49.5918 32.9373V20.6691L41.2397 15.793" stroke="#175DFD" stroke-width="3" stroke-linecap="round" stroke-linejoin="round"/>
<path d="M49.5918 20.6689L41.2397 25.5645" stroke="#175DFD" stroke-width="3" stroke-linecap="round" stroke-linejoin="round"/>
</svg>
