<svg width="120" height="27" viewBox="0 0 120 27" fill="none" xmlns="http://www.w3.org/2000/svg">
<path d="M7.86926 0.34903H0V20.5749H7.86926C13.4019 20.5749 17.887 16.0471 17.887 10.4623C17.887 4.87737 13.4019 0.34903 7.86926 0.34903ZM7.15402 16.9656H4.29168V6.1281L2.14514 3.96059H7.15402C10.7108 3.96059 13.5939 6.87139 13.5939 10.4617C13.5939 14.052 10.7105 16.9631 7.15402 16.9631V16.9656ZM32.7924 11.6109C32.7763 8.2046 30.2819 5.91775 25.7375 5.91775C20.7977 5.91775 19.0878 9.06894 18.8707 10.4387H23.3491C23.4848 10.1371 24.1629 9.28779 25.7375 9.28779C27.5557 9.28779 28.5327 10.2746 28.5327 11.5897H24.1087C20.6623 11.5897 18.543 13.1517 18.543 16.0009C18.543 18.7955 20.9855 20.7957 24.2427 20.7957C26.4083 20.7957 27.8172 19.8529 28.5293 18.9724V20.5256H32.8016V11.6129L32.7924 11.6109ZM25.4932 17.6715C23.8936 17.6715 22.8875 16.9869 22.8875 15.8632C22.8875 14.8497 23.7294 14.3842 25.1132 14.3842H28.5327V15.3708C28.5327 16.7955 27.23 17.6718 25.4932 17.6718V17.6715ZM35.008 0.398922H39.2803V4.71182H35.008V0.398922ZM35.008 6.14936H39.2803V20.5253H35.008V6.14936ZM41.4164 0.398922H45.6887V20.5256H41.4164V0.398922ZM54.918 26.2774H50.4101L52.8164 20.3887L46.4006 6.14964H51.4887L55.0837 14.8874L58.6778 6.14964H63.2132L54.918 26.2774Z" fill="#031831"/>
<path d="M77.7305 0.398407V6.14913L79.8661 8.30501H69.1856V0.39869H64.9133V20.5254H69.1856V14.7746L67.0494 12.6182H77.7305V20.5254H82.0022V0.398407H77.7305ZM84.1386 6.14884H88.4109V20.5248H84.1386V6.14884ZM84.1386 0.398407H88.4109V4.71131H84.1386V0.398407ZM99.7766 20.5251H95.2923L89.1228 6.14913H94.096L97.6295 15.0924L101.162 6.14828H105.673L99.7766 20.5251ZM120 13.4187V14.1878H109.305C109.522 15.9692 110.825 17.3118 112.779 17.3118C114.517 17.3118 115.249 16.5175 115.494 16.2139H119.864C119.647 17.8853 117.639 20.7904 112.779 20.7904C107.975 20.7904 104.961 17.6387 104.961 13.3365C104.961 8.84277 108.056 5.88265 112.481 5.88265C116.962 5.88294 120 8.78806 120 13.4187ZM109.386 11.4755H115.575C115.17 9.96622 114.083 9.1169 112.483 9.1169C110.852 9.1169 109.796 10.0212 109.386 11.4755H109.386Z" fill="#14CCDC"/>
</svg>
