<svg width="44" height="44" viewBox="0 0 44 44" fill="none" xmlns="http://www.w3.org/2000/svg">
<path d="M36.2416 7.57031L38.4701 9.8945C38.893 10.3433 38.893 11.0325 38.4864 11.4814L36.4693 13.6773C36.144 14.0299 36.0789 14.5268 36.2741 14.9436L37.6405 17.8608C37.8357 18.2776 38.2586 18.534 38.7141 18.534H40.8125C41.4632 18.534 42 19.047 42 19.7042V24.593C42 25.2341 41.4795 25.7631 40.8125 25.7631H38.6002C38.096 25.7631 37.6405 26.0836 37.4778 26.5645L36.3554 29.9306C36.2253 30.3313 36.3229 30.7641 36.5994 31.0686L38.405 33.0402C38.8442 33.521 38.8117 34.2744 38.3074 34.6911L34.1269 38.2976C33.6389 38.7144 32.9231 38.6823 32.4839 38.2175L31.0199 36.6787C30.6946 36.3421 30.2066 36.2139 29.7674 36.3742L26.7255 37.416C26.2538 37.5763 25.9284 38.0251 25.9284 38.522V40.8302C25.9284 41.4713 25.4079 42.0003 24.741 42.0003H19.1777C18.527 42.0003 17.9902 41.4874 17.9902 40.8302V38.522C17.9902 38.0251 17.6649 37.5924 17.1932 37.416L14.2001 36.3742C13.7609 36.2299 13.2729 36.3421 12.9475 36.6787L11.4835 38.2175C11.0443 38.6823 10.3286 38.7144 9.84059 38.2976L5.66002 34.6911C5.15575 34.2584 5.12322 33.521 5.56242 33.0402L7.36804 31.0686C7.64457 30.7641 7.74217 30.3313 7.61204 29.9306L6.48963 26.5645C6.32696 26.0836 5.87149 25.7631 5.36722 25.7631H3.18747C2.52054 25.7631 2 25.2341 2 24.593V19.7042C2 19.063 2.52054 18.534 3.18747 18.534H5.28589C5.74136 18.534 6.16429 18.2776 6.3595 17.8608L7.7259 14.9436C7.92111 14.5268 7.83977 14.0299 7.5307 13.6773L5.49736 11.4974C5.07442 11.0325 5.09069 10.3433 5.51362 9.91053L7.54697 7.79472" stroke="white" stroke-width="3" stroke-miterlimit="10" stroke-linecap="round" stroke-linejoin="round"/>
<path d="M19.0348 18.791L13.0974 24.6415C12.5281 25.2026 12.9348 26.1643 13.7481 26.1643H29.5269C30.3402 26.1643 30.7469 25.2026 30.1775 24.6415L24.2402 18.791" stroke="white" stroke-width="3" stroke-miterlimit="10" stroke-linecap="round" stroke-linejoin="round"/>
<path d="M18.8884 11.5605L13.0974 17.2668C12.5281 17.8278 12.9348 18.7896 13.7481 18.7896H29.5269C30.3402 18.7896 30.7469 17.8278 30.1775 17.2668L24.3866 11.5605" stroke="white" stroke-width="3" stroke-miterlimit="10" stroke-linecap="round" stroke-linejoin="round"/>
<path d="M30.1775 10.0385L22.2882 2.26448C21.9303 1.91184 21.361 1.91184 21.0031 2.26448L13.0974 10.0385C12.5281 10.5995 12.9348 11.5612 13.7481 11.5612H29.5269C30.3402 11.5612 30.7469 10.5995 30.1775 10.0385Z" stroke="white" stroke-width="3" stroke-miterlimit="10" stroke-linecap="round" stroke-linejoin="round"/>
</svg>
