<svg width="44" height="44" viewBox="0 0 44 44" fill="none" xmlns="http://www.w3.org/2000/svg">
<path d="M8.01562 15.9836C8.01562 11.5836 11.5836 8.01562 15.9836 8.01562H30.0316" stroke="#9AB8FE" stroke-width="3" stroke-miterlimit="10" stroke-linecap="round"/>
<path d="M8.01562 28.0156C8.01562 32.4156 11.5836 35.9836 15.9836 35.9836H30.1436" stroke="#9AB8FE" stroke-width="3" stroke-miterlimit="10" stroke-linecap="round"/>
<path d="M8.01599 28.0164C11.3385 28.0164 14.032 25.3229 14.032 22.0004C14.032 18.6778 11.3385 15.9844 8.01599 15.9844C4.69345 15.9844 2 18.6778 2 22.0004C2 25.3229 4.69345 28.0164 8.01599 28.0164Z" stroke="#175DFD" stroke-width="3" stroke-miterlimit="10" stroke-linecap="round"/>
<path d="M35.9847 14.032C39.3073 14.032 42.0008 11.3386 42.0008 8.016C42.0008 4.69346 39.3073 2 35.9847 2C32.6622 2 29.9688 4.69346 29.9688 8.016C29.9688 11.3386 32.6622 14.032 35.9847 14.032Z" stroke="#175DFD" stroke-width="3" stroke-miterlimit="10" stroke-linecap="round"/>
<path d="M35.9847 41.9998C39.3073 41.9998 42.0008 39.3063 42.0008 35.9838C42.0008 32.6612 39.3073 29.9678 35.9847 29.9678C32.6622 29.9678 29.9688 32.6612 29.9688 35.9838C29.9688 39.3063 32.6622 41.9998 35.9847 41.9998Z" stroke="#175DFD" stroke-width="3" stroke-miterlimit="10" stroke-linecap="round"/>
</svg>
