<svg width="80" height="81" viewBox="0 0 80 81" fill="none" xmlns="http://www.w3.org/2000/svg">
<path d="M40 75.0622V61.6504C54.1961 61.6504 65.2157 47.572 59.7647 32.6308C57.7647 27.1014 53.3333 22.67 47.8039 20.67C32.8627 15.2583 18.7843 26.2387 18.7843 40.4347H5.41174C5.41174 17.8073 27.2941 0.160226 51.0196 7.57199C61.3725 10.8269 69.647 19.0622 72.8627 29.4151C80.2745 53.1798 62.6666 75.0622 40 75.0622Z" fill="#0080FF"/>
<path d="M40.0395 61.6895H26.7062V48.3562H40.0395V61.6895Z" fill="#0080FF"/>
<path d="M26.7062 71.9641H16.4316V61.6896H26.7062V71.9641Z" fill="#0080FF"/>
<path d="M16.4313 61.6897H7.84302V53.1014H16.4313V61.6897Z" fill="#0080FF"/>
</svg>
