<svg width="32" height="32" viewBox="0 0 18 19" fill="none" xmlns="http://www.w3.org/2000/svg">
<path d="M4.56693 13.3728H1.84379C1.37715 13.3728 1 12.9868 1 12.5184V2.32844C1 1.85375 1.37715 1.474 1.84379 1.474H9.02879C9.49543 1.474 9.87258 1.85375 9.87258 2.32844V3.52465" stroke="#9AB8FE" stroke-width="1.5" stroke-miterlimit="10" stroke-linecap="round"/>
<path d="M7.66661 15.4235H5.41044C4.9438 15.4235 4.56665 15.0437 4.56665 14.5691V4.3791C4.56665 3.90441 4.9438 3.52466 5.41044 3.52466H12.5954C13.0621 3.52466 13.4392 3.90441 13.4392 4.3791V5.14072" stroke="#5D8DFD" stroke-width="1.5" stroke-miterlimit="10" stroke-linecap="round"/>
<path d="M15.2998 12.0437H10.0644C9.79595 12.0437 9.57861 11.8286 9.57861 11.5627V11.5374C9.57861 11.2716 9.79595 11.0564 10.0644 11.0564H15.2998C15.5682 11.0564 15.7856 11.2716 15.7856 11.5374V11.5564C15.7856 11.8286 15.5682 12.0437 15.2998 12.0437Z" fill="#9AB8FE"/>
<path d="M13.5035 10.3095H10.0644C9.79595 10.3095 9.57861 10.0943 9.57861 9.8285V9.80951C9.57861 9.54368 9.79595 9.32849 10.0644 9.32849H13.5035C13.772 9.32849 13.9893 9.54368 13.9893 9.80951V9.8285C13.9893 10.0943 13.772 10.3095 13.5035 10.3095Z" fill="#9AB8FE"/>
<path d="M13.5035 13.7716H10.0644C9.79595 13.7716 9.57861 13.5564 9.57861 13.2905V13.2715C9.57861 13.0057 9.79595 12.7905 10.0644 12.7905H13.5035C13.772 12.7905 13.9893 13.0057 13.9893 13.2715V13.2905C13.9893 13.5564 13.772 13.7716 13.5035 13.7716Z" fill="#9AB8FE"/>
<path d="M16.1562 5.57532C16.6228 5.57532 17 5.95507 17 6.42976V16.6197C17 17.0944 16.6228 17.4742 16.1562 17.4742H8.97758C8.51094 17.4742 8.13379 17.0944 8.13379 16.6197V6.42976C8.13379 5.95507 8.51094 5.57532 8.97758 5.57532H16.1562Z" stroke="#175DFD" stroke-width="1.5" stroke-miterlimit="10" stroke-linecap="round"/>
</svg>
