<svg width="40" height="44" viewBox="0 0 40 44" fill="none" xmlns="http://www.w3.org/2000/svg">
<path d="M26.2554 6.23978C27.9194 6.84778 29.3914 7.80778 30.5594 9.15178C31.2154 9.90378 31.4714 10.7678 31.1354 11.7598C30.5434 13.4718 28.3034 13.8558 27.0554 12.5438C25.4394 10.8638 23.4234 10.2398 21.1994 10.0798C19.5514 9.95178 17.9193 10.0638 16.3673 10.6558C14.6233 11.3278 13.2473 12.8958 12.9753 14.7358C12.7513 16.2718 13.3273 17.3438 14.6233 17.9838C15.9673 18.6558 17.4234 18.7998 18.8954 18.8158C21.2314 18.8478 23.5193 19.0398 25.7753 19.6798C33.2473 21.7758 34.4633 31.1518 29.4713 35.7278C27.6793 37.3598 25.6474 38.4798 23.2954 39.0078C18.0794 40.1438 13.1994 38.0958 13.1994 38.0958C11.3594 37.4238 9.77538 36.3198 8.60738 34.6718C8.09538 33.9358 7.82335 33.1518 8.12735 32.2558C8.43135 31.3438 9.07137 30.7838 9.99937 30.6078C10.9114 30.4318 11.7754 30.6718 12.2874 31.4398C13.2794 32.9118 14.7353 33.6318 16.3673 34.0158C18.7353 34.5758 21.1354 34.7998 23.4554 33.8398C24.2554 33.5038 25.0234 33.0558 25.6954 32.5118C27.1034 31.3758 27.7433 29.6318 27.4713 27.8398C27.1993 25.9678 26.0794 24.7358 24.4954 24.3838C22.9754 24.0478 21.4074 23.8238 19.8554 23.7438C17.3594 23.6318 14.8953 23.5038 12.5753 22.4158C8.95935 20.7038 7.27934 16.5118 8.36734 12.6558C9.37534 9.11978 11.8234 6.99178 15.2634 5.87178C15.2954 5.88778 20.7994 4.36778 26.2554 6.23978Z" fill="#175DFD"/>
<path d="M19.8867 2V42" stroke="#175DFD" stroke-width="3" stroke-miterlimit="10" stroke-linecap="round"/>
</svg>
