<svg width="91" height="26" viewBox="0 0 91 26" fill="none" xmlns="http://www.w3.org/2000/svg">
    <path d="M24.2772 13.2347C24.2772 10.6999 24.2772 8.16474 24.2772 5.62927C24.2772 5.34907 24.2715 5.06887 24.2449 4.78868C24.1309 3.60438 23.6652 3.14672 22.4565 3.0141C22.409 3.01328 22.3617 3.00859 22.315 3.00009C22.162 2.95526 21.876 3.04959 21.8874 2.83664C21.8988 2.62369 22.1724 2.72549 22.3254 2.72549C26.821 2.71896 31.3175 2.72549 35.8131 2.71242C36.1666 2.71242 36.3015 2.79554 36.3367 3.157C36.5172 5.04552 36.7272 6.93125 36.9211 8.81884C36.9315 8.92531 37.0161 9.09904 36.8355 9.13079C36.655 9.16255 36.6664 8.98602 36.6369 8.87208C36.4013 7.96891 36.1495 7.07228 35.8292 6.19153C35.1308 4.27778 33.7663 3.28776 31.6995 3.18315C30.0375 3.09909 28.3737 3.16447 26.7146 3.13365C26.4456 3.12804 26.3592 3.22705 26.3592 3.48483C26.3661 6.45616 26.3661 9.42687 26.3592 12.3969C26.3592 12.6678 26.4599 12.7407 26.7203 12.7369C27.7969 12.7229 28.8745 12.7519 29.9511 12.7154C31.4543 12.6641 32.3153 12.0206 32.8274 10.6298C33.0204 10.0709 33.1619 9.49605 33.2503 8.91224C33.2712 8.78802 33.2408 8.58254 33.4403 8.59935C33.6123 8.6143 33.5525 8.79642 33.5534 8.9085C33.5534 11.6152 33.5534 14.3216 33.5534 17.0277C33.5534 17.1444 33.6009 17.3275 33.4498 17.349C33.2465 17.377 33.2712 17.1678 33.2493 17.0435C33.1462 16.4144 32.9872 15.7953 32.7742 15.1933C32.3248 13.9604 31.4306 13.2796 30.1136 13.2114C28.9609 13.1525 27.8035 13.1936 26.648 13.1759C26.2727 13.1703 26.3554 13.4215 26.3554 13.6223C26.3516 15.6149 26.3516 17.6074 26.3554 19.5999C26.3554 20.7038 26.3554 21.8081 26.3554 22.9127C26.3554 23.1229 26.3373 23.3162 26.6575 23.3087C28.6027 23.2592 30.5535 23.418 32.493 23.1892C34.3668 22.9688 35.6382 22.0002 36.2882 20.2443C36.7063 19.1123 36.9439 17.942 37.1434 16.7596C37.1634 16.6363 37.1881 16.5149 37.2109 16.3926C37.2308 16.2889 37.2232 16.1441 37.381 16.1675C37.5387 16.1908 37.4808 16.3365 37.4713 16.4346C37.3876 17.3013 37.3018 18.1678 37.2137 19.0339C37.0693 20.4573 36.9106 21.8797 36.7842 23.305C36.7548 23.631 36.6759 23.7496 36.3139 23.7487C31.6273 23.7356 26.9417 23.7412 22.2551 23.7346C22.124 23.7346 21.875 23.8402 21.875 23.6114C21.875 23.4124 22.1259 23.4825 22.2693 23.4694C22.5852 23.4468 22.8977 23.3911 23.2015 23.3031C23.4244 23.242 23.6265 23.123 23.7865 22.9587C23.9465 22.7943 24.0585 22.5907 24.1109 22.3692C24.262 21.8228 24.2706 21.2614 24.2706 20.702C24.2775 18.2126 24.2797 15.7235 24.2772 13.2347Z" fill="black"/>
    <path d="M73.5231 21.5463C72.6526 22.9296 71.4582 23.8318 69.8323 24.1064C67.3513 24.5239 64.9785 23.3527 63.7508 21.126C62.7274 19.2693 62.5887 17.2743 62.869 15.2288C63.1189 13.4047 63.8249 11.7824 65.1961 10.4916C66.2182 9.53652 67.5064 8.90211 68.8966 8.66924C70.2868 8.43637 71.7161 8.61559 73.0023 9.18405C73.5202 9.41288 73.5212 9.41288 73.5212 8.83567C73.5212 7.37305 73.5269 5.91135 73.5212 4.44593C73.5126 3.29805 73.0888 2.93193 71.9305 3.05428C71.5504 3.09444 71.1798 3.16916 70.8025 3.20372C70.6666 3.2168 70.4519 3.39052 70.3968 3.1729C70.3417 2.95528 70.6096 2.9861 70.7398 2.95435C71.8886 2.66201 73.0375 2.37247 74.193 2.10722C74.5664 2.02129 75.0339 1.70373 75.2933 1.9419C75.4834 2.12029 75.3589 2.64706 75.3599 3.01879C75.3599 8.97639 75.3599 14.934 75.3599 20.8916C75.3599 20.985 75.3599 21.0784 75.3599 21.1718C75.3703 22.8166 75.7799 23.263 77.4399 23.4479C77.553 23.461 77.7459 23.4012 77.7535 23.5675C77.763 23.7851 77.5502 23.7122 77.4285 23.7132C76.2407 23.7188 75.0529 23.7132 73.8661 23.7216C73.5905 23.7216 73.5136 23.6226 73.5193 23.3657C73.5326 22.7586 73.5231 22.1525 73.5231 21.5463ZM73.5231 16.2824C73.5231 14.9748 73.5012 13.6672 73.5326 12.3662C73.5484 11.7722 73.368 11.1893 73.0185 10.7046C72.0274 9.28025 70.622 8.7731 68.9325 9.03742C67.1384 9.31761 66.0561 10.4739 65.4555 12.0691C64.6003 14.3443 64.4967 16.6859 65.1049 19.0367C65.4185 20.2509 66.0276 21.325 67.0548 22.1067C68.4393 23.1603 70.0005 23.4283 71.6159 22.7708C72.8294 22.2767 73.5991 21.3922 73.5383 19.9688C73.4812 18.7406 73.5231 17.5106 73.5231 16.2824Z" fill="black"/>
    <path d="M57.756 21.4259C56.8657 22.84 55.6845 23.7955 54.0406 24.099C50.787 24.6986 48.495 22.7914 48.4542 19.4384C48.4228 16.8578 48.4485 14.2763 48.4447 11.6947C48.4447 11.2604 48.4646 10.8233 48.3496 10.3955C48.2147 9.87998 47.9572 9.66516 47.4146 9.63714C47.0507 9.62123 46.6862 9.64472 46.3275 9.70719C46.2325 9.72306 46.0871 9.78844 46.0605 9.62219C46.0425 9.50544 46.1555 9.47836 46.2506 9.46061C47.5106 9.22992 48.7706 9.00203 50.0287 8.76573C50.234 8.7265 50.2843 8.81243 50.2805 8.98428C50.2805 9.09262 50.2805 9.2019 50.2805 9.31024V18.3148C50.2805 18.9686 50.2976 19.6224 50.4544 20.2613C50.7889 21.6277 51.4769 22.7233 52.9611 23.0866C54.5243 23.4686 55.8727 23.0315 56.9759 21.8929C57.5004 21.3512 57.7874 20.7423 57.7722 19.9316C57.7199 17.1184 57.7532 14.3033 57.7513 11.4883C57.7513 9.74174 57.4662 9.49704 55.714 9.69598C55.6019 9.70812 55.4232 9.80526 55.3871 9.64461C55.3396 9.43633 55.5572 9.46715 55.6826 9.4438C56.8315 9.22712 57.986 9.03191 59.1301 8.79001C59.5254 8.70782 59.6052 8.80962 59.6052 9.18509C59.5938 13.12 59.5986 17.0539 59.5986 20.9879C59.5986 21.1747 59.5985 21.3615 59.6052 21.5483C59.6622 22.8204 60.162 23.3313 61.4582 23.449C61.49 23.4489 61.5218 23.4517 61.5532 23.4574C61.7052 23.5003 61.9884 23.3901 61.9798 23.6133C61.9713 23.8366 61.6948 23.7245 61.5456 23.7254C60.4053 23.7366 59.265 23.7254 58.1247 23.7376C57.8397 23.7376 57.7361 23.6563 57.7446 23.364C57.7665 22.7233 57.756 22.0751 57.756 21.4259Z" fill="black"/>
    <path d="M20.323 13.0058C20.2594 14.4666 20.4 15.9301 20.2375 17.389C19.7263 21.9786 15.7761 25.7109 11.1466 25.9817C6.18728 26.2684 1.8447 23.1564 0.747171 18.5285C0.561735 17.755 0.468303 16.963 0.468752 16.1683C0.468752 14.0528 0.468752 11.9373 0.468752 9.81717C0.473503 4.71572 4.43409 0.420305 9.49601 0.0317661C14.7774 -0.373585 19.3633 3.14102 20.1919 8.25087C20.4475 9.82838 20.2537 11.4218 20.323 13.0058ZM19.5543 13.0488C19.4916 11.4965 19.6769 9.93392 19.4326 8.39003C18.6848 3.67432 14.4192 0.401626 9.56348 0.788297C4.90731 1.16189 1.2508 5.108 1.24034 9.77981C1.23591 11.9255 1.23591 14.0715 1.24034 16.2178C1.24255 17.0743 1.36665 17.9262 1.60904 18.7489C2.80634 22.8687 6.8591 25.5913 11.2207 25.2177C15.5405 24.8441 19.045 21.4425 19.4811 17.2032C19.6227 15.8171 19.4992 14.432 19.5543 13.0488Z" fill="black"/>
    <path d="M85.2283 14.7867C83.6452 14.7867 82.0621 14.7997 80.4771 14.7783C80.0733 14.7727 79.9726 14.8959 79.9859 15.2798C80.0448 16.933 80.3156 18.5282 81.2107 19.9666C82.5657 22.1409 85.1551 23.0581 87.6077 22.2315C88.8478 21.814 89.608 20.909 90.123 19.7751C90.2836 19.4221 90.3976 19.0475 90.5316 18.6823C90.5592 18.6067 90.5953 18.5292 90.6874 18.5366C90.7948 18.546 90.7825 18.6347 90.7825 18.7132C90.7692 20.894 88.8364 23.4447 86.7344 23.9865C84.3075 24.6122 80.9133 23.993 79.5079 20.6456C78.2384 17.6204 78.3448 14.5438 79.8623 11.6186C81.2098 9.02022 84.395 7.88263 87.1915 8.88573C89.1785 9.59649 90.0869 11.1422 90.4223 13.0887C90.4926 13.5006 90.4812 13.9293 90.524 14.3421C90.5582 14.6839 90.4347 14.7979 90.0736 14.7941C88.4591 14.7764 86.8437 14.7867 85.2283 14.7867ZM84.2154 14.3944C85.464 14.3944 86.7135 14.386 87.9622 14.4009C88.2767 14.4009 88.3717 14.3019 88.366 14.0012C88.3518 13.1886 88.271 12.3901 87.9973 11.6176C87.0233 8.89507 83.8163 8.16843 81.7257 10.2083C80.6643 11.2441 80.2472 12.5628 80.0657 13.9816C80.022 14.3206 80.1407 14.4047 80.4705 14.4009C81.7172 14.3832 82.9668 14.3944 84.2154 14.3944Z" fill="black"/>
    <path d="M43.4201 12.2111V21.8218C43.4201 22.9622 43.653 23.2228 44.8208 23.3956C45.0403 23.4274 45.2617 23.4348 45.4812 23.4638C45.6104 23.4797 45.8195 23.4255 45.8109 23.6254C45.8043 23.7982 45.6114 23.7188 45.4983 23.7337C45.4195 23.7389 45.3405 23.7389 45.2617 23.7337C43.3612 23.7337 41.4608 23.7337 39.5603 23.7337C39.4358 23.7337 39.2144 23.8206 39.202 23.6328C39.1868 23.3993 39.4301 23.4787 39.5679 23.4657C39.9628 23.4456 40.3546 23.3868 40.7376 23.2901C41.3002 23.1257 41.5159 22.867 41.5729 22.2926C41.5862 22.1534 41.5833 22.0124 41.5833 21.8732C41.5833 16.2126 41.5833 10.552 41.5833 4.89142C41.5923 4.53367 41.564 4.17595 41.4988 3.82387C41.3828 3.26348 41.1016 3.01691 40.5172 3.0085C40.1703 3.0085 39.8235 3.05427 39.4767 3.07481C39.3769 3.08042 39.2315 3.16821 39.1916 3.01597C39.1441 2.83665 39.3189 2.83571 39.4349 2.80676C40.2768 2.59505 41.1196 2.38428 41.9634 2.17445C42.316 2.08665 42.6733 2.01287 43.0201 1.90733C43.346 1.80739 43.423 1.9176 43.4211 2.23049C43.4202 4.01627 43.4201 5.80486 43.4201 7.59252V12.2111Z" fill="black"/>
    <path d="M17.6628 13.0467C17.6049 14.217 17.7864 15.6684 17.5764 17.1049C17.0376 20.782 13.6566 23.4271 9.85949 23.1674C6.13456 22.9124 3.15937 19.8284 3.12991 16.1578C3.10774 13.9044 3.10774 11.6507 3.12991 9.39669C3.16222 5.47393 6.43674 2.3376 10.4562 2.35161C12.3609 2.36451 14.1841 3.11251 15.5329 4.43438C16.8817 5.75626 17.648 7.54613 17.6666 9.41817C17.6685 10.5352 17.6628 11.6541 17.6628 13.0467ZM10.3945 10.1803C8.38378 10.1803 6.37402 10.1878 4.36427 10.1738C4.00888 10.1738 3.87205 10.2457 3.87585 10.6314C3.8977 12.4508 3.87585 14.274 3.88915 16.0887C3.90983 17.7705 4.60407 19.3766 5.82136 20.5587C7.03865 21.7408 8.6809 22.4037 10.3921 22.4037C12.1033 22.4037 13.7456 21.7408 14.9628 20.5587C16.1801 19.3766 16.8744 17.7705 16.8951 16.0887C16.9093 14.2702 16.8865 12.4462 16.9065 10.6314C16.9112 10.2578 16.7867 10.1644 16.4237 10.1644C14.414 10.1859 12.4042 10.1803 10.3945 10.1803ZM10.3859 9.4135C12.3966 9.4135 14.4073 9.40323 16.4171 9.42097C16.8295 9.42097 16.9226 9.29768 16.8808 8.91101C16.5283 5.59162 13.7384 3.09973 10.3755 3.10534C7.01258 3.11094 4.23979 5.62711 3.90055 8.94183C3.86159 9.3257 3.98227 9.42004 4.35572 9.41724C6.36547 9.40323 8.37617 9.4107 10.3859 9.4107V9.4135Z" fill="black"/>
</svg>
