<svg width="508" height="336" viewBox="0 0 508 336" fill="none" xmlns="http://www.w3.org/2000/svg">
<g opacity="0.5">
<path d="M220.968 144.818L171.908 172.922L135.282 151.742L74.2452 187.115L37.5583 165.899L1 187.115" stroke="url(#paint0_linear)" stroke-width="1.76542" stroke-miterlimit="10" stroke-linecap="round" stroke-linejoin="round"/>
<path d="M265.434 183L191.481 225.844L215.831 239.924L167 268.16" stroke="url(#paint1_linear)" stroke-width="1.76542" stroke-miterlimit="10" stroke-linecap="round" stroke-linejoin="round"/>
<path d="M98.8975 173.073L135.281 194.099L1.01172 271.838" stroke="url(#paint2_linear)" stroke-width="1.76542" stroke-miterlimit="10" stroke-linecap="round" stroke-linejoin="round"/>
<path d="M74.2447 229.439L98.6587 243.515L62.0361 264.695" stroke="url(#paint3_linear)" stroke-width="1.76542" stroke-miterlimit="10" stroke-linecap="round" stroke-linejoin="round"/>
<path d="M224.755 109.602L189.762 89.1553L216.21 73.9402L179.675 52.8114L206.247 38.2764L172.173 18" stroke="url(#paint4_linear)" stroke-width="1.76542" stroke-miterlimit="10" stroke-linecap="round" stroke-linejoin="round"/>
<path d="M189.765 58.6436L163.315 73.9403L137 58.6436" stroke="url(#paint5_linear)" stroke-width="1.76542" stroke-miterlimit="10" stroke-linecap="round" stroke-linejoin="round"/>
<path d="M198.43 127.822L150.846 97.8914L124.191 112.989L71.5711 82.5019L97.9019 67.2758L45.1719 36.7816" stroke="url(#paint6_linear)" stroke-width="1.76542" stroke-miterlimit="10" stroke-linecap="round" stroke-linejoin="round"/>
<path d="M98.0798 97.8911L80.312 107.959L27.582 77.4645" stroke="url(#paint7_linear)" stroke-width="1.76542" stroke-miterlimit="10" stroke-linecap="round" stroke-linejoin="round"/>
<path d="M270.812 196.379L342.023 236.134L305.308 257.259L356.025 286.59L319.139 306.767L366.44 334.914" stroke="url(#paint8_linear)" stroke-width="1.76542" stroke-miterlimit="10" stroke-linecap="round" stroke-linejoin="round"/>
<path d="M342.027 278.493L378.745 257.259L415.273 278.493" stroke="url(#paint9_linear)" stroke-width="1.76542" stroke-miterlimit="10" stroke-linecap="round" stroke-linejoin="round"/>
<path d="M311.711 176.959L366.187 207.754L403.192 186.795L444.5 212" stroke="url(#paint10_linear)" stroke-width="1.76542" stroke-miterlimit="10" stroke-linecap="round" stroke-linejoin="round"/>
<path d="M278.11 154.73L340.129 120.511L378.213 142.534L430.672 110.748L468.822 132.81L506.836 110.748" stroke="url(#paint11_linear)" stroke-width="1.76542" stroke-miterlimit="10" stroke-linecap="round" stroke-linejoin="round"/>
<path d="M252.231 140.615L329.128 96.0659L303.809 81.4254L354.584 52.0648" stroke="url(#paint12_linear)" stroke-width="1.76542" stroke-miterlimit="10" stroke-linecap="round" stroke-linejoin="round"/>
<path d="M405.033 125.351L367.2 103.487L506.815 22.6538" stroke="url(#paint13_linear)" stroke-width="1.76542" stroke-miterlimit="10" stroke-linecap="round" stroke-linejoin="round"/>
<path d="M243.261 103.955L280.839 81.5689L243 59.7628L306.467 22.9814L331.92 37.7016L395.39 1" stroke="url(#paint14_linear)" stroke-width="1.76542" stroke-miterlimit="10" stroke-linecap="round" stroke-linejoin="round"/>
<path d="M430.668 66.7411L405.282 52.1038L443.363 30.0809" stroke="url(#paint15_linear)" stroke-width="1.76542" stroke-miterlimit="10" stroke-linecap="round" stroke-linejoin="round"/>
<path d="M98.6019 174.901C100.727 174.901 102.45 173.962 102.45 172.803C102.45 171.643 100.727 170.704 98.6019 170.704C96.4767 170.704 94.7539 171.643 94.7539 172.803C94.7539 173.962 96.4767 174.901 98.6019 174.901Z" fill="#358FCC"/>
<path d="M97.2035 100.041C99.3287 100.041 101.051 99.1009 101.051 97.9417C101.051 96.7825 99.3287 95.8428 97.2035 95.8428C95.0783 95.8428 93.3555 96.7825 93.3555 97.9417C93.3555 99.1009 95.0783 100.041 97.2035 100.041Z" fill="#358FCC"/>
<path d="M190.077 60.6783C192.202 60.6783 193.925 59.7386 193.925 58.5794C193.925 57.4202 192.202 56.4805 190.077 56.4805C187.951 56.4805 186.229 57.4202 186.229 58.5794C186.229 59.7386 187.951 60.6783 190.077 60.6783Z" fill="#358FCC"/>
<path d="M430.228 68.5569C432.353 68.5569 434.076 67.6171 434.076 66.4579C434.076 65.2988 432.353 64.359 430.228 64.359C428.103 64.359 426.38 65.2988 426.38 66.4579C426.38 67.6171 428.103 68.5569 430.228 68.5569Z" fill="#358FCC"/>
<path d="M405.742 127.326C407.867 127.326 409.59 126.387 409.59 125.227C409.59 124.068 407.867 123.129 405.742 123.129C403.616 123.129 401.894 124.068 401.894 125.227C401.894 126.387 403.616 127.326 405.742 127.326Z" fill="#358FCC"/>
<path d="M151.075 100.74C153.2 100.74 154.923 99.8006 154.923 98.6414C154.923 97.4822 153.2 96.5425 151.075 96.5425C148.949 96.5425 147.227 97.4822 147.227 98.6414C147.227 99.8006 148.949 100.74 151.075 100.74Z" fill="#358FCC"/>
<path d="M307.09 110.535C309.215 110.535 310.938 109.596 310.938 108.436C310.938 107.277 309.215 106.337 307.09 106.337C304.965 106.337 303.242 107.277 303.242 108.436C303.242 109.596 304.965 110.535 307.09 110.535Z" fill="#358FCC"/>
<path d="M292.327 33.1832C294.453 33.1832 296.175 32.2435 296.175 31.0843C296.175 29.9251 294.453 28.9854 292.327 28.9854C290.202 28.9854 288.479 29.9251 288.479 31.0843C288.479 32.2435 290.202 33.1832 292.327 33.1832Z" fill="#358FCC"/>
<path d="M74.1136 230.872C76.2388 230.872 77.9616 229.933 77.9616 228.774C77.9616 227.614 76.2388 226.675 74.1136 226.675C71.9884 226.675 70.2656 227.614 70.2656 228.774C70.2656 229.933 71.9884 230.872 74.1136 230.872Z" fill="#358FCC"/>
<path d="M340.672 280.547C342.797 280.547 344.52 279.607 344.52 278.448C344.52 277.289 342.797 276.349 340.672 276.349C338.547 276.349 336.824 277.289 336.824 278.448C336.824 279.607 338.547 280.547 340.672 280.547Z" fill="#358FCC"/>
</g>
<g filter="url(#filter0_d)">
<path d="M155 158.705C154.988 159.893 155.292 161.064 155.882 162.095C156.472 163.127 157.326 163.983 158.357 164.575L246.756 216.055C247.79 216.658 248.965 216.975 250.161 216.975C251.358 216.975 252.533 216.658 253.566 216.055L341.636 164.563C342.743 163.923 343.645 162.98 344.235 161.845C344.825 160.71 345.08 159.43 344.968 158.156V150.833H155.013L155 158.705Z" fill="#E6F0F6"/>
<path d="M158.356 156.227L246.755 207.707C247.789 208.309 248.964 208.627 250.161 208.627C251.357 208.627 252.532 208.309 253.566 207.707L341.635 156.215C342.659 155.62 343.508 154.767 344.099 153.741C344.689 152.715 345 151.552 345 150.369C345 149.185 344.689 148.022 344.099 146.996C343.508 145.97 342.659 145.117 341.635 144.523L253.944 93.8972C252.921 93.3093 251.762 93 250.582 93C249.402 93 248.242 93.3093 247.219 93.8972L158.417 144.51C157.385 145.098 156.526 145.947 155.926 146.973C155.326 147.998 155.007 149.163 155.001 150.351C154.995 151.539 155.302 152.707 155.891 153.739C156.48 154.77 157.33 155.629 158.356 156.227Z" fill="white"/>
<path fill-rule="evenodd" clip-rule="evenodd" d="M213.01 125.141C233.868 112.937 265.722 112.656 286.678 124.58C307.634 136.504 308.744 155.739 287.41 167.992C270.433 177.756 245.792 180.112 225.825 174.302C223.591 173.399 224.092 172.313 225.08 171.739L227.741 170.214L237.737 164.477C241.288 162.415 242.399 160.425 242.216 158.936C251.553 163.232 261.573 167.687 276.304 159.205C280.49 156.764 281.113 154.714 281.406 151.76C282.797 151.418 288.179 149.795 291.413 145.536C289.253 143.095 276.768 141.935 276.768 141.935C274.334 139.508 271.578 137.426 268.578 135.747C265.164 133.827 261.561 132.265 257.826 131.085C257.826 131.085 255.69 123.994 251.565 122.774C244.242 124.653 241.496 127.753 240.898 128.546C235.845 128.73 232.635 129.291 228.486 131.707C214.023 140.153 221.163 145.706 228.559 151.064C225.993 151.046 223.453 151.583 221.114 152.639C217.989 151.98 210.886 149.795 213.437 144.535C214.975 141.276 211.582 138.969 211.582 138.969C208.006 136.846 209.043 140.19 209.043 140.19C210.337 142.252 207.664 145.78 207.664 145.78C203.136 150.942 215.744 155.665 215.744 155.665L208.848 159.705L206.59 161.023C205.907 161.406 205.124 161.57 204.345 161.493C203.566 161.417 202.829 161.104 202.233 160.596C192.555 149.124 196.424 134.869 213.01 125.141ZM211.789 149.832C211.435 149.526 211.484 149.148 211.887 149.038C212.102 148.994 212.325 149.001 212.536 149.058C212.748 149.115 212.944 149.221 213.108 149.368C213.413 149.697 213.352 150.064 212.961 150.186C212.747 150.242 212.521 150.239 212.308 150.176C212.095 150.114 211.903 149.995 211.753 149.832H211.789ZM214.511 151.967C214.706 152.09 214.926 152.166 215.154 152.189C215.383 152.213 215.614 152.183 215.829 152.102C216.171 151.894 216.024 151.54 215.536 151.308C215.343 151.183 215.123 151.106 214.893 151.082C214.664 151.059 214.433 151.09 214.218 151.174C213.84 151.369 213.937 151.736 214.474 151.967H214.511ZM218.697 152.688C218.476 152.582 218.234 152.528 217.989 152.528C217.745 152.528 217.503 152.582 217.282 152.688C217.025 152.883 217.282 153.225 217.77 153.42C217.984 153.519 218.217 153.571 218.453 153.571C218.689 153.571 218.923 153.519 219.137 153.42C219.295 153.261 219.137 152.956 218.661 152.688H218.697ZM212.314 142.301C212.156 142.284 211.997 142.329 211.872 142.427C211.746 142.525 211.664 142.668 211.643 142.826C211.647 142.902 211.667 142.976 211.701 143.044C211.736 143.113 211.783 143.173 211.841 143.222C211.9 143.271 211.967 143.308 212.04 143.33C212.113 143.352 212.19 143.359 212.265 143.351C212.422 143.368 212.579 143.325 212.704 143.229C212.829 143.134 212.912 142.994 212.937 142.838C212.934 142.758 212.915 142.678 212.879 142.606C212.843 142.534 212.793 142.47 212.73 142.419C212.668 142.368 212.595 142.331 212.517 142.311C212.439 142.29 212.357 142.287 212.278 142.301H212.314ZM211.692 141.215C211.545 140.947 211.692 140.727 211.936 140.666C212.074 140.657 212.213 140.681 212.34 140.737C212.467 140.792 212.58 140.876 212.668 140.983C212.706 141.03 212.731 141.086 212.739 141.146C212.748 141.206 212.739 141.267 212.715 141.322C212.691 141.377 212.653 141.425 212.604 141.46C212.554 141.495 212.496 141.516 212.436 141.52C212.291 141.563 212.135 141.557 211.993 141.501C211.852 141.446 211.733 141.345 211.655 141.215H211.692ZM211.399 146.561C211.305 146.546 211.209 146.553 211.118 146.58C211.027 146.606 210.943 146.653 210.872 146.716C210.801 146.779 210.745 146.856 210.707 146.944C210.669 147.031 210.651 147.125 210.654 147.22C210.662 147.318 210.689 147.413 210.735 147.499C210.781 147.586 210.844 147.662 210.921 147.723C210.998 147.784 211.087 147.828 211.182 147.853C211.276 147.877 211.375 147.882 211.472 147.867C211.655 147.87 211.833 147.804 211.969 147.682C212.105 147.56 212.189 147.39 212.204 147.208C212.2 147.107 212.173 147.008 212.126 146.918C212.079 146.829 212.013 146.75 211.933 146.689C211.853 146.627 211.76 146.584 211.662 146.562C211.563 146.54 211.461 146.539 211.362 146.561H211.399ZM211.02 144.815C211.09 144.642 211.215 144.498 211.377 144.405C211.539 144.312 211.727 144.276 211.911 144.303C212.339 144.303 212.57 144.632 212.436 144.962C212.359 145.139 212.228 145.286 212.061 145.383C211.894 145.479 211.7 145.52 211.509 145.499C211.424 145.503 211.34 145.486 211.263 145.451C211.186 145.415 211.119 145.361 211.068 145.294C211.016 145.227 210.982 145.149 210.967 145.065C210.952 144.982 210.958 144.896 210.984 144.815H211.02Z" fill="black"/>
</g>
<defs>
<filter id="filter0_d" x="135" y="79" width="230" height="163.975" filterUnits="userSpaceOnUse" color-interpolation-filters="sRGB">
<feFlood flood-opacity="0" result="BackgroundImageFix"/>
<feColorMatrix in="SourceAlpha" type="matrix" values="0 0 0 0 0 0 0 0 0 0 0 0 0 0 0 0 0 0 127 0" result="hardAlpha"/>
<feOffset dy="6"/>
<feGaussianBlur stdDeviation="10"/>
<feColorMatrix type="matrix" values="0 0 0 0 0 0 0 0 0 0 0 0 0 0 0 0 0 0 0.1 0"/>
<feBlend mode="normal" in2="BackgroundImageFix" result="effect1_dropShadow"/>
<feBlend mode="normal" in="SourceGraphic" in2="effect1_dropShadow" result="shape"/>
</filter>
<linearGradient id="paint0_linear" x1="2.18368" y1="186.845" x2="222.383" y2="152.748" gradientUnits="userSpaceOnUse">
<stop stop-color="#36C5F0" stop-opacity="0"/>
<stop offset="1" stop-color="#9013FE"/>
</linearGradient>
<linearGradient id="paint1_linear" x1="97.5154" y1="316.832" x2="208.329" y2="139.423" gradientUnits="userSpaceOnUse">
<stop stop-color="#36C5F0" stop-opacity="0"/>
<stop offset="1" stop-color="#9013FE"/>
</linearGradient>
<linearGradient id="paint2_linear" x1="2.66966" y1="272.313" x2="194.575" y2="101.495" gradientUnits="userSpaceOnUse">
<stop stop-color="#36C5F0" stop-opacity="0"/>
<stop offset="1" stop-color="#9013FE"/>
</linearGradient>
<linearGradient id="paint3_linear" x1="18.2094" y1="281.54" x2="171.886" y2="93.671" gradientUnits="userSpaceOnUse">
<stop stop-color="#36C5F0" stop-opacity="0"/>
<stop offset="1" stop-color="#9013FE"/>
</linearGradient>
<linearGradient id="paint4_linear" x1="172.23" y1="18" x2="251.994" y2="63.1439" gradientUnits="userSpaceOnUse">
<stop stop-color="#36C5F0" stop-opacity="0"/>
<stop offset="1" stop-color="#9013FE"/>
</linearGradient>
<linearGradient id="paint5_linear" x1="128.853" y1="58.5787" x2="221.496" y2="120.793" gradientUnits="userSpaceOnUse">
<stop stop-color="#36C5F0" stop-opacity="0"/>
<stop offset="1" stop-color="#9013FE"/>
</linearGradient>
<linearGradient id="paint6_linear" x1="52.0698" y1="47.5676" x2="191.853" y2="90.1398" gradientUnits="userSpaceOnUse">
<stop stop-color="#36C5F0" stop-opacity="0"/>
<stop offset="1" stop-color="#9013FE"/>
</linearGradient>
<linearGradient id="paint7_linear" x1="30.3707" y1="85.0881" x2="171.255" y2="91.8537" gradientUnits="userSpaceOnUse">
<stop stop-color="#36C5F0" stop-opacity="0"/>
<stop offset="1" stop-color="#9013FE"/>
</linearGradient>
<linearGradient id="paint8_linear" x1="366.52" y1="335.122" x2="226.286" y2="273.239" gradientUnits="userSpaceOnUse">
<stop stop-color="#36C5F0" stop-opacity="0"/>
<stop offset="1" stop-color="#9013FE"/>
</linearGradient>
<linearGradient id="paint9_linear" x1="378.915" y1="327.138" x2="280.749" y2="179.045" gradientUnits="userSpaceOnUse">
<stop stop-color="#36C5F0" stop-opacity="0"/>
<stop offset="1" stop-color="#9013FE"/>
</linearGradient>
<linearGradient id="paint10_linear" x1="453" y1="223" x2="305.968" y2="209.124" gradientUnits="userSpaceOnUse">
<stop stop-color="#36C5F0" stop-opacity="0"/>
<stop offset="1" stop-color="#9013FE"/>
</linearGradient>
<linearGradient id="paint11_linear" x1="528.651" y1="100.664" x2="272.276" y2="140.214" gradientUnits="userSpaceOnUse">
<stop stop-color="#36C5F0" stop-opacity="0"/>
<stop offset="1" stop-color="#9013FE"/>
</linearGradient>
<linearGradient id="paint12_linear" x1="367.573" y1="45.1193" x2="297.46" y2="169.89" gradientUnits="userSpaceOnUse">
<stop stop-color="#36C5F0" stop-opacity="0"/>
<stop offset="1" stop-color="#9013FE"/>
</linearGradient>
<linearGradient id="paint13_linear" x1="506.937" y1="18.8623" x2="313.865" y2="204.652" gradientUnits="userSpaceOnUse">
<stop stop-color="#36C5F0" stop-opacity="0"/>
<stop offset="1" stop-color="#9013FE"/>
</linearGradient>
<linearGradient id="paint14_linear" x1="401.1" y1="-8.04863" x2="297.095" y2="183.965" gradientUnits="userSpaceOnUse">
<stop stop-color="#36C5F0" stop-opacity="0"/>
<stop offset="1" stop-color="#9013FE"/>
</linearGradient>
<linearGradient id="paint15_linear" x1="443.315" y1="22.9017" x2="333.09" y2="187.46" gradientUnits="userSpaceOnUse">
<stop stop-color="#36C5F0" stop-opacity="0"/>
<stop offset="1" stop-color="#9013FE"/>
</linearGradient>
</defs>
</svg>
