<svg width="993" height="412" viewBox="0 0 993 412" fill="none" xmlns="http://www.w3.org/2000/svg">
<g>
<path opacity="0.199997" d="M322.037 611.985C309.779 578.318 327.139 541.072 360.817 528.806L1170.56 234.082C1204.23 221.833 1241.47 239.205 1253.72 272.871C1265.97 306.537 1248.62 343.783 1214.93 356.05L405.208 650.773C371.525 663.023 334.292 645.634 322.037 611.985Z" fill="#0023FF"/>
<path opacity="0.199997" d="M3.92709 423.734C-8.321 390.068 9.03576 352.805 42.7118 340.556L264.036 259.996C297.69 247.746 334.934 265.117 347.185 298.784C359.458 332.483 342.08 369.713 308.419 381.946L87.106 462.506C53.425 474.772 16.1901 457.417 3.92709 423.734Z" fill="#0023FF"/>
<path opacity="0.199997" d="M469.919 254.153C457.669 220.504 475.008 183.241 508.69 170.991L1220.39 -88.044C1254.03 -100.294 1291.3 -82.9221 1303.55 -49.256C1315.8 -15.5568 1298.43 21.673 1264.78 33.9228L553.098 292.941C519.399 305.207 482.169 287.852 469.919 254.153Z" fill="#0023FF"/>
<path opacity="0.199997" d="M109.37 72.7938C97.1106 39.0946 114.486 1.86478 148.165 -10.385L1742.47 -590.665C1776.15 -602.915 1813.38 -585.576 1825.65 -551.877C1837.9 -518.211 1820.53 -480.997 1786.84 -468.731L192.543 111.549C158.862 123.798 121.625 106.46 109.37 72.7938Z" fill="#0023FF"/>
</g>
</svg>
