<svg width="36" height="36" viewBox="0 0 36 36" fill="none" xmlns="http://www.w3.org/2000/svg">
<path d="M6.29688 27.6304L9.87796 16.6313" stroke="#9AB8FE" stroke-width="3" stroke-miterlimit="10" stroke-linecap="round"/>
<path d="M13.8828 14.0608L23.2959 21.952" stroke="#9AB8FE" stroke-width="3" stroke-miterlimit="10" stroke-linecap="round"/>
<path d="M26.6967 21.5429C26.6199 21.5045 29.8557 8.43359 29.8557 8.43359" stroke="#9AB8FE" stroke-width="3" stroke-miterlimit="10" stroke-linecap="round"/>
<path d="M8.40408 30.7131C8.40921 28.8978 6.98185 27.4221 5.21598 27.4171C3.45011 27.4121 2.01442 28.8797 2.00929 30.695C2.00416 32.5103 3.43152 33.986 5.19739 33.991C6.96327 33.996 8.39895 32.5284 8.40408 30.7131Z" stroke="#175DFD" stroke-width="3" stroke-miterlimit="10" stroke-linecap="round"/>
<path d="M13.9392 13.4875C13.9444 11.6722 12.517 10.1965 10.7511 10.1915C8.98526 10.1866 7.54958 11.6541 7.54445 13.4694C7.53932 15.2847 8.96668 16.7604 10.7326 16.7654C12.4984 16.7704 13.9341 15.3028 13.9392 13.4875Z" stroke="#175DFD" stroke-width="3" stroke-miterlimit="10" stroke-linecap="round"/>
<path d="M28.5037 24.4985C28.5088 22.6832 27.0815 21.2075 25.3156 21.2025C23.5497 21.1975 22.114 22.6651 22.1089 24.4804C22.1038 26.2957 23.5311 27.7714 25.297 27.7764C27.0629 27.7814 28.4986 26.3138 28.5037 24.4985Z" stroke="#175DFD" stroke-width="3" stroke-miterlimit="10" stroke-linecap="round"/>
<path d="M33.992 5.30489C33.9971 3.48957 32.5697 2.01392 30.8039 2.00893C29.038 2.00393 27.6023 3.47149 27.5972 5.28681C27.5921 7.10213 29.0194 8.57778 30.7853 8.58277C32.5512 8.58776 33.9868 7.1202 33.992 5.30489Z" stroke="#175DFD" stroke-width="3" stroke-miterlimit="10" stroke-linecap="round"/>
</svg>
