<svg width="539" height="253" viewBox="0 0 539 253" fill="none" xmlns="http://www.w3.org/2000/svg">
<g opacity="0.5">
<path d="M318.077 103.817L367.137 131.922L403.763 110.742L464.8 146.115L501.487 124.899L538.045 146.115" stroke="url(#paint0_linear)" stroke-width="1.76542" stroke-miterlimit="10" stroke-linecap="round" stroke-linejoin="round"/>
<path d="M293.186 117.392L367.138 160.236L342.788 174.316L391.619 202.552" stroke="url(#paint1_linear)" stroke-width="1.76542" stroke-miterlimit="10" stroke-linecap="round" stroke-linejoin="round"/>
<path d="M440.147 132.073L403.764 153.099L538.033 230.837" stroke="url(#paint2_linear)" stroke-width="1.76542" stroke-miterlimit="10" stroke-linecap="round" stroke-linejoin="round"/>
<path d="M281.94 167.075L318.079 188.607L281.689 209.575L312.207 227.262" stroke="url(#paint3_linear)" stroke-width="1.76542" stroke-miterlimit="10" stroke-linecap="round" stroke-linejoin="round"/>
<path d="M278.463 92.6018L313.456 72.1553L287.008 56.9402L323.542 35.8114L296.971 21.2764L331.045 1" stroke="url(#paint4_linear)" stroke-width="1.76542" stroke-miterlimit="10" stroke-linecap="round" stroke-linejoin="round"/>
<path d="M268.232 155.379L197.022 195.134L233.736 216.259L183.02 245.589" stroke="url(#paint5_linear)" stroke-width="1.76542" stroke-miterlimit="10" stroke-linecap="round" stroke-linejoin="round"/>
<path d="M204.248 231.235L167.531 210L131.003 231.235" stroke="url(#paint6_linear)" stroke-width="1.76542" stroke-miterlimit="10" stroke-linecap="round" stroke-linejoin="round"/>
<path d="M227.334 135.959L172.858 166.754L135.853 145.795L62.8063 188.117L99.3585 209.254L26.1623 251.586" stroke="url(#paint7_linear)" stroke-width="1.76542" stroke-miterlimit="10" stroke-linecap="round" stroke-linejoin="round"/>
<path d="M98.8652 167.024L74.2002 153.048L1.00087 195.38" stroke="url(#paint8_linear)" stroke-width="1.76542" stroke-miterlimit="10" stroke-linecap="round" stroke-linejoin="round"/>
<path d="M260.935 113.73L198.916 79.511L160.832 101.534L108.373 69.7483L70.2226 91.8094L32.2088 69.7483" stroke="url(#paint9_linear)" stroke-width="1.76542" stroke-miterlimit="10" stroke-linecap="round" stroke-linejoin="round"/>
<path d="M440.443 133.901C438.318 133.901 436.595 132.962 436.595 131.803C436.595 130.643 438.318 129.704 440.443 129.704C442.568 129.704 444.291 130.643 444.291 131.803C444.291 132.962 442.568 133.901 440.443 133.901Z" fill="#358FCC"/>
<path d="M313.142 43.6778C311.017 43.6778 309.294 42.7381 309.294 41.5789C309.294 40.4197 311.017 39.48 313.142 39.48C315.267 39.48 316.99 40.4197 316.99 41.5789C316.99 42.7381 315.267 43.6778 313.142 43.6778Z" fill="#358FCC"/>
<path d="M133.302 86.3262C131.177 86.3262 129.454 85.3865 129.454 84.2273C129.454 83.0681 131.177 82.1284 133.302 82.1284C135.428 82.1284 137.15 83.0681 137.15 84.2273C137.15 85.3865 135.428 86.3262 133.302 86.3262Z" fill="#358FCC"/>
<path d="M99.0211 168.883C96.896 168.883 95.1731 167.944 95.1731 166.784C95.1731 165.625 96.896 164.686 99.0211 164.686C101.146 164.686 102.869 165.625 102.869 166.784C102.869 167.944 101.146 168.883 99.0211 168.883Z" fill="#358FCC"/>
<path d="M205.604 233.288C203.479 233.288 201.756 232.348 201.756 231.189C201.756 230.03 203.479 229.09 205.604 229.09C207.729 229.09 209.452 230.03 209.452 231.189C209.452 232.348 207.729 233.288 205.604 233.288Z" fill="#358FCC"/>
</g>
<g filter="url(#filter0_d)">
<path d="M180.002 114.688C179.99 115.876 180.294 117.047 180.884 118.079C181.474 119.11 182.328 119.966 183.358 120.558L271.752 172.035C272.788 172.637 273.965 172.954 275.163 172.954C276.361 172.954 277.538 172.637 278.574 172.035L366.638 120.546C367.744 119.905 368.644 118.961 369.232 117.826C369.82 116.691 370.072 115.412 369.958 114.139V106.816H180.002V114.688Z" fill="#E6F0F6"/>
<path d="M183.358 112.211L271.751 163.687C272.787 164.289 273.964 164.607 275.162 164.607C276.361 164.607 277.538 164.289 278.573 163.687L366.638 112.198C367.661 111.604 368.51 110.751 369.101 109.725C369.691 108.699 370.002 107.536 370.002 106.353C370.002 105.169 369.691 104.006 369.101 102.98C368.51 101.955 367.661 101.102 366.638 100.507L278.988 49.8969C277.963 49.3092 276.802 49 275.62 49C274.438 49 273.277 49.3092 272.252 49.8969L183.419 100.495C182.387 101.082 181.528 101.932 180.928 102.957C180.328 103.982 180.009 105.147 180.003 106.335C179.997 107.523 180.304 108.691 180.893 109.723C181.482 110.754 182.332 111.612 183.358 112.211Z" fill="white"/>
<path d="M313.678 82.2789C312.907 81.8858 312.086 81.6023 311.237 81.4368L271.061 73.614C268.951 73.2003 266.767 73.3604 264.74 74.0778L228.726 87.5022C228.021 87.6996 227.366 88.0427 226.802 88.5094C226.239 88.9762 225.78 89.556 225.455 90.2115C225.403 90.3421 225.362 90.4768 225.333 90.6142L220.329 114.876C220.061 116.096 220.805 117.402 222.355 118.305L251.779 135.391C253.589 136.359 255.64 136.783 257.686 136.611L299.802 133.804C301.774 133.752 303.678 133.067 305.233 131.852L328.506 110.983C329.069 110.581 329.465 109.985 329.616 109.309C329.767 108.633 329.663 107.925 329.323 107.322L315.716 84.1339C315.235 83.3272 314.526 82.6815 313.678 82.2789Z" fill="#326CE5" stroke="white"/>
<path fill-rule="evenodd" clip-rule="evenodd" d="M303.743 88.2827C303.195 88.0338 302.596 87.9163 301.994 87.9396C301.393 87.9629 300.805 88.1264 300.277 88.4169L300.131 88.4901L299.85 88.661C299.524 88.8651 299.214 89.0936 298.923 89.3444L298.483 89.6983C297.6 90.3908 296.656 91.0034 295.664 91.5289C295.219 91.6729 294.753 91.739 294.285 91.7242L293.541 92.1147C292.445 91.5807 291.32 91.1081 290.172 90.6991C284.81 88.8776 279.161 88.0505 273.502 88.2583L273.343 87.6847L273.221 87.6237C272.915 87.5425 272.652 87.3456 272.489 87.0745C272.305 86.2953 272.256 85.4905 272.342 84.6947C272.342 84.5483 272.342 84.4018 272.342 84.2676C272.386 83.9845 272.386 83.6963 272.342 83.4133C272.342 83.3401 272.342 83.2302 272.342 83.1326C272.342 83.1326 272.342 83.0716 272.342 83.035C272.299 82.8462 272.215 82.6691 272.097 82.5154C271.979 82.3617 271.83 82.2351 271.659 82.1441C271.1 81.8136 270.449 81.6723 269.804 81.7413C268.583 81.839 267.619 82.5712 267.753 83.3889C267.753 83.3889 267.753 83.4499 267.753 83.4865C267.745 83.5677 267.745 83.6494 267.753 83.7306C267.823 84.0178 267.934 84.2932 268.083 84.5482L268.278 84.9632C268.618 85.7181 268.84 86.5207 268.937 87.343C268.937 87.6115 268.571 87.88 268.364 88.0386H268.303V88.6122C261.31 89.4909 254.793 91.8097 250.204 95.3366L249.338 95.0681H249.191C248.786 95.1257 248.376 95.1257 247.971 95.0681C246.839 94.7013 245.738 94.2484 244.676 93.7135L244.114 93.4206C243.76 93.2218 243.393 93.0465 243.016 92.8958L242.65 92.7615H242.491C241.943 92.5585 241.355 92.487 240.774 92.5527C240.193 92.6184 239.636 92.8195 239.147 93.1399C238.464 93.7623 238.854 94.6044 240.014 95.0315H240.075H240.221L240.587 95.1657C241.039 95.3122 241.466 95.4098 241.905 95.5075L242.577 95.6661H242.638C243.849 95.9545 245.04 96.3255 246.201 96.7767C246.458 96.9227 246.653 97.1568 246.75 97.4357V97.4967L247.568 97.8384C244.078 101.719 243.321 106.04 244.981 110.042L243.98 110.287C243.784 110.561 243.513 110.773 243.199 110.897C241.848 111.217 240.479 111.454 239.099 111.605L238.378 111.678C237.915 111.678 237.451 111.763 236.938 111.861L236.536 111.946H236.316C235.01 112.227 234.278 113.008 234.668 113.679C235.073 114.07 235.576 114.345 236.123 114.476C236.67 114.607 237.243 114.589 237.78 114.424H237.988C238.124 114.405 238.259 114.376 238.391 114.338C238.844 114.254 239.292 114.144 239.733 114.009L240.38 113.789L241.698 113.435C242.623 113.121 243.581 112.912 244.554 112.813C244.905 112.811 245.253 112.878 245.579 113.008L246.604 112.837C249.508 116.329 253.354 118.913 257.685 120.282C258.845 120.697 260.041 121.063 261.261 121.38L261.115 121.673C261.065 121.76 261.02 121.849 260.98 121.941C261.139 122.124 261.322 122.307 261.212 122.613C260.759 123.405 260.21 124.139 259.577 124.797C259.467 124.931 259.333 125.053 259.223 125.175C258.97 125.404 258.741 125.658 258.539 125.932C258.539 125.993 258.442 126.091 258.381 126.176V126.286C257.905 127.055 258.466 127.86 259.601 128.092C260.142 128.22 260.707 128.2 261.237 128.035C261.767 127.87 262.243 127.565 262.616 127.152V127.091L262.786 126.823C262.92 126.562 263.026 126.288 263.104 126.005C263.137 125.86 263.182 125.717 263.238 125.578C263.53 124.75 263.941 123.969 264.458 123.259C264.718 123.025 265.04 122.872 265.386 122.82H265.545C265.61 122.689 265.696 122.569 265.801 122.466L265.935 122.283C273.017 123.281 280.229 122.765 287.097 120.77L287.658 121.234H287.829C288.207 121.243 288.576 121.348 288.903 121.539C289.619 122.151 290.258 122.848 290.807 123.613L291.075 124.004C291.247 124.281 291.447 124.539 291.673 124.773L291.869 124.956L291.991 125.066C292.455 125.411 292.997 125.637 293.57 125.725C294.142 125.812 294.727 125.757 295.274 125.566C296.348 125.175 296.64 124.346 295.933 123.638L295.798 123.503L295.579 123.296C295.289 123.063 294.983 122.85 294.663 122.661C294.505 122.552 294.334 122.454 294.175 122.332C293.324 121.774 292.535 121.127 291.82 120.404C291.759 120.289 291.727 120.161 291.727 120.031C291.727 119.902 291.759 119.774 291.82 119.659V119.598L291.356 119.11C294.056 117.973 296.557 116.411 298.764 114.485C300.617 112.904 302.054 110.892 302.95 108.627H304.048L304.182 108.566C304.52 108.369 304.903 108.264 305.293 108.261C306.679 108.308 308.06 108.439 309.43 108.651L310.162 108.761C310.63 108.857 311.102 108.922 311.578 108.956H312.005H312.225C313.641 109.042 314.91 108.517 315.081 107.736C315.252 106.955 314.239 106.332 312.835 106.259H312.652H312.176C311.68 106.234 311.183 106.234 310.687 106.259H309.955H309.833C308.47 106.308 307.105 106.28 305.745 106.174C305.38 106.106 305.036 105.951 304.744 105.722H304.658L303.597 105.625C303.902 101.439 301.571 97.3015 296.921 94.0796L297.629 93.628V93.5304C297.606 93.3991 297.623 93.2639 297.677 93.1422C297.732 93.0205 297.821 92.9177 297.934 92.847C298.927 92.2322 299.968 91.6976 301.046 91.2483H301.144L301.754 90.992C302.172 90.8395 302.58 90.6602 302.974 90.455L303.279 90.2841L303.438 90.1865C304.524 89.6862 304.634 88.7953 303.743 88.2827ZM288.83 94.5678L279.665 99.3639H279.604C279.169 99.5782 278.691 99.6896 278.206 99.6896C277.722 99.6896 277.244 99.5782 276.809 99.3639C276.678 99.3006 276.561 99.2119 276.465 99.1029C276.368 98.994 276.294 98.867 276.248 98.7293L274.392 91.834C278.619 91.7776 282.824 92.4591 286.816 93.8477C287.512 94.0064 288.183 94.2749 288.83 94.5678ZM297.678 105.21C297.678 102.207 296.042 99.2663 292.796 96.8865L284.583 102.171C284.328 102.322 284.138 102.561 284.046 102.842C283.912 103.464 284.656 104.062 285.718 104.062L297.678 105.21ZM268.644 92.1636L269.133 99.1564C269.194 99.7788 268.388 100.377 267.302 100.377C266.89 100.416 266.475 100.37 266.082 100.243L255.598 97.033C259.51 94.4191 263.977 92.7519 268.644 92.1636ZM293.785 112.788C295.122 111.63 296.196 110.198 296.933 108.59L284.876 108.297C284.461 108.283 284.048 108.345 283.655 108.48C282.716 108.822 282.435 109.518 282.923 110.055L288.61 116.157C290.487 115.287 292.23 114.152 293.785 112.788ZM275.259 103.281L277.834 104.77L277.37 106.882L274.222 108.029L270.768 107.358L269.547 105.356L271.549 103.538L275.259 103.281ZM276.748 112.325C276.657 112.246 276.559 112.176 276.455 112.117C276.237 112.014 276.007 111.937 275.772 111.885C275.319 111.773 274.844 111.778 274.394 111.899C273.943 112.021 273.531 112.256 273.197 112.581L268.388 119.073C273.508 119.703 278.702 119.33 283.68 117.975L276.809 112.325H276.748ZM262.445 104.05C262.582 104.102 262.703 104.19 262.796 104.304C262.888 104.418 262.949 104.555 262.971 104.7C262.993 104.845 262.977 104.994 262.923 105.131C262.869 105.267 262.78 105.387 262.664 105.478C262.382 105.713 262.047 105.876 261.688 105.954L250.57 108.688C250.065 107.191 249.974 105.585 250.307 104.04C250.64 102.495 251.385 101.069 252.462 99.9131L262.14 103.855C262.246 103.887 262.349 103.933 262.445 103.989V104.05ZM266.435 110.555C266.313 110.354 266.135 110.193 265.923 110.091C265.316 109.8 264.63 109.714 263.97 109.847L252.389 111.849C254.702 114.401 257.649 116.295 260.931 117.34C261.615 117.585 262.311 117.816 263.018 118.012L266.521 111.312C266.599 111.185 266.633 111.036 266.618 110.888C266.603 110.74 266.538 110.602 266.435 110.494V110.555Z" fill="white"/>
<path d="M300.278 88.3805L300.473 88.4903L300.278 88.3805ZM303.744 88.2462L303.939 88.1364L303.744 88.2462ZM300.253 88.4049L300.058 88.3073L300.253 88.4049ZM300.253 88.4049L300.437 88.5147L300.253 88.4049ZM300.107 88.4781L300.29 88.588L300.107 88.4781ZM300.107 88.4781L299.936 88.3683L300.107 88.4781ZM300.107 88.4781L300.29 88.588L300.107 88.4781ZM299.826 88.649L300.009 88.7466L299.826 88.649ZM298.899 89.3324L299.119 89.4178L298.899 89.3324ZM298.46 89.6863L298.667 89.7839L298.46 89.6863ZM298.46 89.6863L298.667 89.7839L298.46 89.6863ZM295.64 91.5169L295.787 91.6511L295.64 91.5169ZM294.261 91.7122V91.5535H294.151H294.078L294.261 91.7122ZM293.517 92.1027L293.346 92.2125L293.517 92.2979L293.688 92.2125L293.517 92.1027ZM290.149 90.687L290.295 90.5528L290.149 90.687ZM273.478 88.2462H273.222V88.3683H273.453L273.478 88.2462ZM273.319 87.6727H273.588V87.6116H273.502L273.319 87.6727ZM273.197 87.6116L273.356 87.4896L273.197 87.6116ZM273.197 87.6116L273.039 87.7459L273.197 87.6116ZM272.465 87.0625H272.209H272.465ZM272.319 83.1205H272.05H272.319ZM272.319 83.1205H272.05H272.319ZM272.319 83.0229H272.05H272.319ZM271.635 82.132L271.44 82.2296L271.635 82.132ZM269.78 81.7293V81.5707V81.7293ZM267.73 83.3768H267.461H267.73ZM267.73 83.3768H267.998H267.73ZM267.73 83.4745H267.998H267.73ZM267.73 83.7185H267.986H267.73ZM268.059 84.5362H267.803H268.059ZM268.059 84.5362H268.303H268.059ZM268.059 84.5362H268.316H268.059ZM268.255 84.9511H268.511H268.255ZM268.34 88.0265L268.133 87.9289L268.34 88.0265ZM268.279 88.0265L268.072 87.9411V88.0022L268.279 88.0265ZM268.279 88.6001V88.7466H268.511V88.6124L268.279 88.6001ZM250.18 95.3246L250.046 95.4588L250.254 95.5198L250.388 95.41L250.18 95.3246ZM249.314 95.0561L249.448 94.9218H249.363H249.277L249.314 95.0561ZM249.168 95.0561V94.9096V95.0561ZM247.947 95.0561L247.825 95.2025L247.947 95.0561ZM244.652 93.7014L244.481 93.8234L244.652 93.7014ZM244.652 93.7014L244.469 93.8113L244.652 93.7014ZM244.091 93.4085L244.274 93.2987L244.091 93.4085ZM242.992 92.8838L243.139 92.7617L242.992 92.8838ZM242.626 92.7495L242.76 92.6153L242.626 92.7495ZM242.626 92.7495L242.76 92.6153L242.626 92.7495ZM242.626 92.7495L242.76 92.6153L242.626 92.7495ZM242.626 92.7495L242.76 92.6153L242.626 92.7495ZM242.626 92.7495L242.48 92.8838L242.626 92.7495ZM242.467 92.7495L242.602 92.6153L242.467 92.7495ZM242.467 92.7495L242.602 92.6275L242.467 92.7495ZM242.467 92.7495L242.333 92.8838L242.467 92.7495ZM242.467 92.7495L242.59 92.6153L242.467 92.7495ZM242.467 92.7495L242.345 92.8838L242.467 92.7495ZM242.467 92.7495L242.345 92.8838L242.467 92.7495ZM242.467 92.7495L242.333 92.8715L242.467 92.7495ZM242.467 92.7495L242.321 92.8838L242.467 92.7495ZM239.124 93.1278L238.904 93.0546L239.124 93.1278ZM239.99 95.0195L239.844 95.1537L239.99 95.0195ZM239.99 95.0195L240.173 94.8974L239.99 95.0195ZM239.99 95.0195L239.795 95.1293L239.99 95.0195ZM239.99 95.0195L239.844 95.1537L239.99 95.0195ZM239.99 95.0195L239.868 95.1537L239.99 95.0195ZM239.99 95.0195L240.1 94.873L239.99 95.0195ZM239.99 95.0195L240.137 94.8852L239.99 95.0195ZM240.137 95.0195L240.295 94.8974L240.137 95.0195ZM240.137 95.0195L239.99 95.1537L240.137 95.0195ZM240.503 95.1537L240.637 95.0195L240.503 95.1537ZM241.821 95.4954L241.918 95.3612L241.821 95.4954ZM241.821 95.4954L241.711 95.6419L241.821 95.4954ZM241.821 95.4954L241.918 95.349L241.821 95.4954ZM241.821 95.4954L241.918 95.349L241.821 95.4954ZM241.821 95.4954L241.931 95.3612L241.821 95.4954ZM241.821 95.4954L241.711 95.6419L241.821 95.4954ZM242.492 95.6541L242.602 95.5198L242.492 95.6541ZM242.553 95.6541L242.443 95.8005L242.553 95.6541ZM246.117 96.7646L246.287 96.6426L246.117 96.7646ZM246.666 97.4236H246.409H246.666ZM246.666 97.4236H246.922H246.666ZM246.666 97.4847H246.409H246.495H246.666ZM247.483 97.8264H247.715L247.825 97.7044L247.642 97.6311L247.483 97.8264ZM244.896 110.03L244.994 110.165H245.201V110.03H244.896ZM243.895 110.274L243.798 110.128H243.7L243.895 110.274ZM243.114 110.885L243.212 111.031L243.114 110.885ZM239.014 111.592V111.739V111.592ZM238.294 111.666V111.812V111.666ZM236.854 111.849L236.927 111.995L236.854 111.849ZM236.451 111.934L236.524 112.081L236.451 111.934ZM236.451 111.934L236.365 111.788L236.451 111.934ZM236.451 111.934L236.549 112.081L236.451 111.934ZM236.231 111.934L236.146 111.8L236.231 111.934ZM234.584 113.667L234.34 113.728L234.584 113.667ZM237.696 114.412V114.265H237.635L237.696 114.412ZM237.696 114.412V114.265V114.412ZM237.696 114.412V114.265V114.412ZM237.696 114.412V114.558H237.757L237.696 114.412ZM237.696 114.412V114.558H237.769H237.842L237.696 114.412ZM237.696 114.412L237.867 114.521L237.696 114.412ZM237.696 114.412L237.903 114.497L237.696 114.412ZM237.696 114.412L237.903 114.497L237.696 114.412ZM237.696 114.412L237.61 114.265L237.696 114.412ZM237.903 114.412L237.818 114.277L237.903 114.412ZM238.306 114.326L238.404 114.473L238.306 114.326ZM239.734 114.009L239.612 113.875L239.734 114.009ZM239.734 114.009L239.856 114.143L239.734 114.009ZM239.734 114.009L239.6 113.875L239.734 114.009ZM240.381 113.789L240.283 113.655L240.381 113.789ZM241.699 113.435L241.577 113.289L241.699 113.435ZM245.58 113.008L245.445 113.142H245.543H245.653L245.58 113.008ZM246.605 112.837L246.849 112.764L246.763 112.642H246.544L246.605 112.837ZM257.686 120.282L257.832 120.148L257.686 120.282ZM261.262 121.38H261.518L261.591 121.258L261.384 121.197L261.262 121.38ZM261.115 121.673H260.859H261.115ZM260.981 121.941H260.725H260.981ZM260.981 121.941L260.749 122.015L260.981 121.941ZM260.981 121.941L261.213 121.868L260.981 121.941ZM260.981 121.941L260.737 122.003L260.981 121.941ZM261.213 122.613H261.469H261.213ZM259.578 124.797L259.346 124.736L259.578 124.797ZM259.578 124.797L259.809 124.87L259.578 124.797ZM259.578 124.797L259.809 124.87L259.578 124.797ZM259.224 125.176L259.443 125.249L259.224 125.176ZM259.224 125.176L258.992 125.09L259.224 125.176ZM258.54 125.932L258.296 125.871L258.54 125.932ZM258.382 126.176H258.137H258.382ZM258.382 126.176H258.638H258.382ZM258.382 126.286H258.626H258.382ZM259.602 128.092L259.7 127.946L259.602 128.092ZM262.616 127.153H262.86H262.616ZM262.616 127.092H262.372H262.616ZM262.616 127.092H262.372H262.616ZM262.787 126.823H262.531H262.787ZM263.104 126.005H262.848H263.104ZM263.104 126.005H263.361H263.104ZM263.239 125.578H262.982H263.239ZM264.459 123.26L264.215 123.199L264.459 123.26ZM265.387 122.82L265.301 122.674L265.387 122.82ZM265.387 122.82L265.472 122.967L265.387 122.82ZM265.545 122.82L265.655 122.954H265.789V122.857L265.545 122.82ZM265.802 122.466L265.558 122.405L265.802 122.466ZM265.936 122.283L266.009 122.137H265.789L265.704 122.259L265.936 122.283ZM287.098 120.77L287.317 120.672L287.183 120.575L286.976 120.636L287.098 120.77ZM287.659 121.234L287.439 121.319H287.537L287.659 121.234ZM287.83 121.234V121.087V121.234ZM288.904 121.539L289.111 121.453L288.904 121.539ZM290.808 123.613L290.564 123.674L290.808 123.613ZM290.808 123.613L291.052 123.54L290.808 123.613ZM291.076 124.004H291.332H291.076ZM291.674 124.773L291.906 124.687L291.674 124.773ZM291.869 124.956L291.65 125.041L291.869 124.956ZM291.869 124.956L292.089 124.87L291.869 124.956ZM291.991 125.066L292.223 124.98L291.991 125.066ZM291.991 125.066L292.248 125.005L291.991 125.066ZM291.991 125.066H291.735H291.991ZM291.991 125.066L291.76 125.139L291.991 125.066ZM291.991 125.066L292.211 124.968L291.991 125.066ZM291.991 125.066L291.772 125.151L291.991 125.066ZM295.274 125.566L295.128 125.444L295.274 125.566ZM295.933 123.638L296.165 123.552L295.933 123.638ZM295.799 123.504L295.567 123.589L295.799 123.504ZM295.799 123.504L296.031 123.43L295.799 123.504ZM295.579 123.296L295.799 123.211L295.579 123.296ZM294.664 122.662L294.469 122.759L294.664 122.662ZM294.176 122.332L293.956 122.43L294.176 122.332ZM294.176 122.332L293.968 122.43L294.176 122.332ZM291.821 120.404H291.576H291.821ZM291.821 119.659H292.077H291.821ZM291.821 119.598H292.077H291.821ZM291.357 119.11L291.21 118.988L291.015 119.074L291.125 119.183L291.357 119.11ZM298.765 114.485L298.984 114.57L298.765 114.485ZM302.951 108.627V108.468H302.719V108.603L302.951 108.627ZM303.585 108.627V108.48V108.627ZM303.585 108.627V108.786V108.627ZM303.585 108.627V108.786V108.627ZM304.049 108.627V108.786H304.159H304.232L304.049 108.627ZM304.183 108.566L304.354 108.676L304.183 108.566ZM305.294 108.261V108.102V108.261ZM309.431 108.651L309.492 108.493L309.431 108.651ZM309.431 108.651L309.358 108.798L309.431 108.651ZM309.431 108.651L309.504 108.505L309.431 108.651ZM310.163 108.761L310.249 108.615L310.163 108.761ZM311.579 108.956V108.81V108.956ZM312.006 108.956V108.81V108.956ZM312.006 108.956V109.115V108.956ZM312.006 108.956V108.81V108.956ZM312.006 108.956V109.115V108.956ZM312.213 108.956V108.81V108.956ZM312.824 106.308V106.455V106.308ZM312.641 106.308V106.455V106.308ZM312.165 106.308V106.15V106.308ZM310.676 106.308V106.455V106.308ZM310.676 106.308V106.15V106.308ZM310.676 106.308V106.455V106.308ZM310.676 106.308V106.15V106.308ZM310.676 106.308V106.455V106.308ZM310.676 106.308V106.15V106.308ZM309.943 106.308V106.467V106.308ZM309.821 106.308V106.467V106.308ZM309.821 106.308V106.162V106.308ZM305.733 106.223L305.66 106.369L305.733 106.223ZM304.732 105.771L304.525 105.869L304.732 105.771ZM304.647 105.771L304.854 105.661H304.793H304.696L304.647 105.771ZM303.585 105.674H303.317V105.808H303.536L303.585 105.674ZM296.91 94.1285L296.714 94.0309L296.568 94.1285L296.702 94.2262L296.91 94.1285ZM297.617 93.677L297.813 93.7747H297.886V93.7136L297.617 93.677ZM297.923 92.896L297.727 92.7983L297.923 92.896ZM301.035 91.2972L301.193 91.4193L301.035 91.2972ZM301.132 91.2972L300.974 91.1752L301.132 91.2972ZM301.742 91.0409L301.596 90.9067L301.742 91.0409ZM302.963 90.504L302.78 90.3941L302.963 90.504ZM303.268 90.3331L303.073 90.2233L303.268 90.3331ZM303.268 90.3331L303.451 90.443L303.268 90.3331ZM303.427 90.2355L303.243 90.1256L303.427 90.2355ZM279.665 99.3641L279.568 99.5105H279.714H279.836L279.665 99.3641ZM288.831 94.6289L289.001 94.7388L289.245 94.6167L289.001 94.4947L288.831 94.6289ZM279.604 99.3519L279.702 99.2054H279.556L279.433 99.2665L279.604 99.3519ZM276.248 98.7051H276.517V98.6197H276.358L276.248 98.7051ZM276.248 98.7051H275.98V98.8027H276.126L276.248 98.7051ZM274.393 91.8098V91.6511H274.076V91.8342L274.393 91.8098ZM286.817 93.8234L286.963 93.6892L286.817 93.8234ZM292.919 96.9599L293.126 96.8623L292.931 96.7158L292.724 96.8623L292.919 96.9599ZM297.8 105.283V105.442H298.118V105.259L297.8 105.283ZM284.645 102.171L284.449 102.061L284.339 102.134V102.22L284.645 102.171ZM284.645 102.171L284.84 102.281L284.95 102.208V102.122L284.645 102.171ZM284.108 102.842H283.851H284.108ZM285.78 104.063L286.036 104.002L285.975 103.928H285.828L285.78 104.063ZM285.78 104.063H285.535V104.136H285.682L285.78 104.063ZM269.121 99.0834L269.268 99.2054H269.39V99.12L269.121 99.0834ZM268.633 92.0905H268.901V91.9074H268.584L268.633 92.0905ZM269.084 99.0956L268.938 98.9735H268.804V99.059L269.084 99.0956ZM267.254 100.316V100.17V100.316ZM266.033 100.182L266.168 100.048H266.033H265.899L266.033 100.182ZM266.033 100.182L265.899 100.316H266.033H266.168L266.033 100.182ZM255.599 97.0331L255.392 96.9355L255.196 97.0819L255.465 97.1674L255.599 97.0331ZM296.958 108.529H297.215L297.3 108.346H296.983L296.958 108.529ZM293.785 112.788L294.005 112.862L293.785 112.788ZM284.876 108.297V108.139H284.718L284.632 108.212L284.876 108.297ZM284.876 108.297V108.456H285.035L285.121 108.383L284.876 108.297ZM283.656 108.48L283.522 108.358L283.656 108.48ZM282.924 110.055L283.143 110.14L283.241 110.067L283.156 109.982L282.924 110.055ZM282.924 110.055L282.704 109.982L282.607 110.055L282.692 110.14L282.924 110.055ZM288.611 116.157L288.379 116.23L288.525 116.389L288.782 116.279L288.611 116.157ZM277.871 104.758H278.14V104.685H278.054L277.871 104.758ZM275.296 103.269L275.492 103.16L275.394 103.099H275.272L275.296 103.269ZM277.408 106.87L277.542 107.004H277.652V106.931L277.408 106.87ZM274.259 108.017L274.174 108.163H274.283H274.393L274.259 108.017ZM270.805 107.346H270.549V107.419H270.671L270.805 107.346ZM269.585 105.344L269.365 105.259H269.292V105.332L269.585 105.344ZM271.586 103.526V103.367H271.464L271.403 103.428L271.586 103.526ZM276.468 112.068L276.651 111.959L276.468 112.068ZM276.761 112.276L276.541 112.361L276.639 112.435H276.797L276.761 112.276ZM275.784 111.837L275.87 111.702L275.784 111.837ZM273.209 112.532V112.679H273.368V112.593L273.209 112.532ZM273.209 112.532V112.386H273.051L272.99 112.459L273.209 112.532ZM268.401 119.025L268.157 118.964L268.035 119.135H268.34L268.401 119.025ZM283.693 117.926L283.802 118.073L284.095 117.987L283.912 117.841L283.693 117.926ZM276.822 112.276L277.041 112.178L276.956 112.105H276.797L276.822 112.276ZM262.665 105.466L262.445 105.393L262.665 105.466ZM262.445 104.038L262.629 103.928L262.445 104.038ZM261.689 105.942L261.603 105.796H261.457V105.881L261.689 105.942ZM261.689 105.942L261.786 106.089H261.933V106.003L261.689 105.942ZM250.571 108.676H250.315L250.376 108.859L250.669 108.786L250.571 108.676ZM252.463 99.9011L252.621 99.779L252.365 99.6692L252.231 99.8401L252.463 99.9011ZM262.14 103.843H262.409V103.758H262.287L262.14 103.843ZM262.14 103.843H261.872V103.941H261.994L262.14 103.843ZM265.924 110.03L265.741 110.14L265.924 110.03ZM266.436 110.494H266.692H266.436ZM263.995 109.786L263.8 109.896L263.91 109.957H264.069L263.995 109.786ZM263.995 109.786L264.191 109.676L264.081 109.615H263.922L263.995 109.786ZM252.414 111.788L252.353 111.641L252.048 111.702L252.182 111.861L252.414 111.788ZM260.957 117.28L260.81 117.414L260.957 117.28ZM263.043 117.951L262.921 118.085L263.214 118.17L263.3 117.987L263.043 117.951ZM266.546 111.251H266.802V111.165L266.692 111.104L266.546 111.251ZM266.546 111.251H266.302V111.336L266.412 111.397L266.546 111.251ZM300.571 88.5635C301.038 88.304 301.559 88.1567 302.093 88.1334C302.626 88.1101 303.158 88.2114 303.646 88.4293L304.037 88.2096C303.43 87.9297 302.765 87.7972 302.097 87.8226C301.429 87.848 300.777 88.0308 300.192 88.3561L300.571 88.5635ZM300.571 88.5635L300.192 88.3561L300.571 88.5635ZM300.571 88.5635L300.168 88.3805L300.571 88.5635ZM300.424 88.649L300.571 88.5757L300.205 88.3561L300.058 88.4293L300.424 88.649ZM300.424 88.649L300.07 88.4293L300.424 88.649ZM300.424 88.649L300.058 88.4293L300.424 88.649ZM300.424 88.649L300.058 88.4293L300.424 88.649ZM300.424 88.649L300.058 88.4293L300.424 88.649ZM300.424 88.649L300.058 88.4293L300.424 88.649ZM300.144 88.8076L300.424 88.649L300.058 88.4293L299.765 88.6001L300.144 88.8076ZM299.253 89.4788C299.533 89.2339 299.831 89.0096 300.144 88.8076L299.765 88.6001C299.432 88.8133 299.114 89.0499 298.813 89.308L299.253 89.4788ZM298.801 89.8328L299.253 89.4788L298.813 89.308L298.374 89.6619L298.801 89.8328ZM298.801 89.8328L298.386 89.6375L298.801 89.8328ZM295.945 91.6877C296.946 91.148 297.901 90.5276 298.801 89.8328L298.386 89.6497C297.512 90.3301 296.581 90.9343 295.604 91.4559L295.945 91.6877ZM294.383 91.9196C294.905 91.9341 295.425 91.8598 295.921 91.7L295.628 91.4437C295.232 91.5609 294.82 91.6145 294.408 91.6023L294.383 91.9196ZM293.822 92.2613L294.566 91.8708L294.225 91.6511L293.48 92.0295L293.822 92.2613ZM290.161 90.8701C291.301 91.2711 292.417 91.7355 293.505 92.2613L293.859 92.0295C292.751 91.4914 291.614 91.0148 290.454 90.6016L290.161 90.8701ZM273.649 88.4293C279.256 88.2283 284.852 89.0555 290.161 90.8701L290.454 90.6016C285.049 88.742 279.348 87.8939 273.637 88.0998L273.649 88.4293ZM273.222 87.7214C273.222 87.8191 273.319 88.1242 273.38 88.3073L273.905 88.2462C273.905 88.0754 273.771 87.7581 273.746 87.6727L273.222 87.7214ZM273.222 87.7214H273.344L273.673 87.4774L273.539 87.4163L273.222 87.7214ZM273.222 87.7214L273.502 87.453L273.222 87.7214ZM273.222 87.7214L273.502 87.453L273.222 87.7214ZM273.222 87.7214L273.502 87.453L273.222 87.7214ZM273.222 87.7214L273.502 87.453L273.222 87.7214ZM273.222 87.7214L273.502 87.453L273.222 87.7214ZM272.38 87.0868C272.566 87.3956 272.863 87.6223 273.209 87.7214L273.527 87.4652C273.234 87.3431 273.002 87.2455 272.892 87.0014L272.38 87.0868ZM272.221 84.646C272.137 85.4628 272.19 86.2879 272.38 87.0868H272.904C272.72 86.316 272.67 85.5192 272.758 84.7315L272.221 84.646ZM272.221 84.646H272.758H272.221ZM272.282 84.2067C272.282 84.3531 272.282 84.4874 272.221 84.646H272.758C272.758 84.4996 272.758 84.3654 272.758 84.2311L272.282 84.2067ZM272.282 83.3646C272.319 83.64 272.319 83.9191 272.282 84.1945H272.807C272.844 83.9028 272.844 83.6075 272.807 83.3158L272.282 83.3646ZM272.282 83.0962C272.282 83.1938 272.282 83.2914 272.282 83.3646H272.819C272.825 83.2712 272.825 83.1774 272.819 83.0839L272.282 83.0962ZM272.282 83.0962H272.807H272.282ZM272.282 82.9985V83.0962H272.807V82.9985H272.282ZM271.672 82.1809C271.826 82.265 271.961 82.3817 272.066 82.5229C272.172 82.664 272.245 82.8263 272.282 82.9985H272.819C272.769 82.7898 272.676 82.5939 272.546 82.4235C272.416 82.2532 272.251 82.1123 272.062 82.01L271.672 82.1809ZM270.036 81.8269C270.604 81.7819 271.173 81.905 271.672 82.1809L272.062 81.9734C271.434 81.6111 270.709 81.4532 269.988 81.5218L270.036 81.8269ZM268.23 83.3036C268.108 82.5592 268.938 81.9124 270.036 81.8269V81.5218C268.596 81.6317 267.596 82.4615 267.754 83.3402L268.23 83.3036ZM268.23 83.3036H267.705H268.23ZM268.23 83.3036L267.705 83.3646L268.23 83.3036ZM268.23 83.4013V83.3036H267.693C267.699 83.3359 267.699 83.369 267.693 83.4013H268.23ZM268.23 83.4013H267.693H268.23ZM268.23 83.6331C268.23 83.5721 268.23 83.4867 268.23 83.389H267.693C267.693 83.4745 267.693 83.5721 267.693 83.6453L268.23 83.6331ZM268.56 84.4264C268.418 84.1765 268.307 83.91 268.23 83.6331H267.705C267.78 83.9283 267.895 84.2117 268.047 84.4752L268.56 84.4264ZM268.56 84.4264L268.059 84.5606L268.56 84.4264ZM268.56 84.4264L268.059 84.5362L268.56 84.4264ZM268.767 84.8535C268.706 84.707 268.633 84.5606 268.572 84.4264L268.059 84.524C268.12 84.6582 268.194 84.7925 268.255 84.9389L268.767 84.8535ZM269.438 87.2943C269.352 86.449 269.125 85.6241 268.767 84.8535L268.255 84.9389C268.591 85.6817 268.809 86.4722 268.901 87.2821L269.438 87.2943ZM268.816 88.0754C268.948 87.9813 269.07 87.875 269.182 87.7581C269.308 87.6346 269.397 87.4781 269.438 87.3065H268.901C268.877 87.4294 268.812 87.5409 268.718 87.6238C268.618 87.7278 268.507 87.8218 268.389 87.9045L268.816 88.0754ZM268.755 88.0754H268.816L268.389 87.8923L268.328 87.9533L268.755 88.0754ZM268.84 88.5513V87.9778H268.303V88.5513H268.84ZM250.681 95.3734C255.233 91.883 261.664 89.5887 268.621 88.71L268.523 88.4049C261.469 89.2958 254.891 91.6389 250.217 95.2025L250.681 95.3734ZM249.46 95.1537L250.327 95.4222L250.595 95.1537L249.729 94.8852L249.46 95.1537ZM249.46 95.1537H249.497V94.8486H249.351L249.46 95.1537ZM248.081 95.1537C248.316 95.1844 248.554 95.1844 248.789 95.1537C249.013 95.1671 249.237 95.1671 249.46 95.1537V94.8608H248.838C248.676 94.8757 248.512 94.8757 248.35 94.8608L248.081 95.1537ZM244.615 93.8845C245.696 94.4234 246.813 94.8843 247.959 95.2636L248.216 94.9828C247.096 94.621 246.007 94.1721 244.957 93.6404L244.615 93.8845ZM244.615 93.8845L244.957 93.6404L244.615 93.8845ZM244.042 93.6038L244.603 93.8845L244.957 93.6526L244.408 93.3719L244.042 93.6038ZM242.968 93.079C243.337 93.2295 243.696 93.4048 244.042 93.6038L244.408 93.3719C244.044 93.1645 243.664 92.985 243.273 92.8349L242.968 93.079ZM242.614 92.957L242.968 93.079L243.273 92.8349L242.895 92.6885L242.614 92.957ZM242.614 92.957L242.882 92.6885L242.614 92.957ZM242.614 92.957L242.882 92.6885L242.614 92.957ZM242.614 92.957L242.882 92.6885L242.614 92.957ZM242.614 92.957L242.87 92.6885L242.614 92.957ZM242.443 92.896L242.602 92.957L242.882 92.6885H242.724L242.443 92.896ZM242.443 92.896L242.724 92.6397L242.443 92.896ZM242.443 92.896L242.712 92.6275L242.443 92.896ZM242.443 92.896L242.724 92.6275L242.443 92.896ZM242.443 92.896L242.687 92.6153L242.443 92.896ZM242.443 92.896L242.687 92.6153L242.443 92.896ZM242.443 92.896L242.687 92.6275L242.443 92.896ZM242.443 92.896L242.712 92.6397L242.443 92.896ZM239.453 93.2255C239.888 92.9391 240.385 92.76 240.902 92.7027C241.42 92.6454 241.944 92.7117 242.431 92.896L242.712 92.6397C242.111 92.4143 241.466 92.3355 240.829 92.4098C240.192 92.4841 239.583 92.7093 239.05 93.0668L239.453 93.2255ZM240.246 94.8974C239.185 94.5069 238.867 93.7624 239.453 93.2255L239.014 93.0668C238.245 93.7746 238.696 94.7021 239.953 95.1659L240.246 94.8974ZM240.246 94.8974L239.966 95.1659L240.246 94.8974ZM240.246 94.8974L239.868 95.1171L240.246 94.8974ZM240.246 94.8974L239.917 95.1293L240.246 94.8974ZM240.246 94.8974L239.953 95.1659L240.246 94.8974ZM240.246 94.8974L240.039 95.1781L240.246 94.8974ZM240.307 94.8974L240.088 95.1781L240.307 94.8974ZM240.454 94.9585L240.307 94.8974L240.015 95.1659H240.161L240.454 94.9585ZM240.454 94.9585L240.149 95.2147L240.454 94.9585ZM240.796 95.0805L240.442 94.9585L240.149 95.2147L240.527 95.349L240.796 95.0805ZM242.077 95.41C241.643 95.3289 241.215 95.2188 240.796 95.0805L240.527 95.349C240.972 95.491 241.424 95.6091 241.882 95.7029L242.077 95.41ZM242.077 95.41L241.87 95.6907L242.077 95.41ZM242.077 95.41L241.931 95.7029L242.077 95.41ZM242.077 95.41L241.882 95.7029L242.077 95.41ZM242.077 95.41L241.882 95.7029L242.077 95.41ZM242.077 95.41L241.857 95.6907L242.077 95.41ZM242.748 95.5687L242.065 95.3978L241.87 95.6907L242.529 95.8493L242.748 95.5687ZM242.821 95.5687H242.748L242.516 95.8493H242.59L242.821 95.5687ZM246.422 96.6914C245.248 96.2359 244.046 95.8608 242.821 95.5687L242.59 95.8493C243.78 96.1319 244.95 96.4948 246.092 96.9355L246.422 96.6914ZM247.068 97.4359C247.02 97.3056 246.954 97.1825 246.873 97.0697C246.759 96.9102 246.609 96.7804 246.434 96.6914L246.08 96.9355C246.205 96.9944 246.311 97.0875 246.385 97.204C246.455 97.2976 246.513 97.4002 246.556 97.5091L247.068 97.4359ZM247.068 97.4359L246.58 97.5579L247.068 97.4359ZM247.068 97.5213V97.4603L246.556 97.5335V97.6067L247.068 97.5213ZM247.788 97.7654L246.971 97.4359L246.666 97.6921L247.483 98.0216L247.788 97.7654ZM245.348 109.969C243.7 106.064 244.457 101.768 247.911 97.924L247.447 97.7898C243.932 101.707 243.163 106.064 244.835 109.994L245.348 109.969ZM244.188 110.397L245.189 110.152L244.994 109.872L243.993 110.116L244.188 110.397ZM243.432 111.007C243.634 110.939 243.821 110.831 243.981 110.689C244.108 110.58 244.222 110.457 244.323 110.323L243.847 110.201C243.758 110.319 243.655 110.425 243.541 110.519C243.437 110.618 243.312 110.693 243.175 110.738L243.432 111.007ZM239.258 111.727C240.654 111.572 242.039 111.336 243.407 111.019L243.2 110.738C241.867 111.046 240.519 111.278 239.16 111.434L239.258 111.727ZM238.526 111.8L239.258 111.727L239.16 111.434L238.44 111.507L238.526 111.8ZM237.122 111.983C237.623 111.898 238.062 111.849 238.526 111.8L238.44 111.507C237.949 111.543 237.46 111.604 236.976 111.69L237.122 111.983ZM236.732 112.068L237.122 111.983L236.976 111.69L236.549 111.788L236.732 112.068ZM236.732 112.068L236.573 111.776L236.732 112.068ZM236.732 112.068L236.549 111.788L236.732 112.068ZM236.5 112.068H236.732L236.549 111.788H236.329L236.5 112.068ZM234.852 113.679C234.51 113.094 235.133 112.398 236.329 112.142L236.158 111.861C234.742 112.166 233.9 113.008 234.352 113.789L234.852 113.679ZM237.635 114.326C237.156 114.479 236.644 114.499 236.155 114.385C235.665 114.271 235.215 114.028 234.852 113.679L234.352 113.789C234.803 114.558 236.366 114.912 237.793 114.619L237.635 114.326ZM237.696 114.326V114.619V114.326ZM237.696 114.326L237.635 114.619L237.696 114.326ZM237.696 114.326L237.635 114.619L237.696 114.326ZM237.696 114.326V114.619V114.326ZM237.549 114.326L237.891 114.558L237.549 114.326ZM237.549 114.326L237.964 114.497L237.549 114.326ZM237.549 114.326L237.964 114.497L237.549 114.326ZM237.671 114.265H237.562L237.989 114.436H237.891L237.671 114.265ZM237.879 114.265H237.671L237.842 114.558H238.037L237.879 114.265ZM238.282 114.18L237.879 114.265L238.037 114.546L238.465 114.46L238.282 114.18ZM239.502 113.801C239.102 113.948 238.694 114.074 238.282 114.18L238.465 114.46C238.977 114.338 239.392 114.204 239.795 114.07L239.502 113.801ZM239.502 113.801L239.734 114.07L239.502 113.801ZM239.502 113.801L239.77 114.07L239.502 113.801ZM240.173 113.582L239.502 113.801L239.758 114.07L240.405 113.85L240.173 113.582ZM241.479 113.216C241.052 113.35 240.625 113.472 240.185 113.582L240.393 113.862L241.711 113.496L241.479 113.216ZM244.432 112.581C243.429 112.689 242.439 112.902 241.479 113.216L241.711 113.496C242.606 113.195 243.53 112.99 244.469 112.886L244.432 112.581ZM245.653 112.801C245.263 112.653 244.849 112.579 244.432 112.581V112.886C244.734 112.892 245.032 112.954 245.311 113.069L245.653 112.801ZM246.483 112.618L245.445 112.788L245.592 113.081L246.617 112.911L246.483 112.618ZM257.771 120.074C252.719 118.256 249.009 115.656 246.788 112.691L246.312 112.825C248.557 115.827 252.341 118.476 257.478 120.331L257.771 120.074ZM261.323 121.16C260.121 120.859 258.936 120.497 257.771 120.074L257.478 120.331C258.699 120.758 259.858 121.124 261.14 121.441L261.323 121.16ZM261.323 121.649C261.384 121.539 261.445 121.429 261.481 121.344L260.981 121.27C260.981 121.344 260.883 121.453 260.822 121.563L261.323 121.649ZM261.201 121.905C261.235 121.817 261.276 121.731 261.323 121.649L260.822 121.563L260.688 121.832L261.201 121.905ZM261.201 121.819L260.725 121.966L261.201 121.819ZM261.201 121.88V121.819L260.737 121.966L261.201 121.88ZM261.201 121.88L260.725 122.015L261.201 121.88ZM261.457 122.662C261.501 122.521 261.5 122.37 261.454 122.23C261.408 122.09 261.319 121.968 261.201 121.88L260.737 122.027C260.896 122.198 261.03 122.356 260.944 122.601L261.457 122.662ZM259.797 124.883C260.44 124.214 260.998 123.468 261.457 122.662L260.944 122.588C260.498 123.372 259.957 124.097 259.333 124.748L259.797 124.883ZM259.797 124.883L259.321 124.761L259.797 124.883ZM259.797 124.883L259.333 124.748L259.797 124.883ZM259.419 125.273L259.785 124.895L259.321 124.748C259.213 124.879 259.094 125.002 258.967 125.115L259.419 125.273ZM259.419 125.273L258.967 125.115L259.419 125.273ZM258.76 126.005C258.957 125.742 259.177 125.497 259.419 125.273L258.967 125.115C258.714 125.355 258.481 125.616 258.272 125.896L258.76 126.005ZM258.613 126.25L258.76 126.005L258.272 125.896L258.113 126.152L258.613 126.25ZM258.613 126.25L258.113 126.152L258.613 126.25ZM258.54 126.359L258.613 126.25L258.113 126.152C258.088 126.186 258.068 126.223 258.052 126.262L258.54 126.359ZM259.663 127.97C258.638 127.775 258.101 127.055 258.54 126.359L258.052 126.262C257.527 127.092 258.137 127.995 259.48 128.263L259.663 127.97ZM262.323 127.128C261.996 127.495 261.577 127.766 261.109 127.914C260.641 128.062 260.141 128.082 259.663 127.97L259.48 128.263C260.079 128.407 260.706 128.386 261.294 128.203C261.883 128.021 262.411 127.683 262.824 127.226L262.323 127.128ZM262.323 127.067V127.128L262.824 127.226L262.323 127.067ZM262.323 127.067L262.824 127.177V127.116L262.323 127.067ZM262.482 126.811L262.323 127.067L262.824 127.165L262.982 126.896L262.482 126.811ZM262.787 126.005C262.719 126.286 262.617 126.556 262.482 126.811L262.982 126.896C263.126 126.63 263.237 126.347 263.312 126.054L262.787 126.005ZM262.787 126.005H263.3H262.787ZM262.921 125.578C262.86 125.725 262.824 125.871 262.775 126.005H263.3L263.434 125.578H262.921ZM264.142 123.223C263.62 123.943 263.208 124.737 262.921 125.578H263.434C263.73 124.76 264.141 123.987 264.654 123.284L264.142 123.223ZM265.216 122.71C264.813 122.765 264.438 122.944 264.142 123.223L264.618 123.357C264.839 123.155 265.115 123.024 265.411 122.979L265.216 122.71ZM265.216 122.71L265.374 123.003L265.216 122.71ZM265.35 122.71H265.204L265.399 122.991H265.57L265.35 122.71ZM265.472 122.442C265.412 122.508 265.354 122.577 265.301 122.649V122.747C265.295 122.779 265.295 122.812 265.301 122.845H265.826L265.887 122.771L266.046 122.564L265.472 122.442ZM265.619 122.259L265.472 122.442L265.948 122.564L266.094 122.369L265.619 122.259ZM286.89 120.672C280.086 122.652 272.94 123.163 265.924 122.173L265.789 122.466C272.932 123.479 280.208 122.959 287.134 120.941L286.89 120.672ZM287.793 121.185C287.708 121.099 287.403 120.855 287.232 120.709L286.792 120.892L287.354 121.356L287.793 121.185ZM287.793 121.185H287.635L287.513 121.478H287.696L287.793 121.185ZM289.014 121.539C288.645 121.315 288.224 121.193 287.793 121.185L287.696 121.49C288.018 121.492 288.334 121.581 288.611 121.746L289.014 121.539ZM290.966 123.638C290.406 122.867 289.754 122.166 289.026 121.551L288.599 121.734C289.306 122.334 289.937 123.018 290.478 123.772L290.966 123.638ZM290.966 123.638L290.478 123.772L290.966 123.638ZM291.247 124.053L290.966 123.638L290.478 123.772L290.747 124.163L291.247 124.053ZM291.821 124.785C291.603 124.563 291.41 124.318 291.247 124.053L290.747 124.163C290.919 124.442 291.12 124.704 291.345 124.944L291.821 124.785ZM292.004 124.968L291.821 124.785L291.345 124.944L291.564 125.139L292.004 124.968ZM292.004 124.968L291.564 125.139L292.004 124.968ZM292.126 125.078L292.004 124.968L291.564 125.139L291.674 125.237L292.126 125.078ZM292.126 125.078L291.662 125.237L292.126 125.078ZM292.126 125.078L291.625 125.188L292.126 125.078ZM292.126 125.078L291.637 125.212L292.126 125.078ZM292.126 125.078L291.674 125.237L292.126 125.078ZM292.126 125.078L291.698 125.273L292.126 125.078ZM295.03 125.542C294.545 125.709 294.026 125.754 293.52 125.673C293.013 125.592 292.534 125.388 292.126 125.078L291.674 125.249C292.193 125.633 292.798 125.884 293.436 125.98C294.075 126.076 294.727 126.013 295.335 125.798L295.03 125.542ZM295.604 123.809C296.251 124.431 295.97 125.2 295.03 125.542L295.311 125.798C296.531 125.346 296.836 124.394 296.068 123.65L295.604 123.809ZM295.47 123.687L295.604 123.809L296.068 123.65L295.933 123.528L295.47 123.687ZM295.47 123.687L295.933 123.528L295.47 123.687ZM295.262 123.479L295.47 123.687L295.933 123.528L295.701 123.308L295.262 123.479ZM294.371 122.857C294.682 123.043 294.98 123.251 295.262 123.479L295.701 123.308C295.405 123.066 295.091 122.845 294.762 122.649L294.371 122.857ZM293.871 122.539L294.371 122.857L294.762 122.649L294.274 122.332L293.871 122.539ZM293.871 122.539L294.298 122.344L293.871 122.539ZM291.43 120.587C292.171 121.324 292.989 121.978 293.871 122.539L294.286 122.344C293.45 121.79 292.673 121.152 291.967 120.44L291.43 120.587ZM291.43 119.745C291.43 119.842 291.357 119.977 291.332 120.123C291.312 120.282 291.351 120.443 291.442 120.575L291.93 120.453C291.872 120.358 291.85 120.245 291.869 120.135C291.883 120.018 291.912 119.903 291.955 119.794L291.43 119.745ZM291.43 119.684V119.745H291.955V119.684H291.43ZM291.003 119.293L291.454 119.781L291.93 119.635L291.479 119.147L291.003 119.293ZM298.423 114.521C296.24 116.426 293.769 117.97 291.1 119.098L291.406 119.342C294.128 118.196 296.649 116.622 298.874 114.68L298.423 114.521ZM302.572 108.712C301.677 110.955 300.254 112.948 298.423 114.521L298.862 114.68C300.735 113.082 302.189 111.05 303.097 108.761L302.572 108.712ZM303.488 108.603H302.853V108.908H303.475L303.488 108.603ZM303.488 108.603V108.908V108.603ZM303.488 108.603V108.908V108.603ZM303.951 108.603H303.488V108.908H303.951V108.603ZM303.89 108.603L303.768 108.664L304.098 108.908L304.232 108.834L303.89 108.603ZM305.172 108.273C304.724 108.276 304.284 108.389 303.89 108.603L304.232 108.834C304.523 108.671 304.85 108.583 305.184 108.578L305.172 108.273ZM309.37 108.651C307.987 108.447 306.593 108.321 305.196 108.273V108.578C306.561 108.623 307.922 108.75 309.272 108.956L309.37 108.651ZM309.37 108.651L309.236 108.956L309.37 108.651ZM309.37 108.651L309.236 108.956L309.37 108.651ZM310.127 108.773L309.382 108.664L309.236 108.956L309.956 109.066L310.127 108.773ZM311.493 108.969C310.993 108.969 310.566 108.859 310.127 108.773L309.956 109.066C310.436 109.161 310.921 109.23 311.408 109.274L311.493 108.969ZM311.921 108.969H311.493L311.408 109.274H311.86L311.921 108.969ZM311.921 108.969L311.86 109.274L311.921 108.969ZM311.921 108.969L311.86 109.274L311.921 108.969ZM311.921 108.969L311.86 109.274L311.921 108.969ZM312.14 108.969H311.921L311.86 109.274H312.067L312.14 108.969ZM314.691 107.919C314.544 108.554 313.47 109.042 312.14 108.969L312.067 109.274C313.605 109.359 315.033 108.786 315.228 107.956L314.691 107.919ZM312.677 106.613C313.971 106.686 314.837 107.284 314.691 107.919H315.228C315.411 107.089 314.276 106.357 312.787 106.272L312.677 106.613ZM312.494 106.613H312.677L312.75 106.308H312.567L312.494 106.613ZM312.03 106.613H312.494L312.567 106.308H312.079L312.03 106.613ZM310.578 106.613C311.054 106.613 311.506 106.613 312.03 106.613V106.308C311.469 106.308 310.981 106.308 310.505 106.308L310.578 106.613ZM310.578 106.613V106.308V106.613ZM310.578 106.613V106.308V106.613ZM310.578 106.613V106.308V106.613ZM310.578 106.613V106.308V106.613ZM310.578 106.613V106.308V106.613ZM310.578 106.613V106.308V106.613ZM310.578 106.613V106.308V106.613ZM309.834 106.613H310.578V106.308H309.846L309.834 106.613ZM309.712 106.613H309.821V106.308H309.699L309.712 106.613ZM309.712 106.613V106.308V106.613ZM305.587 106.516C306.963 106.626 308.344 106.658 309.724 106.613V106.308C308.381 106.348 307.036 106.316 305.696 106.211L305.587 106.516ZM304.427 106.015C304.564 106.119 304.712 106.209 304.867 106.284C305.083 106.401 305.319 106.479 305.562 106.516L305.709 106.223C305.541 106.195 305.38 106.137 305.233 106.052C305.095 105.988 304.964 105.911 304.842 105.82L304.427 106.015ZM304.354 106.015H304.427L304.842 105.82H304.757L304.354 106.015ZM303.439 106.015L304.501 106.101L304.598 105.796L303.536 105.71L303.439 106.015ZM296.605 94.4093C301.205 97.6067 303.524 101.732 303.219 105.857H303.756C304.061 101.634 301.706 97.4602 297.019 94.2018L296.605 94.4093ZM297.325 93.7502L296.617 94.214L297.019 94.4093L297.715 93.9577L297.325 93.7502ZM297.251 93.7502V93.8357H297.788V93.738L297.251 93.7502ZM297.617 92.957C297.487 93.04 297.382 93.159 297.317 93.2997C297.253 93.4404 297.23 93.5968 297.251 93.7502H297.788C297.768 93.6382 297.782 93.5226 297.827 93.4183C297.873 93.314 297.949 93.2256 298.045 93.1645L297.617 92.957ZM300.766 91.346C299.678 91.7947 298.628 92.3336 297.63 92.957L298.032 93.1522C299.009 92.5453 300.034 92.0188 301.096 91.5779L300.766 91.346ZM300.864 91.346H300.766L301.096 91.5779H301.193L300.864 91.346ZM301.498 91.0775L300.876 91.346L301.193 91.5901C301.388 91.4925 301.596 91.4193 301.803 91.3339L301.498 91.0775ZM302.719 90.565C302.323 90.7606 301.915 90.9318 301.498 91.0775L301.803 91.3339C302.222 91.1772 302.629 90.9938 303.024 90.7847L302.719 90.565ZM303.012 90.3941C302.902 90.4551 302.804 90.5284 302.719 90.565L303.073 90.7847C303.183 90.7329 303.29 90.6717 303.39 90.6016L303.012 90.3941ZM303.012 90.3941L303.39 90.6138L303.012 90.3941ZM303.182 90.2965L303.012 90.3941L303.39 90.6016L303.549 90.5162L303.182 90.2965ZM303.414 88.5147C304.183 88.9662 304.122 89.7351 303.182 90.2965L303.549 90.5162C304.659 89.8694 304.769 88.8808 303.805 88.295L303.414 88.5147ZM279.702 99.4983L288.867 94.7632L288.513 94.5313L279.348 99.2786L279.702 99.4983ZM279.385 99.4983L279.568 99.2054L279.385 99.4983ZM276.48 99.4983C276.973 99.7425 277.516 99.8696 278.067 99.8696C278.617 99.8696 279.16 99.7425 279.653 99.4983L279.299 99.2786C278.919 99.4624 278.501 99.5579 278.079 99.5579C277.656 99.5579 277.239 99.4624 276.858 99.2786L276.48 99.4983ZM275.858 98.7783C275.908 98.9339 275.989 99.0778 276.096 99.2015C276.203 99.3252 276.333 99.4261 276.48 99.4983L276.858 99.2786C276.745 99.2219 276.645 99.143 276.563 99.0465C276.481 98.95 276.42 98.8381 276.382 98.7173L275.858 98.7783ZM276.004 98.8881L276.175 98.583L276.004 98.8881ZM273.978 91.8708L275.833 98.7661H276.358L274.503 91.8586L273.978 91.8708ZM286.817 93.7258C282.775 92.328 278.523 91.6385 274.247 91.6877V91.9928C278.432 91.9452 282.594 92.6224 286.548 93.9943L286.817 93.7258ZM288.867 94.5435C288.22 94.2628 287.537 93.9821 286.817 93.7258L286.536 93.9943C287.232 94.2384 287.891 94.5069 288.525 94.7998L288.867 94.5435ZM292.528 97.0942C295.689 99.4495 297.337 102.354 297.3 105.332H297.837C297.837 102.293 296.177 99.3275 292.955 96.9111L292.528 97.0942ZM284.889 102.269L293.102 96.9843L292.711 96.7891L284.498 102.061L284.889 102.269ZM284.95 102.122L284.437 102.22L284.95 102.122ZM284.425 102.854C284.46 102.733 284.519 102.619 284.599 102.521C284.679 102.422 284.777 102.341 284.889 102.281L284.51 102.073C284.363 102.15 284.234 102.255 284.129 102.383C284.024 102.511 283.946 102.659 283.9 102.818L284.425 102.854ZM285.877 103.965C284.95 103.892 284.303 103.404 284.425 102.854H283.9C283.741 103.574 284.584 104.209 285.78 104.307L285.877 103.965ZM286.097 104.075L285.596 104.197L286.097 104.075ZM297.776 105.063L285.889 103.977L285.792 104.282L297.678 105.368L297.776 105.063ZM269.451 99.1444L268.962 92.1515H268.425L268.926 99.1444H269.451ZM269.292 99.2909L268.999 99.0346L269.292 99.2909ZM267.303 100.584C268.523 100.487 269.426 99.8644 269.365 99.1566H268.828C268.828 99.6936 268.181 100.182 267.242 100.255L267.303 100.584ZM265.911 100.426C266.361 100.568 266.833 100.622 267.303 100.584V100.279C266.944 100.304 266.584 100.262 266.241 100.157L265.911 100.426ZM266.143 100.426L265.875 100.157L266.143 100.426ZM255.44 97.1552L265.875 100.426L266.143 100.157L255.709 96.9233L255.44 97.1552ZM268.584 92.0417C263.86 92.622 259.335 94.2932 255.367 96.9233L255.782 97.1185C259.657 94.5296 264.082 92.8791 268.706 92.2979L268.584 92.0417ZM296.653 108.529C295.92 110.116 294.855 111.527 293.529 112.666L293.981 112.825C295.333 111.658 296.419 110.214 297.166 108.59L296.653 108.529ZM284.889 108.395L296.946 108.688V108.383L284.889 108.078V108.395ZM285.108 108.395L284.669 108.224L285.108 108.395ZM283.802 108.627C284.143 108.508 284.504 108.454 284.864 108.468V108.151C284.395 108.137 283.927 108.212 283.485 108.371L283.802 108.627ZM283.168 109.994C282.716 109.53 282.997 108.92 283.802 108.627L283.534 108.371C282.472 108.749 282.118 109.591 282.704 110.152L283.168 109.994ZM283.168 110.177L282.729 110.018L283.168 110.177ZM288.879 116.096L283.18 109.994L282.716 110.152L288.403 116.254L288.879 116.096ZM293.615 112.703C292.077 114.066 290.345 115.193 288.477 116.047L288.806 116.291C290.715 115.407 292.487 114.252 294.066 112.862L293.615 112.703ZM278.091 104.661L275.516 103.172L275.125 103.391L277.7 104.88L278.091 104.661ZM277.7 106.894L278.164 104.783H277.639L277.176 106.894H277.7ZM274.418 108.114L277.566 106.967L277.298 106.711L274.149 107.858L274.418 108.114ZM270.756 107.455L274.21 108.127L274.393 107.834L270.939 107.162L270.756 107.455ZM269.426 105.356L270.647 107.358L271.159 107.26L269.939 105.246L269.426 105.356ZM271.452 103.404L269.451 105.222L269.902 105.381L271.891 103.562L271.452 103.404ZM275.308 103.074L271.647 103.33V103.635L275.308 103.379V103.074ZM276.346 112.191C276.438 112.237 276.524 112.295 276.602 112.361L277.054 112.191C276.949 112.101 276.834 112.023 276.712 111.959L276.346 112.191ZM275.748 111.983C275.956 112.024 276.157 112.094 276.346 112.191L276.712 111.959C276.466 111.835 276.202 111.749 275.931 111.702L275.748 111.983ZM273.515 112.581C273.808 112.305 274.166 112.105 274.556 112.001C274.946 111.896 275.355 111.89 275.748 111.983L275.931 111.702C275.421 111.575 274.888 111.579 274.38 111.713C273.872 111.847 273.406 112.108 273.026 112.471L273.515 112.581ZM273.283 112.679L273.222 112.374L273.283 112.679ZM268.682 119.086L273.49 112.593L273.002 112.471L268.194 118.964L268.682 119.086ZM283.619 117.792C278.696 119.125 273.562 119.493 268.499 118.878L268.377 119.171C273.554 119.801 278.803 119.428 283.839 118.073L283.619 117.792ZM276.639 112.361L283.51 118.024L283.949 117.841L277.078 112.178L276.639 112.361ZM276.858 112.422V112.117V112.422ZM262.921 105.466C263.507 104.929 263.373 104.246 262.665 103.843L262.287 104.063C262.824 104.38 262.934 104.893 262.482 105.283L262.921 105.466ZM261.823 105.991C262.228 105.911 262.606 105.731 262.921 105.466L262.482 105.307C262.238 105.508 261.949 105.646 261.64 105.71L261.823 105.991ZM261.982 105.905H261.457H261.982ZM250.717 108.798L261.835 106.064L261.64 105.783L250.522 108.517L250.717 108.798ZM252.28 99.8156C251.187 100.983 250.433 102.425 250.095 103.987C249.758 105.549 249.85 107.174 250.363 108.688L250.876 108.627C250.378 107.146 250.289 105.557 250.62 104.029C250.951 102.502 251.689 101.092 252.756 99.9499L252.28 99.8156ZM262.348 103.696L252.67 99.7546L252.353 100.011L262.031 103.953L262.348 103.696ZM262.458 103.855H261.933H262.458ZM262.677 103.855C262.573 103.789 262.463 103.731 262.348 103.684L262.031 103.941L262.299 104.075L262.677 103.855ZM265.789 110.116C265.971 110.21 266.127 110.349 266.241 110.519L266.741 110.421C266.598 110.195 266.395 110.014 266.155 109.896L265.789 110.116ZM264.093 109.908C264.666 109.791 265.262 109.864 265.789 110.116L266.155 109.896C265.469 109.567 264.694 109.469 263.947 109.615L264.093 109.908ZM263.825 109.908L264.203 109.689L263.825 109.908ZM252.499 111.946L264.081 109.945L263.934 109.652L252.365 111.654L252.499 111.946ZM261.042 117.158C257.808 116.122 254.904 114.253 252.621 111.739L252.145 111.873C254.476 114.447 257.444 116.362 260.749 117.426L261.042 117.158ZM263.104 117.829C262.409 117.633 261.713 117.402 261.042 117.158L260.749 117.426C261.445 117.67 262.153 117.902 262.86 118.097L263.104 117.829ZM266.229 111.214L262.738 117.926L263.239 118L266.741 111.3L266.229 111.214ZM266.229 111.348L266.607 111.129L266.229 111.348ZM266.155 110.567C266.209 110.665 266.237 110.774 266.237 110.885C266.237 110.996 266.209 111.105 266.155 111.202L266.656 111.287C266.73 111.164 266.769 111.023 266.769 110.879C266.769 110.735 266.73 110.593 266.656 110.47L266.155 110.567Z" fill="white"/>
</g>
<defs>
<filter id="filter0_d" x="160.002" y="35" width="230" height="163.954" filterUnits="userSpaceOnUse" color-interpolation-filters="sRGB">
<feFlood flood-opacity="0" result="BackgroundImageFix"/>
<feColorMatrix in="SourceAlpha" type="matrix" values="0 0 0 0 0 0 0 0 0 0 0 0 0 0 0 0 0 0 127 0" result="hardAlpha"/>
<feOffset dy="6"/>
<feGaussianBlur stdDeviation="10"/>
<feColorMatrix type="matrix" values="0 0 0 0 0 0 0 0 0 0 0 0 0 0 0 0 0 0 0.1 0"/>
<feBlend mode="normal" in2="BackgroundImageFix" result="effect1_dropShadow"/>
<feBlend mode="normal" in="SourceGraphic" in2="effect1_dropShadow" result="shape"/>
</filter>
<linearGradient id="paint0_linear" x1="536.861" y1="145.845" x2="316.662" y2="111.748" gradientUnits="userSpaceOnUse">
<stop stop-color="#36C5F0" stop-opacity="0"/>
<stop offset="1" stop-color="#9013FE"/>
</linearGradient>
<linearGradient id="paint1_linear" x1="461.104" y1="251.224" x2="350.29" y2="73.8146" gradientUnits="userSpaceOnUse">
<stop stop-color="#36C5F0" stop-opacity="0"/>
<stop offset="1" stop-color="#9013FE"/>
</linearGradient>
<linearGradient id="paint2_linear" x1="536.375" y1="231.313" x2="344.47" y2="60.4944" gradientUnits="userSpaceOnUse">
<stop stop-color="#36C5F0" stop-opacity="0"/>
<stop offset="1" stop-color="#9013FE"/>
</linearGradient>
<linearGradient id="paint3_linear" x1="428.569" y1="277.932" x2="335.96" y2="85.5476" gradientUnits="userSpaceOnUse">
<stop stop-color="#36C5F0" stop-opacity="0"/>
<stop offset="1" stop-color="#9013FE"/>
</linearGradient>
<linearGradient id="paint4_linear" x1="330.988" y1="1.00001" x2="251.223" y2="46.1439" gradientUnits="userSpaceOnUse">
<stop stop-color="#36C5F0" stop-opacity="0"/>
<stop offset="1" stop-color="#9013FE"/>
</linearGradient>
<linearGradient id="paint5_linear" x1="172.525" y1="294.121" x2="312.758" y2="232.239" gradientUnits="userSpaceOnUse">
<stop stop-color="#36C5F0" stop-opacity="0"/>
<stop offset="1" stop-color="#9013FE"/>
</linearGradient>
<linearGradient id="paint6_linear" x1="167.36" y1="279.879" x2="265.526" y2="131.787" gradientUnits="userSpaceOnUse">
<stop stop-color="#36C5F0" stop-opacity="0"/>
<stop offset="1" stop-color="#9013FE"/>
</linearGradient>
<linearGradient id="paint7_linear" x1="26.1031" y1="251.66" x2="222.163" y2="194.459" gradientUnits="userSpaceOnUse">
<stop stop-color="#36C5F0" stop-opacity="0"/>
<stop offset="1" stop-color="#9013FE"/>
</linearGradient>
<linearGradient id="paint8_linear" x1="26.5846" y1="252.144" x2="214.203" y2="167.7" gradientUnits="userSpaceOnUse">
<stop stop-color="#36C5F0" stop-opacity="0"/>
<stop offset="1" stop-color="#9013FE"/>
</linearGradient>
<linearGradient id="paint9_linear" x1="10.3936" y1="59.6636" x2="266.769" y2="99.2136" gradientUnits="userSpaceOnUse">
<stop stop-color="#36C5F0" stop-opacity="0"/>
<stop offset="1" stop-color="#9013FE"/>
</linearGradient>
</defs>
</svg>
