<svg width="36" height="36" viewBox="0 0 36 36" fill="none" xmlns="http://www.w3.org/2000/svg">
<path d="M21.8318 18.2174L24.314 18.2302C24.314 18.2302 29.368 18.5374 29.368 12.2782C29.368 6.01901 24.378 5.81421 24.378 5.81421H9.43359" stroke="#175DFD" stroke-width="3" stroke-miterlimit="10" stroke-linecap="round"/>
<path d="M26.1583 30.3777L12.1351 30.5697C12.1351 30.5697 6.18545 30.5697 6.45415 23.6705C6.67166 18.1921 12.0967 18.1537 12.0967 18.1537L14.2846 18.1665" stroke="#175DFD" stroke-width="3" stroke-miterlimit="10" stroke-linecap="round"/>
<path d="M5.72332 9.6288C7.77964 9.6288 9.44662 7.92104 9.44662 5.8144C9.44662 3.70777 7.77964 2 5.72332 2C3.66699 2 2 3.70777 2 5.8144C2 7.92104 3.66699 9.6288 5.72332 9.6288Z" stroke="#5D8DFD" stroke-width="3" stroke-miterlimit="10" stroke-linecap="round"/>
<path d="M17.9948 22.0064C20.0511 22.0064 21.7181 20.2986 21.7181 18.192C21.7181 16.0853 20.0511 14.3776 17.9948 14.3776C15.9385 14.3776 14.2715 16.0853 14.2715 18.192C14.2715 20.2986 15.9385 22.0064 17.9948 22.0064Z" stroke="#5D8DFD" stroke-width="3" stroke-miterlimit="10" stroke-linecap="round"/>
<path d="M30.278 33.9999C32.3343 33.9999 34.0013 32.2921 34.0013 30.1855C34.0013 28.0789 32.3343 26.3711 30.278 26.3711C28.2217 26.3711 26.5547 28.0789 26.5547 30.1855C26.5547 32.2921 28.2217 33.9999 30.278 33.9999Z" stroke="#5D8DFD" stroke-width="3" stroke-miterlimit="10" stroke-linecap="round"/>
</svg>
