<svg width="60" height="60" viewBox="0 0 60 60" fill="none" xmlns="http://www.w3.org/2000/svg">
<path d="M0 31.6945C0 30.5762 0 29.4579 0 28.3396C0.0560098 28.31 0.0445078 28.2549 0.0465081 28.2079C0.0945165 27.1236 0.209537 26.0459 0.403071 24.9782C0.733628 23.1532 1.26922 21.3994 2.24139 19.8039C3.34208 17.9984 4.84185 16.6758 6.8657 15.9897C7.88938 15.6427 8.94106 15.57 10.0168 15.5735C15.0751 15.5916 20.133 15.5811 25.1914 15.5811C26.7582 15.5811 28.3245 15.5771 29.8912 15.5856C30.1013 15.5866 30.1828 15.549 30.1733 15.3156C30.1533 14.8158 30.1533 14.314 30.1733 13.8142C30.1828 13.5733 30.1173 13.5127 29.8742 13.5132C25.2079 13.5212 20.5411 13.5167 15.8748 13.5248C15.6272 13.5253 15.5777 13.4551 15.5782 13.2208C15.5797 11.0678 15.5947 8.91434 15.5507 6.76188C15.5227 5.4087 16.0318 4.31294 16.9495 3.37593C17.9586 2.34527 19.2149 1.72077 20.5561 1.25352C22.6015 0.541371 24.7248 0.249401 26.8737 0.0956538C27.1998 0.072116 27.5323 0.103667 27.8509 0C29.1511 0 30.4508 0 31.7511 0C31.8126 0.0856377 31.9041 0.0440709 31.9806 0.0480773C33.6964 0.134717 35.4007 0.318011 37.076 0.711645C38.7058 1.09476 40.271 1.64364 41.6708 2.59217C42.8345 3.38094 43.7542 4.37804 44.2863 5.70117C44.6068 6.49845 44.6583 7.32678 44.6548 8.17865C44.6378 12.4676 44.6468 16.7564 44.6483 21.0458C44.6483 21.6894 44.6118 22.3299 44.5013 22.9644C44.1827 24.7894 43.3541 26.3148 41.8373 27.4146C40.2235 28.5845 38.3872 29.0898 36.4179 29.0963C31.6685 29.1123 26.9187 29.1008 22.1694 29.1008C21.4268 29.1008 20.6881 29.1499 19.9575 29.2916C17.9001 29.6903 16.2283 30.6874 15.0891 32.4827C14.0925 34.0528 13.6539 35.7896 13.6449 37.637C13.6334 39.9402 13.6399 42.2429 13.6479 44.5461C13.6489 44.76 13.6049 44.8281 13.3768 44.8266C11.7356 44.8166 10.0938 44.8231 8.45248 44.8211C8.26145 44.8211 8.06841 44.8141 7.87938 44.788C6.07356 44.5396 4.60681 43.6667 3.4071 42.3206C2.2719 41.0465 1.55627 39.5416 1.04768 37.928C0.500088 36.1927 0.23004 34.4083 0.0930163 32.5994C0.0705123 32.2974 0.0980172 31.9889 0 31.6945ZM19.2314 7.25417C19.2309 8.70901 20.3931 9.87438 21.8468 9.87789C23.2991 9.88089 24.4648 8.72353 24.4768 7.26569C24.4888 5.81585 23.2901 4.61192 21.8453 4.62293C20.3921 4.63395 19.2319 5.80183 19.2314 7.25417Z" fill="url(#paint0_linear)"/>
<path d="M60 25.7867C60 28.5571 60 31.3281 60 34.0985C59.9095 34.3595 59.9004 34.6359 59.8524 34.9048C59.5204 36.7648 58.9883 38.5547 58.0011 40.1828C56.8854 42.0228 55.3557 43.3615 53.2903 44.0416C52.2961 44.3691 51.2754 44.4277 50.2343 44.4247C44.2267 44.4081 38.2187 44.4162 32.2111 44.4157C31.578 44.4157 30.9444 44.4247 30.3113 44.4102C30.0972 44.4051 30.0452 44.4758 30.0512 44.6791C30.0652 45.1709 30.0557 45.6637 30.0557 46.156C30.0557 46.476 30.0562 46.4765 30.3828 46.4765C35.0406 46.476 39.6984 46.4775 44.3562 46.4695C44.6008 46.469 44.6578 46.5366 44.6573 46.775C44.6518 48.8944 44.6578 51.0138 44.6663 53.1332C44.6678 53.4833 44.6923 53.8328 44.6248 54.1799C44.3942 55.3663 43.7386 56.2888 42.831 57.0465C41.5417 58.1232 40.0165 58.7122 38.4182 59.1339C36.4763 59.6457 34.493 59.866 32.4917 59.9497C29.7642 60.0639 27.0457 60.0043 24.3482 59.5335C22.5614 59.2215 20.8361 58.7247 19.2433 57.8318C18.2962 57.3009 17.4515 56.6413 16.7884 55.7729C15.8997 54.6086 15.5557 53.3055 15.5742 51.8261C15.6277 47.5377 15.5952 43.2483 15.5932 38.9594C15.5932 38.3744 15.6122 37.792 15.7022 37.2136C15.9958 35.329 16.8154 33.746 18.3767 32.6041C19.9805 31.4317 21.8108 30.9159 23.7686 30.9054C28.518 30.8794 33.2678 30.8944 38.0171 30.8974C38.7187 30.8979 39.4164 30.8618 40.107 30.7406C42.4404 30.331 44.2587 29.1681 45.4149 27.0602C46.2131 25.6044 46.5791 24.0298 46.5916 22.3782C46.6086 20.0669 46.5996 17.7552 46.5911 15.444C46.5901 15.2201 46.6521 15.1676 46.8697 15.1686C48.3944 15.1781 49.9197 15.1891 51.444 15.1691C53.0167 15.1485 54.4055 15.6528 55.6467 16.5883C57.1205 17.6986 58.0661 19.2011 58.7563 20.8838C59.1878 21.936 59.4929 23.0262 59.7049 24.143C59.8094 24.6894 59.9025 25.2383 60 25.7867ZM40.9981 52.7476C40.9991 51.2957 39.8289 50.1228 38.3782 50.1218C36.9304 50.1208 35.7537 51.2972 35.7537 52.7451C35.7532 54.1904 36.9324 55.3728 38.3757 55.3743C39.8199 55.3758 40.9971 54.1969 40.9981 52.7476Z" fill="url(#paint1_linear)"/>
<defs>
<linearGradient id="paint0_linear" x1="12.6696" y1="10.878" x2="29.0072" y2="29.6412" gradientUnits="userSpaceOnUse">
<stop stop-color="#387AB1"/>
<stop offset="1" stop-color="#366A96"/>
</linearGradient>
<linearGradient id="paint1_linear" x1="26.815" y1="25.2237" x2="49.4829" y2="51.2569" gradientUnits="userSpaceOnUse">
<stop stop-color="#FFDE50"/>
<stop offset="1" stop-color="#FFC938"/>
</linearGradient>
</defs>
</svg>
