<svg width="44" height="44" viewBox="0 0 44 44" fill="none" xmlns="http://www.w3.org/2000/svg">
<path d="M15.9115 20.6504C9.24065 21.5671 3.76961 27.9838 2.08991 36.4672C1.53001 39.3172 3.65763 42.0006 6.45714 42.0006H17.5432" stroke="#175DFD" stroke-width="3" stroke-miterlimit="10" stroke-linecap="round" stroke-linejoin="round"/>
<path d="M17.5437 42H28.6297" stroke="#175DFD" stroke-width="3" stroke-miterlimit="10" stroke-linecap="round" stroke-linejoin="round"/>
<path d="M16.299 20.4502C11.9798 19.8168 8.65234 15.9501 8.65234 11.2668C8.65234 6.15004 12.6356 2 17.5468 2C19.3803 2 21.086 2.57739 22.502 3.57005" stroke="#175DFD" stroke-width="3" stroke-miterlimit="10" stroke-linecap="round" stroke-linejoin="round"/>
<path d="M25.7347 26.9678L19.2559 33.7178C18.504 34.5012 19.0319 35.8345 20.1037 35.8345H40.8041C41.8599 35.8345 42.4038 34.5012 41.6519 33.7178L35.2691 27.0678" stroke="#9AB8FE" stroke-width="3" stroke-miterlimit="10" stroke-linecap="round"/>
<path d="M25.7347 18.1006L19.2559 24.8506C18.504 25.634 19.0319 26.9673 20.1037 26.9673H40.8041C41.8599 26.9673 42.4038 25.634 41.6519 24.8506L35.1731 18.1006" stroke="#5D8DFD" stroke-width="3" stroke-miterlimit="10" stroke-linecap="round"/>
<path d="M41.6352 15.9838L31.285 5.20039C30.8211 4.71706 30.0692 4.71706 29.6053 5.20039L19.2552 15.9838C18.5033 16.7672 19.0312 18.1005 20.103 18.1005H40.8034C41.8592 18.1005 42.3871 16.7672 41.6352 15.9838Z" stroke="#175DFD" stroke-width="3" stroke-miterlimit="10" stroke-linecap="round" stroke-linejoin="round"/>
</svg>
