<svg width="148" height="27" viewBox="0 0 148 27" fill="none" xmlns="http://www.w3.org/2000/svg">
<path d="M6.54715 14.0215C6.54715 17.8348 6.54715 21.4127 6.54715 24.989C6.54715 25.7307 6.18329 26.1015 5.45556 26.1015C4.00441 26.1015 2.55487 26.0838 1.10533 26.1112C0.573243 26.1209 0.349121 26.0015 0.349121 25.4001C0.36847 17.4526 0.366857 9.50517 0.349121 1.5577C0.349121 1.03206 0.529709 0.949827 0.99569 0.951439C4.78158 0.969175 8.56748 0.933703 12.3534 0.970788C16.157 1.00787 19.485 3.30875 20.4927 6.51902C21.781 10.6322 19.7817 15.0502 15.6749 16.2514C14.8961 16.4788 15.4379 16.7916 15.6104 17.0125C17.6952 19.6923 19.7978 22.3575 21.8923 25.0293C22.1357 25.3388 22.3599 25.6629 22.684 26.1015C20.3008 26.1015 18.0612 26.1015 15.82 26.1015C15.4169 26.1015 15.3105 25.7307 15.1347 25.4952C12.4469 21.8964 9.77677 18.2846 7.1002 14.6761C6.97605 14.5084 6.83254 14.3569 6.54715 14.0199V14.0215ZM6.57779 9.08917C6.57779 9.96954 6.58262 10.8515 6.57617 11.7319C6.57295 12.0931 6.62293 12.343 7.09375 12.3349C8.64971 12.3075 10.2105 12.3833 11.7632 12.2898C12.9371 12.2188 13.9271 11.6738 14.443 10.529C15.4346 8.33458 13.9625 6.10786 11.4279 6.01112C10.0073 5.9563 8.5836 6.01596 7.16308 5.98532C6.68904 5.97565 6.56005 6.15301 6.57295 6.59158C6.59552 7.42358 6.5794 8.25557 6.5794 9.08756L6.57779 9.08917Z" fill="#030303"/>
<path d="M23.4482 14.149C23.4482 7.19474 28.4144 1.55621 35.3977 0.687135C40.9201 -0.00135611 45.6589 1.54815 49.1433 6.04188C53.055 11.0871 52.6293 18.5895 48.2871 23.4444C47.3729 24.4667 46.341 25.3503 45.2478 26.1726C44.9108 26.4257 44.7528 26.4096 44.4996 26.0613C43.5886 24.8053 42.6567 23.5653 41.6957 22.348C41.3893 21.9594 41.4328 21.782 41.8247 21.495C43.5499 20.2341 44.885 18.6685 45.4235 16.5402C46.7408 11.3305 43.6176 6.01931 37.6083 5.89032C33.337 5.79841 29.685 9.36502 29.5286 13.6379C29.4076 16.94 30.675 19.5166 33.3306 21.4241C33.7869 21.7514 33.8643 21.9368 33.495 22.3996C32.5615 23.5686 31.694 24.7891 30.7911 25.9823C30.6185 26.2113 30.5154 26.537 30.0671 26.221C26.049 23.3864 23.3934 19.2909 23.4499 14.149H23.4482Z" fill="#DD1A31"/>
<path d="M102.562 26.1032C100.28 26.1032 98.031 26.092 95.7817 26.1129C95.3479 26.1178 95.177 25.8469 94.969 25.5728C92.3134 22.0852 89.6627 18.5943 86.9941 15.1148C86.7684 14.8197 86.5894 14.2441 86.167 14.386C85.7429 14.5295 85.9832 15.0858 85.9816 15.4518C85.9638 18.7524 85.9558 22.0545 85.9848 25.3551C85.9896 25.9597 85.8236 26.1323 85.2189 26.1161C83.6081 26.0742 81.9957 26.0855 80.385 26.1113C79.8625 26.1194 79.719 25.971 79.7207 25.4228C79.74 17.5237 79.7336 9.623 79.7158 1.7239C79.7158 1.17085 79.8013 0.920927 80.4527 0.941888C82.0618 0.99671 83.6742 0.987035 85.285 0.945113C85.8735 0.930602 85.9864 1.13215 85.9816 1.67391C85.959 5.08089 85.9703 8.48788 85.9703 12.1206C86.8361 11.0645 87.5859 10.1599 88.326 9.2457C90.4447 6.62718 92.5617 4.00866 94.6691 1.38207C94.8626 1.14182 95.0303 0.94995 95.3786 0.951563C97.6327 0.96285 99.8868 0.958012 102.215 0.958012C101.959 1.61909 101.459 2.02542 101.07 2.49946C98.3357 5.82259 95.5914 9.13928 92.8213 12.4334C92.4585 12.8639 92.6198 13.0832 92.8907 13.4299C96.0219 17.4286 99.1403 21.437 102.255 25.4486C102.38 25.6099 102.578 25.7453 102.565 26.1032H102.562Z" fill="#030303"/>
<path d="M105.508 13.4815C105.508 9.53761 105.519 5.59209 105.493 1.64818C105.49 1.07578 105.653 0.94518 106.206 0.946792C111.604 0.967753 117.002 0.969365 122.399 0.946792C122.97 0.94518 123.121 1.09997 123.102 1.65786C123.06 2.91713 123.057 4.18125 123.104 5.44052C123.125 6.02905 122.92 6.13869 122.375 6.13385C119.099 6.10805 115.821 6.1403 112.544 6.10483C111.89 6.09838 111.641 6.25317 111.68 6.9336C111.736 7.95263 111.757 8.97811 111.698 9.99553C111.659 10.6598 111.938 10.7292 112.488 10.7243C115.361 10.7034 118.236 10.7356 121.111 10.6985C121.79 10.6889 122.062 10.813 122.017 11.5628C121.946 12.7398 121.972 13.9249 122.011 15.1052C122.027 15.6147 121.864 15.7308 121.377 15.7276C118.423 15.705 115.467 15.7421 112.514 15.6969C111.819 15.6873 111.665 15.913 111.69 16.5451C111.736 17.7463 111.746 18.9524 111.703 20.1536C111.683 20.7212 111.841 20.8792 112.41 20.8759C115.901 20.8518 119.392 20.8776 122.883 20.8518C123.491 20.8469 123.736 20.9662 123.705 21.6386C123.647 22.9253 123.673 24.2152 123.697 25.5051C123.705 25.9501 123.583 26.113 123.112 26.113C117.417 26.0985 111.722 26.0952 106.029 26.1162C105.4 26.1194 105.509 25.7599 105.509 25.3955C105.509 21.4242 105.509 17.4528 105.509 13.4815H105.508Z" fill="#030303"/>
<path d="M68.0405 26.474C61.5361 26.495 56.3668 22.6011 55.0188 16.374C53.1517 7.73967 59.2659 0.711261 67.481 0.482301C70.5445 0.396845 73.4404 0.970856 76.0557 2.67999C76.6297 3.05568 76.7264 3.31527 76.2637 3.88445C75.4043 4.94056 74.6094 6.05472 73.8419 7.18178C73.4871 7.70259 73.2211 7.68969 72.7277 7.35753C70.5591 5.89187 68.1743 5.49684 65.6832 6.27401C62.8228 7.16727 61.0492 9.79708 60.8621 13.1815C60.6219 17.5511 63.5161 20.8532 67.8212 21.0661C69.7271 21.1596 71.4652 20.5824 73.0131 19.4795C73.421 19.1893 73.6484 19.1618 73.9596 19.6085C74.7529 20.7484 75.5865 21.8626 76.4282 22.9687C76.7184 23.3492 76.7377 23.5653 76.3137 23.8942C73.8709 25.7872 71.0589 26.4515 68.0405 26.474V26.474Z" fill="#030303"/>
<path d="M136.943 0.959637C140.272 0.959637 143.604 0.972536 146.933 0.946738C147.485 0.941901 147.67 1.06283 147.649 1.64329C147.602 2.92998 147.61 4.2215 147.646 5.5098C147.66 6.01609 147.499 6.13864 147.01 6.13219C144.969 6.10478 142.926 6.15315 140.887 6.10316C140.2 6.08543 140.005 6.24183 140.008 6.95612C140.037 13.051 140.008 19.1474 140.04 25.2422C140.043 25.9517 139.885 26.1549 139.166 26.1226C137.718 26.0597 136.264 26.0581 134.816 26.1226C134.065 26.1565 133.829 25.9872 133.834 25.1842C133.871 19.1135 133.839 13.0413 133.876 6.96902C133.881 6.22087 133.66 6.09026 132.981 6.10478C130.94 6.14831 128.899 6.10478 126.857 6.13219C126.333 6.13864 126.154 5.99513 126.17 5.45659C126.207 4.22312 126.215 2.9848 126.167 1.75132C126.143 1.13216 126.301 0.937064 126.952 0.943513C130.282 0.978986 133.613 0.959637 136.943 0.959637V0.959637Z" fill="#030303"/>
</svg>
