<svg width="198" height="48" viewBox="0 0 198 48" fill="none" xmlns="http://www.w3.org/2000/svg">
<path d="M40.0064 42.601C38.091 44.1873 35.9661 45.4197 33.6565 46.3339C31.6884 47.1131 29.6504 47.6083 27.5457 47.8473C19.9556 48.7087 12.3827 45.89 7.20626 40.2604C7.12244 40.1703 7.02465 40.0896 6.97964 39.9686C6.97343 39.8692 6.97809 39.7699 6.96257 39.6737C6.85702 39.0249 6.79338 38.373 6.77476 37.7164C6.75768 37.1095 6.767 36.5042 6.82443 35.8973C6.88806 35.219 6.96878 34.5438 7.11468 33.8795C7.53221 31.975 8.29276 30.204 9.21629 28.4966C9.66642 27.6646 10.2593 26.96 11.0804 26.4664C11.1285 26.4369 11.1953 26.4167 11.1674 26.336C11.0028 26.2615 10.8352 26.4198 10.6738 26.3453C10.6536 26.2475 10.7141 26.2149 10.7638 26.1839C11.4033 25.7788 12.0412 25.3737 12.7521 25.1005C13.0486 24.9872 13.0455 24.9872 12.9104 24.6845C12.586 23.9597 12.2911 23.2239 12.1809 22.4308C12.1731 22.3718 12.1545 22.3113 12.08 22.2678C12.0474 22.3485 12.0148 22.4277 11.9869 22.5084C11.9589 22.586 11.9621 22.6838 11.8177 22.721C11.3117 21.009 11.1829 19.2659 11.4095 17.4763C11.0928 17.5353 10.8818 17.7821 10.5667 17.7138C11.0183 16.8974 11.1984 16.025 11.3909 15.1558C11.4079 15.1232 11.4343 15.0938 11.4436 15.0596C11.7448 13.8862 12.1592 12.7655 12.9306 11.8063C12.9368 11.7985 12.9306 11.7815 12.9306 11.7551C12.6341 11.7333 12.3734 11.9149 12.0195 11.9289C12.8701 10.6624 13.8588 9.59448 14.9686 8.6368C17.258 6.66246 19.878 5.36486 22.8908 4.83558C22.7107 4.63069 22.4189 4.72537 22.2497 4.51583C22.3444 4.48324 22.4111 4.45064 22.4825 4.43512C23.1376 4.29077 23.7988 4.18988 24.4662 4.12935C25.9438 3.99586 27.4137 4.05174 28.8821 4.26128C30.7943 4.53446 32.5017 5.27173 33.998 6.49328C34.0616 6.5445 34.1097 6.62831 34.2215 6.61745C34.2913 6.46379 34.1873 6.28684 34.2711 6.09437C34.5738 6.3629 34.7616 6.67954 34.9432 6.99462C35.8311 8.52505 36.1229 10.2014 36.1306 11.946C36.2921 11.9149 36.2082 11.6992 36.396 11.6821C36.5621 12.6289 36.5513 13.5525 36.1601 14.4465C36.0577 14.6793 35.8885 14.8563 35.6743 14.996C35.5594 15.0705 35.4042 15.0503 35.3018 15.1683C35.3592 15.3328 35.4756 15.4632 35.5703 15.606C35.7162 15.8217 35.873 16.0297 36.008 16.2517C36.2672 16.6785 36.2564 17.1224 36.0608 17.5694C36.0111 17.6827 35.9521 17.7945 35.8792 17.8938C35.6293 18.2276 35.6479 18.5488 35.8869 18.881C36.1182 19.2023 36.3231 19.5438 36.5745 19.8527C36.691 19.997 36.8058 20.146 36.8958 20.3074C37.1349 20.7389 37.0557 21.1844 36.6941 21.5228C36.4737 21.7277 36.2005 21.8518 35.9413 21.9977C35.6526 22.1607 35.6138 22.2616 35.7007 22.5751C35.7302 22.6822 35.7705 22.7862 35.8047 22.8933C35.9242 23.2721 36.0422 23.6523 36.0779 24.0481C36.1213 24.5246 36.0484 24.9717 35.6153 25.2681C35.4415 25.3876 35.4461 25.5211 35.5268 25.6825C35.5936 25.816 35.6588 25.9495 35.7224 26.083C36.0732 26.8234 36.4116 27.5669 36.6677 28.346C36.8601 28.9296 36.9657 29.5241 36.9191 30.1388C36.8989 30.4104 36.8881 30.6898 36.7608 30.9366C36.5823 30.8885 36.6351 30.6556 36.4457 30.6665C36.247 31.3153 35.8776 31.8461 35.3499 32.2699C34.9401 32.5694 34.5055 32.8162 33.9887 32.9032C33.9669 32.7076 34.1997 32.6781 34.1904 32.5151C34.1113 32.4717 34.0461 32.5229 33.9778 32.5462C33.0263 32.8613 32.0392 32.9715 31.0504 32.9761C30.5367 32.9777 30.012 32.9637 29.4936 32.8892C29.1025 32.8333 28.702 32.8535 28.3093 32.7961C28.1883 32.779 28.047 32.779 28.0051 32.9373C27.971 33.0692 28.075 33.1391 28.1665 33.2027C28.3916 33.3564 28.6167 33.5101 28.8479 33.656C29.3275 33.9555 29.5836 34.3622 29.5557 34.9489C29.5371 35.354 29.7202 35.6846 30.04 35.9469C30.4529 36.2869 30.9092 36.5631 31.3547 36.8549C31.842 37.1731 32.3418 37.482 32.6817 37.9725C33.1365 38.6291 33.7651 38.9876 34.5536 39.0233C35.027 39.045 35.3406 39.2701 35.5905 39.6411C35.7643 39.8972 35.9351 40.1564 36.1244 40.4016C36.3821 40.7369 36.7034 40.9744 37.1504 40.9961C37.3506 41.0054 37.5338 41.0908 37.7123 41.1777C38.4495 41.5378 39.1371 41.9817 39.8325 42.4132C39.907 42.4598 39.9815 42.5048 40.0033 42.5979L40.0064 42.601ZM11.5864 28.2312L11.6578 28.2855C11.6221 28.5121 11.4855 28.7341 11.6097 29.0274C11.9139 28.5525 12.2492 28.1769 12.7785 27.8819C12.6745 28.2157 12.5891 28.4671 12.6202 28.7993C12.8856 28.5276 13.1044 28.2793 13.4366 28.152C13.5934 28.5928 13.5266 29.0414 13.6027 29.5288C13.8324 29.2463 13.8867 28.9405 14.0419 28.6627C14.194 28.8257 14.1475 29.0585 14.3353 29.2494C14.3632 29.0119 14.3974 28.8334 14.402 28.6549C14.4176 28.1412 14.3508 27.6414 14.0978 27.1819C13.9504 26.915 13.7408 26.7597 13.4195 26.7334C12.8825 26.6914 12.4215 26.8715 11.9978 27.1726C11.4126 27.5886 10.9687 28.1349 10.5775 28.7279C10.5496 28.7698 10.5356 28.8163 10.5962 28.8614C10.9237 28.6518 11.2031 28.3585 11.5849 28.2281L11.5864 28.2312ZM23.8174 22.7366C23.8345 22.7536 23.8515 22.7676 23.8717 22.7785C23.715 23.106 23.4852 23.4024 23.4185 23.7827C23.5815 23.7874 23.6249 23.6647 23.6994 23.5949C23.8888 23.4133 24.089 23.2488 24.3296 23.1401C24.7937 22.9306 25.1942 22.9942 25.562 23.3419C25.8352 23.5996 26.0354 23.9069 26.1705 24.2685C26.1037 24.2856 26.054 24.2934 26.009 24.3104C25.8693 24.3617 25.7607 24.4594 25.7871 24.6116C25.8181 24.7854 25.9609 24.8444 26.1286 24.8133C26.2186 24.7963 26.2869 24.8009 26.3645 24.8646C26.6873 25.1269 27.1157 25.1781 27.4634 25.3969C27.5131 25.428 27.5829 25.4311 27.6435 25.4373C27.8856 25.4559 27.9927 25.3178 27.9135 25.0927C27.8763 24.9856 27.8002 24.9003 27.718 24.8242C27.4665 24.5898 27.1685 24.4486 26.8332 24.3772C26.7541 24.3601 26.6532 24.3927 26.5989 24.2763C26.6578 24.2375 26.7168 24.194 26.7774 24.1568C27.0381 23.9954 27.0443 23.9923 26.8596 23.7486C26.3459 23.0672 25.7483 22.4789 24.9815 22.0862C24.8403 22.0133 24.7301 21.9496 24.7565 21.7587C24.7689 21.6656 24.7316 21.5616 24.7037 21.4684C24.5795 21.0633 24.2908 20.8274 23.8935 20.7979C23.864 20.8709 23.9276 20.9066 23.9571 20.9578C24.1201 21.2496 24.0937 21.4886 23.8671 21.7385C23.7584 21.858 23.642 21.9698 23.5302 22.0862C23.0848 22.5441 22.7262 23.061 22.4794 23.6523C22.4577 23.7067 22.3723 23.7796 22.4919 23.8417C22.5788 23.7594 22.6657 23.6756 22.7542 23.5933C23.0848 23.2783 23.3983 22.943 23.8205 22.7397L23.8174 22.7366ZM16.9895 34.4739L17.0873 34.5655C16.9786 34.893 16.8234 35.2066 16.7815 35.5558C16.7194 36.0602 16.9398 36.5026 17.3434 36.6625C17.3511 36.6392 17.3698 36.6159 17.3666 36.5957C17.2751 35.6691 17.5172 34.8325 18.031 34.0626C18.2234 33.7739 18.3957 33.4697 18.5013 33.1391C18.5509 32.987 18.6441 32.8287 18.5727 32.6471C18.1179 32.8907 17.9177 32.8488 17.6134 32.4406C17.4877 32.2714 17.3837 32.0883 17.2658 31.9144C17.1199 31.6987 16.9802 31.4783 16.8187 31.275C16.5673 30.9599 16.2475 30.8636 15.9713 30.9925C15.7043 31.1182 15.5817 31.4317 15.6624 31.8306C15.6981 32.0122 15.7524 32.1907 15.8145 32.3646C15.8812 32.5508 15.9573 32.734 16.0458 32.9109C16.2693 33.3595 16.3143 33.8329 16.2615 34.3218C16.2429 34.4941 16.2227 34.6664 16.215 34.8403C16.2103 34.9334 16.1668 35.0529 16.2801 35.1072C16.4028 35.1662 16.4974 35.0731 16.5688 34.9939C16.7163 34.8278 16.8498 34.6478 16.9879 34.4739H16.9895ZM19.1656 17.3863L19.1749 17.4887C18.7046 17.8085 18.2498 18.1499 17.8307 18.5333C17.4474 18.8857 17.0935 19.2644 16.8374 19.7223C16.8032 19.7844 16.7085 19.8558 16.8094 19.9535C16.9724 19.848 17.1354 19.7409 17.2999 19.6338L17.3682 19.713C17.2223 20.0622 16.991 20.3804 16.9383 20.8212C17.1043 20.7374 17.1478 20.6287 17.2145 20.5449C17.4536 20.2422 17.7019 19.9504 17.9735 19.6773C18.3507 19.3001 18.7853 19.0316 19.3162 18.9291C19.5102 18.8919 19.7026 18.8391 19.8904 18.7801C19.996 18.7475 20.1031 18.701 20.1885 18.6342C20.3639 18.5007 20.3514 18.3284 20.1636 18.2151C20.0689 18.1577 19.9618 18.1251 19.8485 18.1096C19.6933 18.0894 19.5397 18.0599 19.3317 18.0273C19.6949 17.8581 20.0348 17.7883 20.3592 17.6719C20.5812 17.5927 20.8062 17.5229 21.0002 17.3847C21.0965 17.3164 21.1725 17.228 21.1322 17.1038C21.0949 16.9905 20.9801 16.9874 20.8807 16.9858C20.6898 16.9812 20.4989 16.9858 20.2568 16.9858C20.4849 16.8135 20.7038 16.7515 20.9304 16.7033C21.3728 16.6102 21.8198 16.6444 22.2652 16.6413C22.793 16.6381 23.3005 16.5404 23.7848 16.3324C23.9447 16.2641 24.0968 16.1818 24.2132 16.0452C24.2737 15.9723 24.297 15.8931 24.2629 15.8046C24.2287 15.7193 24.1449 15.7224 24.0735 15.7193C23.85 15.7131 23.628 15.7426 23.4076 15.7736C22.9466 15.8388 22.4872 15.9195 22.0091 15.8652C22.0526 15.755 22.1457 15.7565 22.2218 15.7286C22.9901 15.4492 23.7444 15.1326 24.4848 14.788C24.758 14.6607 25.0032 14.4962 25.2081 14.2758C25.3013 14.1749 25.3835 14.0631 25.427 13.9327C25.503 13.7061 25.4084 13.5711 25.1693 13.5602C24.9675 13.5509 24.7704 13.5959 24.5873 13.6673C23.777 13.9824 22.9358 14.1889 22.0945 14.3953C21.5357 14.5319 21.0732 14.8314 20.6665 15.2257C20.6153 15.2754 20.5455 15.3188 20.5656 15.4259C20.918 15.3918 21.247 15.2148 21.6211 15.249C20.1124 16.098 18.5059 16.7949 17.3185 18.136L19.1609 17.3878L19.1656 17.3863ZM11.3505 41.9227L11.425 41.8467C12.1623 42.3853 12.9151 42.7128 13.3279 42.6553C12.4355 41.9491 12.021 40.9635 11.6547 39.8879C11.4685 40.3457 11.5476 40.7571 11.5166 41.2041C11.0308 40.7974 10.874 40.2448 10.6024 39.7621C10.5015 40.1843 10.5993 40.5863 10.6194 41.0007C9.63227 40.1346 9.2908 39.0093 9.2582 37.749C9.53759 38.1432 9.75644 38.5778 10.0917 38.9441C10.1026 38.0734 10.1631 37.2244 10.4316 36.4002C10.5465 37.1204 10.6458 37.8344 10.9004 38.5235C11.1813 37.6465 11.2186 36.7385 11.3101 35.8321C11.6609 36.6997 11.7354 37.6233 11.9341 38.5266C12.2616 37.9865 12.2399 37.3811 12.2911 36.7137C12.5938 37.1964 12.6574 37.6962 12.8468 38.2007C13.1696 37.2895 12.8468 35.2702 12.3175 34.7021C12.139 34.8635 12.108 35.1196 11.9279 35.309C11.8053 35.0017 11.6904 34.713 11.5492 34.3544C11.3365 34.7037 11.1596 34.9908 10.9842 35.278C10.7747 35.1289 10.7374 34.8775 10.5372 34.7502C10.3447 35.0141 10.2904 35.3199 10.1398 35.5977C10.0327 35.4937 10.0172 35.3633 9.95977 35.2562C9.9039 35.1538 9.92408 35.0063 9.77352 34.9458C9.35444 35.6039 9.17439 36.3474 8.99744 37.1033C8.76151 36.945 8.72892 36.6718 8.55042 36.5026C8.52093 36.543 8.49765 36.56 8.49609 36.5787C8.45884 37.9213 8.61406 39.2282 9.24734 40.4389C9.72385 41.3469 10.4177 42.0329 11.3707 42.4365C11.4623 42.4753 11.5569 42.5638 11.6982 42.4908C11.5926 42.2906 11.4204 42.1354 11.3458 41.9243L11.3505 41.9227ZM33.8164 18.8344C33.5742 18.6808 33.3197 18.6063 33.0403 18.7227C32.6957 18.8655 32.6491 19.193 32.584 19.5112C32.2813 19.3606 31.9879 19.3653 31.6899 19.4227C31.5564 19.4491 31.4198 19.4646 31.2864 19.4895C30.7059 19.5997 30.1517 19.5267 29.6287 19.2458C29.3337 19.0874 29.0373 18.9338 28.7377 18.7832C28.3931 18.6094 28.0268 18.5551 27.6528 18.6435C26.9822 18.8034 26.3738 19.1045 25.815 19.5034C25.6319 19.6338 25.4968 19.8185 25.4192 20.0343C25.2873 20.3944 25.427 20.5868 25.8104 20.5806C26.0354 20.5775 26.2512 20.517 26.4685 20.4658C27.1406 20.309 27.8049 20.2422 28.4894 20.4285C29.2189 20.6287 29.9562 20.6117 30.6748 20.3571C30.8781 20.7855 31.1094 20.8398 31.4835 20.5511C31.572 20.4828 31.6511 20.4037 31.7411 20.3369C32.0733 20.0963 32.3868 20.0249 32.7919 20.1041C32.6057 20.2112 32.4318 20.3059 32.3123 20.4658C32.1059 20.7436 32.1882 21.0261 32.5141 21.1441C32.5824 21.1689 32.6585 21.1797 32.733 21.1844C33.2188 21.2201 33.6549 21.0959 33.9576 20.6986C34.2029 20.3757 34.5071 20.3028 34.8765 20.3649C34.9991 20.385 35.1202 20.4068 35.2428 20.4301C35.4508 20.472 35.5641 20.3478 35.6634 20.1941C35.7612 20.042 35.6603 19.9396 35.5781 19.8309C34.847 18.8733 34.1889 17.8675 33.5804 16.8291C33.5339 16.7499 33.4532 16.6847 33.4671 16.5668C33.672 16.5404 33.8319 16.4255 34.0057 16.3075C34.0585 16.396 34.1004 16.4721 34.1485 16.5419C34.2354 16.6707 34.3363 16.7809 34.5148 16.7189C34.6871 16.6599 34.7151 16.5155 34.7151 16.3588C34.7151 16.3091 34.712 16.2594 34.7042 16.2113C34.6018 15.5439 33.7776 14.9711 33.0931 15.1C33.1474 15.3173 33.1722 15.5377 33.1194 15.8233C33.0263 15.6774 32.9767 15.5936 32.9223 15.5128C32.3542 14.6964 31.634 14.1081 30.6065 13.9917C30.1486 13.9405 29.7047 13.8288 29.2592 13.7201C29.0916 13.6797 28.9193 13.6487 28.7486 13.6254C28.1929 13.5478 27.898 13.7217 27.7304 14.2509C27.6295 14.5691 27.5612 14.8982 27.4836 15.2226C27.4417 15.398 27.3346 15.5563 27.3222 15.7643C27.5239 15.7581 27.6761 15.6789 27.8266 15.6029C28.1479 15.4414 28.463 15.2691 28.7827 15.1062C29.4936 14.7414 30.2185 14.6762 30.9728 14.9773C31.305 15.1108 31.6402 15.249 31.9972 15.3064C32.2192 15.3421 32.3232 15.4585 32.3837 15.6743C32.688 16.739 33.0589 17.7759 33.7946 18.6373C33.8179 18.6653 33.8319 18.701 33.849 18.7336L33.8257 18.8344H33.8164ZM21.0266 8.69889C21.039 8.71441 21.053 8.72838 21.067 8.74079C21.0251 8.85255 20.918 8.89911 20.8357 8.96896C20.4384 9.30733 20.0705 9.67519 19.7259 10.0663C19.6809 10.1176 19.6111 10.1672 19.684 10.2743C20.7566 9.82885 21.8415 9.40201 23.0025 9.19558C22.793 9.36942 22.5648 9.51066 22.3429 9.65812C22.1256 9.80092 21.9098 9.94682 21.6987 10.0989C21.4783 10.2588 21.2563 10.4187 21.0499 10.5956C20.8543 10.7633 20.6106 10.889 20.4399 11.1994C20.9987 11.01 21.4674 10.7865 22.0262 10.6732C21.8586 10.875 21.722 11.0194 21.6087 11.1808C21.4985 11.3407 21.3215 11.471 21.3076 11.7442C22.3134 11.1296 23.3393 10.6701 24.3839 10.251C24.3917 10.2479 24.3948 10.2309 24.3979 10.22C24.401 10.2076 24.401 10.1952 24.4026 10.1626L23.8609 10.071L23.9292 9.94061C24.4553 9.70934 25.0203 9.58982 25.5527 9.36476C24.9784 9.26387 24.415 9.38028 23.8391 9.3927C24.0363 9.23593 24.2458 9.11331 24.4507 8.98448C24.6509 8.85876 24.893 8.79822 25.0855 8.598C24.6726 8.494 24.2784 8.56385 23.8189 8.50952C24.4693 8.08113 25.1212 7.84675 25.8274 7.57358C25.3137 7.32989 24.8247 7.35317 24.3451 7.23365C25.6117 6.65004 28.0594 6.48707 28.8929 6.92012C28.6151 6.99617 28.3311 7.03653 28.0501 7.22279C28.5872 7.38421 29.1133 7.44785 29.6271 7.74276C29.2592 7.78622 28.9535 7.80485 28.657 7.86228C28.3668 7.91815 28.0548 7.9135 27.7195 8.11528C28.5577 8.22393 29.326 8.30153 30.1238 8.57782C29.5542 8.69733 29.0295 8.62128 28.5328 8.79667C29.059 8.99069 29.6318 9.02639 30.1642 9.31043C29.6271 9.42995 29.1087 9.45323 28.6493 9.72641C30.0586 9.79315 31.4571 9.88008 32.854 10.3473C32.4769 10.4839 32.1043 10.414 31.721 10.622C32.2394 10.7555 32.6911 10.8688 33.1132 11.0675C33.5323 11.2646 33.9173 11.5207 34.3379 11.8358C34.2898 10.7695 33.9328 9.88628 33.447 9.02484C33.7186 9.00466 33.8288 9.29647 34.0818 9.25301C34.043 9.16608 34.0181 9.09624 33.984 9.03105C33.478 8.09199 32.7547 7.35627 31.8638 6.78198C30.3923 5.83361 28.7517 5.3959 27.0335 5.19878C26.976 5.19257 26.9434 5.22051 26.9326 5.28725C27.2321 5.45333 27.6015 5.49214 27.9042 5.756C27.5131 5.73583 27.1669 5.70634 26.8208 5.70323C25.1352 5.69081 23.4852 5.94381 21.8741 6.43274C19.4481 7.16846 17.2456 8.32327 15.3023 9.95768C15.2092 10.0368 15.0788 10.0943 15.0415 10.2557C15.2976 10.265 15.4761 10.0462 15.7664 10.0943C14.4036 11.4338 13.359 12.9192 12.912 14.7694C13.1432 14.5645 13.3357 14.3285 13.539 14.105C13.7563 13.866 13.9752 13.6285 14.2096 13.4081C14.4269 13.2032 14.6224 12.9673 14.9546 12.8167C14.7963 13.1815 14.6488 13.4873 14.5309 13.8055C14.4176 14.1143 14.2654 14.4201 14.2654 14.8066C14.4874 14.5971 14.6644 14.4263 14.8444 14.2603C15.0353 14.0833 15.2355 13.9157 15.4202 13.7325C15.5879 13.5664 15.8192 13.4609 15.934 13.2327C15.754 13.1598 15.6329 13.3833 15.4684 13.2808L15.4777 13.2871C15.4901 13.138 15.6127 13.0589 15.6965 12.958C16.1684 12.3837 16.6899 11.856 17.2223 11.3391C17.3077 11.2568 17.4287 11.1994 17.4567 11.0551C17.3061 11.0054 17.1897 11.0985 17.0686 11.1451C16.6061 11.3205 16.1824 11.5766 15.7369 11.7892L15.6826 11.7054C15.7245 11.5704 15.83 11.4788 15.9169 11.3764C17.3185 9.70313 19.0895 8.52039 21.0204 7.5534C21.0716 7.52701 21.1322 7.49131 21.1943 7.58289C21.0639 7.80174 20.8264 7.92126 20.6448 8.0951C20.4492 8.28446 20.2381 8.4583 20.0426 8.64767C19.8672 8.8184 19.6592 8.96586 19.5071 9.24835C20.0643 9.07296 20.5237 8.82927 21.0266 8.70665V8.69889ZM13.5794 32.7262C13.6943 32.8768 13.6694 33.0258 13.7175 33.15C13.7672 33.2772 13.7175 33.4355 13.8681 33.6063C14.1428 32.6874 14.2841 31.8229 14.1351 30.89C13.91 30.9987 13.8417 31.2268 13.6306 31.2625C13.5809 31.0142 13.6865 30.7658 13.5608 30.5222C13.3109 30.7627 13.2022 31.1058 12.8545 31.2517C12.8545 30.8046 12.867 30.3902 12.7381 29.9122C12.5053 30.1916 12.3206 30.4368 12.0629 30.637C11.9062 30.3499 11.9372 30.0037 11.7184 29.7399C11.4529 30.0519 11.262 30.3825 11.0478 30.6913C10.905 30.6386 10.9485 30.4539 10.8026 30.4057C10.6707 30.5361 10.5977 30.71 10.5061 30.8683C10.4099 31.0375 10.3245 31.2113 10.2298 31.3945C10.042 31.2284 10.0265 30.9909 9.91166 30.8015C9.46929 31.3448 9.06108 33.0103 9.26907 33.4449C9.58571 32.9854 9.88062 32.5182 10.3137 32.1457C10.3851 32.3056 10.2997 32.453 10.4161 32.602C10.5915 32.3832 10.7421 32.1768 10.9128 31.9874C11.0789 31.8042 11.2077 31.5745 11.4824 31.4628C11.4918 31.8741 11.4343 32.2575 11.5492 32.6533C11.8332 32.5539 12.0071 32.2885 12.2849 32.1768C12.3889 32.467 12.2911 32.7604 12.3904 33.0211C12.6 32.9808 12.6854 32.7836 12.8561 32.7247C12.9896 32.9715 12.9042 33.2508 13.0532 33.5147C13.2752 33.2571 13.4118 32.9947 13.5794 32.7231V32.7262ZM34.7306 28.0667C34.7616 28.0744 34.7896 28.0729 34.8051 28.0868C34.8905 28.1551 34.9696 28.2777 35.0876 28.211C35.2195 28.1365 35.1574 27.9921 35.1419 27.8742C35.1357 27.8261 35.1171 27.778 35.0984 27.7329C34.8982 27.2207 34.639 26.7427 34.2649 26.3376C33.7869 25.8191 33.18 25.5708 32.4784 25.5599C32.1757 25.5553 31.96 25.7043 31.8374 25.9821C31.8079 26.0504 31.783 26.1203 31.7505 26.2056C31.6263 26.0333 31.5564 25.844 31.3422 25.8145C31.1746 25.7912 31.0799 25.9759 30.9526 25.9852C30.8036 25.9961 30.6469 25.9045 30.5056 26.0287C30.4591 26.069 30.4109 26.1094 30.3721 26.156C30.175 26.3934 30.1502 26.7194 30.3101 26.9879C30.4389 27.2052 30.6236 27.3697 30.8347 27.5063C30.993 27.6088 31.1575 27.6926 31.35 27.6957C31.5487 27.7003 31.6232 27.511 31.7582 27.4054C31.8995 27.6988 32.0174 27.9875 32.2378 28.2141C32.3434 28.3228 32.4644 28.4236 32.629 28.3786C32.8075 28.3305 32.8727 28.1769 32.9021 28.0123C32.927 27.8711 32.9332 27.7267 32.9534 27.5358C33.1396 27.6941 33.256 27.8587 33.4314 27.9471C33.6192 28.0403 33.8133 28.1225 34.0026 28.2126C34.0585 28.2389 34.1051 28.2824 34.1594 28.3103C34.3068 28.3895 34.4 28.6208 34.5909 28.5525C34.8066 28.4749 34.6763 28.2296 34.7321 28.0682L34.7306 28.0667ZM16.6232 24.5122C16.5362 24.0745 16.6387 23.6803 16.5425 23.2658C16.2662 23.4956 16.1855 23.8184 15.9573 24.1149C15.903 23.6834 15.9216 23.3279 15.9402 22.974C15.948 22.825 15.9588 22.6745 15.9123 22.5317C15.8626 22.3811 15.7617 22.2678 15.5956 22.2554C15.4482 22.2445 15.3349 22.3206 15.2557 22.4448C15.175 22.572 15.1347 22.7148 15.1021 22.8607C14.9282 23.6275 14.8832 24.4051 14.9127 25.1874C14.9267 25.5832 14.9856 25.9775 15.1269 26.3515C15.1921 26.5254 15.2666 26.6977 15.4078 26.8265C15.6205 27.0221 15.8455 26.9957 15.9992 26.752C16.0861 26.6138 16.1234 26.4586 16.1591 26.3003C16.2087 26.0814 16.2181 25.8564 16.246 25.5491C16.3453 25.7213 16.3903 25.8098 16.4431 25.8921C16.5037 25.9852 16.5626 26.0814 16.6371 26.1622C16.9165 26.4633 17.1292 26.4136 17.2797 26.0209C17.2921 25.9899 17.2984 25.9759 17.3682 25.9992C17.5141 26.0954 17.5824 26.35 17.8463 26.4027C17.899 26.0395 18.0775 25.726 18.152 25.3721C17.9068 25.3752 17.8525 25.6344 17.6678 25.6872C17.4706 25.4218 17.362 25.1315 17.2875 24.8304C17.2114 24.5293 17.2052 24.2142 17.1711 23.8665C16.9041 24.0466 16.8063 24.281 16.6232 24.5138V24.5122ZM20.3251 38.4816C20.2583 37.7304 20.1 36.9946 19.7802 36.2993C19.7337 36.1984 19.6731 36.1021 19.6064 36.0137C19.3627 35.6908 19.1252 35.6986 18.9017 36.037C18.7434 36.2791 18.658 36.5523 18.6053 36.8332C18.4159 37.8266 18.4283 38.8324 18.4532 39.8366C18.4563 39.9329 18.4873 40.0322 18.5152 40.1253C18.568 40.3054 18.6192 40.5118 18.8241 40.5568C19.0507 40.6065 19.1796 40.4218 19.2991 40.2635C19.4574 40.057 19.5924 39.8335 19.802 39.669C20.1869 39.3694 20.3064 38.9503 20.3235 38.4785L20.3251 38.4816ZM18.0154 21.8844C18.0154 22.5084 18.4128 23.1805 18.9561 23.4707C19.1485 23.5732 19.3643 23.6446 19.5583 23.5359C19.7508 23.4288 19.8454 23.5157 19.9727 23.6306C20.3902 24.0047 21.0685 23.9472 21.4317 23.5188C21.5264 23.4071 21.5823 23.2798 21.4985 23.1463C21.4255 23.0284 21.3045 23.0703 21.1958 23.1013C21.1244 23.1215 21.053 23.1448 20.9816 23.1587C20.5827 23.2332 20.1993 23.2053 19.8284 23.0159C19.2603 22.7272 18.8629 22.2973 18.6549 21.6935C18.6146 21.5771 18.568 21.4607 18.5028 21.3567C18.4035 21.1984 18.2529 21.1999 18.1458 21.3536C18.0356 21.5119 18.0077 21.6951 18.0154 21.8844ZM16.7753 39.3756C16.6697 39.3524 16.5999 39.4191 16.5192 39.4408C16.2972 39.5014 16.2786 39.4952 16.2025 39.2701C16.1715 39.177 16.1513 39.0792 16.1156 38.9876C16.0768 38.8914 16.0085 38.8215 15.8921 38.8215C15.7679 38.8215 15.681 38.8821 15.6267 38.9892C15.5522 39.1351 15.5925 39.281 15.6391 39.4207C15.7772 39.832 15.8735 40.2511 15.9526 40.6779C16.0225 41.0566 15.979 41.4369 15.9868 41.8342C16.3003 41.8141 16.558 41.7132 16.7815 41.5316C17.0702 41.2972 17.1136 40.948 16.9057 40.6375C16.8855 40.6065 16.8638 40.5755 16.8358 40.5506C16.6061 40.3442 16.5331 40.1207 16.6977 39.8273C16.7706 39.6985 16.8327 39.5371 16.7753 39.3741V39.3756ZM30.5165 22.808C30.3783 22.8204 30.2247 22.7412 30.1005 22.8716C29.9717 23.0082 29.9872 23.2783 30.1378 23.449C30.2588 23.5871 30.4948 23.6228 30.6438 23.5188C30.7493 23.4443 30.8254 23.3357 30.8254 23.21C30.8254 22.9849 30.9495 22.9725 31.1296 22.9601C31.53 22.9337 31.8995 22.7909 32.2409 22.5844C32.4117 22.4805 32.4939 22.3144 32.4458 22.1079C32.4039 21.9294 32.2704 21.8503 32.0128 21.8379C31.2941 21.8053 30.8052 22.1204 30.5149 22.808H30.5165ZM26.5445 38.0268C26.1379 38.4009 25.6676 38.6787 25.2392 39.0093C24.6168 39.4874 24.5764 39.7575 25.0095 40.414C25.0157 40.4249 25.0203 40.4373 25.0281 40.4451C25.0746 40.4885 25.0948 40.5956 25.2097 40.5056C25.2143 40.4063 25.2236 40.2961 25.2252 40.1859C25.233 39.773 25.3959 39.447 25.7452 39.2142C25.8787 39.1257 26.0044 39.0217 26.1192 38.91C26.3645 38.6741 26.5337 38.3931 26.5445 38.0268ZM21.1446 40.6437C21.1415 40.5894 21.1477 40.4885 21.1306 40.3923C21.0747 40.0896 20.859 40.0089 20.6246 40.206C20.4337 40.3675 20.294 40.5739 20.2086 40.8098C20.1217 41.0504 20.1729 41.2739 20.3219 41.4742C20.5346 41.7566 20.8388 41.7271 20.994 41.4074C21.1027 41.1808 21.1337 40.9356 21.1446 40.6422V40.6437ZM16.232 14.1019C16.8032 13.7123 17.3744 13.3895 18.0108 13.0946C17.7624 12.9518 17.5483 13.1008 17.3465 13.0309C17.3884 12.8059 17.6414 12.7159 17.7128 12.4768C16.9895 12.7252 16.3252 13.45 16.2336 14.1019H16.232ZM21.9781 19.907C22.2001 20.0249 22.422 19.9551 22.6378 19.9986C22.6129 20.2252 22.4639 20.3742 22.4205 20.576C22.9622 20.3975 23.4169 19.6198 23.3533 18.971C22.9156 19.3327 22.4794 19.6633 21.9781 19.9085V19.907ZM28.7051 26.0023C28.657 25.65 28.879 25.5134 29.0482 25.3411C29.1102 25.2774 29.1599 25.206 29.1196 25.1129C29.0792 25.0167 28.9861 25.0136 28.9007 25.0136C28.6818 25.0136 28.4506 25.1983 28.3807 25.4187C28.3109 25.6437 28.3776 25.7865 28.7036 26.0023H28.7051ZM23.1313 17.5089C22.7821 17.4872 22.4701 17.5539 22.1504 17.7371C22.3134 17.883 22.4329 18.0491 22.6455 17.9342C22.8349 17.8318 23.001 17.6936 23.1329 17.5089H23.1313Z" fill="#020202"/>
<path d="M35.3499 32.273C35.8761 31.8493 36.2455 31.3184 36.4457 30.6696C36.6351 30.6588 36.5823 30.8916 36.7608 30.9397C36.8881 30.6929 36.899 30.4135 36.9191 30.1419C36.9657 29.5273 36.8586 28.9328 36.6677 28.3492C36.4116 27.57 36.0732 26.825 35.7224 26.0861C35.6588 25.9511 35.5936 25.8176 35.5269 25.6857C35.4461 25.5243 35.4415 25.3908 35.6153 25.2713C36.0499 24.9748 36.1213 24.5278 36.0779 24.0513C36.0422 23.6555 35.9242 23.2736 35.8047 22.8965C35.7705 22.7909 35.7317 22.6854 35.7007 22.5783C35.6138 22.2647 35.651 22.1639 35.9413 22.0009C36.2005 21.855 36.4737 21.7308 36.6941 21.5259C37.0573 21.1875 37.1364 20.7436 36.8959 20.3106C36.8058 20.1492 36.6925 19.9986 36.5746 19.8558C36.3231 19.5469 36.1198 19.2054 35.887 18.8841C35.6479 18.5504 35.6277 18.2307 35.8792 17.897C35.9521 17.7992 36.0111 17.6859 36.0608 17.5726C36.2564 17.1256 36.2672 16.6801 36.008 16.2548C35.873 16.0328 35.7162 15.8233 35.5703 15.6091C35.4741 15.4679 35.3592 15.3375 35.3018 15.1714C35.4058 15.0534 35.561 15.0721 35.6743 14.9991C35.8885 14.861 36.0577 14.6825 36.1601 14.4496C36.5513 13.5556 36.5606 12.6321 36.3961 11.6853C36.2083 11.7023 36.2921 11.9181 36.1306 11.9491C36.1229 10.2045 35.8311 8.52663 34.9432 6.99776C34.7601 6.68267 34.5738 6.36603 34.2712 6.09751C34.1874 6.29153 34.2913 6.46692 34.2215 6.62059C34.1097 6.63145 34.0616 6.54764 33.998 6.49642C32.5017 5.27332 30.7943 4.5376 28.8821 4.26442C27.4138 4.05488 25.9423 3.999 24.4662 4.13249C23.7988 4.19302 23.1376 4.29391 22.4826 4.43826C22.4112 4.45378 22.3444 4.48638 22.2497 4.51897C22.4189 4.72851 22.7107 4.63383 22.8908 4.83872C19.8781 5.368 17.258 6.6656 14.9686 8.63994C13.8588 9.59762 12.8685 10.6655 12.0195 11.9321C12.3734 11.9181 12.6342 11.7349 12.9306 11.7582C12.9306 11.7862 12.9353 11.8017 12.9306 11.8094C12.1607 12.7687 11.7448 13.8893 11.4437 15.0627C11.4343 15.0969 11.4095 15.1279 11.3924 15.159C11.3288 15.1217 11.2605 15.0891 11.2 15.0457C9.84183 14.0709 8.48525 13.0946 7.12556 12.1199C6.41157 11.6077 5.69292 11.1017 4.97583 10.5925C5.41043 9.86769 5.93661 9.20803 6.48142 8.56544C9.52053 4.98772 13.2721 2.47168 17.7609 1.07009C19.4341 0.547013 21.1477 0.224165 22.8985 0.0829191C24.0642 -0.0102101 25.2314 -0.0288359 26.394 0.0472196C30.1036 0.286251 33.5882 1.31222 36.8074 3.17791C41.1286 5.68153 44.3788 9.18785 46.5471 13.6875C47.615 15.904 48.298 18.2369 48.6426 20.6738C48.8661 22.2523 48.9282 23.8386 48.8304 25.4234C48.5308 30.2428 46.9243 34.5888 44.0265 38.4552C44.0047 38.4832 43.9721 38.5049 43.9442 38.5282C43.9271 38.5111 43.91 38.4909 43.8899 38.477C41.186 36.5383 38.4837 34.6028 35.7799 32.6626C35.6231 32.5493 35.4322 32.4701 35.3499 32.2746V32.273Z" fill="#309FD6"/>
<path d="M192.394 26.5084C193.995 29.2029 195.569 31.8509 197.149 34.5097C197.01 34.5811 196.898 34.5547 196.791 34.5547C195.301 34.5563 193.812 34.5485 192.322 34.5625C192.047 34.5656 191.911 34.4725 191.78 34.2334C190.525 31.9393 189.252 29.6561 187.996 27.362C187.867 27.1261 187.734 27.0299 187.456 27.0361C186.588 27.0578 185.719 27.0438 184.85 27.0438C184.502 27.0438 184.533 27.0237 184.533 27.3667C184.533 29.6251 184.533 31.8835 184.533 34.1403C184.533 34.6277 184.555 34.5516 184.11 34.5532C182.843 34.5563 181.578 34.5547 180.312 34.5532C180.024 34.5532 180.024 34.5485 180.02 34.2738C180.02 34.2117 180.02 34.1496 180.02 34.0875C180.02 27.3512 180.02 20.6133 180.02 13.8769C180.02 13.5737 180.169 13.4222 180.467 13.4222C183.656 13.4222 186.846 13.4191 190.036 13.4222C191.506 13.4237 192.892 13.7528 194.137 14.5583C195.717 15.5812 196.62 17.0589 196.927 18.8982C197.159 20.2796 197.078 21.6486 196.533 22.9539C195.788 24.7374 194.461 25.8828 192.619 26.4432C192.561 26.4602 192.504 26.4742 192.395 26.5037L192.394 26.5084ZM184.533 20.2066C184.533 21.051 184.533 21.8938 184.533 22.7382C184.533 23.0688 184.537 23.0734 184.849 23.0734C186.339 23.0734 187.827 23.0765 189.317 23.0734C189.857 23.0734 190.38 22.9788 190.866 22.7335C191.897 22.212 192.397 21.3583 192.398 20.2128C192.4 19.0751 191.889 18.2462 190.869 17.7356C190.407 17.5043 189.91 17.3941 189.396 17.391C187.869 17.3817 186.343 17.3864 184.816 17.3879C184.54 17.3879 184.535 17.3926 184.533 17.6782C184.532 18.5225 184.533 19.3653 184.533 20.2097V20.2066Z" fill="#010101"/>
<path d="M112.933 23.9644C112.933 20.5884 112.933 17.2141 112.933 13.8381C112.933 13.3709 112.877 13.4253 113.352 13.4237C114.606 13.4222 115.86 13.4237 117.114 13.4237C117.494 13.4237 117.449 13.416 117.449 13.7698C117.449 16.2642 117.449 18.7585 117.449 21.2528C117.449 21.3397 117.456 21.4266 117.449 21.5135C117.437 21.6532 117.485 21.7231 117.636 21.7091C117.71 21.7013 117.785 21.7091 117.859 21.7091C120.901 21.7091 123.942 21.7091 126.984 21.7091C127.022 21.7091 127.059 21.7091 127.096 21.7091C127.414 21.706 127.416 21.706 127.416 21.3832C127.416 18.864 127.416 16.3449 127.416 13.8257C127.416 13.3647 127.365 13.4268 127.805 13.4268C129.084 13.4237 130.363 13.4253 131.642 13.4268C131.959 13.4268 131.961 13.4299 131.961 13.7543C131.961 20.5791 131.961 27.4055 131.961 34.2303C131.961 34.5532 131.957 34.5563 131.638 34.5563C130.359 34.5563 129.08 34.5563 127.801 34.5563C127.4 34.5563 127.416 34.609 127.416 34.1807C127.416 31.4753 127.416 28.7698 127.416 26.0644C127.416 25.5879 127.453 25.6516 126.995 25.6516C123.953 25.6516 120.912 25.6516 117.87 25.6516C117.796 25.6516 117.721 25.6578 117.647 25.6516C117.505 25.6392 117.439 25.6935 117.449 25.8409C117.456 25.9279 117.449 26.0148 117.449 26.1017C117.449 28.7823 117.449 31.4628 117.449 34.1434C117.449 34.6013 117.507 34.5594 117.032 34.5594C115.803 34.5594 114.573 34.5594 113.344 34.5594C112.88 34.5594 112.934 34.5966 112.934 34.1325C112.934 30.7442 112.934 27.3574 112.934 23.969L112.933 23.9644Z" fill="#020202"/>
<path d="M156.177 23.9504C156.177 20.576 156.177 17.2 156.177 13.8257C156.177 13.36 156.121 13.4252 156.562 13.4252C161.279 13.4237 165.996 13.4252 170.713 13.4252C170.775 13.4252 170.839 13.4314 170.899 13.4252C171.104 13.3973 171.145 13.4997 171.145 13.6844C171.138 14.8252 171.143 15.9676 171.14 17.1085C171.14 17.3816 171.134 17.3847 170.845 17.3847C169.355 17.3847 167.867 17.3847 166.376 17.3847C164.613 17.3847 162.852 17.3847 161.088 17.3847C161.001 17.3847 160.914 17.3879 160.828 17.3847C160.719 17.3816 160.668 17.4313 160.671 17.54C160.672 17.602 160.671 17.6641 160.671 17.7262C160.671 18.9664 160.671 20.2081 160.671 21.4483C160.671 21.8068 160.623 21.8084 161.037 21.8084C164.177 21.8084 167.317 21.8084 170.459 21.8084C170.997 21.8084 170.913 21.7665 170.915 22.2616C170.918 23.3155 170.915 24.371 170.917 25.4249C170.917 25.8254 170.921 25.7803 170.547 25.7803C167.407 25.7803 164.267 25.7803 161.126 25.7803C160.821 25.7803 160.669 25.9299 160.669 26.2289C160.669 27.5684 160.669 28.9095 160.669 30.249C160.669 30.5594 160.623 30.5703 160.992 30.5703C164.219 30.5703 167.446 30.5687 170.674 30.5703C171.191 30.5703 171.135 30.4942 171.137 31.0158C171.14 32.0821 171.137 33.15 171.137 34.2163C171.137 34.5531 171.134 34.5547 170.788 34.5547C166.033 34.5547 161.279 34.5547 156.525 34.5547C156.151 34.5547 156.173 34.5935 156.173 34.1868C156.173 30.7752 156.173 27.362 156.173 23.9504H156.177Z" fill="#010101"/>
<path d="M74.3849 19.3731C74.3057 19.3606 74.2638 19.2939 74.2095 19.2473C72.7257 17.9839 70.9981 17.3133 69.0657 17.138C68.3936 17.0774 67.7277 17.0774 67.0681 17.2295C66.7033 17.3133 66.3572 17.4499 66.0529 17.6734C65.55 18.0429 65.2893 18.5349 65.2862 19.1666C65.2862 19.5236 65.4119 19.817 65.6603 20.0653C65.9288 20.3338 66.2547 20.5077 66.5993 20.6551C67.3086 20.9594 68.0568 21.1378 68.8018 21.321C70.0296 21.6206 71.2651 21.886 72.4649 22.2927C73.1121 22.5115 73.7408 22.7707 74.343 23.0951C76.4741 24.2453 77.5109 26.0209 77.3976 28.4469C77.2704 31.1772 75.9138 33.0537 73.4226 34.1325C72.4696 34.5453 71.4638 34.7611 70.4347 34.8558C68.5923 35.0265 66.7669 34.9117 64.9726 34.4289C63.2187 33.9571 61.651 33.1375 60.3053 31.9113C60.1874 31.8027 60.0585 31.7034 59.9576 31.5435C60.771 30.3871 61.5874 29.2261 62.4147 28.0511C62.7779 28.3911 63.1085 28.7077 63.4748 28.9855C65.2707 30.3499 67.2931 31.008 69.5499 30.9164C70.2857 30.8869 71.0059 30.7488 71.6562 30.3763C72.2414 30.0426 72.6605 29.5785 72.7784 28.8862C72.8778 28.3072 72.6962 27.8354 72.26 27.4567C71.9278 27.168 71.5352 26.9833 71.1269 26.8296C70.1491 26.4602 69.1278 26.2553 68.1158 26.0132C66.9346 25.7322 65.7549 25.4451 64.6265 24.9825C64.1547 24.7901 63.6983 24.5681 63.2653 24.3011C61.7023 23.3388 60.8113 21.9636 60.6701 20.115C60.5133 18.0646 61.2149 16.3696 62.7577 15.0239C63.6719 14.2261 64.7491 13.7325 65.9179 13.4314C67.38 13.0542 68.8623 13.0418 70.3524 13.1955C71.872 13.3523 73.3186 13.7605 74.6752 14.4714C75.414 14.8594 76.0954 15.3328 76.724 15.8807C76.8342 15.9769 76.9149 16.0468 76.7907 16.2098C76.0038 17.2482 75.2293 18.2943 74.4485 19.3358C74.4361 19.3529 74.4066 19.3591 74.3834 19.3699L74.3849 19.3731Z" fill="#010101"/>
<path d="M4.97267 10.5925C5.68976 11.1016 6.40841 11.6076 7.1224 12.1198C8.48209 13.093 9.83867 14.0709 11.1968 15.0457C11.2573 15.0891 11.3241 15.1217 11.3893 15.159C11.1968 16.0282 11.0168 16.9005 10.5651 17.7169C10.8802 17.7852 11.0913 17.5384 11.4079 17.4794C11.1813 19.2691 11.3117 21.0106 11.8161 22.7242C11.9605 22.6869 11.9574 22.5891 11.9853 22.5115C12.0148 22.4308 12.0474 22.3516 12.0784 22.2709C12.1529 22.3144 12.17 22.3749 12.1793 22.4339C12.2911 23.2286 12.586 23.9628 12.9088 24.6876C13.0439 24.9903 13.0454 24.9903 12.7505 25.1036C12.0396 25.3768 11.4017 25.7835 10.7622 26.187C10.7125 26.2181 10.652 26.2506 10.6722 26.3484C10.8336 26.4229 10.9997 26.2631 11.1658 26.3391C11.1937 26.4198 11.127 26.44 11.0788 26.4695C10.2593 26.9646 9.66638 27.6678 9.2147 28.4997C8.29117 30.2071 7.53062 31.9781 7.11309 33.8826C6.96718 34.5485 6.88647 35.2221 6.82283 35.9004C6.7654 36.5073 6.75609 37.1142 6.77317 37.7195C6.79179 38.3745 6.85543 39.028 6.96098 39.6768C6.9765 39.773 6.97339 39.8739 6.97805 39.9717C6.7266 39.7652 6.53724 39.5045 6.33391 39.2561C3.63316 35.9625 1.91803 32.2202 1.19162 28.0279C0.828419 25.9278 0.758572 23.8107 0.96656 21.6904C1.35615 17.7324 2.6522 14.0911 4.83453 10.7648C4.87488 10.7043 4.9261 10.65 4.97267 10.5925Z" fill="#008752"/>
<path d="M104.531 18.2494C103.91 18.5551 103.289 18.8625 102.668 19.1682C102.091 19.4538 101.512 19.7379 100.935 20.0219C100.694 20.1399 100.694 20.1368 100.548 19.9009C99.713 18.5396 98.5489 17.5726 96.9812 17.2389C94.6157 16.7345 92.556 17.3926 90.8875 19.145C89.8149 20.2718 89.2888 21.6626 89.1398 23.2007C88.997 24.6784 89.2034 26.1002 89.8957 27.4226C90.9418 29.4233 92.6042 30.5797 94.8439 30.8606C97.3336 31.1726 99.2055 30.1668 100.547 28.0931C100.72 27.8246 100.666 27.8432 100.938 27.9752C102.066 28.5153 103.191 29.0617 104.318 29.6096C104.556 29.7244 104.559 29.7322 104.424 29.9573C102.96 32.4003 100.925 34.1341 98.0848 34.6696C94.0601 35.4286 90.4358 34.547 87.4541 31.6274C85.8244 30.0318 84.9288 28.0357 84.5966 25.7866C84.3032 23.7999 84.4538 21.8473 85.1662 19.966C86.3707 16.7888 88.6508 14.712 91.8576 13.6721C94.251 12.8975 96.6848 12.8075 99.1046 13.5836C101.515 14.3566 103.244 15.963 104.492 18.1252C104.511 18.1562 104.515 18.195 104.532 18.2509L104.531 18.2494Z" fill="#010101"/>
<path d="M146.295 24.0063C146.295 27.3683 146.295 30.7302 146.295 34.0922C146.295 34.1667 146.287 34.2428 146.295 34.3157C146.319 34.5206 146.222 34.561 146.035 34.5594C144.707 34.5532 143.38 34.5516 142.051 34.5594C141.86 34.5594 141.77 34.5113 141.797 34.3126C141.804 34.2521 141.797 34.1884 141.797 34.1264C141.797 27.3652 141.797 20.604 141.797 13.8444C141.797 13.565 141.932 13.4253 142.203 13.4253C143.42 13.4253 144.635 13.4253 145.852 13.4253C146.145 13.4253 146.292 13.5784 146.292 13.8847C146.292 17.2591 146.292 20.6335 146.292 24.0079L146.295 24.0063Z" fill="#010101"/>
<path d="M35.3498 32.2731C35.4321 32.4702 35.623 32.5494 35.7798 32.6611C38.4821 34.5997 41.1859 36.5368 43.8898 38.4755C43.91 38.4894 43.9255 38.5096 43.9441 38.5267C43.4071 39.3043 42.7691 39.9966 42.1157 40.6749C41.4544 41.3625 40.7529 42.0066 40.0047 42.6011C39.983 42.508 39.9085 42.463 39.834 42.4164C39.1386 41.9849 38.451 41.541 37.7138 41.1809C37.5337 41.094 37.3521 41.0086 37.1519 40.9993C36.7049 40.9775 36.3836 40.7401 36.1259 40.4048C35.9365 40.1596 35.7658 39.9004 35.592 39.6442C35.3421 39.2748 35.0285 39.0498 34.5551 39.0265C33.7666 38.9892 33.138 38.6322 32.6832 37.9757C32.3433 37.4852 31.8435 37.1763 31.3561 36.8581C30.9107 36.5663 30.4543 36.2916 30.0415 35.9501C29.7233 35.6878 29.5386 35.3572 29.5572 34.9521C29.5851 34.3654 29.3275 33.9587 28.8494 33.6591C28.6181 33.5148 28.3931 33.3596 28.168 33.2059C28.0749 33.1423 27.9725 33.0724 28.0066 32.9405C28.047 32.7822 28.1898 32.7806 28.3108 32.7993C28.7051 32.8567 29.104 32.8365 29.4951 32.8924C30.012 32.9669 30.5366 32.9809 31.0519 32.9793C32.0422 32.9746 33.0294 32.8644 33.9793 32.5494C34.0476 32.5261 34.1128 32.4749 34.1919 32.5183C34.1997 32.6813 33.9684 32.7123 33.9901 32.9064C34.507 32.8194 34.9416 32.5711 35.3514 32.2731H35.3498Z" fill="#008752"/>
<path d="M15.4698 13.2763C15.6328 13.3787 15.7554 13.1552 15.9355 13.2282C15.8206 13.4579 15.5894 13.5634 15.4217 13.7279C15.237 13.9111 15.0368 14.0787 14.8459 14.2557C14.6658 14.4233 14.4889 14.5925 14.2669 14.802C14.2669 14.4171 14.419 14.1113 14.5323 13.8009C14.6488 13.4827 14.7978 13.1754 14.9561 12.8122C14.6255 12.9627 14.4284 13.2002 14.2111 13.4035C13.9767 13.6239 13.7578 13.8614 13.5405 14.1005C13.3372 14.3255 13.1447 14.5599 12.9135 14.7648C13.3605 12.9146 14.4051 11.4292 15.7679 10.0897C15.4776 10.0416 15.2991 10.2604 15.043 10.2511C15.0787 10.0897 15.2091 10.0307 15.3038 9.95311C17.2471 8.31714 19.4496 7.16389 21.8756 6.42817C23.4883 5.93924 25.1367 5.68624 26.8223 5.69866C27.1684 5.70176 27.5161 5.73125 27.9057 5.75143C27.603 5.48911 27.2352 5.44876 26.934 5.28268C26.9434 5.21594 26.9775 5.18645 27.0349 5.19421C28.7532 5.39133 30.3938 5.82904 31.8652 6.7774C32.7562 7.3517 33.4795 8.08742 33.9855 9.02647C34.0212 9.09166 34.046 9.16151 34.0833 9.24843C33.8303 9.29189 33.7201 9.00009 33.4484 9.02026C33.9358 9.88171 34.2913 10.7649 34.3394 11.8312C33.9187 11.5161 33.5338 11.26 33.1147 11.0629C32.6925 10.8642 32.2409 10.7525 31.7224 10.6174C32.1043 10.4079 32.4768 10.4793 32.8555 10.3427C31.4586 9.8755 30.0601 9.78858 28.6507 9.72184C29.1102 9.44866 29.6286 9.42538 30.1656 9.30586C29.6332 9.02182 29.0605 8.98612 28.5343 8.7921C29.031 8.61826 29.5541 8.69276 30.1253 8.57324C29.3259 8.29696 28.5592 8.21935 27.721 8.1107C28.0563 7.90892 28.3682 7.91513 28.6585 7.8577C28.9565 7.80027 29.2623 7.78164 29.6286 7.73818C29.1148 7.44328 28.5886 7.37964 28.0516 7.21821C28.3325 7.03196 28.6166 6.9916 28.8944 6.91554C28.0609 6.48249 25.6147 6.64547 24.3466 7.22908C24.8262 7.35015 25.3152 7.32531 25.8289 7.569C25.1227 7.84218 24.4708 8.07655 23.8204 8.50495C24.2799 8.55927 24.6741 8.48943 25.087 8.59342C24.893 8.79365 24.6508 8.85418 24.4522 8.97991C24.2473 9.10874 24.0377 9.23136 23.8406 9.38812C24.4165 9.37726 24.9799 9.25929 25.5542 9.36018C25.0218 9.5868 24.4568 9.70632 23.9322 9.93603C23.898 9.94379 23.8592 9.94379 23.8297 9.96087C23.7925 9.98105 23.7614 10.0152 23.7273 10.0431C23.7692 10.0773 23.8142 10.0881 23.8639 10.0664L24.4056 10.158C24.4025 10.1906 24.404 10.203 24.4009 10.2154C24.3978 10.2263 24.3947 10.2434 24.387 10.2465C23.3424 10.6655 22.3164 11.125 21.3106 11.7396C21.3246 11.4649 21.5015 11.3345 21.6117 11.1762C21.7235 11.0148 21.8616 10.8704 22.0292 10.6687C21.4705 10.782 21.0017 11.007 20.4429 11.1948C20.6152 10.8828 20.8574 10.7587 21.0529 10.591C21.2594 10.4141 21.4813 10.2542 21.7017 10.0944C21.9128 9.94224 22.1286 9.79634 22.3459 9.65354C22.5694 9.50609 22.796 9.36484 23.0056 9.191C21.8445 9.39744 20.7596 9.82583 19.687 10.2697C19.6125 10.1626 19.6824 10.1145 19.729 10.0618C20.0735 9.67062 20.4414 9.30276 20.8387 8.96439C20.921 8.89454 21.0297 8.84797 21.07 8.73622C21.1026 8.73622 21.1476 8.71915 21.1368 8.69586C21.1119 8.64309 21.0669 8.67258 21.0297 8.69431C20.5268 8.81693 20.0673 9.06217 19.5101 9.23601C19.6638 8.95352 19.8702 8.80607 20.0456 8.63533C20.2412 8.44597 20.4507 8.27213 20.6478 8.08276C20.8294 7.90737 21.0654 7.78785 21.1973 7.57055C21.1352 7.47898 21.0747 7.51623 21.0235 7.54106C19.0926 8.50805 17.3216 9.69079 15.92 11.364C15.8331 11.4665 15.7291 11.5596 15.6856 11.6931L15.5987 11.7924C15.5599 11.8095 15.549 11.8421 15.5847 11.8607C15.6266 11.8824 15.6685 11.8607 15.6918 11.8157C15.7135 11.8095 15.7306 11.7971 15.7399 11.7769C16.1854 11.5658 16.6107 11.3097 17.0717 11.1327C17.1927 11.0862 17.3091 10.9946 17.4597 11.0427C17.4318 11.1855 17.3107 11.2445 17.2253 11.3268C16.6929 11.8436 16.1714 12.3714 15.6996 12.9457C15.6173 13.0465 15.4931 13.1257 15.4807 13.2747L15.4279 13.3042C15.4435 13.3089 15.4621 13.3228 15.473 13.3182C15.4978 13.3089 15.4962 13.2887 15.4698 13.267V13.2763ZM21.3122 7.52864C21.3975 7.49139 21.4736 7.44483 21.5124 7.34704C21.4068 7.316 21.3447 7.37188 21.2858 7.43241C21.2345 7.44483 21.1833 7.48208 21.1988 7.52709C21.2159 7.57831 21.2733 7.5721 21.3137 7.5302L21.3122 7.52864Z" fill="#F9F9F9"/>
<path d="M33.8412 18.7351C33.8226 18.7025 33.8102 18.6668 33.7853 18.6389C33.0512 17.7774 32.6787 16.7406 32.3744 15.6758C32.3123 15.4601 32.2099 15.3437 31.9879 15.308C31.631 15.2505 31.2957 15.1124 30.9635 14.9789C30.2107 14.6778 29.4843 14.743 28.7734 15.1077C28.4537 15.2723 28.1386 15.443 27.8173 15.6044C27.6668 15.6805 27.5162 15.7596 27.3129 15.7658C27.3253 15.5579 27.4324 15.3995 27.4743 15.2241C27.5519 14.8997 27.6202 14.5707 27.7211 14.2525C27.8903 13.7232 28.1852 13.5494 28.7393 13.627C28.9116 13.6503 29.0823 13.6813 29.2499 13.7217C29.6954 13.8303 30.1393 13.9421 30.5972 13.9933C31.6247 14.1081 32.3449 14.698 32.913 15.5144C32.9689 15.5936 33.0186 15.6789 33.1102 15.8248C33.1645 15.5392 33.1381 15.3204 33.0838 15.1015C33.7683 14.9727 34.5925 15.5439 34.6949 16.2129C34.7027 16.261 34.7058 16.3122 34.7058 16.3603C34.7058 16.5171 34.6778 16.6614 34.5055 16.7204C34.327 16.7825 34.2262 16.6723 34.1392 16.5435C34.0911 16.4721 34.0508 16.3976 33.9964 16.3091C33.8241 16.4271 33.6627 16.5419 33.4578 16.5683C33.4439 16.6847 33.5261 16.7515 33.5711 16.8306C34.1811 17.869 34.8377 18.8748 35.5688 19.8325C35.651 19.9411 35.7519 20.0436 35.6541 20.1957C35.5548 20.3493 35.443 20.4735 35.2335 20.4316C35.1124 20.4083 34.9898 20.3866 34.8672 20.3664C34.4978 20.3043 34.1936 20.3757 33.9483 20.7001C33.6472 21.0975 33.211 21.2217 32.7237 21.186C32.6507 21.1813 32.5747 21.1704 32.5048 21.1456C32.1789 21.0276 32.0966 20.7451 32.303 20.4673C32.4225 20.3059 32.5964 20.2128 32.7826 20.1057C32.3791 20.0265 32.064 20.0979 31.7318 20.3385C31.6418 20.4037 31.5627 20.4844 31.4742 20.5527C31.1001 20.8414 30.8688 20.7871 30.6655 20.3587C29.9469 20.6132 29.2096 20.6303 28.4801 20.4301C27.7971 20.2422 27.1313 20.309 26.4592 20.4673C26.2419 20.5185 26.0261 20.5775 25.8011 20.5822C25.4177 20.5884 25.278 20.3975 25.4099 20.0358C25.4891 19.8216 25.6226 19.6369 25.8057 19.505C26.3645 19.1061 26.9729 18.8034 27.6435 18.6451C28.0175 18.5566 28.3838 18.6109 28.7284 18.7848C29.0264 18.9353 29.3245 19.089 29.6194 19.2473C30.144 19.5283 30.6966 19.6012 31.2771 19.491C31.4105 19.4662 31.5471 19.4491 31.6806 19.4243C31.9802 19.3668 32.272 19.3622 32.5747 19.5127C32.6398 19.1945 32.6864 18.867 33.031 18.7242C33.3104 18.6094 33.5649 18.6839 33.8071 18.836C33.8102 18.8733 33.8366 18.8717 33.8629 18.8717C33.8707 18.8795 33.8785 18.8872 33.8862 18.8934C33.8893 18.8965 33.8971 18.8919 33.9033 18.8903C33.8971 18.8655 33.8816 18.8608 33.8583 18.8779C33.9033 18.8205 33.8816 18.7755 33.8319 18.7367L33.8412 18.7351Z" fill="#F9F9F9"/>
<path d="M11.352 41.9228C11.4265 42.1338 11.5973 42.2891 11.7044 42.4893C11.5631 42.5622 11.4684 42.4738 11.3769 42.435C10.4238 42.033 9.72848 41.3454 9.25352 40.4373C8.61869 39.2282 8.46503 37.9198 8.50228 36.5771C8.50228 36.5585 8.52711 36.5399 8.5566 36.5011C8.7351 36.6687 8.7677 36.9434 9.00362 37.1018C9.18057 36.3459 9.36062 35.6039 9.7797 34.9443C9.93026 35.0064 9.91163 35.1538 9.96596 35.2547C10.0234 35.3618 10.0389 35.4906 10.146 35.5962C10.295 35.3199 10.3493 35.0126 10.5434 34.7487C10.7436 34.876 10.7808 35.129 10.9904 35.2764C11.1658 34.9893 11.3427 34.7021 11.5554 34.3529C11.6982 34.7115 11.813 35.0002 11.9341 35.3075C12.1141 35.1181 12.1467 34.862 12.3237 34.7006C12.8514 35.2671 13.1758 37.2865 12.853 38.1991C12.662 37.6947 12.6 37.1949 12.2973 36.7122C12.2445 37.3796 12.2678 37.9849 11.9403 38.5251C11.7416 37.6217 11.6671 36.6982 11.3163 35.8306C11.2248 36.737 11.1875 37.645 10.9066 38.522C10.652 37.8328 10.5527 37.1173 10.4378 36.3986C10.1693 37.2213 10.1088 38.0719 10.0979 38.9426C9.76263 38.5763 9.54533 38.1417 9.26439 37.7475C9.29543 39.0078 9.63845 40.1331 10.6256 40.9992C10.6054 40.5864 10.5077 40.1828 10.6086 39.7606C10.8802 40.2433 11.0369 40.7959 11.5228 41.2026C11.5538 40.7555 11.4747 40.3442 11.6609 39.8863C12.0272 40.962 12.4416 41.9476 13.3341 42.6538C12.9213 42.7112 12.1685 42.3837 11.4312 41.8451C11.4126 41.797 11.3613 41.7551 11.3303 41.7784C11.2744 41.8219 11.3008 41.8808 11.3567 41.9197L11.352 41.9228Z" fill="#F9F9F9"/>
<path d="M17.3014 19.6354C17.1384 19.7425 16.9739 19.8481 16.8109 19.9552C16.71 19.8574 16.8047 19.786 16.8389 19.7239C17.095 19.266 17.4473 18.8873 17.8323 18.5349C18.2513 18.15 18.7061 17.8085 19.1764 17.4903C19.2571 17.4686 19.3177 17.4221 19.3565 17.3444C19.2773 17.2963 19.2276 17.3646 19.1671 17.3879L17.3247 18.136C18.5105 16.795 20.1186 16.0981 21.6273 15.249C21.2532 15.2149 20.9241 15.3918 20.5718 15.426C20.5516 15.3189 20.6215 15.277 20.6727 15.2258C21.0809 14.8315 21.5435 14.5319 22.1007 14.3954C22.9419 14.1889 23.7832 13.9825 24.5934 13.6674C24.7766 13.596 24.9737 13.551 25.1755 13.5603C25.413 13.5712 25.5092 13.7078 25.4332 13.9328C25.3897 14.0632 25.309 14.175 25.2143 14.2758C25.0094 14.4962 24.7642 14.6608 24.491 14.7881C23.7491 15.1342 22.9963 15.4493 22.228 15.7287C22.1519 15.7566 22.0572 15.755 22.0153 15.8652C22.4934 15.9211 22.9528 15.8389 23.4138 15.7737C23.6358 15.7426 23.8562 15.7131 24.0797 15.7193C24.1511 15.7209 24.2349 15.7193 24.269 15.8047C24.3047 15.8932 24.2815 15.9723 24.2194 16.0453C24.1045 16.1819 23.9508 16.2641 23.791 16.3324C23.3067 16.5389 22.7991 16.6367 22.2714 16.6413C21.8259 16.6444 21.3789 16.6103 20.9366 16.7034C20.7084 16.7515 20.4895 16.8136 20.2629 16.9859C20.5051 16.9859 20.696 16.9828 20.8869 16.9859C20.9847 16.989 21.1011 16.9906 21.1383 17.1039C21.1787 17.228 21.1011 17.3165 21.0064 17.3848C20.8124 17.5245 20.5858 17.5928 20.3654 17.672C20.041 17.7868 19.701 17.8567 19.3378 18.0274C19.5458 18.0615 19.6995 18.0895 19.8547 18.1097C19.968 18.1252 20.0751 18.1578 20.1698 18.2152C20.3576 18.3285 20.37 18.5008 20.1946 18.6343C20.1077 18.6995 20.0006 18.746 19.8966 18.7802C19.7073 18.8392 19.5163 18.8919 19.3223 18.9292C18.7915 19.0316 18.3569 19.3002 17.9797 19.6773C17.7081 19.9505 17.4582 20.2423 17.2207 20.545C17.154 20.6288 17.1105 20.7375 16.9444 20.8213C16.9987 20.382 17.23 20.0623 17.3744 19.713C17.4101 19.6804 17.4458 19.6416 17.3961 19.5997C17.3837 19.5904 17.3371 19.6215 17.3061 19.6339L17.3014 19.6354Z" fill="#F9F9F9"/>
<path d="M13.5793 32.7263C13.4101 32.9979 13.2735 33.2602 13.0531 33.5179C12.9041 33.254 12.9895 32.9746 12.856 32.7278C12.6868 32.7868 12.6015 32.9839 12.3904 33.0243C12.291 32.7635 12.3904 32.4717 12.2848 32.1799C12.007 32.2901 11.8331 32.5555 11.5491 32.6564C11.4342 32.2606 11.4917 31.8773 11.4824 31.4659C11.2076 31.5777 11.0772 31.8059 10.9127 31.9906C10.742 32.1799 10.5914 32.3864 10.416 32.6052C10.2996 32.4562 10.3865 32.3088 10.3136 32.1489C9.88053 32.5214 9.58407 32.9886 9.26898 33.448C9.061 33.0119 9.46921 31.348 9.91158 30.8047C10.0249 30.9925 10.042 31.2316 10.2298 31.3976C10.326 31.2145 10.4098 31.0391 10.5061 30.8715C10.5976 30.7116 10.6706 30.5393 10.8025 30.4089C10.9484 30.457 10.905 30.6417 11.0478 30.6945C11.2619 30.3872 11.4529 30.055 11.7183 29.743C11.9371 30.0069 11.9061 30.353 12.0629 30.6402C12.319 30.44 12.5052 30.1947 12.738 29.9153C12.8653 30.3934 12.8545 30.8094 12.8545 31.2548C13.2021 31.1089 13.3108 30.7659 13.5607 30.5253C13.688 30.769 13.5824 31.0174 13.6305 31.2657C13.8416 31.23 13.9099 31.0018 14.135 30.8932C14.2824 31.826 14.1427 32.689 13.868 33.6095C13.7175 33.4387 13.7671 33.2804 13.7175 33.1531C13.6693 33.0274 13.6942 32.8799 13.5793 32.7294V32.7263Z" fill="#F9F9F9"/>
<path d="M34.729 28.0667C34.6732 28.2282 34.8035 28.4734 34.5878 28.551C34.3969 28.6193 34.3053 28.388 34.1563 28.3089C34.102 28.2794 34.0539 28.2375 33.9995 28.2111C33.8102 28.1211 33.6161 28.0388 33.4283 27.9457C33.2529 27.8587 33.1365 27.6927 32.9503 27.5343C32.9301 27.7253 32.9254 27.8696 32.8991 28.0109C32.8696 28.1754 32.8044 28.329 32.6259 28.3772C32.4613 28.4222 32.3403 28.3213 32.2347 28.2126C32.0143 27.986 31.8964 27.6958 31.7551 27.404C31.6201 27.508 31.5456 27.6973 31.3469 27.6942C31.1544 27.6896 30.9884 27.6073 30.8316 27.5049C30.6205 27.3683 30.4358 27.2037 30.307 26.9864C30.1471 26.7164 30.1719 26.3904 30.369 26.1545C30.4078 26.1079 30.456 26.0676 30.5025 26.0272C30.6438 25.9046 30.8005 25.9946 30.9496 25.9837C31.0768 25.9744 31.17 25.7913 31.3391 25.813C31.5549 25.8425 31.6232 26.0319 31.7474 26.2042C31.78 26.1188 31.8048 26.0474 31.8343 25.9806C31.9569 25.7028 32.1726 25.5538 32.4753 25.5585C33.1769 25.5709 33.7838 25.8177 34.2618 26.3361C34.6359 26.7412 34.8951 27.2208 35.0954 27.7315C35.114 27.778 35.1311 27.8246 35.1388 27.8727C35.1559 27.9907 35.2164 28.135 35.0845 28.2095C34.9665 28.2763 34.8858 28.1537 34.802 28.0854C34.7865 28.0729 34.7585 28.0729 34.7275 28.0652L34.729 28.0667Z" fill="#F9F9F9"/>
<path d="M16.6216 24.5122C16.8063 24.2794 16.904 24.0435 17.1695 23.865C17.2036 24.2127 17.2098 24.5277 17.2859 24.8289C17.3619 25.13 17.469 25.4202 17.6662 25.6856C17.8524 25.6329 17.9067 25.3752 18.1504 25.3706C18.0759 25.7245 17.8974 26.038 17.8447 26.4012C17.5808 26.3484 17.514 26.0939 17.3666 25.9976C17.2967 25.9743 17.289 25.9899 17.2781 26.0194C17.1276 26.4121 16.9149 26.4602 16.6355 26.1606C16.561 26.0799 16.502 25.9837 16.4415 25.8905C16.3887 25.8083 16.3437 25.7213 16.2444 25.5475C16.2164 25.8548 16.2071 26.0799 16.1575 26.2987C16.1218 26.4571 16.0845 26.6138 15.9976 26.7504C15.8439 26.9926 15.6204 27.0205 15.4062 26.8249C15.265 26.6961 15.1905 26.5238 15.1253 26.35C14.984 25.9743 14.9251 25.5801 14.9111 25.1859C14.8816 24.4036 14.9266 23.6259 15.1004 22.8592C15.133 22.7133 15.1734 22.572 15.2541 22.4432C15.3333 22.319 15.4466 22.243 15.594 22.2538C15.7601 22.2663 15.861 22.3796 15.9107 22.5301C15.9572 22.6729 15.9464 22.8235 15.9386 22.9725C15.92 23.3264 15.9014 23.6818 15.9557 24.1133C16.1838 23.8169 16.2646 23.494 16.5408 23.2643C16.6371 23.6787 16.5346 24.0745 16.6216 24.5107V24.5122Z" fill="#F9F9F9"/>
<path d="M16.9895 34.4739C16.8513 34.6478 16.7178 34.8278 16.5704 34.9939C16.499 35.0746 16.4043 35.1662 16.2817 35.1072C16.1684 35.0529 16.2118 34.9334 16.2165 34.8403C16.2258 34.668 16.2444 34.4941 16.263 34.3218C16.3158 33.8329 16.2693 33.3595 16.0473 32.9109C15.9588 32.734 15.8828 32.5508 15.816 32.3646C15.7539 32.1907 15.6996 32.0107 15.6639 31.8306C15.5832 31.4317 15.7058 31.1182 15.9728 30.9925C16.2491 30.8636 16.5673 30.9599 16.8203 31.275C16.9817 31.4767 17.1214 31.6987 17.2673 31.9144C17.3853 32.0883 17.4892 32.273 17.615 32.4406C17.9176 32.8488 18.1194 32.8907 18.5742 32.6471C18.6456 32.8287 18.5525 32.987 18.5028 33.1391C18.3957 33.4697 18.225 33.7739 18.0325 34.0626C17.5187 34.8325 17.2766 35.6691 17.3682 36.5957C17.3697 36.6175 17.3527 36.6408 17.3433 36.6625C16.9398 36.5026 16.7194 36.0618 16.7815 35.5558C16.8249 35.2066 16.9786 34.893 17.0872 34.5655C17.1354 34.4631 17.1943 34.3622 17.168 34.2303C17.0717 34.2986 17.022 34.3793 16.991 34.4724L16.9895 34.4739Z" fill="#F9F9F9"/>
<path d="M20.325 38.4817C20.3079 38.9535 20.1884 39.3726 19.8034 39.6722C19.5939 39.8367 19.4589 40.0602 19.3005 40.2666C19.1795 40.4234 19.0506 40.6097 18.8256 40.56C18.6207 40.515 18.571 40.307 18.5167 40.1285C18.4888 40.0338 18.4577 39.936 18.4546 39.8398C18.4298 38.8356 18.4158 37.8298 18.6067 36.8364C18.6611 36.5554 18.7449 36.2807 18.9032 36.0401C19.1251 35.7018 19.3642 35.694 19.6079 36.0168C19.6746 36.1053 19.7351 36.2016 19.7817 36.3024C20.1015 36.9978 20.2598 37.7335 20.3265 38.4848L20.325 38.4817Z" fill="#F9F9F9"/>
<path d="M23.8173 22.7351C23.3967 22.9369 23.0831 23.2737 22.751 23.5888C22.6641 23.6726 22.5756 23.7548 22.4887 23.8371C22.3692 23.775 22.4545 23.7005 22.4762 23.6477C22.7215 23.0564 23.08 22.5395 23.5271 22.0816C23.6404 21.9668 23.7552 21.8535 23.8639 21.7339C24.0889 21.4856 24.1153 21.245 23.9539 20.9532C23.926 20.902 23.8608 20.8663 23.8903 20.7933C24.2876 20.8244 24.5763 21.0603 24.7005 21.4639C24.73 21.5585 24.7657 21.661 24.7533 21.7541C24.7269 21.945 24.8371 22.0087 24.9783 22.0816C25.7451 22.4743 26.3442 23.0626 26.8564 23.744C27.0396 23.9877 27.0349 23.9908 26.7742 24.1522C26.7121 24.191 26.6531 24.2329 26.5957 24.2717C26.65 24.3881 26.7509 24.3555 26.83 24.3726C27.1653 24.4424 27.4633 24.5852 27.7148 24.8196C27.797 24.8957 27.8715 24.9795 27.9103 25.0881C27.9895 25.3148 27.8824 25.4529 27.6403 25.4327C27.5797 25.4281 27.5099 25.4234 27.4602 25.3924C27.1125 25.1735 26.6857 25.1207 26.3613 24.86C26.2837 24.7963 26.2154 24.7917 26.1254 24.8088C25.9577 24.8398 25.8149 24.7808 25.7839 24.607C25.7559 24.4549 25.8662 24.3571 26.0058 24.3059C26.0524 24.2888 26.1005 24.281 26.1673 24.2639C26.0322 23.9023 25.832 23.5965 25.5588 23.3373C25.191 22.9896 24.7905 22.926 24.3264 23.1355C24.0858 23.2442 23.8856 23.4087 23.6962 23.5903C23.6217 23.6617 23.5783 23.7843 23.4153 23.7781C23.4836 23.3978 23.7118 23.0998 23.8685 22.7739C23.8872 22.7475 23.9198 22.7149 23.8841 22.6901C23.8499 22.6652 23.8235 22.6932 23.8142 22.732L23.8173 22.7351Z" fill="#F9F9F9"/>
<path d="M11.5863 28.2312C11.2045 28.3616 10.9251 28.655 10.5976 28.8645C10.5386 28.8179 10.551 28.7729 10.579 28.731C10.9701 28.1381 11.414 27.5917 11.9992 27.1758C12.4245 26.8746 12.8839 26.6946 13.421 26.7365C13.7407 26.7613 13.9518 26.9181 14.0993 27.1851C14.3523 27.6445 14.4175 28.1443 14.4035 28.6581C14.3988 28.8366 14.3647 29.0151 14.3368 29.2525C14.1489 29.0632 14.1955 28.8288 14.0434 28.6658C13.8882 28.9437 13.8339 29.2494 13.6041 29.5319C13.5281 29.0445 13.5948 28.596 13.4381 28.1552C13.1059 28.2809 12.887 28.5308 12.6216 28.8024C12.5906 28.4702 12.6759 28.2172 12.7799 27.8851C12.2507 28.18 11.9154 28.5556 11.6112 29.0306C11.487 28.7372 11.6236 28.5153 11.6593 28.2886C11.6764 28.2592 11.7012 28.225 11.6655 28.2002C11.6313 28.1753 11.6034 28.2002 11.5879 28.2359L11.5863 28.2312Z" fill="#F9F9F9"/>
<path d="M18.0154 21.8844C18.0061 21.695 18.0356 21.5119 18.1442 21.3536C18.2513 21.1984 18.4003 21.1984 18.5012 21.3567C18.5664 21.4607 18.613 21.5771 18.6533 21.6935C18.8613 22.2973 19.2602 22.7272 19.8268 23.0159C20.1977 23.2053 20.5811 23.2317 20.98 23.1587C21.053 23.1448 21.1228 23.1215 21.1942 23.1013C21.3029 23.0703 21.4239 23.0283 21.4969 23.1463C21.5807 23.2798 21.5248 23.4071 21.4301 23.5188C21.0669 23.9472 20.3886 24.0047 19.9711 23.6306C19.8423 23.5157 19.7492 23.4288 19.5567 23.5359C19.3611 23.643 19.1469 23.5732 18.9545 23.4707C18.4112 23.1805 18.0139 22.5084 18.0154 21.8844Z" fill="#F9F9F9"/>
<path d="M16.7753 39.3741C16.8343 39.5371 16.7722 39.6985 16.6977 39.8273C16.5316 40.1207 16.6046 40.3442 16.8358 40.5506C16.8638 40.5755 16.8839 40.6065 16.9057 40.6376C17.1137 40.9464 17.0702 41.2972 16.7815 41.5316C16.558 41.7132 16.2988 41.8141 15.9868 41.8343C15.979 41.4369 16.0225 41.0566 15.9526 40.6779C15.875 40.2511 15.7788 39.832 15.6391 39.4207C15.591 39.2794 15.5506 39.1351 15.6267 38.9892C15.6826 38.8821 15.7679 38.8215 15.8921 38.8215C16.0085 38.8215 16.0768 38.8914 16.1156 38.9876C16.1529 39.0792 16.1715 39.177 16.2025 39.2701C16.2786 39.4952 16.2972 39.5014 16.5192 39.4408C16.5999 39.4191 16.6697 39.3524 16.7753 39.3757V39.3741Z" fill="#F9F9F9"/>
<path d="M30.518 22.808C30.8067 22.1204 31.2956 21.8053 32.0158 21.8379C32.2735 21.8503 32.407 21.9294 32.4489 22.1079C32.497 22.3144 32.4147 22.4805 32.244 22.5844C31.9025 22.7909 31.5316 22.9337 31.1327 22.9601C30.9526 22.9725 30.8269 22.9849 30.8284 23.21C30.8284 23.3372 30.7524 23.4459 30.6468 23.5188C30.4994 23.6228 30.2619 23.5871 30.1408 23.449C29.9887 23.2783 29.9748 23.0082 30.1036 22.8716C30.2278 22.7412 30.3814 22.8188 30.5196 22.808H30.518Z" fill="#F9F9F9"/>
<path d="M26.546 38.0269C26.5352 38.3932 26.3675 38.6741 26.1207 38.91C26.0043 39.0218 25.8786 39.1258 25.7467 39.2143C25.3974 39.4471 25.2345 39.773 25.2267 40.1859C25.2251 40.2961 25.2158 40.4063 25.2112 40.5056C25.0963 40.5957 25.0761 40.4886 25.0296 40.4451C25.0203 40.4373 25.0172 40.4234 25.0109 40.4141C24.5779 39.7591 24.6198 39.4874 25.2407 39.0094C25.6706 38.6788 26.1394 38.4009 26.546 38.0269Z" fill="#F9F9F9"/>
<path d="M21.146 40.6438C21.1336 40.9371 21.1041 41.1824 20.9955 41.409C20.8418 41.7287 20.536 41.7582 20.3234 41.4757C20.1744 41.277 20.1232 41.052 20.2101 40.8114C20.2955 40.5739 20.4336 40.369 20.6261 40.2076C20.8604 40.0089 21.0762 40.0896 21.1321 40.3939C21.1507 40.4901 21.1429 40.591 21.146 40.6453V40.6438Z" fill="#F9F9F9"/>
<path d="M16.2335 14.102C16.3251 13.4501 16.9894 12.7253 17.7127 12.4769C17.6413 12.716 17.3883 12.806 17.3464 13.031C17.5497 13.1009 17.7639 12.9519 18.0107 13.0947C17.3743 13.3896 16.8031 13.7124 16.2319 14.102H16.2335Z" fill="#F9F9F9"/>
<path d="M21.9796 19.907C22.4794 19.6617 22.9156 19.3327 23.3548 18.9695C23.42 19.6198 22.9652 20.3975 22.422 20.5744C22.4654 20.3726 22.6144 20.2236 22.6393 19.997C22.4235 19.9535 22.2016 20.0234 21.9796 19.9054V19.907Z" fill="#F9F9F9"/>
<path d="M28.7066 26.0024C28.3807 25.7866 28.3139 25.6423 28.3838 25.4188C28.4521 25.1999 28.6849 25.0152 28.9038 25.0137C28.9876 25.0137 29.0807 25.0168 29.1226 25.113C29.163 25.2061 29.1133 25.2775 29.0512 25.3412C28.8836 25.5135 28.6601 25.6501 28.7082 26.0024H28.7066Z" fill="#F9F9F9"/>
<path d="M23.1329 17.5089C23.0025 17.6936 22.8349 17.8333 22.6455 17.9342C22.4329 18.049 22.3134 17.883 22.1504 17.7371C22.4701 17.5524 22.7821 17.4872 23.1314 17.5089H23.1329Z" fill="#F9F9F9"/>
<path d="M16.9895 34.4739C17.0221 34.3808 17.0717 34.3001 17.1664 34.2318C17.1944 34.3637 17.1338 34.4646 17.0857 34.5671C17.0531 34.536 17.0205 34.505 16.9879 34.4739H16.9895Z" fill="#008752"/>
<path d="M19.1671 17.3863C19.2276 17.3645 19.2773 17.2963 19.3565 17.3428C19.3177 17.4204 19.2571 17.467 19.1764 17.4887C19.1733 17.4546 19.1702 17.4204 19.1671 17.3863Z" fill="#309FD6"/>
<path d="M23.8608 10.0711C23.8096 10.0928 23.7646 10.0819 23.7242 10.0478C23.7584 10.0198 23.7879 9.98569 23.8267 9.96551C23.8562 9.94843 23.895 9.94843 23.9291 9.94067C23.9058 9.98413 23.8841 10.0276 23.8608 10.0711Z" fill="#008752"/>
<path d="M11.352 41.9228C11.2977 41.8839 11.2697 41.825 11.3256 41.7815C11.3566 41.7567 11.4094 41.8001 11.4265 41.8482C11.4016 41.8731 11.3768 41.8979 11.3504 41.9243L11.352 41.9228Z" fill="#008752"/>
<path d="M33.8722 18.8701C33.8458 18.8701 33.8178 18.8717 33.8163 18.8344C33.824 18.8019 33.8318 18.7677 33.8411 18.7351C33.8923 18.7739 33.9141 18.8189 33.8691 18.8764L33.8737 18.8701H33.8722Z" fill="#008752"/>
<path d="M21.2859 7.43078C21.3464 7.3718 21.4069 7.31592 21.5125 7.34541C21.4737 7.44319 21.3976 7.48976 21.3122 7.52701C21.3029 7.49442 21.2936 7.46182 21.2843 7.42923L21.2859 7.43078Z" fill="#008752"/>
<path d="M15.6887 11.8219C15.667 11.8684 15.6251 11.8886 15.5816 11.8669C15.5459 11.8483 15.5553 11.8141 15.5956 11.7986C15.6267 11.8063 15.6577 11.8141 15.6887 11.8219Z" fill="#008752"/>
<path d="M15.4699 13.2762C15.4947 13.2964 15.4978 13.3182 15.473 13.3275C15.4606 13.3321 15.4435 13.3182 15.428 13.3135L15.4808 13.284L15.4714 13.2778L15.4699 13.2762Z" fill="#020202"/>
<path d="M15.6887 11.8218C15.6577 11.8141 15.6266 11.8063 15.5956 11.7986C15.6251 11.766 15.653 11.7334 15.6825 11.6992L15.7368 11.783C15.726 11.8032 15.7104 11.8172 15.6887 11.8218Z" fill="#020202"/>
<path d="M21.0266 8.69898C21.0639 8.67725 21.1089 8.64776 21.1337 8.70053C21.1446 8.72381 21.0996 8.74089 21.067 8.74089C21.053 8.72692 21.039 8.71295 21.0266 8.69898Z" fill="#020202"/>
<path d="M21.2858 7.43079C21.2951 7.46338 21.3044 7.49598 21.3137 7.52857C21.2734 7.57048 21.2159 7.57669 21.1989 7.52547C21.1833 7.48046 21.2346 7.4432 21.2858 7.43079Z" fill="#020202"/>
<path d="M33.8676 18.8764C33.8908 18.8593 33.9064 18.864 33.9126 18.8888C33.9064 18.8888 33.8986 18.8934 33.8955 18.8919C33.8862 18.8857 33.88 18.8779 33.8722 18.8702L33.8676 18.8764Z" fill="#008752"/>
<path d="M17.3014 19.6354C17.3324 19.6229 17.379 19.5919 17.3914 19.6012C17.4411 19.6431 17.4054 19.6819 17.3697 19.7145L17.3014 19.6354Z" fill="#020202"/>
<path d="M23.8174 22.735C23.8267 22.6962 23.8531 22.6683 23.8872 22.6931C23.9229 22.7195 23.8903 22.7506 23.8717 22.7769C23.8515 22.7645 23.8329 22.7506 23.8174 22.735Z" fill="#020202"/>
<path d="M11.5864 28.2312C11.6019 28.1955 11.6314 28.1722 11.664 28.1955C11.6997 28.2203 11.6749 28.256 11.6578 28.284C11.6345 28.2654 11.6097 28.2483 11.5864 28.2297V28.2312Z" fill="#020202"/>
</svg>
