<svg width="40" height="40" viewBox="0 0 40 40" fill="none" xmlns="http://www.w3.org/2000/svg">
<path d="M8.50641 25.097C8.50641 27.438 6.59412 29.3503 4.25321 29.3503C1.91229 29.3503 0 27.438 0 25.097C0 22.7561 1.91229 20.8438 4.25321 20.8438H8.50641V25.097Z" fill="#175DFD"/>
<path d="M10.6494 25.097C10.6494 22.7561 12.5617 20.8438 14.9026 20.8438C17.2435 20.8438 19.1558 22.7561 19.1558 25.097V35.7468C19.1558 38.0877 17.2435 40 14.9026 40C12.5617 40 10.6494 38.0877 10.6494 35.7468V25.097Z" fill="#175DFD"/>
<path d="M14.9026 8.50658C12.5617 8.50658 10.6494 6.59425 10.6494 4.25329C10.6494 1.91233 12.5617 0 14.9026 0C17.2435 0 19.1558 1.91233 19.1558 4.25329V8.50658H14.9026Z" fill="#175DFD"/>
<path d="M14.9027 10.6494C17.2436 10.6494 19.1559 12.5617 19.1559 14.9027C19.1559 17.2437 17.2436 19.156 14.9027 19.156H4.25321C1.91229 19.156 0 17.2437 0 14.9027C0 12.5617 1.91229 10.6494 4.25321 10.6494H14.9027Z" fill="#175DFD"/>
<path d="M31.4932 14.9027C31.4932 12.5617 33.4055 10.6494 35.7464 10.6494C38.0873 10.6494 39.9996 12.5617 39.9996 14.9027C39.9996 17.2437 38.0873 19.156 35.7464 19.156H31.4932V14.9027Z" fill="#175DFD"/>
<path d="M29.3511 14.903C29.3511 17.244 27.4388 19.1563 25.0979 19.1563C22.757 19.1563 20.8447 17.244 20.8447 14.903V4.25329C20.8447 1.91233 22.757 0 25.0979 0C27.4388 0 29.3511 1.91233 29.3511 4.25329V14.903Z" fill="#175DFD"/>
<path d="M25.096 31.4932C27.4369 31.4932 29.3492 33.4055 29.3492 35.7465C29.3492 38.0874 27.4369 39.9997 25.096 39.9997C22.7551 39.9997 20.8428 38.0874 20.8428 35.7465V31.4932H25.096Z" fill="#175DFD"/>
<path d="M25.0962 29.3503C22.7553 29.3503 20.843 27.438 20.843 25.097C20.843 22.7561 22.7553 20.8438 25.0962 20.8438H35.7457C38.0866 20.8438 39.9989 22.7561 39.9989 25.097C39.9989 27.438 38.0866 29.3503 35.7457 29.3503H25.0962Z" fill="#175DFD"/>
</svg>
