<?xml version="1.0" encoding="UTF-8"?>
<svg width="1211px" height="441px" viewBox="0 0 1211 441" version="1.1" xmlns="http://www.w3.org/2000/svg" xmlns:xlink="http://www.w3.org/1999/xlink">
    <!-- Generator: sketchtool 55.2 (78181) - https://sketchapp.com -->
    <title>C653BE4D-6229-4562-81E7-055AD717D714</title>
    <desc>Created with sketchtool.</desc>
    <g id="CTO-Product-Page" stroke="none" stroke-width="1" fill="none" fill-rule="evenodd" opacity="0.15">
        <g id="bg-code-patterns" transform="translate(-139.000000, -559.000000)">
            <g id="snippet-02" transform="translate(752.478167, 728.686993) rotate(-11.000000) translate(-752.478167, -728.686993) translate(153.478167, 563.686993)">
                <rect id="Rectangle-Copy-12" fill="#021F95" x="152.685383" y="183.443939" width="241" height="51" rx="25.5"></rect>
                <rect id="Rectangle-Copy-17" fill="#021F95" x="568.432291" y="185.833029" width="629" height="51" rx="25.5"></rect>
                <rect id="Rectangle-Copy-13" fill="#449FFF" x="436.360506" y="184.276323" width="91" height="51" rx="25.5"></rect>
                <rect id="Rectangle-Copy-15" fill="#449FFF" x="0.813524369" y="278.206477" width="241" height="51" rx="25.5"></rect>
                <rect id="Rectangle-Copy-11" fill="#449FFF" x="982.189702" y="94.2590793" width="159" height="51" rx="25.5"></rect>
                <rect id="Rectangle-Copy-9" fill="#021F95" x="153.875201" y="94.5354574" width="372" height="51" rx="25.5"></rect>
                <rect id="Rectangle-Copy-16" fill="#021F95" x="569.453002" y="94.83698" width="372" height="51" rx="25.5"></rect>
                <rect id="Rectangle-Copy-7" fill="#449FFF" x="1.58974994" y="1.4898156" width="128" height="51" rx="25.5"></rect>
                <rect id="Rectangle-Copy-14" fill="#449FFF" x="435.635458" y="0.546546848" width="225" height="51" rx="25.5"></rect>
                <rect id="Rectangle-Copy-8" fill="#021F95" x="169.699504" y="0.808385411" width="225" height="51" rx="25.5"></rect>
            </g>
        </g>
    </g>
</svg>