<?xml version="1.0" encoding="UTF-8"?>
<svg width="869px" height="411px" viewBox="0 0 869 411" version="1.1" xmlns="http://www.w3.org/2000/svg" xmlns:xlink="http://www.w3.org/1999/xlink">
    <!-- Generator: sketchtool 55.2 (78181) - https://sketchapp.com -->
    <title>0B4D2E03-26CF-4BA3-9879-C654F274374B</title>
    <desc>Created with sketchtool.</desc>
    <g id="CTO-Product-Page" stroke="none" stroke-width="1" fill="none" fill-rule="evenodd" opacity="0.15">
        <g id="bg-code-patterns" transform="translate(-987.000000, -94.000000)">
            <g id="snippet-03" transform="translate(1439.534581, 279.491918) rotate(-11.000000) translate(-1439.534581, -279.491918) translate(1003.534581, 132.491918)">
                <rect id="Rectangle-Copy-12" fill="#021F95" x="180.676922" y="130.053076" width="246" height="35" rx="15"></rect>
                <rect id="Rectangle-Copy-17" fill="#021F95" x="455.356397" y="131.06947" width="336" height="35" rx="15"></rect>
                <rect id="Rectangle-Copy-15" fill="#021F95" x="108.290463" y="192.462157" width="121" height="35" rx="15"></rect>
                <rect id="Rectangle-Copy-22" fill="#449FFF" x="0.527362542" y="258.782823" width="107" height="35" rx="15"></rect>
                <rect id="Rectangle-Copy-11" fill="#449FFF" x="511.486095" y="65.4831324" width="73" height="35" rx="15"></rect>
                <rect id="Rectangle-Copy-9" fill="#021F95" x="108.865349" y="65.4714153" width="375" height="35" rx="15"></rect>
                <rect id="Rectangle-Copy-19" fill="#021F95" x="611.06438" y="65.3212312" width="260" height="35" rx="15"></rect>
                <rect id="Rectangle-Copy-7" fill="#449FFF" x="1.03588675" y="0.617139762" width="133" height="35" rx="15"></rect>
                <rect id="Rectangle-Copy-14" fill="#449FFF" x="547.933248" y="0.829116412" width="121" height="35" rx="15"></rect>
                <rect id="Rectangle-Copy-8" fill="#021F95" x="161.868544" y="0.198873763" width="111" height="35" rx="15"></rect>
                <rect id="Rectangle-Copy-18" fill="#021F95" x="301.265205" y="0.923195285" width="217" height="35" rx="15"></rect>
            </g>
        </g>
    </g>
</svg>