<svg width="786" height="591" viewBox="0 0 786 591" fill="none" xmlns="http://www.w3.org/2000/svg">
<g filter="url(#filter0_d)">
<path d="M201.191 269.045L203.243 280.144C203.6 282.077 204.964 283.675 206.816 284.335L233.7 294.598C235.675 295.354 237.858 295.328 239.819 294.533L253.387 289.006C271.359 281.685 291.398 281.231 309.69 287.727L333.396 296.146L403.576 236.292L400.946 222.066L201.191 269.045Z" fill="url(#paint0_linear)"/>
<path d="M330.827 282.244L307.121 273.825C288.829 267.33 268.79 267.783 250.817 275.105L237.147 280.671C235.254 281.442 233.139 281.493 231.214 280.805L202.166 270.487C200.937 270.052 200.942 268.311 202.168 267.88L360.687 211.987C364.269 210.722 368.175 210.73 371.755 212L401.002 222.387L330.827 282.244Z" fill="#5D8DFD"/>
<path d="M580.987 57.9311L695.171 28.1734C703.074 24.87 710.605 33.5885 706.202 40.9395L651.527 137.666L580.987 57.9311Z" fill="#175DFD"/>
<path d="M649.08 140.487L568.393 209.075L500.946 125.865L580.992 57.9345C586.999 54.2175 595.535 53.7175 605.61 57.2753C628.427 65.3366 650.512 91.1531 654.909 114.934C657.021 126.378 654.652 135.259 649.08 140.487Z" fill="#9AB8FE"/>
<path d="M575.586 182.391C579.983 206.172 565.023 218.871 542.193 210.765C519.39 202.667 497.368 176.869 492.98 153.133C488.591 129.397 503.492 116.68 526.287 124.733C549.108 132.789 571.189 158.61 575.586 182.391Z" fill="url(#paint1_linear)"/>
<path d="M574.006 212.12L484.111 288.536L408.968 195.832L498.147 120.151C504.84 116.01 514.349 115.453 525.576 119.418C550.997 128.399 575.598 157.163 580.497 183.657C582.854 196.405 580.214 206.299 574.006 212.12Z" fill="#5D8DFD"/>
<path d="M492.127 258.806C497.025 285.3 480.358 299.447 454.927 290.413C429.523 281.391 404.985 252.649 400.097 226.209C395.208 199.768 411.812 185.598 437.206 194.567C462.627 203.548 487.229 232.312 492.127 258.806Z" fill="url(#paint2_linear)"/>
<path d="M489.203 292.841L506.98 254.451L471.244 196.721L417.597 177.669L301.032 276.008L372.637 391.176L489.203 292.841Z" fill="#175DFD"/>
<path d="M354.679 295.059L301.031 276.007L283.524 314.828L319.392 372.266L372.636 391.175L390.415 352.789L354.679 295.059Z" fill="url(#paint3_linear)"/>
<path d="M501.299 378.772C501.306 378.788 501.313 378.803 501.317 378.82L503.482 393.997C503.973 396.653 501.444 398.865 498.88 398.023L453.864 383.23C452.578 382.809 451.625 381.716 451.379 380.387L450.503 375.646C447.691 360.435 437.13 347.803 422.665 342.357L395.795 332.239C395.025 331.949 394.375 331.411 393.945 330.714L385.171 316.422C385.105 316.316 385.203 316.179 385.327 316.207L477.362 336.744C478.428 336.984 479.328 337.7 479.799 338.687L501.299 378.772Z" fill="url(#paint4_linear)"/>
<path d="M469.353 243.94L488.228 249.411C489.811 249.972 490.917 251.414 491.053 253.091L501.293 378.578C501.542 381.622 498.611 383.934 495.713 382.98L451.427 368.424C449.947 367.938 448.845 366.678 448.561 365.142L447.954 361.859C445.024 346.016 433.807 332.974 418.589 327.719L385.209 316.194C385.109 316.157 385.078 316.032 385.153 315.958L469.353 243.94Z" fill="#5D8DFD"/>
<path d="M354.143 370.268L364.291 348.357L343.889 315.403L313.267 304.528L294.822 320.829L335.695 386.574L354.143 370.268Z" fill="#5D8DFD"/>
<path d="M325.444 331.705L294.822 320.829L284.826 342.992L305.3 375.779L335.695 386.574L345.843 364.663L325.444 331.705Z" fill="#9AB8FE"/>
<path d="M588.263 90.9804C589.058 94.9805 587.205 99.4745 582.507 103.514C573.16 111.55 556.103 114.72 544.436 110.574C538.564 108.489 535.179 104.95 534.465 100.927L533.603 96.2644L587.401 86.3178L588.263 90.9804Z" fill="#175DFD"/>
<path d="M581.628 98.7573C572.281 106.793 555.225 109.964 543.557 105.817C531.885 101.672 530.051 91.7983 539.444 83.7753C548.818 75.7685 565.827 72.6407 577.453 76.7691C589.079 80.8976 590.957 90.7334 581.628 98.7573Z" fill="#5D8DFD"/>
</g>
<path d="M667.93 235.859L540.675 339.1" stroke="#9AB8FE" stroke-width="8" stroke-miterlimit="10" stroke-linecap="round"/>
<path d="M458.803 83.0162L342.68 179.644" stroke="#9AB8FE" stroke-width="8" stroke-miterlimit="10" stroke-linecap="round"/>
<path d="M178.438 298.674L68.2714 393.206" stroke="#9AB8FE" stroke-width="8" stroke-miterlimit="10" stroke-linecap="round"/>
<path d="M215.418 239.771L288.248 177.322" stroke="#9AB8FE" stroke-width="8" stroke-miterlimit="10" stroke-linecap="round"/>
<path d="M471.897 419.676L428.004 457.169" stroke="#DEE8FE" stroke-width="8" stroke-miterlimit="10" stroke-linecap="round"/>
<path d="M374.619 428.399L272.58 515.796" stroke="#9AB8FE" stroke-width="8" stroke-miterlimit="10" stroke-linecap="round"/>
<path d="M281.524 401.99L121.335 538.816" stroke="#9AB8FE" stroke-width="8" stroke-miterlimit="10" stroke-linecap="round"/>
<path d="M222.871 353.844L163.68 404.404" stroke="#9AB8FE" stroke-width="8" stroke-miterlimit="10" stroke-linecap="round"/>
<path d="M243.17 540.678L213.938 565.528" stroke="#DEE8FE" stroke-width="8" stroke-miterlimit="10" stroke-linecap="round"/>
<path d="M106.806 551.226L77.5968 576.178" stroke="#DEE8FE" stroke-width="8" stroke-miterlimit="10" stroke-linecap="round"/>
<path d="M135.679 430.589L91.52 466.161" stroke="#DEE8FE" stroke-width="8" stroke-miterlimit="10" stroke-linecap="round"/>
<path d="M392.886 91.3543L348.992 128.75" stroke="#DEE8FE" stroke-width="8" stroke-miterlimit="10" stroke-linecap="round"/>
<path d="M589.39 231.764L560.155 256.733" stroke="#DEE8FE" stroke-width="8" stroke-miterlimit="10" stroke-linecap="round"/>
<defs>
<filter id="filter0_d" x="154.23" y="6.10352e-05" width="611.673" height="474.089" filterUnits="userSpaceOnUse" color-interpolation-filters="sRGB">
<feFlood flood-opacity="0" result="BackgroundImageFix"/>
<feColorMatrix in="SourceAlpha" type="matrix" values="0 0 0 0 0 0 0 0 0 0 0 0 0 0 0 0 0 0 127 0"/>
<feOffset dy="16"/>
<feGaussianBlur stdDeviation="21"/>
<feColorMatrix type="matrix" values="0 0 0 0 0 0 0 0 0 0 0 0 0 0 0 0 0 0 0.1 0"/>
<feBlend mode="normal" in2="BackgroundImageFix" result="effect1_dropShadow"/>
<feBlend mode="normal" in="SourceGraphic" in2="effect1_dropShadow" result="shape"/>
</filter>
<linearGradient id="paint0_linear" x1="204.902" y1="289.107" x2="406.45" y2="251.843" gradientUnits="userSpaceOnUse">
<stop stop-color="#0C26C7"/>
<stop offset="1" stop-color="#0244DE"/>
</linearGradient>
<linearGradient id="paint1_linear" x1="496.962" y1="174.661" x2="571.607" y2="160.86" gradientUnits="userSpaceOnUse">
<stop stop-color="#0C26C7"/>
<stop offset="1" stop-color="#0244DE"/>
</linearGradient>
<linearGradient id="paint2_linear" x1="404.531" y1="250.197" x2="487.693" y2="234.821" gradientUnits="userSpaceOnUse">
<stop stop-color="#0C26C7"/>
<stop offset="1" stop-color="#0244DE"/>
</linearGradient>
<linearGradient id="paint3_linear" x1="288.64" y1="342.502" x2="385.21" y2="324.647" gradientUnits="userSpaceOnUse">
<stop stop-color="#0C26C7"/>
<stop offset="1" stop-color="#0244DE"/>
</linearGradient>
<linearGradient id="paint4_linear" x1="394.36" y1="366.154" x2="495.517" y2="347.452" gradientUnits="userSpaceOnUse">
<stop stop-color="#0C26C7"/>
<stop offset="1" stop-color="#0244DE"/>
</linearGradient>
</defs>
</svg>
