<svg xmlns="http://www.w3.org/2000/svg" xmlns:xlink="http://www.w3.org/1999/xlink" width="972" height="621" viewBox="0 0 972 621">
  <defs>
    <rect id="hero-illustration-services-v2-a" width="335.515" height="499" rx="16"/>
  </defs>
  <g fill="none" fill-rule="evenodd">
    <g fill-rule="nonzero" transform="translate(39 264)">
      <g transform="translate(563.593 9.925)">
        <rect width="92.407" height="135.205" fill="#5969A6" rx="7"/>
        <path fill="#BAC7EB" d="M14.4699164,20.0979827 L23.8379218,20.0979827 C24.7552614,20.0979827 25.4989121,20.8416334 25.4989121,21.758973 C25.4989121,22.6763126 24.7552614,23.4199633 23.8379218,23.4199633 L14.4699164,23.4199633 C13.5525768,23.4199633 12.8089261,22.6763126 12.8089261,21.758973 C12.8089261,20.8416334 13.5525768,20.0979827 14.4699164,20.0979827 Z M14.4699164,49.3314121 L23.8379218,49.3314121 C24.7552614,49.3314121 25.4989121,50.0750628 25.4989121,50.9924024 C25.4989121,51.909742 24.7552614,52.6533927 23.8379218,52.6533927 L14.4699164,52.6533927 C13.5525768,52.6533927 12.8089261,51.909742 12.8089261,50.9924024 C12.8089261,50.0750628 13.5525768,49.3314121 14.4699164,49.3314121 Z M14.4699164,60.6261462 L19.8305578,60.6261462 C20.7478974,60.6261462 21.4915481,61.3697969 21.4915481,62.2871365 C21.4915481,63.2044761 20.7478974,63.9481268 19.8305578,63.9481268 L14.4699164,63.9481268 C13.5525768,63.9481268 12.8089261,63.2044761 12.8089261,62.2871365 C12.8089261,61.3697969 13.5525768,60.6261462 14.4699164,60.6261462 Z M14.4699164,75.2428609 L19.8305578,75.2428609 C20.7478974,75.2428609 21.4915481,75.9865116 21.4915481,76.9038512 C21.4915481,77.8211908 20.7478974,78.5648415 19.8305578,78.5648415 L14.4699164,78.5648415 C13.5525768,78.5648415 12.8089261,77.8211908 12.8089261,76.9038512 C12.8089261,75.9865116 13.5525768,75.2428609 14.4699164,75.2428609 Z M26.4920084,67.9345035 L52.5573639,67.9345035 C53.4747036,67.9345035 54.2183543,68.6781542 54.2183543,69.5954938 C54.2183543,70.5128335 53.4747036,71.2564841 52.5573639,71.2564841 L26.4920084,71.2564841 C25.5746688,71.2564841 24.8310181,70.5128335 24.8310181,69.5954938 C24.8310181,68.6781542 25.5746688,67.9345035 26.4920084,67.9345035 Z M26.4920084,60.6261462 L39.8673779,60.6261462 C40.7847175,60.6261462 41.5283682,61.3697969 41.5283682,62.2871365 C41.5283682,63.2044761 40.7847175,63.9481268 39.8673779,63.9481268 L26.4920084,63.9481268 C25.5746688,63.9481268 24.8310181,63.2044761 24.8310181,62.2871365 C24.8310181,61.3697969 25.5746688,60.6261462 26.4920084,60.6261462 Z M59.2188146,67.9345035 L73.262078,67.9345035 C74.1794176,67.9345035 74.9230683,68.6781542 74.9230683,69.5954938 C74.9230683,70.5128335 74.1794176,71.2564841 73.262078,71.2564841 L59.2188146,71.2564841 C58.301475,71.2564841 57.5578243,70.5128335 57.5578243,69.5954938 C57.5578243,68.6781542 58.301475,67.9345035 59.2188146,67.9345035 Z M31.8351605,20.0979827 L53.893152,20.0979827 C54.8104916,20.0979827 55.5541423,20.8416334 55.5541423,21.758973 C55.5541423,22.6763126 54.8104916,23.4199633 53.893152,23.4199633 L31.8351605,23.4199633 C30.9178208,23.4199633 30.1741702,22.6763126 30.1741702,21.758973 C30.1741702,20.8416334 30.9178208,20.0979827 31.8351605,20.0979827 Z M25.8241144,27.4063401 L31.8526499,27.4063401 C32.7699895,27.4063401 33.5136402,28.1499907 33.5136402,29.0673304 C33.5136402,29.98467 32.7699895,30.7283207 31.8526499,30.7283207 L25.8241144,30.7283207 C24.9067748,30.7283207 24.1631241,29.98467 24.1631241,29.0673304 C24.1631241,28.1499907 24.9067748,27.4063401 25.8241144,27.4063401 Z M38.5141005,27.4063401 L57.900516,27.4063401 C58.8178556,27.4063401 59.5615063,28.1499907 59.5615063,29.0673304 C59.5615063,29.98467 58.8178556,30.7283207 57.900516,30.7283207 L38.5141005,30.7283207 C37.5967609,30.7283207 36.8531102,29.98467 36.8531102,29.0673304 C36.8531102,28.1499907 37.5967609,27.4063401 38.5141005,27.4063401 Z M64.5619666,27.4063401 L77.9373361,27.4063401 C78.8546757,27.4063401 79.5983264,28.1499907 79.5983264,29.0673304 C79.5983264,29.98467 78.8546757,30.7283207 77.9373361,30.7283207 L64.5619666,30.7283207 C63.644627,30.7283207 62.9009763,29.98467 62.9009763,29.0673304 C62.9009763,28.1499907 63.644627,27.4063401 64.5619666,27.4063401 Z M32.5030545,34.7146974 L75.933654,34.7146974 C76.8509937,34.7146974 77.5946444,35.4583481 77.5946444,36.3756877 C77.5946444,37.2930273 76.8509937,38.036678 75.933654,38.036678 L32.5030545,38.036678 C31.5857148,38.036678 30.8420642,37.2930273 30.8420642,36.3756877 C30.8420642,35.4583481 31.5857148,34.7146974 32.5030545,34.7146974 Z M25.8241144,42.0230548 L31.8526499,42.0230548 C32.7699895,42.0230548 33.5136402,42.7667054 33.5136402,43.6840451 C33.5136402,44.6013847 32.7699895,45.3450354 31.8526499,45.3450354 L25.8241144,45.3450354 C24.9067748,45.3450354 24.1631241,44.6013847 24.1631241,43.6840451 C24.1631241,42.7667054 24.9067748,42.0230548 25.8241144,42.0230548 Z M38.5141005,42.0230548 L61.239986,42.0230548 C62.1573256,42.0230548 62.9009763,42.7667054 62.9009763,43.6840451 C62.9009763,44.6013847 62.1573256,45.3450354 61.239986,45.3450354 L38.5141005,45.3450354 C37.5967609,45.3450354 36.8531102,44.6013847 36.8531102,43.6840451 C36.8531102,42.7667054 37.5967609,42.0230548 38.5141005,42.0230548 Z"/>
        <g fill="#BAC7EB" transform="translate(8.234 8.222)">
          <ellipse cx="2.018" cy="1.791" rx="2.018" ry="1.791"/>
          <ellipse cx="8.071" cy="1.791" rx="2.018" ry="1.791"/>
          <ellipse cx="14.124" cy="1.791" rx="2.018" ry="1.791"/>
        </g>
      </g>
      <g transform="translate(96.067 106.885)">
        <rect width="92.407" height="92.268" fill="#6B7FBA" rx="7"/>
        <path fill="#BAC7EB" d="M14.4699164,20.0979827 L23.8379218,20.0979827 C24.7552614,20.0979827 25.4989121,20.8416334 25.4989121,21.758973 C25.4989121,22.6763126 24.7552614,23.4199633 23.8379218,23.4199633 L14.4699164,23.4199633 C13.5525768,23.4199633 12.8089261,22.6763126 12.8089261,21.758973 C12.8089261,20.8416334 13.5525768,20.0979827 14.4699164,20.0979827 Z M14.4699164,49.3314121 L23.8379218,49.3314121 C24.7552614,49.3314121 25.4989121,50.0750628 25.4989121,50.9924024 C25.4989121,51.909742 24.7552614,52.6533927 23.8379218,52.6533927 L14.4699164,52.6533927 C13.5525768,52.6533927 12.8089261,51.909742 12.8089261,50.9924024 C12.8089261,50.0750628 13.5525768,49.3314121 14.4699164,49.3314121 Z M14.4699164,60.6261462 L19.8305578,60.6261462 C20.7478974,60.6261462 21.4915481,61.3697969 21.4915481,62.2871365 C21.4915481,63.2044761 20.7478974,63.9481268 19.8305578,63.9481268 L14.4699164,63.9481268 C13.5525768,63.9481268 12.8089261,63.2044761 12.8089261,62.2871365 C12.8089261,61.3697969 13.5525768,60.6261462 14.4699164,60.6261462 Z M14.4699164,75.2428609 L19.8305578,75.2428609 C20.7478974,75.2428609 21.4915481,75.9865116 21.4915481,76.9038512 C21.4915481,77.8211908 20.7478974,78.5648415 19.8305578,78.5648415 L14.4699164,78.5648415 C13.5525768,78.5648415 12.8089261,77.8211908 12.8089261,76.9038512 C12.8089261,75.9865116 13.5525768,75.2428609 14.4699164,75.2428609 Z M26.4920084,67.9345035 L52.5573639,67.9345035 C53.4747036,67.9345035 54.2183543,68.6781542 54.2183543,69.5954938 C54.2183543,70.5128335 53.4747036,71.2564841 52.5573639,71.2564841 L26.4920084,71.2564841 C25.5746688,71.2564841 24.8310181,70.5128335 24.8310181,69.5954938 C24.8310181,68.6781542 25.5746688,67.9345035 26.4920084,67.9345035 Z M26.4920084,60.6261462 L39.8673779,60.6261462 C40.7847175,60.6261462 41.5283682,61.3697969 41.5283682,62.2871365 C41.5283682,63.2044761 40.7847175,63.9481268 39.8673779,63.9481268 L26.4920084,63.9481268 C25.5746688,63.9481268 24.8310181,63.2044761 24.8310181,62.2871365 C24.8310181,61.3697969 25.5746688,60.6261462 26.4920084,60.6261462 Z M59.2188146,67.9345035 L73.262078,67.9345035 C74.1794176,67.9345035 74.9230683,68.6781542 74.9230683,69.5954938 C74.9230683,70.5128335 74.1794176,71.2564841 73.262078,71.2564841 L59.2188146,71.2564841 C58.301475,71.2564841 57.5578243,70.5128335 57.5578243,69.5954938 C57.5578243,68.6781542 58.301475,67.9345035 59.2188146,67.9345035 Z M31.8351605,20.0979827 L53.893152,20.0979827 C54.8104916,20.0979827 55.5541423,20.8416334 55.5541423,21.758973 C55.5541423,22.6763126 54.8104916,23.4199633 53.893152,23.4199633 L31.8351605,23.4199633 C30.9178208,23.4199633 30.1741702,22.6763126 30.1741702,21.758973 C30.1741702,20.8416334 30.9178208,20.0979827 31.8351605,20.0979827 Z M25.8241144,27.4063401 L31.8526499,27.4063401 C32.7699895,27.4063401 33.5136402,28.1499907 33.5136402,29.0673304 C33.5136402,29.98467 32.7699895,30.7283207 31.8526499,30.7283207 L25.8241144,30.7283207 C24.9067748,30.7283207 24.1631241,29.98467 24.1631241,29.0673304 C24.1631241,28.1499907 24.9067748,27.4063401 25.8241144,27.4063401 Z M38.5141005,27.4063401 L57.900516,27.4063401 C58.8178556,27.4063401 59.5615063,28.1499907 59.5615063,29.0673304 C59.5615063,29.98467 58.8178556,30.7283207 57.900516,30.7283207 L38.5141005,30.7283207 C37.5967609,30.7283207 36.8531102,29.98467 36.8531102,29.0673304 C36.8531102,28.1499907 37.5967609,27.4063401 38.5141005,27.4063401 Z M64.5619666,27.4063401 L77.9373361,27.4063401 C78.8546757,27.4063401 79.5983264,28.1499907 79.5983264,29.0673304 C79.5983264,29.98467 78.8546757,30.7283207 77.9373361,30.7283207 L64.5619666,30.7283207 C63.644627,30.7283207 62.9009763,29.98467 62.9009763,29.0673304 C62.9009763,28.1499907 63.644627,27.4063401 64.5619666,27.4063401 Z M32.5030545,34.7146974 L75.933654,34.7146974 C76.8509937,34.7146974 77.5946444,35.4583481 77.5946444,36.3756877 C77.5946444,37.2930273 76.8509937,38.036678 75.933654,38.036678 L32.5030545,38.036678 C31.5857148,38.036678 30.8420642,37.2930273 30.8420642,36.3756877 C30.8420642,35.4583481 31.5857148,34.7146974 32.5030545,34.7146974 Z M25.8241144,42.0230548 L31.8526499,42.0230548 C32.7699895,42.0230548 33.5136402,42.7667054 33.5136402,43.6840451 C33.5136402,44.6013847 32.7699895,45.3450354 31.8526499,45.3450354 L25.8241144,45.3450354 C24.9067748,45.3450354 24.1631241,44.6013847 24.1631241,43.6840451 C24.1631241,42.7667054 24.9067748,42.0230548 25.8241144,42.0230548 Z M38.5141005,42.0230548 L61.239986,42.0230548 C62.1573256,42.0230548 62.9009763,42.7667054 62.9009763,43.6840451 C62.9009763,44.6013847 62.1573256,45.3450354 61.239986,45.3450354 L38.5141005,45.3450354 C37.5967609,45.3450354 36.8531102,44.6013847 36.8531102,43.6840451 C36.8531102,42.7667054 37.5967609,42.0230548 38.5141005,42.0230548 Z"/>
        <g fill="#BAC7EB" transform="translate(8.234 8.222)">
          <ellipse cx="2.018" cy="1.791" rx="2.018" ry="1.791"/>
          <ellipse cx="8.071" cy="1.791" rx="2.018" ry="1.791"/>
          <ellipse cx="14.124" cy="1.791" rx="2.018" ry="1.791"/>
        </g>
      </g>
      <g transform="translate(467.526)">
        <rect width="103.386" height="179.968" fill="#6B7FBA" rx="7"/>
        <path fill="#91A3D4" d="M16.5073868,21.925072 L26.850828,21.925072 C27.8828351,21.925072 28.7194421,22.7616791 28.7194421,23.7936861 C28.7194421,24.8256932 27.8828351,25.6623002 26.850828,25.6623002 L16.5073868,25.6623002 C15.4753797,25.6623002 14.6387727,24.8256932 14.6387727,23.7936861 C14.6387727,22.7616791 15.4753797,21.925072 16.5073868,21.925072 Z M16.5073868,54.8126801 L26.850828,54.8126801 C27.8828351,54.8126801 28.7194421,55.6492871 28.7194421,56.6812942 C28.7194421,57.7133013 27.8828351,58.5499083 26.850828,58.5499083 L16.5073868,58.5499083 C15.4753797,58.5499083 14.6387727,57.7133013 14.6387727,56.6812942 C14.6387727,55.6492871 15.4753797,54.8126801 16.5073868,54.8126801 Z M16.5073868,67.519256 L22.4043008,67.519256 C23.4363079,67.519256 24.2729149,68.355863 24.2729149,69.3878701 C24.2729149,70.4198771 23.4363079,71.2564841 22.4043008,71.2564841 L16.5073868,71.2564841 C15.4753797,71.2564841 14.6387727,70.4198771 14.6387727,69.3878701 C14.6387727,68.355863 15.4753797,67.519256 16.5073868,67.519256 Z M16.5073868,83.96306 L22.4043008,83.96306 C23.4363079,83.96306 24.2729149,84.799667 24.2729149,85.8316741 C24.2729149,86.8636812 23.4363079,87.7002882 22.4043008,87.7002882 L16.5073868,87.7002882 C15.4753797,87.7002882 14.6387727,86.8636812 14.6387727,85.8316741 C14.6387727,84.799667 15.4753797,83.96306 16.5073868,83.96306 Z M29.8469683,75.741158 L58.7176063,75.741158 C59.7496133,75.741158 60.5862204,76.577765 60.5862204,77.6097721 C60.5862204,78.6417791 59.7496133,79.4783862 58.7176063,79.4783862 L29.8469683,79.4783862 C28.8149613,79.4783862 27.9783543,78.6417791 27.9783543,77.6097721 C27.9783543,76.577765 28.8149613,75.741158 29.8469683,75.741158 Z M29.8469683,67.519256 L44.6369368,67.519256 C45.6689439,67.519256 46.5055509,68.355863 46.5055509,69.3878701 C46.5055509,70.4198771 45.6689439,71.2564841 44.6369368,71.2564841 L29.8469683,71.2564841 C28.8149613,71.2564841 27.9783543,70.4198771 27.9783543,69.3878701 C27.9783543,68.355863 28.8149613,67.519256 29.8469683,67.519256 Z M66.1602738,75.741158 L81.6913301,75.741158 C82.7233372,75.741158 83.5599442,76.577765 83.5599442,77.6097721 C83.5599442,78.6417791 82.7233372,79.4783862 81.6913301,79.4783862 L66.1602738,79.4783862 C65.1282667,79.4783862 64.2916597,78.6417791 64.2916597,77.6097721 C64.2916597,76.577765 65.1282667,75.741158 66.1602738,75.741158 Z M35.7756713,21.925072 L60.199782,21.925072 C61.2317891,21.925072 62.0683961,22.7616791 62.0683961,23.7936861 C62.0683961,24.8256932 61.2317891,25.6623002 60.199782,25.6623002 L35.7756713,25.6623002 C34.7436642,25.6623002 33.9070572,24.8256932 33.9070572,23.7936861 C33.9070572,22.7616791 34.7436642,21.925072 35.7756713,21.925072 Z M29.1058805,30.1469741 L35.7438824,30.1469741 C36.7758895,30.1469741 37.6124965,30.9835811 37.6124965,32.0155882 C37.6124965,33.0475952 36.7758895,33.8842023 35.7438824,33.8842023 L29.1058805,33.8842023 C28.0738734,33.8842023 27.2372664,33.0475952 27.2372664,32.0155882 C27.2372664,30.9835811 28.0738734,30.1469741 29.1058805,30.1469741 Z M43.1865499,30.1469741 L64.6463092,30.1469741 C65.6783163,30.1469741 66.5149233,30.9835811 66.5149233,32.0155882 C66.5149233,33.0475952 65.6783163,33.8842023 64.6463092,33.8842023 L43.1865499,33.8842023 C42.1545429,33.8842023 41.3179358,33.0475952 41.3179358,32.0155882 C41.3179358,30.9835811 42.1545429,30.1469741 43.1865499,30.1469741 Z M72.0889767,30.1469741 L86.8789452,30.1469741 C87.9109522,30.1469741 88.7475593,30.9835811 88.7475593,32.0155882 C88.7475593,33.0475952 87.9109522,33.8842023 86.8789452,33.8842023 L72.0889767,33.8842023 C71.0569696,33.8842023 70.2203626,33.0475952 70.2203626,32.0155882 C70.2203626,30.9835811 71.0569696,30.1469741 72.0889767,30.1469741 Z M36.5167591,38.3688761 L84.6556816,38.3688761 C85.6876886,38.3688761 86.5242957,39.2054831 86.5242957,40.2374902 C86.5242957,41.2694972 85.6876886,42.1061043 84.6556816,42.1061043 L36.5167591,42.1061043 C35.4847521,42.1061043 34.648145,41.2694972 34.648145,40.2374902 C34.648145,39.2054831 35.4847521,38.3688761 36.5167591,38.3688761 Z M29.1058805,46.5907781 L35.7438824,46.5907781 C36.7758895,46.5907781 37.6124965,47.4273851 37.6124965,48.4593922 C37.6124965,49.4913993 36.7758895,50.3280063 35.7438824,50.3280063 L29.1058805,50.3280063 C28.0738734,50.3280063 27.2372664,49.4913993 27.2372664,48.4593922 C27.2372664,47.4273851 28.0738734,46.5907781 29.1058805,46.5907781 Z M43.1865499,46.5907781 L68.3517485,46.5907781 C69.3837556,46.5907781 70.2203626,47.4273851 70.2203626,48.4593922 C70.2203626,49.4913993 69.3837556,50.3280063 68.3517485,50.3280063 L43.1865499,50.3280063 C42.1545429,50.3280063 41.3179358,49.4913993 41.3179358,48.4593922 C41.3179358,47.4273851 42.1545429,46.5907781 43.1865499,46.5907781 Z"/>
        <g fill="#91A3D4" transform="translate(9.15 9.135)">
          <ellipse cx="2.242" cy="2.238" rx="2.242" ry="2.238"/>
          <ellipse cx="8.967" cy="2.238" rx="2.242" ry="2.238"/>
          <ellipse cx="15.693" cy="2.238" rx="2.242" ry="2.238"/>
        </g>
      </g>
      <g transform="translate(0 71.256)">
        <rect width="104.301" height="221.991" fill="#5969A6" rx="8"/>
        <path fill="#91A3D4" d="M16.5073868,21.925072 L27.0246635,21.925072 C28.0566705,21.925072 28.8932775,22.7616791 28.8932775,23.7936861 C28.8932775,24.8256932 28.0566705,25.6623002 27.0246635,25.6623002 L16.5073868,25.6623002 C15.4753797,25.6623002 14.6387727,24.8256932 14.6387727,23.7936861 C14.6387727,22.7616791 15.4753797,21.925072 16.5073868,21.925072 Z M16.5073868,54.8126801 L27.0246635,54.8126801 C28.0566705,54.8126801 28.8932775,55.6492871 28.8932775,56.6812942 C28.8932775,57.7133013 28.0566705,58.5499083 27.0246635,58.5499083 L16.5073868,58.5499083 C15.4753797,58.5499083 14.6387727,57.7133013 14.6387727,56.6812942 C14.6387727,55.6492871 15.4753797,54.8126801 16.5073868,54.8126801 Z M16.5073868,67.519256 L22.5232409,67.519256 C23.5552479,67.519256 24.391855,68.355863 24.391855,69.3878701 C24.391855,70.4198771 23.5552479,71.2564841 22.5232409,71.2564841 L16.5073868,71.2564841 C15.4753797,71.2564841 14.6387727,70.4198771 14.6387727,69.3878701 C14.6387727,68.355863 15.4753797,67.519256 16.5073868,67.519256 Z M16.5073868,83.96306 L22.5232409,83.96306 C23.5552479,83.96306 24.391855,84.799667 24.391855,85.8316741 C24.391855,86.8636812 23.5552479,87.7002882 22.5232409,87.7002882 L16.5073868,87.7002882 C15.4753797,87.7002882 14.6387727,86.8636812 14.6387727,85.8316741 C14.6387727,84.799667 15.4753797,83.96306 16.5073868,83.96306 Z M30.0116545,75.741158 L59.2848587,75.741158 C60.3168658,75.741158 61.1534728,76.577765 61.1534728,77.6097721 C61.1534728,78.6417791 60.3168658,79.4783862 59.2848587,79.4783862 L30.0116545,79.4783862 C28.9796475,79.4783862 28.1430404,78.6417791 28.1430404,77.6097721 C28.1430404,76.577765 28.9796475,75.741158 30.0116545,75.741158 Z M30.0116545,67.519256 L45.0303538,67.519256 C46.0623609,67.519256 46.8989679,68.355863 46.8989679,69.3878701 C46.8989679,70.4198771 46.0623609,71.2564841 45.0303538,71.2564841 L30.0116545,71.2564841 C28.9796475,71.2564841 28.1430404,70.4198771 28.1430404,69.3878701 C28.1430404,68.355863 28.9796475,67.519256 30.0116545,67.519256 Z M66.7732724,75.741158 L82.5422088,75.741158 C83.5742158,75.741158 84.4108229,76.577765 84.4108229,77.6097721 C84.4108229,78.6417791 83.5742158,79.4783862 82.5422088,79.4783862 L66.7732724,79.4783862 C65.7412653,79.4783862 64.9046583,78.6417791 64.9046583,77.6097721 C64.9046583,76.577765 65.7412653,75.741158 66.7732724,75.741158 Z M36.0135513,21.925072 L60.7853329,21.925072 C61.81734,21.925072 62.653947,22.7616791 62.653947,23.7936861 C62.653947,24.8256932 61.81734,25.6623002 60.7853329,25.6623002 L36.0135513,25.6623002 C34.9815443,25.6623002 34.1449372,24.8256932 34.1449372,23.7936861 C34.1449372,22.7616791 34.9815443,21.925072 36.0135513,21.925072 Z M29.2614174,30.1469741 L36.0275086,30.1469741 C37.0595157,30.1469741 37.8961227,30.9835811 37.8961227,32.0155882 C37.8961227,33.0475952 37.0595157,33.8842023 36.0275086,33.8842023 L29.2614174,33.8842023 C28.2294104,33.8842023 27.3928033,33.0475952 27.3928033,32.0155882 C27.3928033,30.9835811 28.2294104,30.1469741 29.2614174,30.1469741 Z M43.5159223,30.1469741 L65.2867555,30.1469741 C66.3187626,30.1469741 67.1553696,30.9835811 67.1553696,32.0155882 C67.1553696,33.0475952 66.3187626,33.8842023 65.2867555,33.8842023 L43.5159223,33.8842023 C42.4839153,33.8842023 41.6473082,33.0475952 41.6473082,32.0155882 C41.6473082,30.9835811 42.4839153,30.1469741 43.5159223,30.1469741 Z M72.7751692,30.1469741 L87.7938685,30.1469741 C88.8258755,30.1469741 89.6624826,30.9835811 89.6624826,32.0155882 C89.6624826,33.0475952 88.8258755,33.8842023 87.7938685,33.8842023 L72.7751692,33.8842023 C71.7431621,33.8842023 70.9065551,33.0475952 70.9065551,32.0155882 C70.9065551,30.9835811 71.7431621,30.1469741 72.7751692,30.1469741 Z M36.7637884,38.3688761 L85.5431572,38.3688761 C86.5751642,38.3688761 87.4117713,39.2054831 87.4117713,40.2374902 C87.4117713,41.2694972 86.5751642,42.1061043 85.5431572,42.1061043 L36.7637884,42.1061043 C35.7317814,42.1061043 34.8951743,41.2694972 34.8951743,40.2374902 C34.8951743,39.2054831 35.7317814,38.3688761 36.7637884,38.3688761 Z M29.2614174,46.5907781 L36.0275086,46.5907781 C37.0595157,46.5907781 37.8961227,47.4273851 37.8961227,48.4593922 C37.8961227,49.4913993 37.0595157,50.3280063 36.0275086,50.3280063 L29.2614174,50.3280063 C28.2294104,50.3280063 27.3928033,49.4913993 27.3928033,48.4593922 C27.3928033,47.4273851 28.2294104,46.5907781 29.2614174,46.5907781 Z M43.5159223,46.5907781 L69.037941,46.5907781 C70.0699481,46.5907781 70.9065551,47.4273851 70.9065551,48.4593922 C70.9065551,49.4913993 70.0699481,50.3280063 69.037941,50.3280063 L43.5159223,50.3280063 C42.4839153,50.3280063 41.6473082,49.4913993 41.6473082,48.4593922 C41.6473082,47.4273851 42.4839153,46.5907781 43.5159223,46.5907781 Z M16.5073868,95.9221902 L27.0246635,95.9221902 C28.0566705,95.9221902 28.8932775,96.7587972 28.8932775,97.7908043 C28.8932775,98.8228114 28.0566705,99.6594184 27.0246635,99.6594184 L16.5073868,99.6594184 C15.4753797,99.6594184 14.6387727,98.8228114 14.6387727,97.7908043 C14.6387727,96.7587972 15.4753797,95.9221902 16.5073868,95.9221902 Z M16.5073868,128.809798 L27.0246635,128.809798 C28.0566705,128.809798 28.8932775,129.646405 28.8932775,130.678412 C28.8932775,131.710419 28.0566705,132.547026 27.0246635,132.547026 L16.5073868,132.547026 C15.4753797,132.547026 14.6387727,131.710419 14.6387727,130.678412 C14.6387727,129.646405 15.4753797,128.809798 16.5073868,128.809798 Z M16.5073868,141.516374 L22.5232409,141.516374 C23.5552479,141.516374 24.391855,142.352981 24.391855,143.384988 C24.391855,144.416995 23.5552479,145.253602 22.5232409,145.253602 L16.5073868,145.253602 C15.4753797,145.253602 14.6387727,144.416995 14.6387727,143.384988 C14.6387727,142.352981 15.4753797,141.516374 16.5073868,141.516374 Z M16.5073868,157.960178 L22.5232409,157.960178 C23.5552479,157.960178 24.391855,158.796785 24.391855,159.828792 C24.391855,160.860799 23.5552479,161.697406 22.5232409,161.697406 L16.5073868,161.697406 C15.4753797,161.697406 14.6387727,160.860799 14.6387727,159.828792 C14.6387727,158.796785 15.4753797,157.960178 16.5073868,157.960178 Z M30.0116545,149.738276 L59.2848587,149.738276 C60.3168658,149.738276 61.1534728,150.574883 61.1534728,151.60689 C61.1534728,152.638897 60.3168658,153.475504 59.2848587,153.475504 L30.0116545,153.475504 C28.9796475,153.475504 28.1430404,152.638897 28.1430404,151.60689 C28.1430404,150.574883 28.9796475,149.738276 30.0116545,149.738276 Z M30.0116545,141.516374 L45.0303538,141.516374 C46.0623609,141.516374 46.8989679,142.352981 46.8989679,143.384988 C46.8989679,144.416995 46.0623609,145.253602 45.0303538,145.253602 L30.0116545,145.253602 C28.9796475,145.253602 28.1430404,144.416995 28.1430404,143.384988 C28.1430404,142.352981 28.9796475,141.516374 30.0116545,141.516374 Z M66.7732724,149.738276 L82.5422088,149.738276 C83.5742158,149.738276 84.4108229,150.574883 84.4108229,151.60689 C84.4108229,152.638897 83.5742158,153.475504 82.5422088,153.475504 L66.7732724,153.475504 C65.7412653,153.475504 64.9046583,152.638897 64.9046583,151.60689 C64.9046583,150.574883 65.7412653,149.738276 66.7732724,149.738276 Z M36.0135513,95.9221902 L60.7853329,95.9221902 C61.81734,95.9221902 62.653947,96.7587972 62.653947,97.7908043 C62.653947,98.8228114 61.81734,99.6594184 60.7853329,99.6594184 L36.0135513,99.6594184 C34.9815443,99.6594184 34.1449372,98.8228114 34.1449372,97.7908043 C34.1449372,96.7587972 34.9815443,95.9221902 36.0135513,95.9221902 Z M29.2614174,104.144092 L36.0275086,104.144092 C37.0595157,104.144092 37.8961227,104.980699 37.8961227,106.012706 C37.8961227,107.044713 37.0595157,107.88132 36.0275086,107.88132 L29.2614174,107.88132 C28.2294104,107.88132 27.3928033,107.044713 27.3928033,106.012706 C27.3928033,104.980699 28.2294104,104.144092 29.2614174,104.144092 Z M43.5159223,104.144092 L65.2867555,104.144092 C66.3187626,104.144092 67.1553696,104.980699 67.1553696,106.012706 C67.1553696,107.044713 66.3187626,107.88132 65.2867555,107.88132 L43.5159223,107.88132 C42.4839153,107.88132 41.6473082,107.044713 41.6473082,106.012706 C41.6473082,104.980699 42.4839153,104.144092 43.5159223,104.144092 Z M72.7751692,104.144092 L87.7938685,104.144092 C88.8258755,104.144092 89.6624826,104.980699 89.6624826,106.012706 C89.6624826,107.044713 88.8258755,107.88132 87.7938685,107.88132 L72.7751692,107.88132 C71.7431621,107.88132 70.9065551,107.044713 70.9065551,106.012706 C70.9065551,104.980699 71.7431621,104.144092 72.7751692,104.144092 Z M36.7637884,112.365994 L85.5431572,112.365994 C86.5751642,112.365994 87.4117713,113.202601 87.4117713,114.234608 C87.4117713,115.266615 86.5751642,116.103222 85.5431572,116.103222 L36.7637884,116.103222 C35.7317814,116.103222 34.8951743,115.266615 34.8951743,114.234608 C34.8951743,113.202601 35.7317814,112.365994 36.7637884,112.365994 Z M29.2614174,120.587896 L36.0275086,120.587896 C37.0595157,120.587896 37.8961227,121.424503 37.8961227,122.45651 C37.8961227,123.488517 37.0595157,124.325124 36.0275086,124.325124 L29.2614174,124.325124 C28.2294104,124.325124 27.3928033,123.488517 27.3928033,122.45651 C27.3928033,121.424503 28.2294104,120.587896 29.2614174,120.587896 Z M43.5159223,120.587896 L69.037941,120.587896 C70.0699481,120.587896 70.9065551,121.424503 70.9065551,122.45651 C70.9065551,123.488517 70.0699481,124.325124 69.037941,124.325124 L43.5159223,124.325124 C42.4839153,124.325124 41.6473082,123.488517 41.6473082,122.45651 C41.6473082,121.424503 42.4839153,120.587896 43.5159223,120.587896 Z"/>
        <g fill="#91A3D4" transform="translate(9.15 9.135)">
          <ellipse cx="2.242" cy="2.238" rx="2.242" ry="2.238"/>
          <ellipse cx="8.967" cy="2.238" rx="2.242" ry="2.238"/>
          <ellipse cx="15.693" cy="2.238" rx="2.242" ry="2.238"/>
        </g>
      </g>
      <g transform="translate(253.434 137.032)">
        <rect width="104.301" height="179.968" fill="#6E82CE" rx="16"/>
        <path fill="#91A3D4" d="M16.5073868,21.925072 L27.0246635,21.925072 C28.0566705,21.925072 28.8932775,22.7616791 28.8932775,23.7936861 C28.8932775,24.8256932 28.0566705,25.6623002 27.0246635,25.6623002 L16.5073868,25.6623002 C15.4753797,25.6623002 14.6387727,24.8256932 14.6387727,23.7936861 C14.6387727,22.7616791 15.4753797,21.925072 16.5073868,21.925072 Z M16.5073868,54.8126801 L27.0246635,54.8126801 C28.0566705,54.8126801 28.8932775,55.6492871 28.8932775,56.6812942 C28.8932775,57.7133013 28.0566705,58.5499083 27.0246635,58.5499083 L16.5073868,58.5499083 C15.4753797,58.5499083 14.6387727,57.7133013 14.6387727,56.6812942 C14.6387727,55.6492871 15.4753797,54.8126801 16.5073868,54.8126801 Z M16.5073868,67.519256 L22.5232409,67.519256 C23.5552479,67.519256 24.391855,68.355863 24.391855,69.3878701 C24.391855,70.4198771 23.5552479,71.2564841 22.5232409,71.2564841 L16.5073868,71.2564841 C15.4753797,71.2564841 14.6387727,70.4198771 14.6387727,69.3878701 C14.6387727,68.355863 15.4753797,67.519256 16.5073868,67.519256 Z M16.5073868,83.96306 L22.5232409,83.96306 C23.5552479,83.96306 24.391855,84.799667 24.391855,85.8316741 C24.391855,86.8636812 23.5552479,87.7002882 22.5232409,87.7002882 L16.5073868,87.7002882 C15.4753797,87.7002882 14.6387727,86.8636812 14.6387727,85.8316741 C14.6387727,84.799667 15.4753797,83.96306 16.5073868,83.96306 Z M30.0116545,75.741158 L59.2848587,75.741158 C60.3168658,75.741158 61.1534728,76.577765 61.1534728,77.6097721 C61.1534728,78.6417791 60.3168658,79.4783862 59.2848587,79.4783862 L30.0116545,79.4783862 C28.9796475,79.4783862 28.1430404,78.6417791 28.1430404,77.6097721 C28.1430404,76.577765 28.9796475,75.741158 30.0116545,75.741158 Z M30.0116545,67.519256 L45.0303538,67.519256 C46.0623609,67.519256 46.8989679,68.355863 46.8989679,69.3878701 C46.8989679,70.4198771 46.0623609,71.2564841 45.0303538,71.2564841 L30.0116545,71.2564841 C28.9796475,71.2564841 28.1430404,70.4198771 28.1430404,69.3878701 C28.1430404,68.355863 28.9796475,67.519256 30.0116545,67.519256 Z M66.7732724,75.741158 L82.5422088,75.741158 C83.5742158,75.741158 84.4108229,76.577765 84.4108229,77.6097721 C84.4108229,78.6417791 83.5742158,79.4783862 82.5422088,79.4783862 L66.7732724,79.4783862 C65.7412653,79.4783862 64.9046583,78.6417791 64.9046583,77.6097721 C64.9046583,76.577765 65.7412653,75.741158 66.7732724,75.741158 Z M36.0135513,21.925072 L60.7853329,21.925072 C61.81734,21.925072 62.653947,22.7616791 62.653947,23.7936861 C62.653947,24.8256932 61.81734,25.6623002 60.7853329,25.6623002 L36.0135513,25.6623002 C34.9815443,25.6623002 34.1449372,24.8256932 34.1449372,23.7936861 C34.1449372,22.7616791 34.9815443,21.925072 36.0135513,21.925072 Z M29.2614174,30.1469741 L36.0275086,30.1469741 C37.0595157,30.1469741 37.8961227,30.9835811 37.8961227,32.0155882 C37.8961227,33.0475952 37.0595157,33.8842023 36.0275086,33.8842023 L29.2614174,33.8842023 C28.2294104,33.8842023 27.3928033,33.0475952 27.3928033,32.0155882 C27.3928033,30.9835811 28.2294104,30.1469741 29.2614174,30.1469741 Z M43.5159223,30.1469741 L65.2867555,30.1469741 C66.3187626,30.1469741 67.1553696,30.9835811 67.1553696,32.0155882 C67.1553696,33.0475952 66.3187626,33.8842023 65.2867555,33.8842023 L43.5159223,33.8842023 C42.4839153,33.8842023 41.6473082,33.0475952 41.6473082,32.0155882 C41.6473082,30.9835811 42.4839153,30.1469741 43.5159223,30.1469741 Z M72.7751692,30.1469741 L87.7938685,30.1469741 C88.8258755,30.1469741 89.6624826,30.9835811 89.6624826,32.0155882 C89.6624826,33.0475952 88.8258755,33.8842023 87.7938685,33.8842023 L72.7751692,33.8842023 C71.7431621,33.8842023 70.9065551,33.0475952 70.9065551,32.0155882 C70.9065551,30.9835811 71.7431621,30.1469741 72.7751692,30.1469741 Z M36.7637884,38.3688761 L85.5431572,38.3688761 C86.5751642,38.3688761 87.4117713,39.2054831 87.4117713,40.2374902 C87.4117713,41.2694972 86.5751642,42.1061043 85.5431572,42.1061043 L36.7637884,42.1061043 C35.7317814,42.1061043 34.8951743,41.2694972 34.8951743,40.2374902 C34.8951743,39.2054831 35.7317814,38.3688761 36.7637884,38.3688761 Z M29.2614174,46.5907781 L36.0275086,46.5907781 C37.0595157,46.5907781 37.8961227,47.4273851 37.8961227,48.4593922 C37.8961227,49.4913993 37.0595157,50.3280063 36.0275086,50.3280063 L29.2614174,50.3280063 C28.2294104,50.3280063 27.3928033,49.4913993 27.3928033,48.4593922 C27.3928033,47.4273851 28.2294104,46.5907781 29.2614174,46.5907781 Z M43.5159223,46.5907781 L69.037941,46.5907781 C70.0699481,46.5907781 70.9065551,47.4273851 70.9065551,48.4593922 C70.9065551,49.4913993 70.0699481,50.3280063 69.037941,50.3280063 L43.5159223,50.3280063 C42.4839153,50.3280063 41.6473082,49.4913993 41.6473082,48.4593922 C41.6473082,47.4273851 42.4839153,46.5907781 43.5159223,46.5907781 Z"/>
        <g fill="#91A3D4" transform="translate(9.15 9.135)">
          <ellipse cx="2.242" cy="2.238" rx="2.242" ry="2.238"/>
          <ellipse cx="8.967" cy="2.238" rx="2.242" ry="2.238"/>
          <ellipse cx="15.693" cy="2.238" rx="2.242" ry="2.238"/>
        </g>
      </g>
    </g>
    <g fill-rule="nonzero" transform="translate(37 2)">
      <path fill="#FEA254" d="M147.622185,9.67924838 L376.527357,75.1178297 C377.323876,75.3455355 378.154174,74.8844218 378.381879,74.0879034 C378.609585,73.2913849 378.148471,72.4610872 377.351953,72.2333814 L148.446781,6.79480007 C147.650262,6.56709427 146.819964,7.028208 146.592259,7.82472641 C146.364553,8.62124481 146.825667,9.45154258 147.622185,9.67924838 Z M145.301724,397.401338 L145.301724,377.945502 L145.301724,356.107266 L144.967993,356.107266 L130.864158,376.681477 L145.301724,397.401338 Z M143.238178,399.687395 L129.050854,379.326665 L115.051169,399.748944 L115.075413,399.783737 L143.170632,399.783737 L143.238178,399.687395 Z M116.528081,356.107266 L129.0307,374.050217 L141.33078,356.107266 L116.528081,356.107266 Z M113.301724,356.724534 L113.301724,377.945502 L113.301724,396.995129 L127.217396,376.695405 L113.301724,356.724534 Z M115.2491,352.783737 L143.079874,352.783737 L129.050854,332.650194 L115.2491,352.783737 Z M116.002468,262 L129.0307,280.697276 L141.847878,262 L116.002468,262 Z M114,264.373713 L114,302.623566 L127.217396,283.342464 L114,264.373713 Z M143.005131,306 L129.050854,285.973724 L115.322633,306 L143.005131,306 Z M145,303.615382 L145,262.707635 L130.864158,283.328536 L145,303.615382 Z M115.640547,258 L142.082898,258 L128.884439,239.058426 L115.640547,258 Z M115.831282,169.316609 L128.913362,188.091163 L141.995442,169.316609 L115.831282,169.316609 Z M114,171.935996 L114,209.493856 L127.085128,190.714926 L114,171.935996 Z M141.916534,212 L128.913362,193.338689 L115.91019,212 L141.916534,212 Z M145,211.177665 L145,170.252187 L130.741596,190.714926 L145,211.177665 Z M115.334497,166 L142.377123,166 L128.837409,146.687973 L115.334497,166 Z M117.228974,402.874388 L129.079768,419.881882 L141.003768,402.874388 L117.228974,402.874388 Z M113.572506,402.874388 L113.301724,402.874388 L113.301724,442.386494 L127.245905,422.497566 L113.572506,402.874388 Z M145.301724,443.162583 L145.301724,402.874388 L144.667633,402.874388 L130.90606,422.502858 L145.301724,443.162583 Z M142.608511,444.544983 L129.072197,425.118541 L115.452266,444.544983 L142.608511,444.544983 Z M145.301724,447.544983 L113.301724,447.544983 L113.301724,526 L145.301724,526 L145.301724,447.544983 Z M116.302646,309.107266 L129.0307,327.373747 L141.552563,309.107266 L116.302646,309.107266 Z M113.301724,310.048063 L113.301724,350.318658 L127.217396,330.018935 L113.301724,310.048063 Z M145.301724,350.724867 L145.301724,309.107266 L145.189776,309.107266 L130.864158,330.005006 L145.301724,350.724867 Z M116.473832,216 L128.888666,233.816967 L141.346237,216 L116.473832,216 Z M114,217.697242 L114,255.110916 L127.057291,236.436222 L114,217.697242 Z M145,256.938911 L145,216.009758 L130.715814,236.439172 L145,256.938911 Z M114.944289,121.646015 L142.686086,121.646015 L143.287068,120.786484 L144.516379,121.646015 L145.301724,121.646015 L145.301724,78.9636678 L113.301724,78.9636678 L113.301724,120.889539 L114.047392,120.366749 L114.944289,121.646015 Z M117.047597,124.646015 L128.834065,141.457343 L140.588495,124.646015 L117.047597,124.646015 Z M113.383732,124.646015 L113.301724,124.646015 L113.301724,163.671883 L127.004625,144.073829 L113.383732,124.646015 Z M145.301724,164.94557 L145.301724,124.646015 L144.249081,124.646015 L130.666848,144.071487 L145.301724,164.94557 Z M110.301724,75.9636678 L148.301724,75.9636678 L148.301724,529 L110.301724,529 L110.301724,75.9636678 Z"/>
      <path fill="#FEA254" d="M395.45102,53.3981942 L378.918282,62.3394173 L395.45102,71.0981664 L395.45102,53.3981942 Z M392.601955,51.5283976 L358.511744,51.5283976 L375.732572,60.6516849 L392.601955,51.5283976 Z M359.313261,72.9421907 L392.523448,72.9421907 L375.747168,64.0544171 L359.313261,72.9421907 Z M353.859325,72.4811584 L372.561458,62.3666846 L353.859325,52.4586287 L353.859325,72.4811584 Z M398.45102,52.9473275 L398.45102,72.9636678 L417.103711,72.9636678 L398.45102,52.9473275 Z M397.836146,48.5283976 L398.45102,48.5283976 L398.45102,48.7245385 C398.657298,48.8295307 398.845863,48.9705781 399.006936,49.1434261 L420.86565,72.6001735 C421.618687,73.4082632 421.574058,74.6738065 420.765968,75.4268436 C420.395752,75.7718385 419.908519,75.9636678 419.402474,75.9636678 L146.950612,75.9636678 C145.846043,75.9636678 144.950612,75.0682373 144.950612,73.9636678 C144.950612,73.48024 145.125712,73.0131732 145.443513,72.6488862 L165.90699,49.1921388 C166.286802,48.7567698 166.836332,48.5069204 167.41409,48.5069204 L397.54376,48.5069204 C397.642244,48.5069204 397.739942,48.5141822 397.836146,48.5283976 Z M349.761365,52.8814952 L332.214103,62.1024481 L349.761365,71.1332783 L349.761365,52.8814952 Z M345.887101,51.5283976 L311.668302,51.5283976 L328.955924,60.4256021 L345.887101,51.5283976 Z M311.586321,72.9421907 L346.720345,72.9421907 L328.970343,63.8070192 L311.586321,72.9421907 Z M308.169669,71.3486212 L325.712165,62.1301732 L308.169669,53.1017963 L308.169669,71.3486212 Z M304.07171,52.8737943 L286.147509,62.1947108 L304.07171,70.967338 L304.07171,52.8737943 Z M300.156485,51.5283976 L264.354136,51.5283976 L282.79777,60.5552507 L300.156485,51.5283976 Z M265.480015,72.9421907 L301.282363,72.9421907 L282.838729,63.9153375 L265.480015,72.9421907 Z M262.480014,71.12086 L279.48899,62.2758775 L262.480014,53.951188 L262.480014,71.12086 Z M258.382055,53.3373099 L241.092918,62.2352941 L258.382055,71.1332783 L258.382055,53.3373099 Z M255.341034,51.5283976 L220.288992,51.5283976 L237.815013,60.548296 L255.341034,51.5283976 Z M220.288992,72.9421907 L255.341034,72.9421907 L237.815013,63.9222923 L220.288992,72.9421907 Z M216.790359,71.368792 L234.537109,62.2352941 L216.790359,53.1017963 L216.790359,71.368792 Z M213.606193,51.9975614 L195.505302,61.8899169 L213.606193,71.9509366 L213.606193,51.9975614 Z M208.209021,51.5283976 L176.86378,51.5283976 L192.403921,60.1660759 L208.209021,51.5283976 Z M175.28201,72.9421907 L209.214522,72.9421907 L192.391681,63.5915489 L175.28201,72.9421907 Z M172.014497,71.3091429 L189.290299,61.8677079 L172.014497,52.2652968 L172.014497,71.3091429 Z M169.014497,51.5069204 L167.86875,51.5069204 L149.150057,72.9636678 L169.014497,72.9636678 L169.014497,51.5069204 Z"/>
      <g transform="translate(91.38 75.048)">
        <path fill="#FEA254" d="M3,6.39488462e-14 L53.6376057,6.39488462e-14 C54.3715149,6.39488462e-14 55.0799656,0.269025713 55.6288891,0.756166108 L74.836111,17.8015551 C75.4776654,18.3709006 75.8448276,19.1876324 75.8448276,20.045389 L75.8448276,44.5916955 C75.8448276,46.2485498 74.5016818,47.5916955 72.8448276,47.5916955 L3,47.5916955 C1.34314575,47.5916955 2.84217094e-13,46.2485498 2.84217094e-13,44.5916955 L2.84217094e-13,3 C2.84217094e-13,1.34314575 1.34314575,6.39488462e-14 3,6.39488462e-14 Z"/>
        <path fill="#F47702" d="M37.7241379,3.66089965 L52.7662617,3.66089965 C53.5051765,3.66089965 54.218099,3.93359993 54.7683853,4.42673285 L70.2779856,18.3254874 C70.9130056,18.8945535 71.2758621,19.7069604 71.2758621,20.5596542 L71.2758621,25.3719723 C71.2758621,27.0288266 69.9327163,28.3719723 68.2758621,28.3719723 L37.7241379,28.3719723 C36.0672837,28.3719723 34.7241379,27.0288266 34.7241379,25.3719723 L34.7241379,6.66089965 C34.7241379,5.0040454 36.0672837,3.66089965 37.7241379,3.66089965 Z"/>
        <rect width="75.845" height="2.746" y="41.185" fill="#F47702"/>
        <rect width="75.845" height="2.746" y="35.694" fill="#F47702"/>
      </g>
      <path fill="#FEA254" d="M95.0344828,49.2270234 L112.721337,75.1175452 L110.24418,76.8097904 L95.0731416,54.6019914 L95.0731416,72.9421907 C95.0731416,73.1065755 95.0599202,73.2678723 95.0344828,73.4250757 L95.0344828,75.9636678 L43.862069,75.9636678 L43.862069,48.5069204 L46.3657916,48.5069204 L46.8188956,47.6641232 L48.3865429,48.5069204 L95.0344828,48.5069204 L95.0344828,49.2270234 Z M92.0344828,52.4762719 L73.7484503,62.1419675 L92.0344828,71.9728887 L92.0344828,52.4762719 Z M87.4080742,51.5283976 L54.0066499,51.5283976 L70.5658306,60.4309302 L87.4080742,51.5283976 Z M53.3160637,72.9421907 L87.5019665,72.9421907 L70.5538706,63.8305698 L53.3160637,72.9421907 Z M48.6509963,72.0147508 L67.3712509,62.1195325 L48.6509963,52.0551651 L48.6509963,72.0147508 Z"/>
      <g transform="translate(0 37.524)">
        <rect width="47.517" height="47.592" fill="#FEA254" rx="4"/>
        <rect width="20.103" height="47.592" x="13.707" fill="#F47702"/>
      </g>
      <ellipse cx="199.207" cy="172.062" fill="#50E7F1" rx="1.828" ry="1.83"/>
      <path fill="#FEA254" d="M138.896552,14.6435986 L146.206897,14.6435986 L146.206897,75.9636678 L112.396552,75.9636678 L138.896552,14.6435986 Z M116.961185,72.9636678 L143.206897,72.9636678 L143.206897,17.6435986 L140.868233,17.6435986 L116.961185,72.9636678 Z"/>
      <g transform="translate(132.5)">
        <rect width="19.19" height="16.474" fill="#FEA254" rx="2"/>
        <rect width="19.19" height="2.746" y="11.898" fill="#F47702"/>
        <rect width="19.19" height="2.746" y="1.83" fill="#F47702"/>
      </g>
      <polygon fill="#FEA254" points="46.786 49.583 134.491 8.968 133.231 6.246 45.526 46.861"/>
      <rect width="5.483" height="11.898" x="407.466" y="72.303" fill="#F47702" rx="1"/>
    </g>
    <path fill="#93B2E8" fill-rule="nonzero" d="M22,566.43499 C64.4787,463.807352 112.145367,410.662355 165,407 C244.28195,401.506467 344.859025,455.831858 406.947299,451.253914 C469.035573,446.67597 574.108037,321.057182 628.554677,313.732471 C664.852437,308.849331 704.334212,328.381892 747,372.330157 L972,615 L0,614 L22,566.43499 Z"/>
    <g fill="#D8D3F0" fill-rule="nonzero" transform="translate(68)">
      <path d="M518.0625,185.776885 L518.0625,163.21 L127.650182,163.21 C126.545613,163.21 125.650182,162.314569 125.650182,161.21 C125.650182,160.105431 126.545613,159.21 127.650182,159.21 L518.0625,159.21 L518.0625,78.5725 L508.641369,78.5725 C507.5368,78.5725 506.641369,77.6770695 506.641369,76.5725 C506.641369,75.4679305 507.5368,74.5725 508.641369,74.5725 L518.0625,74.5725 L518.0625,51.41 C518.0625,50.3054305 518.957931,49.41 520.0625,49.41 C521.167069,49.41 522.0625,50.3054305 522.0625,51.41 L522.0625,74.5725 L563.747024,74.5725 L563.747024,2 C563.747024,0.8954305 564.642454,0 565.747024,0 C566.851593,0 567.747024,0.8954305 567.747024,2 L567.747024,74.5725 L608.233631,74.5725 C609.3382,74.5725 610.233631,75.4679305 610.233631,76.5725 C610.233631,77.6770695 609.3382,78.5725 608.233631,78.5725 L567.747024,78.5725 L567.747024,159.21 L608.233631,159.21 C609.3382,159.21 610.233631,160.105431 610.233631,161.21 C610.233631,162.314569 609.3382,163.21 608.233631,163.21 L567.747024,163.21 L567.747024,185.811032 C567.752092,185.893648 567.752148,185.976669 567.747024,186.059569 L567.747024,218.744291 C567.752357,218.828387 567.752426,218.912994 567.747024,218.997582 L567.747024,260.832488 C567.752259,260.915456 567.752331,260.998985 567.747024,261.08258 L567.747024,308.355 L615.317781,308.355 C616.422351,308.355 617.317781,309.250431 617.317781,310.355 C617.317781,311.459569 616.422351,312.355 615.317781,312.355 L567.747024,312.355 L567.747024,615 C567.747024,616.104569 566.851593,617 565.747024,617 C564.642454,617 563.747024,616.104569 563.747024,615 L563.747024,312.355 L522.0625,312.355 L522.0625,615 C522.0625,616.104569 521.167069,617 520.0625,617 C518.957931,617 518.0625,616.104569 518.0625,615 L518.0625,312.355 L127.650182,312.355 C126.545613,312.355 125.650182,311.459569 125.650182,310.355 C125.650182,309.250431 126.545613,308.355 127.650182,308.355 L518.0625,308.355 L518.0625,261.055709 C518.057167,260.971613 518.057097,260.887006 518.0625,260.802418 L518.0625,218.958968 C518.057432,218.876352 518.057376,218.793331 518.0625,218.710431 L518.0625,186.006606 C518.058246,185.930154 518.05821,185.853439 518.0625,185.776885 Z M524.635586,308.355 L563.747024,308.355 L563.747024,266.054107 L524.635586,308.355 Z M522.0625,305.245893 L561.173938,262.945 L522.0625,262.945 L522.0625,305.245893 Z M522.0625,256.382931 L560.624548,220.855 L522.0625,220.855 L522.0625,256.382931 Z M522.0625,214.947262 L559.553575,187.915 L522.0625,187.915 L522.0625,214.947262 Z M522.0625,182.559745 L557.844077,163.21 L522.0625,163.21 L522.0625,182.559745 Z M563.747024,164.565255 L527.965446,183.915 L563.747024,183.915 L563.747024,164.565255 Z M563.747024,189.822738 L526.255948,216.855 L563.747024,216.855 L563.747024,189.822738 Z M563.747024,223.417069 L525.184976,258.945 L563.747024,258.945 L563.747024,223.417069 Z M522.0625,78.5725 L522.0625,159.21 L563.747024,159.21 L563.747024,78.5725 L522.0625,78.5725 Z"/>
      <path d="M118.174451,473.5125 L118.211842,442.330682 C117.717126,441.623039 117.773823,440.722098 118.214554,440.068565 L118.240326,418.575764 C117.78838,417.944863 117.727837,417.079962 118.155264,416.374076 C118.183038,416.328209 118.212361,416.283856 118.243126,416.241045 L118.278666,386.602355 C117.73721,385.897551 117.718783,384.894472 118.281589,384.16456 L118.298357,370.180548 C117.694041,369.446395 117.742792,368.366139 118.301389,367.651886 L118.322918,349.697602 C118.324243,348.593033 119.220746,347.7 120.325315,347.7 C121.429884,347.7 122.32424,348.597829 122.322917,349.702398 L122.302277,366.915 L156.697917,366.915 L156.697917,349.7 C156.697917,348.595431 157.593347,347.7 158.697917,347.7 C159.802486,347.7 160.697917,348.595431 160.697917,349.7 L160.697917,367.016068 C161.494083,367.279846 162.068452,368.030348 162.068452,368.915 C162.068452,369.799652 161.494083,370.550154 160.697917,370.813932 L160.697917,384.112094 C161.154624,384.666725 161.29632,385.449566 160.999249,386.158218 C160.921623,386.343394 160.81938,386.510757 160.697917,386.6581 L160.697917,416.137125 C161.293546,416.857655 161.318139,417.921423 160.705,418.67363 C160.702645,418.676519 160.700284,418.6794 160.697917,418.682272 L160.697917,439.915683 C161.34488,440.671722 161.277571,441.768653 160.697917,442.483151 L160.697917,473.5125 L193.245536,473.5125 L193.245536,87.095 C193.245536,85.9904305 194.140966,85.095 195.245536,85.095 C196.350105,85.095 197.245536,85.9904305 197.245536,87.095 L197.245536,473.5125 L208.494048,473.5125 C209.598617,473.5125 210.494048,474.407931 210.494048,475.5125 C210.494048,476.617069 209.598617,477.5125 208.494048,477.5125 L197.245536,477.5125 L197.245536,619 C197.245536,620.104569 196.350105,621 195.245536,621 C194.140966,621 193.245536,620.104569 193.245536,619 L193.245536,477.5125 L161.968001,477.5125 C161.88518,477.763627 161.750897,478.00235 161.564203,478.212679 C161.321789,478.485779 161.021358,478.676818 160.697917,478.78371 L160.697917,619 C160.697917,620.104569 159.802486,621 158.697917,621 C157.593347,621 156.697917,620.104569 156.697917,619 L156.697917,477.5125 L122.16966,477.5125 L122,619.002398 C121.998674,620.106967 121.102171,621 119.997602,621 C118.893033,621 117.998677,620.102171 118,618.997602 L118.169655,477.5125 L22.5315924,477.5125 L23,614.993186 C23.0037517,616.097749 22.1113771,616.996225 21.006814,617 C19.9022509,617.003752 19.0037749,616.111377 19.0000116,615.006814 L18.5315573,477.5125 L2,477.5125 C0.8954305,477.5125 1.56319402e-13,476.617069 1.56319402e-13,475.5125 C1.56319402e-13,474.407931 0.8954305,473.5125 2,473.5125 L18.517929,473.5125 L18.2738093,401.861814 C18.2700579,400.757251 19.1624324,399.858775 20.2669955,399.855 C21.3715586,399.851248 22.2700346,400.743623 22.2737979,401.848186 L22.5179641,473.5125 L118.174451,473.5125 Z M122.174456,473.5125 L153.256249,473.5125 L122.207503,445.952578 L122.174456,473.5125 Z M156.697917,386.523703 L122.296057,372.102285 L122.280864,384.773097 L156.697917,412.827128 L156.697917,386.523703 Z M156.697917,382.186455 L156.697917,370.915 L129.810199,370.915 L156.697917,382.186455 Z M156.697917,471.218955 L156.697917,443.2 L125.132029,443.2 L156.697917,471.218955 Z M156.697917,437.374259 L156.697917,417.987625 L122.274682,389.928555 L122.242807,416.511078 L156.697917,437.374259 Z M122.2156,439.2 L151.990517,439.2 L122.237204,421.18384 L122.2156,439.2 Z"/>
    </g>
    <g transform="translate(227 85)">
      <g transform="translate(4.571 9.232)">
        <rect width="335.515" height="499" fill="#000" fill-rule="nonzero" rx="16"/>
        <rect width="335.515" height="499" fill="#0B0F2D" fill-rule="nonzero" rx="16"/>
        <mask id="hero-illustration-services-v2-b" fill="#fff">
          <use xlink:href="#hero-illustration-services-v2-a"/>
        </mask>
        <g fill-rule="nonzero" mask="url(#hero-illustration-services-v2-b)">
          <g transform="translate(31.38 144.852)">
            <rect width="83.678" height="9.657" y="76.449" fill="#3C2CC6" rx="4.828"/>
            <rect width="75.632" height="9.657" y="21.728" fill="#0C26C7" rx="4.828"/>
            <path fill="#3C2CC6" d="M24.9431775,98.1771538 L73.2170118,98.1771538 C75.883655,98.1771538 78.0453964,100.338895 78.0453964,103.005538 C78.0453964,105.672182 75.883655,107.833923 73.2170118,107.833923 L24.9431775,107.833923 C22.2765343,107.833923 20.1147929,105.672182 20.1147929,103.005538 C20.1147929,100.338895 22.2765343,98.1771538 24.9431775,98.1771538 Z"/>
            <rect width="16.092" height="9.657" y="98.177" fill="#175DFD" rx="4.828"/>
            <rect width="59.54" height="9.657" x="89.31" y="76.449" fill="#50E7F1" rx="4.828"/>
            <path fill="#0C26C7" d="M4.82838462,0 L49.0792603,0 C51.7459035,0 53.9076449,2.16174143 53.9076449,4.82838462 C53.9076449,7.4950278 51.7459035,9.65676923 49.0792603,9.65676923 L4.82838462,9.65676923 C2.16174143,9.65676923 0,7.4950278 0,4.82838462 C0,2.16174143 2.16174143,0 4.82838462,0 Z"/>
            <path fill="#FCD012" d="M65.1727633,0 L86.0904792,0 C88.7571224,0 90.9188638,2.16174143 90.9188638,4.82838462 C90.9188638,7.4950278 88.7571224,9.65676923 86.0904792,9.65676923 L65.1727633,9.65676923 C62.5061201,9.65676923 60.3443787,7.4950278 60.3443787,4.82838462 C60.3443787,2.16174143 62.5061201,0 65.1727633,0 Z"/>
            <path fill="#3C2CC6" d="M24.9431775,119.904885 L81.2629289,119.904885 C83.9295721,119.904885 86.0913135,122.066626 86.0913135,124.733269 C86.0913135,127.399912 83.9295721,129.561654 81.2629289,129.561654 L24.9431775,129.561654 C22.2765343,129.561654 20.1147929,127.399912 20.1147929,124.733269 C20.1147929,122.066626 22.2765343,119.904885 24.9431775,119.904885 Z M24.1385858,141.632615 L61.9527278,141.632615 C64.6193709,141.632615 66.7811124,143.794357 66.7811124,146.461 C66.7811124,149.127643 64.6193709,151.289385 61.9527278,151.289385 L24.1385858,151.289385 C21.4719426,151.289385 19.3102012,149.127643 19.3102012,146.461 C19.3102012,143.794357 21.4719426,141.632615 24.1385858,141.632615 Z"/>
            <path fill="#0C26C7" d="M86.8967396,21.7277308 L195.514953,21.7277308 C198.181596,21.7277308 200.343337,23.8894722 200.343337,26.5561154 C200.343337,29.2227586 198.181596,31.3845 195.514953,31.3845 L86.8967396,31.3845 C84.2300964,31.3845 82.068355,29.2227586 82.068355,26.5561154 C82.068355,23.8894722 84.2300964,21.7277308 86.8967396,21.7277308 Z"/>
          </g>
        </g>
        <g fill="#253CCF" fill-rule="nonzero" transform="translate(16.092 24.142)">
          <circle cx="4.828" cy="4.828" r="4.828"/>
          <circle cx="19.31" cy="4.828" r="4.828"/>
          <circle cx="33.793" cy="4.828" r="4.828"/>
        </g>
      </g>
      <path fill="#FFF" fill-rule="nonzero" d="M35,55 L35.0268097,50.136 L27.0268097,50.136 L26,55 L35,55 Z M53.0268097,53.136 L53.0268097,50.136 L45.0268097,50.136 L45.0268097,53.136 L53.0268097,53.136 Z M45.0268097,56.136 L53.0268097,56.136 L53.0268097,53.136 L45.0268097,53.136 L45.0268097,56.136 Z M71.0268097,53.136 L71.0268097,50.136 L63.0268097,50.136 L63.0268097,53.136 L71.0268097,53.136 Z M63.0268097,56.136 L71.0268097,56.136 L71.0268097,53.136 L63.0268097,53.136 L63.0268097,56.136 Z M89.0268097,53.136 L89.0268097,50.136 L81.0268097,50.136 L81.0268097,53.136 L89.0268097,53.136 Z M81.0268097,56.136 L89.0268097,56.136 L89.0268097,53.136 L81.0268097,53.136 L81.0268097,56.136 Z M107.02681,53.136 L107.02681,50.136 L99.0268097,50.136 L99.0268097,53.136 L107.02681,53.136 Z M99.0268097,56.136 L107.02681,56.136 L107.02681,53.136 L99.0268097,53.136 L99.0268097,56.136 Z M125.02681,53.136 L125.02681,50.136 L117.02681,50.136 L117.02681,53.136 L125.02681,53.136 Z M117.02681,56.136 L125.02681,56.136 L125.02681,53.136 L117.02681,53.136 L117.02681,56.136 Z M143.02681,53.136 L143.02681,50.136 L135.02681,50.136 L135.02681,53.136 L143.02681,53.136 Z M135.02681,56.136 L143.02681,56.136 L143.02681,53.136 L135.02681,53.136 L135.02681,56.136 Z M161.02681,53.136 L161.02681,50.136 L153.02681,50.136 L153.02681,53.136 L161.02681,53.136 Z M153.02681,56.136 L161.02681,56.136 L161.02681,53.136 L153.02681,53.136 L153.02681,56.136 Z M179.02681,53.136 L179.02681,50.136 L171.02681,50.136 L171.02681,53.136 L179.02681,53.136 Z M171.02681,56.136 L179.02681,56.136 L179.02681,53.136 L171.02681,53.136 L171.02681,56.136 Z M197.02681,53.136 L197.02681,50.136 L189.02681,50.136 L189.02681,53.136 L197.02681,53.136 Z M189.02681,56.136 L197.02681,56.136 L197.02681,53.136 L189.02681,53.136 L189.02681,56.136 Z M215.02681,53.136 L215.02681,50.136 L207.02681,50.136 L207.02681,53.136 L215.02681,53.136 Z M207.02681,56.136 L215.02681,56.136 L215.02681,53.136 L207.02681,53.136 L207.02681,56.136 Z M233.02681,53.136 L233.02681,50.136 L225.02681,50.136 L225.02681,53.136 L233.02681,53.136 Z M225.02681,56.136 L233.02681,56.136 L233.02681,53.136 L225.02681,53.136 L225.02681,56.136 Z M251.02681,53.136 L251.02681,50.136 L243.02681,50.136 L243.02681,53.136 L251.02681,53.136 Z M243.02681,56.136 L251.02681,56.136 L251.02681,53.136 L243.02681,53.136 L243.02681,56.136 Z M269.02681,53.136 L269.02681,50.136 L261.02681,50.136 L261.02681,53.136 L269.02681,53.136 Z M261.02681,56.136 L269.02681,56.136 L269.02681,53.136 L261.02681,53.136 L261.02681,56.136 Z M318.985411,57.9819723 L318.623597,58.1131676 C318.196944,56.9365304 317.074856,56.136 315.801609,56.136 L315.02681,56.136 L315.02681,53.136 L315.02681,50.136 L315.801609,50.136 C319.619837,50.136 322.983455,52.5357029 324.264226,56.067855 L319,58 L318.985411,57.9819723 Z M321.801609,74.9957098 L324.801609,74.9957098 L324.801609,66.9957098 L321.801609,66.9957098 L321.801609,74.9957098 Z M318.801609,66.9957098 L318.801609,74.9957098 L321.801609,74.9957098 L321.801609,66.9957098 L318.801609,66.9957098 Z M321.801609,92.9957098 L324.801609,92.9957098 L324.801609,84.9957098 L321.801609,84.9957098 L321.801609,92.9957098 Z M318.801609,84.9957098 L318.801609,92.9957098 L321.801609,92.9957098 L321.801609,84.9957098 L318.801609,84.9957098 Z M321.801609,110.99571 L324.801609,110.99571 L324.801609,102.99571 L321.801609,102.99571 L321.801609,110.99571 Z M318.801609,102.99571 L318.801609,110.99571 L321.801609,110.99571 L321.801609,102.99571 L318.801609,102.99571 Z M321.801609,128.99571 L324.801609,128.99571 L324.801609,120.99571 L321.801609,120.99571 L321.801609,128.99571 Z M318.801609,120.99571 L318.801609,128.99571 L321.801609,128.99571 L321.801609,120.99571 L318.801609,120.99571 Z M308.542057,136.370667 L308.542057,139.370667 L315.801609,139.370667 C316.102685,139.370667 316.402441,139.355777 316.700028,139.326163 L316.405918,136.370667 L308.542057,136.370667 Z M316.105884,133.355652 C316.005656,133.365626 315.904191,133.370667 315.801609,133.370667 L308.542057,133.370667 L308.542057,136.370667 L315.801609,136.370667 C316.004569,136.370667 316.205176,136.360589 316.402956,136.340908 L316.105884,133.355652 Z M290.542057,136.370667 L290.542057,133.370667 L298.542057,133.370667 L298.542057,136.370667 L290.542057,136.370667 L290.542057,139.370667 L298.542057,139.370667 L298.542057,136.370667 L290.542057,136.370667 Z M272.542057,136.370667 L272.542057,133.370667 L280.542057,133.370667 L280.542057,136.370667 L272.542057,136.370667 L272.542057,139.370667 L280.542057,139.370667 L280.542057,136.370667 L272.542057,136.370667 Z M254.542057,136.370667 L254.542057,133.370667 L262.542057,133.370667 L262.542057,136.370667 L254.542057,136.370667 L254.542057,139.370667 L262.542057,139.370667 L262.542057,136.370667 L254.542057,136.370667 Z M236.542057,136.370667 L236.542057,133.370667 L244.542057,133.370667 L244.542057,136.370667 L236.542057,136.370667 L236.542057,139.370667 L244.542057,139.370667 L244.542057,136.370667 L236.542057,136.370667 Z M218.542057,136.370667 L218.542057,133.370667 L226.542057,133.370667 L226.542057,136.370667 L218.542057,136.370667 L218.542057,139.370667 L226.542057,139.370667 L226.542057,136.370667 L218.542057,136.370667 Z M208.542057,139.370667 L200.542057,139.370667 L200.542057,136.370667 L208.542057,136.370667 L208.542057,133.370667 L200.542057,133.370667 L200.542057,136.370667 L208.542057,136.370667 L208.542057,139.370667 Z M190.542057,139.370667 L182.542057,139.370667 L182.542057,136.370667 L190.542057,136.370667 L190.542057,133.370667 L182.542057,133.370667 L182.542057,136.370667 L190.542057,136.370667 L190.542057,139.370667 Z M164.542057,136.370667 L164.542057,133.370667 L172.542057,133.370667 L172.542057,136.370667 L164.542057,136.370667 L164.542057,139.370667 L172.542057,139.370667 L172.542057,136.370667 L164.542057,136.370667 Z M146.542057,136.370667 L146.542057,133.370667 L154.542057,133.370667 L154.542057,136.370667 L146.542057,136.370667 L146.542057,139.370667 L154.542057,139.370667 L154.542057,136.370667 L146.542057,136.370667 Z M128.542057,136.370667 L128.542057,133.370667 L136.542057,133.370667 L136.542057,136.370667 L128.542057,136.370667 L128.542057,139.370667 L136.542057,139.370667 L136.542057,136.370667 L128.542057,136.370667 Z M118.542057,139.370667 L110.542057,139.370667 L110.542057,136.370667 L118.542057,136.370667 L118.542057,133.370667 L110.542057,133.370667 L110.542057,136.370667 L118.542057,136.370667 L118.542057,139.370667 Z M100.542057,139.370667 L92.5420567,139.370667 L92.5420567,136.370667 L100.542057,136.370667 L100.542057,133.370667 L92.5420567,133.370667 L92.5420567,136.370667 L100.542057,136.370667 L100.542057,139.370667 Z M74.5420567,136.370667 L74.5420567,133.370667 L82.5420567,133.370667 L82.5420567,136.370667 L74.5420567,136.370667 L74.5420567,139.370667 L82.5420567,139.370667 L82.5420567,136.370667 L74.5420567,136.370667 Z M64.5420567,139.370667 L56.5420567,139.370667 L56.5420567,136.370667 L64.5420567,136.370667 L64.5420567,133.370667 L56.5420567,133.370667 L56.5420567,136.370667 L64.5420567,136.370667 L64.5420567,139.370667 Z M46.5420567,136.370667 L46.5420567,139.370667 L38.5420567,139.370667 L38.5420567,136.370667 L46.5420567,136.370667 L46.5420567,133.370667 L38.5420567,133.370667 L38.5420567,136.370667 L46.5420567,136.370667 Z M21.0268097,136.370667 L21.0268097,133.468895 L19.0296614,134.502024 C20.5633311,137.46677 23.6268749,139.370667 27.0268097,139.370667 L28.5420567,139.370667 L28.5420567,136.370667 L21.0268097,136.370667 Z M28.5420567,133.370667 L27.0268097,133.370667 C25.8918123,133.370667 24.8717348,132.73672 24.3588348,131.74523 L21.6942481,133.123627 C22.6919995,135.052386 24.7054541,136.370667 27.0268097,136.370667 L28.5420567,136.370667 L28.5420567,133.370667 Z M18.0268097,123.251405 L18.0268097,115.251405 L21.0268097,115.251405 L21.0268097,123.251405 L24.0268097,123.251405 L24.0268097,115.251405 L21.0268097,115.251405 L21.0268097,123.251405 L18.0268097,123.251405 Z M21.0268097,97.251405 L24.0268097,97.251405 L24.0268097,105.251405 L21.0268097,105.251405 L21.0268097,97.251405 L18.0268097,97.251405 L18.0268097,105.251405 L21.0268097,105.251405 L21.0268097,97.251405 Z M18.0268097,87.251405 L18.0268097,79.251405 L21.0268097,79.251405 L21.0268097,87.251405 L24.0268097,87.251405 L24.0268097,79.251405 L21.0268097,79.251405 L21.0268097,87.251405 L18.0268097,87.251405 Z M18.0268097,69.251405 L18.0268097,61.251405 L21.0268097,61.251405 L21.0268097,69.251405 L24.0268097,69.251405 L24.0268097,61.251405 L21.0268097,61.251405 L21.0268097,69.251405 L18.0268097,69.251405 Z M27.0268097,50.136 C26.325973,50.136 25.6333737,50.216684 24.9599612,50.3751492 L25.6096358,53.136 L26,55 L27.0268097,50.136 Z M297,50 L305,50 L305,56 L297,56 L297,50 Z M279,50 L287,50 L287,56 L279,56 L279,50 Z"/>
      <g fill-rule="nonzero" transform="rotate(15 -188.055 111.33)">
        <rect width="300.566" height="82.807" fill="#50E7F1" rx="6"/>
        <g fill="#175DFD" transform="translate(27.324 16.481)">
          <rect width="130.192" height="8.843" x="33.353" y=".437" rx="4.421"/>
          <rect width="20.895" height="8.843" x="179.757" y="19.954" rx="4.421"/>
          <path d="M5.46183273,40.1383209 L50.4631425,40.1383209 C52.9052023,40.1383209 54.884883,42.1180015 54.884883,44.5600614 C54.884883,47.0021213 52.9052023,48.9818019 50.4631425,48.9818019 L5.46183273,48.9818019 C3.01977286,48.9818019 1.04009219,47.0021213 1.04009219,44.5600614 C1.04009219,42.1180015 3.01977286,40.1383209 5.46183273,40.1383209 Z M5.18912836,0.485537534 L23.6698695,0.485537534 C26.1119294,0.485537534 28.09161,2.4652182 28.09161,4.90727807 C28.09161,7.34933793 26.1119294,9.3290186 23.6698695,9.3290186 L5.18912836,9.3290186 C2.74706849,9.3290186 0.767387825,7.34933793 0.767387825,4.90727807 C0.767387825,2.4652182 2.74706849,0.485537534 5.18912836,0.485537534 Z"/>
          <rect width="174.393" height="8.843" x=".275" y="20.025" rx="4.421"/>
          <rect width="58.667" height="8.843" x="60.233" y="40.272" rx="4.421"/>
          <path d="M210.820671,20.5485455 L214.835647,20.5485455 C217.277707,20.5485455 219.257388,22.5282261 219.257388,24.970286 C219.257388,27.4123459 217.277707,29.3920265 214.835647,29.3920265 L210.820671,29.3920265 C208.378611,29.3920265 206.39893,27.4123459 206.39893,24.970286 C206.39893,22.5282261 208.378611,20.5485455 210.820671,20.5485455 Z"/>
        </g>
      </g>
      <path fill="#5969A6" fill-rule="nonzero" d="M5.34232574,94.9410533 C2.26064863,94.080062 7.81597009e-14,91.2506407 7.81597009e-14,87.893 C7.81597009e-14,84.2144329 2.71345112,81.1698862 6.24721951,80.6532702 L6.24721951,1.02378092 C6.24721951,0.471496167 6.69493476,0.023780916 7.24721951,0.023780916 C7.79950426,0.023780916 8.24721951,0.471496167 8.24721951,1.02378092 L8.24721951,80.6350012 C11.8459465,81.0934934 14.628,84.1682218 14.628,87.893 C14.628,91.8942028 11.4176989,95.1452921 7.43331926,95.209046 C7.40343605,95.2146703 7.37308362,95.2189653 7.34232574,95.2218672 L7.34232574,99.3061499 C10.9244762,99.3128339 12.8847185,101.397199 12.8847185,105.272 C12.8847185,111.608384 8.18394859,113.959945 3.86376191,109.637597 L5.27832924,108.223737 C8.27181548,111.218721 10.8847185,109.911616 10.8847185,105.272 C10.8847185,102.210422 9.55442505,101.031281 6.44558069,101.35401 L5.34232574,101.468538 L5.34232574,94.9410533 Z" transform="translate(212.925)"/>
    </g>
    <path fill="#D8D3F0" fill-rule="nonzero" d="M462.458584,439.090766 L462.458584,425.424745 L446.485346,425.424745 C445.380776,425.424745 444.485346,424.529314 444.485346,423.424745 C444.485346,422.320175 445.380776,421.424745 446.485346,421.424745 L462.458584,421.424745 L462.458584,401.903061 C462.458584,400.798492 463.354015,399.903061 464.458584,399.903061 C465.563154,399.903061 466.458584,400.798492 466.458584,401.903061 L466.458584,421.424745 L482.57003,421.424745 L482.57003,401.903061 C482.57003,400.798492 483.465461,399.903061 484.57003,399.903061 C485.6746,399.903061 486.57003,400.798492 486.57003,401.903061 L486.57003,421.424745 L534.697404,421.424745 C535.801974,421.424745 536.697404,422.320175 536.697404,423.424745 C536.697404,424.529314 535.801974,425.424745 534.697404,425.424745 L486.57003,425.424745 L486.57003,475.756949 C487.108306,476.447474 487.187712,477.474116 486.57003,478.241331 L486.57003,615 C486.57003,616.104569 485.6746,617 484.57003,617 C483.465461,617 482.57003,616.104569 482.57003,615 L482.57003,608.917593 C482.389381,608.971212 482.198052,609 482,609 L466.458584,609 L466.458584,615 C466.458584,616.104569 465.563154,617 464.458584,617 C463.354015,617 462.458584,616.104569 462.458584,615 L462.458584,608.278423 C461.887306,607.579328 461.797897,606.512175 462.458584,605.724525 L462.458584,590.278423 C461.887306,589.579328 461.797897,588.512175 462.458584,587.724525 L462.458584,572.929321 C461.051438,572.547871 460.461083,570.71049 461.585786,569.585786 L462.458584,568.712989 L462.458584,553.275453 C461.946094,552.651689 461.813218,551.730693 462.30072,550.945274 L462.458584,550.690937 L462.458584,524.276424 C461.905528,523.601707 461.79839,522.581849 462.414752,521.780578 L462.458584,521.723596 L462.458584,498.278912 C461.886265,497.578155 461.798827,496.507891 462.458584,495.723909 L462.458584,478.276112 C461.890159,477.579243 461.799207,476.517524 462.458584,475.726829 L462.458584,459.045518 C461.886889,458.343407 461.802134,457.271902 462.458584,456.492714 L462.458584,441.646251 C461.882909,440.939977 461.808003,439.860806 462.458584,439.090766 Z M466.458584,601.712989 L477.171573,591 L466.458584,591 L466.458584,601.712989 Z M466.458584,583.712989 L477.171573,573 L466.458584,573 L466.458584,583.712989 Z M466.458584,564.712989 L477.171573,554 L466.458584,554 L466.458584,564.712989 Z M466.458584,544.246492 L478.404683,525 L466.458584,525 L466.458584,544.246492 Z M466.458584,516.523596 L479.938274,499 L466.458584,499 L466.458584,516.523596 Z M466.458584,491.896586 L480,479 L466.458584,479 L466.458584,491.896586 Z M466.458584,471.512622 L477.623803,459.767857 L466.458584,459.767857 L466.458584,471.512622 Z M466.458584,452.85956 L477.351049,443.038543 L466.458584,442.492931 L466.458584,452.85956 Z M466.458584,435.767356 L479.076645,425.424745 L466.458584,425.424745 L466.458584,435.767356 Z M482.57003,427.73334 L469.277125,438.629099 L482.384695,439.285668 C482.447741,439.288826 482.509536,439.294628 482.57003,439.302935 L482.57003,427.73334 Z M482.57003,443.718757 L469.206403,455.767857 L482.284639,455.767857 C482.382491,455.767857 482.477694,455.77438 482.57003,455.786919 L482.57003,443.718757 Z M482.57003,460.370414 L468.662341,475 L482.57003,475 L482.57003,460.370414 Z M482.57003,482.076162 L469,495 L482.57003,495 L482.57003,482.076162 Z M482.57003,502.139205 L468.061726,521 L482,521 C482.200839,521 482.391672,521.028255 482.57003,521.080326 L482.57003,502.139205 Z M482.57003,525.874073 L467.595317,550 L482,550 C482.202063,550 482.392687,550.027705 482.57003,550.078668 L482.57003,525.874073 Z M482.57003,554.258397 L467.828427,569 L482,569 C482.202063,569 482.392687,569.027705 482.57003,569.078668 L482.57003,554.258397 Z M482.57003,573.258397 L468.828427,587 L482,587 C482.202063,587 482.392687,587.027705 482.57003,587.078668 L482.57003,573.258397 Z M482.57003,591.258397 L468.828427,605 L482,605 C482.198052,605 482.389381,605.028788 482.57003,605.082407 L482.57003,591.258397 Z M187.926205,386.960459 L276.599398,386.960459 C277.703967,386.960459 278.599398,386.065029 278.599398,384.960459 C278.599398,383.85589 277.703967,382.960459 276.599398,382.960459 L187.926205,382.960459 C186.821635,382.960459 185.926205,383.85589 185.926205,384.960459 C185.926205,386.065029 186.821635,386.960459 187.926205,386.960459 Z M70,419.014031 L276.599398,419.014031 C277.703967,419.014031 278.599398,418.1186 278.599398,417.014031 C278.599398,415.909461 277.703967,415.014031 276.599398,415.014031 L70,415.014031 C68.8954305,415.014031 68,415.909461 68,417.014031 C68,418.1186 68.8954305,419.014031 70,419.014031 Z M512.80914,120.915816 L676.542922,120.915816 C677.647491,120.915816 678.542922,120.020386 678.542922,118.915816 C678.542922,117.811247 677.647491,116.915816 676.542922,116.915816 L512.80914,116.915816 C511.704571,116.915816 510.80914,117.811247 510.80914,118.915816 C510.80914,120.020386 511.704571,120.915816 512.80914,120.915816 Z"/>
  </g>
</svg>
