<svg width="36" height="32" viewBox="0 0 36 32" fill="none" xmlns="http://www.w3.org/2000/svg">
<path d="M13.0341 16.8438C11.8438 15.5383 10.3079 14.7448 8.61836 14.7448C5.46976 14.7448 2.82035 17.5094 2.0396 21.2467C1.79641 22.4115 2.70513 23.5122 3.89545 23.5122H9.56549" stroke="white" stroke-width="2.5" stroke-miterlimit="10" stroke-linecap="round"/>
<path d="M12.4149 11.2639C12.5674 9.17721 10.9994 7.36195 8.91273 7.20941C6.82602 7.05688 5.01075 8.62483 4.85822 10.7115C4.70568 12.7983 6.27365 14.6135 8.36036 14.7661C10.4471 14.9186 12.2623 13.3506 12.4149 11.2639Z" stroke="white" stroke-width="2.5" stroke-miterlimit="10" stroke-linecap="round"/>
<path d="M26.4729 23.5245H32.1045C33.2949 23.5245 34.2036 22.4238 33.9604 21.2591C33.1797 17.5089 30.5302 14.7571 27.3816 14.7571C25.6921 14.7571 24.1434 15.5506 22.9531 16.8561" stroke="white" stroke-width="2.5" stroke-miterlimit="10" stroke-linecap="round"/>
<path d="M31.1766 11.2616C31.3291 9.17489 29.7612 7.35963 27.6745 7.20709C25.5877 7.05456 23.7725 8.62251 23.6199 10.7092C23.4674 12.7959 25.0354 14.6112 27.1221 14.7637C29.2088 14.9163 31.0241 13.3483 31.1766 11.2616Z" stroke="white" stroke-width="2.5" stroke-miterlimit="10" stroke-linecap="round"/>
<path d="M24.0431 26.443C25.6046 26.443 26.7821 25.0095 26.4749 23.4864C25.4638 18.5971 22.008 15.0005 17.8866 15.0005C13.7653 15.0005 10.3095 18.5971 9.29838 23.4864C8.9784 25.0095 10.1687 26.443 11.7302 26.443H24.0431Z" stroke="white" stroke-width="2.5" stroke-miterlimit="10" stroke-linecap="round"/>
<path d="M17.8858 15.0006C20.6143 15.0006 22.8263 12.7887 22.8263 10.0601C22.8263 7.33156 20.6143 5.11963 17.8858 5.11963C15.1572 5.11963 12.9453 7.33156 12.9453 10.0601C12.9453 12.7887 15.1572 15.0006 17.8858 15.0006Z" stroke="white" stroke-width="2.5" stroke-miterlimit="10" stroke-linecap="round"/>
</svg>
