<svg width="44" height="42" viewBox="0 0 44 42" fill="none" xmlns="http://www.w3.org/2000/svg">
<path d="M39.2733 40.4H4.72667C3.22 40.4 2 38.9305 2 37.1237V5.28432C2 3.46951 3.22 2 4.72667 2H39.2733C40.78 2 42 3.46951 42 5.28432V37.1237C42 38.9305 40.78 40.4 39.2733 40.4Z" stroke="white" stroke-width="3" stroke-miterlimit="10" stroke-linecap="round" stroke-linejoin="round"/>
<path d="M2 11.5996L42 11.5996" stroke="white" stroke-width="3" stroke-miterlimit="10"/>
<path d="M7.8693 7.34712C7.8693 7.22818 7.96572 7.13175 8.08467 7.13175C8.20362 7.13175 8.30005 7.22818 8.30005 7.34712C8.30005 7.46607 8.20362 7.5625 8.08467 7.5625C7.96572 7.5625 7.8693 7.46607 7.8693 7.34712Z" fill="white" stroke="white" stroke-width="3"/>
<path d="M11.4347 7.34712C11.4347 7.22818 11.5312 7.13175 11.6501 7.13175C11.7691 7.13175 11.8655 7.22818 11.8655 7.34712C11.8655 7.46607 11.7691 7.5625 11.6501 7.5625C11.5312 7.5625 11.4347 7.46607 11.4347 7.34712Z" fill="white" stroke="white" stroke-width="3"/>
<path d="M15.0099 7.34712C15.0099 7.22818 15.1064 7.13175 15.2253 7.13175C15.3442 7.13175 15.4407 7.22818 15.4407 7.34712C15.4407 7.46607 15.3442 7.5625 15.2253 7.5625C15.1064 7.5625 15.0099 7.46607 15.0099 7.34712Z" fill="white" stroke="white" stroke-width="3"/>
<path d="M8.01406 18.454C8.01474 18.4543 8.01542 18.4546 8.0161 18.4549L8.01406 18.454ZM8.01406 18.454C8.01319 18.4536 8.01232 18.4532 8.01144 18.4528L8.01406 18.454L8.01406 18.454Z" fill="#5D8DFD" stroke="white" stroke-width="3"/>
<mask id="path-7-inside-1" fill="white">
<path d="M27.86 29.3623H19.3092C18.8997 29.3623 18.5625 29.6995 18.5625 30.109C18.5625 30.5185 18.8997 30.8557 19.3092 30.8557H27.86C28.2694 30.8557 28.6067 30.5185 28.6067 30.109C28.6067 29.6995 28.2694 29.3623 27.86 29.3623Z"/>
</mask>
<path d="M27.86 29.3623H19.3092C18.8997 29.3623 18.5625 29.6995 18.5625 30.109C18.5625 30.5185 18.8997 30.8557 19.3092 30.8557H27.86C28.2694 30.8557 28.6067 30.5185 28.6067 30.109C28.6067 29.6995 28.2694 29.3623 27.86 29.3623Z" fill="#5D8DFD"/>
<path d="M27.86 26.3623H19.3092V32.3623H27.86V26.3623ZM19.3092 26.3623C17.2429 26.3623 15.5625 28.0426 15.5625 30.109H21.5625C21.5625 31.3564 20.5566 32.3623 19.3092 32.3623V26.3623ZM15.5625 30.109C15.5625 32.1753 17.2429 33.8557 19.3092 33.8557V27.8557C20.5566 27.8557 21.5625 28.8616 21.5625 30.109H15.5625ZM19.3092 33.8557H27.86V27.8557H19.3092V33.8557ZM27.86 33.8557C29.9263 33.8557 31.6067 32.1753 31.6067 30.109H25.6067C25.6067 28.8616 26.6126 27.8557 27.86 27.8557V33.8557ZM31.6067 30.109C31.6067 28.0426 29.9263 26.3623 27.86 26.3623V32.3623C26.6126 32.3623 25.6067 31.3564 25.6067 30.109H31.6067Z" fill="white" mask="url(#path-7-inside-1)"/>
</svg>
