<svg width="54" height="54" viewBox="0 0 54 54" fill="none" xmlns="http://www.w3.org/2000/svg">
<path d="M50.8 27.48C51.56 26.4 52 25.1 52 23.68C52 20.04 49.04 17.08 45.4 17.08C44.72 17.08 44.06 17.18 43.44 17.38C43.44 17.32 43.44 17.26 43.44 17.22C43.44 12.62 39.7 8.88 35.1 8.88C33.56 8.88 32.1 9.3 30.86 10.04C30.06 5.48 26.06 2 21.26 2C15.86 2 11.48 6.38 11.48 11.78C11.48 12.44 11.54 13.1 11.68 13.72C11.24 13.64 10.8 13.6 10.34 13.6C5.74 13.6 2 17.34 2 21.94C2 24.64 3.3 27.06 5.28 28.58" stroke="#175DFD" stroke-width="3.5" stroke-miterlimit="10" stroke-linecap="round" stroke-linejoin="round"/>
<path d="M21.8413 40.4202C20.4013 38.8402 18.5413 37.8802 16.5013 37.8802C12.7013 37.8802 9.50132 41.2202 8.56132 45.7402C8.26132 47.1402 9.36132 48.4802 10.8013 48.4802H17.6413" stroke="#9AB8FE" stroke-width="3.5" stroke-miterlimit="10" stroke-linecap="round"/>
<path d="M21.0699 33.6326C21.2489 31.1205 19.3576 28.9389 16.8455 28.7598C14.3333 28.5807 12.1517 30.4721 11.9727 32.9842C11.7936 35.4963 13.6849 37.6779 16.197 37.857C18.7092 38.0361 20.8908 36.1447 21.0699 33.6326Z" stroke="#9AB8FE" stroke-width="3.5" stroke-miterlimit="10" stroke-linecap="round"/>
<path d="M38.0603 48.4602H44.8603C46.3003 48.4602 47.4003 47.1402 47.1003 45.7202C46.1603 41.2002 42.9603 37.8602 39.1603 37.8602C37.1203 37.8602 35.2603 38.8202 33.8203 40.4002" stroke="#9AB8FE" stroke-width="3.5" stroke-miterlimit="10" stroke-linecap="round"/>
<path d="M43.7144 33.6373C43.8934 31.1252 42.0021 28.9435 39.49 28.7645C36.9779 28.5854 34.7962 30.4768 34.6172 32.9889C34.4381 35.501 36.3294 37.6826 38.8416 37.8617C41.3537 38.0408 43.5353 36.1494 43.7144 33.6373Z" stroke="#9AB8FE" stroke-width="3.5" stroke-miterlimit="10" stroke-linecap="round"/>
<path d="M35.1225 52.0001C37.0025 52.0001 38.4425 50.2801 38.0625 48.4401C36.8425 42.5401 32.6625 38.2001 27.7025 38.2001C22.7425 38.2001 18.5625 42.5401 17.3425 48.4401C16.9425 50.2801 18.3825 52.0001 20.2625 52.0001H35.1225Z" stroke="#175DFD" stroke-width="3.5" stroke-miterlimit="10" stroke-linecap="round"/>
<path d="M27.7022 38.1802C30.9938 38.1802 33.6622 35.5118 33.6622 32.2202C33.6622 28.9285 30.9938 26.2602 27.7022 26.2602C24.4106 26.2602 21.7422 28.9285 21.7422 32.2202C21.7422 35.5118 24.4106 38.1802 27.7022 38.1802Z" stroke="#175DFD" stroke-width="3.5" stroke-miterlimit="10" stroke-linecap="round"/>
</svg>
