<svg width="44" height="44" viewBox="0 0 44 44" fill="none" xmlns="http://www.w3.org/2000/svg">
<path d="M25.1159 9.88379H38.0028C40.2093 9.88379 42 11.7007 42 13.9393V28.7178C42 30.9564 40.2093 32.7733 38.0028 32.7733H34.1495V42.0037L22.6856 32.7733H10.8219C8.61545 32.7733 6.82471 30.9564 6.82471 28.7178V24.0133" stroke="#175DFD" stroke-width="3" stroke-miterlimit="10" stroke-linecap="round" stroke-linejoin="round"/>
<path d="M35.1617 19.5197H20.3401C19.5727 19.5197 18.9651 18.887 18.9651 18.1246C18.9651 17.3459 19.5887 16.7295 20.3401 16.7295H35.1617C35.9292 16.7295 36.5368 17.3622 36.5368 18.1246C36.5368 18.9033 35.9132 19.5197 35.1617 19.5197Z" fill="#9AB8FE"/>
<path d="M26.8651 26.301H15.9927C15.2252 26.301 14.6177 25.6683 14.6177 24.9059C14.6177 24.1272 15.2412 23.5107 15.9927 23.5107H26.8811C27.6485 23.5107 28.2561 24.1434 28.2561 24.9059C28.2401 25.6845 27.6325 26.301 26.8651 26.301Z" fill="#9AB8FE"/>
<path d="M33.7982 26.301H30.3606C29.5932 26.301 28.9856 25.6683 28.9856 24.9059C28.9856 24.1272 29.6092 23.5107 30.3606 23.5107H33.7982C34.5657 23.5107 35.1733 24.1434 35.1733 24.9059C35.1733 25.6845 34.5657 26.301 33.7982 26.301Z" fill="#9AB8FE"/>
<path d="M10.6499 19.5524C15.4272 19.5524 19.2999 15.6232 19.2999 10.7762C19.2999 5.92924 15.4272 2 10.6499 2C5.8727 2 2 5.92924 2 10.7762C2 15.6232 5.8727 19.5524 10.6499 19.5524Z" stroke="#175DFD" stroke-width="3" stroke-miterlimit="10" stroke-linecap="round" stroke-linejoin="round"/>
<path d="M12.0269 6.88339V11.2634C12.0269 12.042 11.4034 12.6585 10.6519 12.6585C9.88443 12.6585 9.27686 12.0258 9.27686 11.2634V6.88339C9.27686 6.10473 9.90042 5.48828 10.6519 5.48828C11.4194 5.48828 12.0269 6.10473 12.0269 6.88339Z" fill="#9AB8FE"/>
<path d="M10.6483 16.0649C11.4166 16.0649 12.0394 15.433 12.0394 14.6535C12.0394 13.8741 11.4166 13.2422 10.6483 13.2422C9.88011 13.2422 9.25732 13.8741 9.25732 14.6535C9.25732 15.433 9.88011 16.0649 10.6483 16.0649Z" fill="#9AB8FE"/>
</svg>
