<svg width="52" height="52" viewBox="0 0 52 52" fill="none" xmlns="http://www.w3.org/2000/svg">
<path d="M28.9339 14.7938L28.8637 16.3109C28.8461 16.604 29.0218 16.8626 29.2853 16.9833L31.2178 17.7936C31.4814 17.897 31.78 17.8453 31.9908 17.6557L32.9747 16.7075C33.2733 16.4316 33.7301 16.4489 34.0112 16.7419L36.1721 19.2073C36.4181 19.4832 36.4005 19.8969 36.137 20.1555L34.8721 21.4141C34.6788 21.6037 34.6085 21.914 34.714 22.1726L35.4518 23.9484C35.5573 24.1898 35.8032 24.3622 36.0667 24.3794L37.3317 24.4311C37.7182 24.4484 38.0168 24.7759 37.9993 25.1552L37.8763 28.0688C37.8587 28.4481 37.5249 28.7412 37.1384 28.724L35.8208 28.6723C35.5221 28.655 35.241 28.8447 35.1356 29.1205L34.3802 31.1031C34.2923 31.3445 34.3275 31.6031 34.5031 31.7928L35.5397 33.0168C35.7856 33.3099 35.7505 33.7582 35.4343 33.9995L32.8341 36.0339C32.5355 36.2752 32.0963 36.2235 31.8503 35.9477L31.0246 34.9822C30.8489 34.7753 30.5502 34.6891 30.2867 34.7753L28.442 35.327C28.1609 35.4132 27.9501 35.6718 27.9325 35.9649L27.8623 37.3441C27.8447 37.7234 27.5109 38.0165 27.1244 37.9993L23.8039 37.8614C23.4174 37.8441 23.1188 37.5165 23.1363 37.1373L23.2066 35.758C23.2242 35.4649 23.0485 35.1891 22.7674 35.0857L20.9754 34.3788C20.7119 34.2754 20.4132 34.3271 20.22 34.534L19.3064 35.4132C19.0429 35.6718 18.6037 35.6718 18.3226 35.4132L15.9157 33.1547C15.6346 32.8789 15.617 32.4479 15.8981 32.172L17.0401 31.0514C17.2158 30.879 17.286 30.6204 17.2158 30.379L16.636 28.3447C16.5482 28.0516 16.2846 27.8447 15.986 27.8447L14.6683 27.793C14.2818 27.7758 13.9832 27.4482 14.0007 27.0689L14.1237 24.1553C14.1413 23.776 14.4751 23.4829 14.8616 23.5002L16.1265 23.5519C16.4076 23.5691 16.6536 23.4139 16.7941 23.1726L17.6901 21.4658C17.8131 21.2244 17.7955 20.9141 17.6023 20.7072L16.4428 19.3452C16.2144 19.0694 16.2319 18.6556 16.4955 18.397L18.8672 16.1385C19.1659 15.8627 19.6402 15.8799 19.9037 16.1902L20.7997 17.2247C20.993 17.4316 21.2916 17.5178 21.5552 17.4316L23.5404 16.7937C23.8215 16.7075 24.0148 16.4489 24.0323 16.173L24.1026 14.6559C24.1202 14.2766 24.454 13.9835 24.8405 14.0007L28.3015 14.1559C28.6353 14.0869 28.9515 14.3973 28.9339 14.7938Z" stroke="#5D8DFD" stroke-width="3"/>
<circle cx="26" cy="26" r="4" stroke="#5D8DFD" stroke-width="3"/>
<path d="M6.18555 23.4115C6.58875 14.7133 11.7535 6.68741 19.9135 3.44852C30.8767 -0.931108 43.1071 4.95593 47.2159 16.5874" stroke="#175DFD" stroke-width="3" stroke-miterlimit="10" stroke-linecap="round"/>
<path d="M11.6 19.2355L6.30079 23.8596L2 18.3188" stroke="#175DFD" stroke-width="3" stroke-miterlimit="10" stroke-linecap="round" stroke-linejoin="round"/>
<path d="M45.7573 28.4429C45.4117 37.141 40.2853 45.2077 32.1445 48.5077C21.2005 52.9484 8.95089 47.1429 4.74609 35.5318" stroke="#175DFD" stroke-width="3" stroke-miterlimit="10" stroke-linecap="round"/>
<path d="M40.3809 32.6594L45.6417 27.9946L50.0001 33.515" stroke="#175DFD" stroke-width="3" stroke-miterlimit="10" stroke-linecap="round" stroke-linejoin="round"/>
</svg>
